<?xml version="1.0" encoding="utf-8" standalone="no"?>
<!DOCTYPE svg PUBLIC "-//W3C//DTD SVG 1.1//EN"
  "http://www.w3.org/Graphics/SVG/1.1/DTD/svg11.dtd">
<svg xmlns:xlink="http://www.w3.org/1999/xlink" width="720pt" height="432pt" viewBox="0 0 720 432" xmlns="http://www.w3.org/2000/svg" version="1.1">
 <metadata>
  <rdf:RDF xmlns:dc="http://purl.org/dc/elements/1.1/" xmlns:cc="http://creativecommons.org/ns#" xmlns:rdf="http://www.w3.org/1999/02/22-rdf-syntax-ns#">
   <cc:Work>
    <dc:type rdf:resource="http://purl.org/dc/dcmitype/StillImage"/>
    <dc:date>2025-05-28T07:38:58.531663</dc:date>
    <dc:format>image/svg+xml</dc:format>
    <dc:creator>
     <cc:Agent>
      <dc:title>Matplotlib v3.9.2, https://matplotlib.org/</dc:title>
     </cc:Agent>
    </dc:creator>
   </cc:Work>
  </rdf:RDF>
 </metadata>
 <defs>
  <style type="text/css">*{stroke-linejoin: round; stroke-linecap: butt}</style>
 </defs>
 <g id="figure_1">
  <g id="patch_1">
   <path d="M 0 432 
L 720 432 
L 720 0 
L 0 0 
z
" style="fill: #ffffff"/>
  </g>
  <g id="axes_1">
   <g id="patch_2">
    <path d="M 221.16 384.48 
L 516.84 384.48 
L 516.84 51.84 
L 221.16 51.84 
z
" style="fill: #ffffff"/>
   </g>
   <g id="QuadMesh_1">
    <path d="M 221.16 51.84 
L 258.12 51.84 
L 258.12 88.8 
L 221.16 88.8 
L 221.16 51.84 
" clip-path="url(#pc747417b93)" style="fill: #ffffff; stroke: #ffffff"/>
    <path d="M 258.12 51.84 
L 295.08 51.84 
L 295.08 88.8 
L 258.12 88.8 
L 258.12 51.84 
" clip-path="url(#pc747417b93)" style="stroke: #ffffff"/>
    <path d="M 295.08 51.84 
L 332.04 51.84 
L 332.04 88.8 
L 295.08 88.8 
L 295.08 51.84 
" clip-path="url(#pc747417b93)" style="stroke: #ffffff"/>
    <path d="M 332.04 51.84 
L 369 51.84 
L 369 88.8 
L 332.04 88.8 
L 332.04 51.84 
" clip-path="url(#pc747417b93)" style="stroke: #ffffff"/>
    <path d="M 369 51.84 
L 405.96 51.84 
L 405.96 88.8 
L 369 88.8 
L 369 51.84 
" clip-path="url(#pc747417b93)" style="stroke: #ffffff"/>
    <path d="M 405.96 51.84 
L 442.92 51.84 
L 442.92 88.8 
L 405.96 88.8 
L 405.96 51.84 
" clip-path="url(#pc747417b93)" style="stroke: #ffffff"/>
    <path d="M 442.92 51.84 
L 479.88 51.84 
L 479.88 88.8 
L 442.92 88.8 
L 442.92 51.84 
" clip-path="url(#pc747417b93)" style="fill: #ffffff; stroke: #ffffff"/>
    <path d="M 479.88 51.84 
L 516.84 51.84 
L 516.84 88.8 
L 479.88 88.8 
L 479.88 51.84 
" clip-path="url(#pc747417b93)" style="fill: #ffffff; stroke: #ffffff"/>
    <path d="M 221.16 88.8 
L 258.12 88.8 
L 258.12 125.76 
L 221.16 125.76 
L 221.16 88.8 
" clip-path="url(#pc747417b93)" style="stroke: #ffffff"/>
    <path d="M 258.12 88.8 
L 295.08 88.8 
L 295.08 125.76 
L 258.12 125.76 
L 258.12 88.8 
" clip-path="url(#pc747417b93)" style="stroke: #ffffff"/>
    <path d="M 295.08 88.8 
L 332.04 88.8 
L 332.04 125.76 
L 295.08 125.76 
L 295.08 88.8 
" clip-path="url(#pc747417b93)" style="stroke: #ffffff"/>
    <path d="M 332.04 88.8 
L 369 88.8 
L 369 125.76 
L 332.04 125.76 
L 332.04 88.8 
" clip-path="url(#pc747417b93)" style="stroke: #ffffff"/>
    <path d="M 369 88.8 
L 405.96 88.8 
L 405.96 125.76 
L 369 125.76 
L 369 88.8 
" clip-path="url(#pc747417b93)" style="stroke: #ffffff"/>
    <path d="M 405.96 88.8 
L 442.92 88.8 
L 442.92 125.76 
L 405.96 125.76 
L 405.96 88.8 
" clip-path="url(#pc747417b93)" style="stroke: #ffffff"/>
    <path d="M 442.92 88.8 
L 479.88 88.8 
L 479.88 125.76 
L 442.92 125.76 
L 442.92 88.8 
" clip-path="url(#pc747417b93)" style="fill: #ffffff; stroke: #ffffff"/>
    <path d="M 479.88 88.8 
L 516.84 88.8 
L 516.84 125.76 
L 479.88 125.76 
L 479.88 88.8 
" clip-path="url(#pc747417b93)" style="fill: #ffffff; stroke: #ffffff"/>
    <path d="M 221.16 125.76 
L 258.12 125.76 
L 258.12 162.72 
L 221.16 162.72 
L 221.16 125.76 
" clip-path="url(#pc747417b93)" style="fill: #ffffff; stroke: #ffffff"/>
    <path d="M 258.12 125.76 
L 295.08 125.76 
L 295.08 162.72 
L 258.12 162.72 
L 258.12 125.76 
" clip-path="url(#pc747417b93)" style="fill: #ffffff; stroke: #ffffff"/>
    <path d="M 295.08 125.76 
L 332.04 125.76 
L 332.04 162.72 
L 295.08 162.72 
L 295.08 125.76 
" clip-path="url(#pc747417b93)" style="fill: #ffffff; stroke: #ffffff"/>
    <path d="M 332.04 125.76 
L 369 125.76 
L 369 162.72 
L 332.04 162.72 
L 332.04 125.76 
" clip-path="url(#pc747417b93)" style="fill: #ffffff; stroke: #ffffff"/>
    <path d="M 369 125.76 
L 405.96 125.76 
L 405.96 162.72 
L 369 162.72 
L 369 125.76 
" clip-path="url(#pc747417b93)" style="stroke: #ffffff"/>
    <path d="M 405.96 125.76 
L 442.92 125.76 
L 442.92 162.72 
L 405.96 162.72 
L 405.96 125.76 
" clip-path="url(#pc747417b93)" style="stroke: #ffffff"/>
    <path d="M 442.92 125.76 
L 479.88 125.76 
L 479.88 162.72 
L 442.92 162.72 
L 442.92 125.76 
" clip-path="url(#pc747417b93)" style="fill: #ffffff; stroke: #ffffff"/>
    <path d="M 479.88 125.76 
L 516.84 125.76 
L 516.84 162.72 
L 479.88 162.72 
L 479.88 125.76 
" clip-path="url(#pc747417b93)" style="fill: #ffffff; stroke: #ffffff"/>
    <path d="M 221.16 162.72 
L 258.12 162.72 
L 258.12 199.68 
L 221.16 199.68 
L 221.16 162.72 
" clip-path="url(#pc747417b93)" style="fill: #ffffff; stroke: #ffffff"/>
    <path d="M 258.12 162.72 
L 295.08 162.72 
L 295.08 199.68 
L 258.12 199.68 
L 258.12 162.72 
" clip-path="url(#pc747417b93)" style="fill: #ffffff; stroke: #ffffff"/>
    <path d="M 295.08 162.72 
L 332.04 162.72 
L 332.04 199.68 
L 295.08 199.68 
L 295.08 162.72 
" clip-path="url(#pc747417b93)" style="stroke: #ffffff"/>
    <path d="M 332.04 162.72 
L 369 162.72 
L 369 199.68 
L 332.04 199.68 
L 332.04 162.72 
" clip-path="url(#pc747417b93)" style="stroke: #ffffff"/>
    <path d="M 369 162.72 
L 405.96 162.72 
L 405.96 199.68 
L 369 199.68 
L 369 162.72 
" clip-path="url(#pc747417b93)" style="stroke: #ffffff"/>
    <path d="M 405.96 162.72 
L 442.92 162.72 
L 442.92 199.68 
L 405.96 199.68 
L 405.96 162.72 
" clip-path="url(#pc747417b93)" style="stroke: #ffffff"/>
    <path d="M 442.92 162.72 
L 479.88 162.72 
L 479.88 199.68 
L 442.92 199.68 
L 442.92 162.72 
" clip-path="url(#pc747417b93)" style="fill: #ffffff; stroke: #ffffff"/>
    <path d="M 479.88 162.72 
L 516.84 162.72 
L 516.84 199.68 
L 479.88 199.68 
L 479.88 162.72 
" clip-path="url(#pc747417b93)" style="fill: #ffffff; stroke: #ffffff"/>
    <path d="M 221.16 199.68 
L 258.12 199.68 
L 258.12 236.64 
L 221.16 236.64 
L 221.16 199.68 
" clip-path="url(#pc747417b93)" style="fill: #ffffff; stroke: #ffffff"/>
    <path d="M 258.12 199.68 
L 295.08 199.68 
L 295.08 236.64 
L 258.12 236.64 
L 258.12 199.68 
" clip-path="url(#pc747417b93)" style="fill: #ffffff; stroke: #ffffff"/>
    <path d="M 295.08 199.68 
L 332.04 199.68 
L 332.04 236.64 
L 295.08 236.64 
L 295.08 199.68 
" clip-path="url(#pc747417b93)" style="stroke: #ffffff"/>
    <path d="M 332.04 199.68 
L 369 199.68 
L 369 236.64 
L 332.04 236.64 
L 332.04 199.68 
" clip-path="url(#pc747417b93)" style="stroke: #ffffff"/>
    <path d="M 369 199.68 
L 405.96 199.68 
L 405.96 236.64 
L 369 236.64 
L 369 199.68 
" clip-path="url(#pc747417b93)" style="stroke: #ffffff"/>
    <path d="M 405.96 199.68 
L 442.92 199.68 
L 442.92 236.64 
L 405.96 236.64 
L 405.96 199.68 
" clip-path="url(#pc747417b93)" style="stroke: #ffffff"/>
    <path d="M 442.92 199.68 
L 479.88 199.68 
L 479.88 236.64 
L 442.92 236.64 
L 442.92 199.68 
" clip-path="url(#pc747417b93)" style="fill: #ffffff; stroke: #ffffff"/>
    <path d="M 479.88 199.68 
L 516.84 199.68 
L 516.84 236.64 
L 479.88 236.64 
L 479.88 199.68 
" clip-path="url(#pc747417b93)" style="fill: #ffffff; stroke: #ffffff"/>
    <path d="M 221.16 236.64 
L 258.12 236.64 
L 258.12 273.6 
L 221.16 273.6 
L 221.16 236.64 
" clip-path="url(#pc747417b93)" style="fill: #ffffff; stroke: #ffffff"/>
    <path d="M 258.12 236.64 
L 295.08 236.64 
L 295.08 273.6 
L 258.12 273.6 
L 258.12 236.64 
" clip-path="url(#pc747417b93)" style="fill: #ffffff; stroke: #ffffff"/>
    <path d="M 295.08 236.64 
L 332.04 236.64 
L 332.04 273.6 
L 295.08 273.6 
L 295.08 236.64 
" clip-path="url(#pc747417b93)" style="stroke: #ffffff"/>
    <path d="M 332.04 236.64 
L 369 236.64 
L 369 273.6 
L 332.04 273.6 
L 332.04 236.64 
" clip-path="url(#pc747417b93)" style="stroke: #ffffff"/>
    <path d="M 369 236.64 
L 405.96 236.64 
L 405.96 273.6 
L 369 273.6 
L 369 236.64 
" clip-path="url(#pc747417b93)" style="stroke: #ffffff"/>
    <path d="M 405.96 236.64 
L 442.92 236.64 
L 442.92 273.6 
L 405.96 273.6 
L 405.96 236.64 
" clip-path="url(#pc747417b93)" style="stroke: #ffffff"/>
    <path d="M 442.92 236.64 
L 479.88 236.64 
L 479.88 273.6 
L 442.92 273.6 
L 442.92 236.64 
" clip-path="url(#pc747417b93)" style="fill: #ffffff; stroke: #ffffff"/>
    <path d="M 479.88 236.64 
L 516.84 236.64 
L 516.84 273.6 
L 479.88 273.6 
L 479.88 236.64 
" clip-path="url(#pc747417b93)" style="fill: #ffffff; stroke: #ffffff"/>
    <path d="M 221.16 273.6 
L 258.12 273.6 
L 258.12 310.56 
L 221.16 310.56 
L 221.16 273.6 
" clip-path="url(#pc747417b93)" style="fill: #ffffff; stroke: #ffffff"/>
    <path d="M 258.12 273.6 
L 295.08 273.6 
L 295.08 310.56 
L 258.12 310.56 
L 258.12 273.6 
" clip-path="url(#pc747417b93)" style="fill: #ffffff; stroke: #ffffff"/>
    <path d="M 295.08 273.6 
L 332.04 273.6 
L 332.04 310.56 
L 295.08 310.56 
L 295.08 273.6 
" clip-path="url(#pc747417b93)" style="stroke: #ffffff"/>
    <path d="M 332.04 273.6 
L 369 273.6 
L 369 310.56 
L 332.04 310.56 
L 332.04 273.6 
" clip-path="url(#pc747417b93)" style="stroke: #ffffff"/>
    <path d="M 369 273.6 
L 405.96 273.6 
L 405.96 310.56 
L 369 310.56 
L 369 273.6 
" clip-path="url(#pc747417b93)" style="stroke: #ffffff"/>
    <path d="M 405.96 273.6 
L 442.92 273.6 
L 442.92 310.56 
L 405.96 310.56 
L 405.96 273.6 
" clip-path="url(#pc747417b93)" style="stroke: #ffffff"/>
    <path d="M 442.92 273.6 
L 479.88 273.6 
L 479.88 310.56 
L 442.92 310.56 
L 442.92 273.6 
" clip-path="url(#pc747417b93)" style="stroke: #ffffff"/>
    <path d="M 479.88 273.6 
L 516.84 273.6 
L 516.84 310.56 
L 479.88 310.56 
L 479.88 273.6 
" clip-path="url(#pc747417b93)" style="fill: #ffffff; stroke: #ffffff"/>
    <path d="M 221.16 310.56 
L 258.12 310.56 
L 258.12 347.52 
L 221.16 347.52 
L 221.16 310.56 
" clip-path="url(#pc747417b93)" style="stroke: #ffffff"/>
    <path d="M 258.12 310.56 
L 295.08 310.56 
L 295.08 347.52 
L 258.12 347.52 
L 258.12 310.56 
" clip-path="url(#pc747417b93)" style="stroke: #ffffff"/>
    <path d="M 295.08 310.56 
L 332.04 310.56 
L 332.04 347.52 
L 295.08 347.52 
L 295.08 310.56 
" clip-path="url(#pc747417b93)" style="stroke: #ffffff"/>
    <path d="M 332.04 310.56 
L 369 310.56 
L 369 347.52 
L 332.04 347.52 
L 332.04 310.56 
" clip-path="url(#pc747417b93)" style="stroke: #ffffff"/>
    <path d="M 369 310.56 
L 405.96 310.56 
L 405.96 347.52 
L 369 347.52 
L 369 310.56 
" clip-path="url(#pc747417b93)" style="stroke: #ffffff"/>
    <path d="M 405.96 310.56 
L 442.92 310.56 
L 442.92 347.52 
L 405.96 347.52 
L 405.96 310.56 
" clip-path="url(#pc747417b93)" style="stroke: #ffffff"/>
    <path d="M 442.92 310.56 
L 479.88 310.56 
L 479.88 347.52 
L 442.92 347.52 
L 442.92 310.56 
" clip-path="url(#pc747417b93)" style="stroke: #ffffff"/>
    <path d="M 479.88 310.56 
L 516.84 310.56 
L 516.84 347.52 
L 479.88 347.52 
L 479.88 310.56 
" clip-path="url(#pc747417b93)" style="fill: #ffffff; stroke: #ffffff"/>
    <path d="M 221.16 347.52 
L 258.12 347.52 
L 258.12 384.48 
L 221.16 384.48 
L 221.16 347.52 
" clip-path="url(#pc747417b93)" style="fill: #ffffff; stroke: #ffffff"/>
    <path d="M 258.12 347.52 
L 295.08 347.52 
L 295.08 384.48 
L 258.12 384.48 
L 258.12 347.52 
" clip-path="url(#pc747417b93)" style="fill: #ffffff; stroke: #ffffff"/>
    <path d="M 295.08 347.52 
L 332.04 347.52 
L 332.04 384.48 
L 295.08 384.48 
L 295.08 347.52 
" clip-path="url(#pc747417b93)" style="stroke: #ffffff"/>
    <path d="M 332.04 347.52 
L 369 347.52 
L 369 384.48 
L 332.04 384.48 
L 332.04 347.52 
" clip-path="url(#pc747417b93)" style="stroke: #ffffff"/>
    <path d="M 369 347.52 
L 405.96 347.52 
L 405.96 384.48 
L 369 384.48 
L 369 347.52 
" clip-path="url(#pc747417b93)" style="stroke: #ffffff"/>
    <path d="M 405.96 347.52 
L 442.92 347.52 
L 442.92 384.48 
L 405.96 384.48 
L 405.96 347.52 
" clip-path="url(#pc747417b93)" style="stroke: #ffffff"/>
    <path d="M 442.92 347.52 
L 479.88 347.52 
L 479.88 384.48 
L 442.92 384.48 
L 442.92 347.52 
" clip-path="url(#pc747417b93)" style="stroke: #ffffff"/>
    <path d="M 479.88 347.52 
L 516.84 347.52 
L 516.84 384.48 
L 479.88 384.48 
L 479.88 347.52 
" clip-path="url(#pc747417b93)" style="fill: #ffffff; stroke: #ffffff"/>
   </g>
   <g id="matplotlib.axis_1">
    <g id="xtick_1">
     <g id="line2d_1">
      <defs>
       <path id="mdb20c9e188" d="M 0 0 
L 0 3.5 
" style="stroke: #000000; stroke-width: 0.8"/>
      </defs>
      <g>
       <use xlink:href="#mdb20c9e188" x="239.64" y="384.48" style="stroke: #000000; stroke-width: 0.8"/>
      </g>
     </g>
     <g id="text_1">
      <!-- BP4_VS -->
      <g transform="translate(211.49715 423.203683) rotate(-45) scale(0.1 -0.1)">
       <defs>
        <path id="DejaVuSans-42" d="M 1259 2228 
L 1259 519 
L 2272 519 
Q 2781 519 3026 730 
Q 3272 941 3272 1375 
Q 3272 1813 3026 2020 
Q 2781 2228 2272 2228 
L 1259 2228 
z
M 1259 4147 
L 1259 2741 
L 2194 2741 
Q 2656 2741 2882 2914 
Q 3109 3088 3109 3444 
Q 3109 3797 2882 3972 
Q 2656 4147 2194 4147 
L 1259 4147 
z
M 628 4666 
L 2241 4666 
Q 2963 4666 3353 4366 
Q 3744 4066 3744 3513 
Q 3744 3084 3544 2831 
Q 3344 2578 2956 2516 
Q 3422 2416 3680 2098 
Q 3938 1781 3938 1306 
Q 3938 681 3513 340 
Q 3088 0 2303 0 
L 628 0 
L 628 4666 
z
" transform="scale(0.015625)"/>
        <path id="DejaVuSans-50" d="M 1259 4147 
L 1259 2394 
L 2053 2394 
Q 2494 2394 2734 2622 
Q 2975 2850 2975 3272 
Q 2975 3691 2734 3919 
Q 2494 4147 2053 4147 
L 1259 4147 
z
M 628 4666 
L 2053 4666 
Q 2838 4666 3239 4311 
Q 3641 3956 3641 3272 
Q 3641 2581 3239 2228 
Q 2838 1875 2053 1875 
L 1259 1875 
L 1259 0 
L 628 0 
L 628 4666 
z
" transform="scale(0.015625)"/>
        <path id="DejaVuSans-34" d="M 2419 4116 
L 825 1625 
L 2419 1625 
L 2419 4116 
z
M 2253 4666 
L 3047 4666 
L 3047 1625 
L 3713 1625 
L 3713 1100 
L 3047 1100 
L 3047 0 
L 2419 0 
L 2419 1100 
L 313 1100 
L 313 1709 
L 2253 4666 
z
" transform="scale(0.015625)"/>
        <path id="DejaVuSans-5f" d="M 3263 -1063 
L 3263 -1509 
L -63 -1509 
L -63 -1063 
L 3263 -1063 
z
" transform="scale(0.015625)"/>
        <path id="DejaVuSans-56" d="M 1831 0 
L 50 4666 
L 709 4666 
L 2188 738 
L 3669 4666 
L 4325 4666 
L 2547 0 
L 1831 0 
z
" transform="scale(0.015625)"/>
        <path id="DejaVuSans-53" d="M 3425 4513 
L 3425 3897 
Q 3066 4069 2747 4153 
Q 2428 4238 2131 4238 
Q 1616 4238 1336 4038 
Q 1056 3838 1056 3469 
Q 1056 3159 1242 3001 
Q 1428 2844 1947 2747 
L 2328 2669 
Q 3034 2534 3370 2195 
Q 3706 1856 3706 1288 
Q 3706 609 3251 259 
Q 2797 -91 1919 -91 
Q 1588 -91 1214 -16 
Q 841 59 441 206 
L 441 856 
Q 825 641 1194 531 
Q 1563 422 1919 422 
Q 2459 422 2753 634 
Q 3047 847 3047 1241 
Q 3047 1584 2836 1778 
Q 2625 1972 2144 2069 
L 1759 2144 
Q 1053 2284 737 2584 
Q 422 2884 422 3419 
Q 422 4038 858 4394 
Q 1294 4750 2059 4750 
Q 2388 4750 2728 4690 
Q 3069 4631 3425 4513 
z
" transform="scale(0.015625)"/>
       </defs>
       <use xlink:href="#DejaVuSans-42"/>
       <use xlink:href="#DejaVuSans-50" x="68.603516"/>
       <use xlink:href="#DejaVuSans-34" x="128.90625"/>
       <use xlink:href="#DejaVuSans-5f" x="192.529297"/>
       <use xlink:href="#DejaVuSans-56" x="242.529297"/>
       <use xlink:href="#DejaVuSans-53" x="310.9375"/>
      </g>
     </g>
    </g>
    <g id="xtick_2">
     <g id="line2d_2">
      <g>
       <use xlink:href="#mdb20c9e188" x="276.6" y="384.48" style="stroke: #000000; stroke-width: 0.8"/>
      </g>
     </g>
     <g id="text_2">
      <!-- BP4_STR -->
      <g transform="translate(244.06204 427.598793) rotate(-45) scale(0.1 -0.1)">
       <defs>
        <path id="DejaVuSans-54" d="M -19 4666 
L 3928 4666 
L 3928 4134 
L 2272 4134 
L 2272 0 
L 1638 0 
L 1638 4134 
L -19 4134 
L -19 4666 
z
" transform="scale(0.015625)"/>
        <path id="DejaVuSans-52" d="M 2841 2188 
Q 3044 2119 3236 1894 
Q 3428 1669 3622 1275 
L 4263 0 
L 3584 0 
L 2988 1197 
Q 2756 1666 2539 1819 
Q 2322 1972 1947 1972 
L 1259 1972 
L 1259 0 
L 628 0 
L 628 4666 
L 2053 4666 
Q 2853 4666 3247 4331 
Q 3641 3997 3641 3322 
Q 3641 2881 3436 2590 
Q 3231 2300 2841 2188 
z
M 1259 4147 
L 1259 2491 
L 2053 2491 
Q 2509 2491 2742 2702 
Q 2975 2913 2975 3322 
Q 2975 3731 2742 3939 
Q 2509 4147 2053 4147 
L 1259 4147 
z
" transform="scale(0.015625)"/>
       </defs>
       <use xlink:href="#DejaVuSans-42"/>
       <use xlink:href="#DejaVuSans-50" x="68.603516"/>
       <use xlink:href="#DejaVuSans-34" x="128.90625"/>
       <use xlink:href="#DejaVuSans-5f" x="192.529297"/>
       <use xlink:href="#DejaVuSans-53" x="242.529297"/>
       <use xlink:href="#DejaVuSans-54" x="306.005859"/>
       <use xlink:href="#DejaVuSans-52" x="367.089844"/>
      </g>
     </g>
    </g>
    <g id="xtick_3">
     <g id="line2d_3">
      <g>
       <use xlink:href="#mdb20c9e188" x="313.56" y="384.48" style="stroke: #000000; stroke-width: 0.8"/>
      </g>
     </g>
     <g id="text_3">
      <!-- BP4_MOD -->
      <g transform="translate(277.631242 430.989591) rotate(-45) scale(0.1 -0.1)">
       <defs>
        <path id="DejaVuSans-4d" d="M 628 4666 
L 1569 4666 
L 2759 1491 
L 3956 4666 
L 4897 4666 
L 4897 0 
L 4281 0 
L 4281 4097 
L 3078 897 
L 2444 897 
L 1241 4097 
L 1241 0 
L 628 0 
L 628 4666 
z
" transform="scale(0.015625)"/>
        <path id="DejaVuSans-4f" d="M 2522 4238 
Q 1834 4238 1429 3725 
Q 1025 3213 1025 2328 
Q 1025 1447 1429 934 
Q 1834 422 2522 422 
Q 3209 422 3611 934 
Q 4013 1447 4013 2328 
Q 4013 3213 3611 3725 
Q 3209 4238 2522 4238 
z
M 2522 4750 
Q 3503 4750 4090 4092 
Q 4678 3434 4678 2328 
Q 4678 1225 4090 567 
Q 3503 -91 2522 -91 
Q 1538 -91 948 565 
Q 359 1222 359 2328 
Q 359 3434 948 4092 
Q 1538 4750 2522 4750 
z
" transform="scale(0.015625)"/>
        <path id="DejaVuSans-44" d="M 1259 4147 
L 1259 519 
L 2022 519 
Q 2988 519 3436 956 
Q 3884 1394 3884 2338 
Q 3884 3275 3436 3711 
Q 2988 4147 2022 4147 
L 1259 4147 
z
M 628 4666 
L 1925 4666 
Q 3281 4666 3915 4102 
Q 4550 3538 4550 2338 
Q 4550 1131 3912 565 
Q 3275 0 1925 0 
L 628 0 
L 628 4666 
z
" transform="scale(0.015625)"/>
       </defs>
       <use xlink:href="#DejaVuSans-42"/>
       <use xlink:href="#DejaVuSans-50" x="68.603516"/>
       <use xlink:href="#DejaVuSans-34" x="128.90625"/>
       <use xlink:href="#DejaVuSans-5f" x="192.529297"/>
       <use xlink:href="#DejaVuSans-4d" x="242.529297"/>
       <use xlink:href="#DejaVuSans-4f" x="328.808594"/>
       <use xlink:href="#DejaVuSans-44" x="407.519531"/>
      </g>
     </g>
    </g>
    <g id="xtick_4">
     <g id="line2d_4">
      <g>
       <use xlink:href="#mdb20c9e188" x="350.52" y="384.48" style="stroke: #000000; stroke-width: 0.8"/>
      </g>
     </g>
     <g id="text_4">
      <!-- BP4_SUP -->
      <g transform="translate(317.775432 427.805401) rotate(-45) scale(0.1 -0.1)">
       <defs>
        <path id="DejaVuSans-55" d="M 556 4666 
L 1191 4666 
L 1191 1831 
Q 1191 1081 1462 751 
Q 1734 422 2344 422 
Q 2950 422 3222 751 
Q 3494 1081 3494 1831 
L 3494 4666 
L 4128 4666 
L 4128 1753 
Q 4128 841 3676 375 
Q 3225 -91 2344 -91 
Q 1459 -91 1007 375 
Q 556 841 556 1753 
L 556 4666 
z
" transform="scale(0.015625)"/>
       </defs>
       <use xlink:href="#DejaVuSans-42"/>
       <use xlink:href="#DejaVuSans-50" x="68.603516"/>
       <use xlink:href="#DejaVuSans-34" x="128.90625"/>
       <use xlink:href="#DejaVuSans-5f" x="192.529297"/>
       <use xlink:href="#DejaVuSans-53" x="242.529297"/>
       <use xlink:href="#DejaVuSans-55" x="306.005859"/>
       <use xlink:href="#DejaVuSans-50" x="379.199219"/>
      </g>
     </g>
    </g>
    <g id="xtick_5">
     <g id="line2d_5">
      <g>
       <use xlink:href="#mdb20c9e188" x="387.48" y="384.48" style="stroke: #000000; stroke-width: 0.8"/>
      </g>
     </g>
     <g id="text_5">
      <!-- PP3_SUP -->
      <g transform="translate(355.323214 427.217619) rotate(-45) scale(0.1 -0.1)">
       <defs>
        <path id="DejaVuSans-33" d="M 2597 2516 
Q 3050 2419 3304 2112 
Q 3559 1806 3559 1356 
Q 3559 666 3084 287 
Q 2609 -91 1734 -91 
Q 1441 -91 1130 -33 
Q 819 25 488 141 
L 488 750 
Q 750 597 1062 519 
Q 1375 441 1716 441 
Q 2309 441 2620 675 
Q 2931 909 2931 1356 
Q 2931 1769 2642 2001 
Q 2353 2234 1838 2234 
L 1294 2234 
L 1294 2753 
L 1863 2753 
Q 2328 2753 2575 2939 
Q 2822 3125 2822 3475 
Q 2822 3834 2567 4026 
Q 2313 4219 1838 4219 
Q 1578 4219 1281 4162 
Q 984 4106 628 3988 
L 628 4550 
Q 988 4650 1302 4700 
Q 1616 4750 1894 4750 
Q 2613 4750 3031 4423 
Q 3450 4097 3450 3541 
Q 3450 3153 3228 2886 
Q 3006 2619 2597 2516 
z
" transform="scale(0.015625)"/>
       </defs>
       <use xlink:href="#DejaVuSans-50"/>
       <use xlink:href="#DejaVuSans-50" x="60.302734"/>
       <use xlink:href="#DejaVuSans-33" x="120.605469"/>
       <use xlink:href="#DejaVuSans-5f" x="184.228516"/>
       <use xlink:href="#DejaVuSans-53" x="234.228516"/>
       <use xlink:href="#DejaVuSans-55" x="297.705078"/>
       <use xlink:href="#DejaVuSans-50" x="370.898438"/>
      </g>
     </g>
    </g>
    <g id="xtick_6">
     <g id="line2d_6">
      <g>
       <use xlink:href="#mdb20c9e188" x="424.44" y="384.48" style="stroke: #000000; stroke-width: 0.8"/>
      </g>
     </g>
     <g id="text_6">
      <!-- PP3_MOD -->
      <g transform="translate(389.099024 430.401809) rotate(-45) scale(0.1 -0.1)">
       <use xlink:href="#DejaVuSans-50"/>
       <use xlink:href="#DejaVuSans-50" x="60.302734"/>
       <use xlink:href="#DejaVuSans-33" x="120.605469"/>
       <use xlink:href="#DejaVuSans-5f" x="184.228516"/>
       <use xlink:href="#DejaVuSans-4d" x="234.228516"/>
       <use xlink:href="#DejaVuSans-4f" x="320.507812"/>
       <use xlink:href="#DejaVuSans-44" x="399.21875"/>
      </g>
     </g>
    </g>
    <g id="xtick_7">
     <g id="line2d_7">
      <g>
       <use xlink:href="#mdb20c9e188" x="461.4" y="384.48" style="stroke: #000000; stroke-width: 0.8"/>
      </g>
     </g>
     <g id="text_7">
      <!-- PP3_STR -->
      <g transform="translate(429.449822 427.011011) rotate(-45) scale(0.1 -0.1)">
       <use xlink:href="#DejaVuSans-50"/>
       <use xlink:href="#DejaVuSans-50" x="60.302734"/>
       <use xlink:href="#DejaVuSans-33" x="120.605469"/>
       <use xlink:href="#DejaVuSans-5f" x="184.228516"/>
       <use xlink:href="#DejaVuSans-53" x="234.228516"/>
       <use xlink:href="#DejaVuSans-54" x="297.705078"/>
       <use xlink:href="#DejaVuSans-52" x="358.789062"/>
      </g>
     </g>
    </g>
    <g id="xtick_8">
     <g id="line2d_8">
      <g>
       <use xlink:href="#mdb20c9e188" x="498.36" y="384.48" style="stroke: #000000; stroke-width: 0.8"/>
      </g>
     </g>
     <g id="text_8">
      <!-- PP3_VS -->
      <g transform="translate(470.804933 422.6159) rotate(-45) scale(0.1 -0.1)">
       <use xlink:href="#DejaVuSans-50"/>
       <use xlink:href="#DejaVuSans-50" x="60.302734"/>
       <use xlink:href="#DejaVuSans-33" x="120.605469"/>
       <use xlink:href="#DejaVuSans-5f" x="184.228516"/>
       <use xlink:href="#DejaVuSans-56" x="234.228516"/>
       <use xlink:href="#DejaVuSans-53" x="302.636719"/>
      </g>
     </g>
    </g>
   </g>
   <g id="matplotlib.axis_2">
    <g id="ytick_1">
     <g id="line2d_9">
      <defs>
       <path id="m14f3ecb10d" d="M 0 0 
L -3.5 0 
" style="stroke: #000000; stroke-width: 0.8"/>
      </defs>
      <g>
       <use xlink:href="#m14f3ecb10d" x="221.16" y="70.32" style="stroke: #000000; stroke-width: 0.8"/>
      </g>
     </g>
     <g id="text_9">
      <!-- CADD -->
      <g transform="translate(184.936563 73.079375) scale(0.1 -0.1)">
       <defs>
        <path id="DejaVuSans-43" d="M 4122 4306 
L 4122 3641 
Q 3803 3938 3442 4084 
Q 3081 4231 2675 4231 
Q 1875 4231 1450 3742 
Q 1025 3253 1025 2328 
Q 1025 1406 1450 917 
Q 1875 428 2675 428 
Q 3081 428 3442 575 
Q 3803 722 4122 1019 
L 4122 359 
Q 3791 134 3420 21 
Q 3050 -91 2638 -91 
Q 1578 -91 968 557 
Q 359 1206 359 2328 
Q 359 3453 968 4101 
Q 1578 4750 2638 4750 
Q 3056 4750 3426 4639 
Q 3797 4528 4122 4306 
z
" transform="scale(0.015625)"/>
        <path id="DejaVuSans-41" d="M 2188 4044 
L 1331 1722 
L 3047 1722 
L 2188 4044 
z
M 1831 4666 
L 2547 4666 
L 4325 0 
L 3669 0 
L 3244 1197 
L 1141 1197 
L 716 0 
L 50 0 
L 1831 4666 
z
" transform="scale(0.015625)"/>
       </defs>
       <use xlink:href="#DejaVuSans-43"/>
       <use xlink:href="#DejaVuSans-41" x="69.824219"/>
       <use xlink:href="#DejaVuSans-44" x="138.232422"/>
       <use xlink:href="#DejaVuSans-44" x="215.234375"/>
      </g>
     </g>
    </g>
    <g id="ytick_2">
     <g id="line2d_10">
      <g>
       <use xlink:href="#m14f3ecb10d" x="221.16" y="107.28" style="stroke: #000000; stroke-width: 0.8"/>
      </g>
     </g>
     <g id="text_10">
      <!-- MetaRNN -->
      <g transform="translate(167.419375 110.039375) scale(0.1 -0.1)">
       <defs>
        <path id="DejaVuSans-65" d="M 3597 1894 
L 3597 1613 
L 953 1613 
Q 991 1019 1311 708 
Q 1631 397 2203 397 
Q 2534 397 2845 478 
Q 3156 559 3463 722 
L 3463 178 
Q 3153 47 2828 -22 
Q 2503 -91 2169 -91 
Q 1331 -91 842 396 
Q 353 884 353 1716 
Q 353 2575 817 3079 
Q 1281 3584 2069 3584 
Q 2775 3584 3186 3129 
Q 3597 2675 3597 1894 
z
M 3022 2063 
Q 3016 2534 2758 2815 
Q 2500 3097 2075 3097 
Q 1594 3097 1305 2825 
Q 1016 2553 972 2059 
L 3022 2063 
z
" transform="scale(0.015625)"/>
        <path id="DejaVuSans-74" d="M 1172 4494 
L 1172 3500 
L 2356 3500 
L 2356 3053 
L 1172 3053 
L 1172 1153 
Q 1172 725 1289 603 
Q 1406 481 1766 481 
L 2356 481 
L 2356 0 
L 1766 0 
Q 1100 0 847 248 
Q 594 497 594 1153 
L 594 3053 
L 172 3053 
L 172 3500 
L 594 3500 
L 594 4494 
L 1172 4494 
z
" transform="scale(0.015625)"/>
        <path id="DejaVuSans-61" d="M 2194 1759 
Q 1497 1759 1228 1600 
Q 959 1441 959 1056 
Q 959 750 1161 570 
Q 1363 391 1709 391 
Q 2188 391 2477 730 
Q 2766 1069 2766 1631 
L 2766 1759 
L 2194 1759 
z
M 3341 1997 
L 3341 0 
L 2766 0 
L 2766 531 
Q 2569 213 2275 61 
Q 1981 -91 1556 -91 
Q 1019 -91 701 211 
Q 384 513 384 1019 
Q 384 1609 779 1909 
Q 1175 2209 1959 2209 
L 2766 2209 
L 2766 2266 
Q 2766 2663 2505 2880 
Q 2244 3097 1772 3097 
Q 1472 3097 1187 3025 
Q 903 2953 641 2809 
L 641 3341 
Q 956 3463 1253 3523 
Q 1550 3584 1831 3584 
Q 2591 3584 2966 3190 
Q 3341 2797 3341 1997 
z
" transform="scale(0.015625)"/>
        <path id="DejaVuSans-4e" d="M 628 4666 
L 1478 4666 
L 3547 763 
L 3547 4666 
L 4159 4666 
L 4159 0 
L 3309 0 
L 1241 3903 
L 1241 0 
L 628 0 
L 628 4666 
z
" transform="scale(0.015625)"/>
       </defs>
       <use xlink:href="#DejaVuSans-4d"/>
       <use xlink:href="#DejaVuSans-65" x="86.279297"/>
       <use xlink:href="#DejaVuSans-74" x="147.802734"/>
       <use xlink:href="#DejaVuSans-61" x="187.011719"/>
       <use xlink:href="#DejaVuSans-52" x="248.291016"/>
       <use xlink:href="#DejaVuSans-4e" x="317.773438"/>
       <use xlink:href="#DejaVuSans-4e" x="392.578125"/>
      </g>
     </g>
    </g>
    <g id="ytick_3">
     <g id="line2d_11">
      <g>
       <use xlink:href="#m14f3ecb10d" x="221.16" y="144.24" style="stroke: #000000; stroke-width: 0.8"/>
      </g>
     </g>
     <g id="text_11">
      <!-- Envision -->
      <g transform="translate(172.363125 146.999375) scale(0.1 -0.1)">
       <defs>
        <path id="DejaVuSans-45" d="M 628 4666 
L 3578 4666 
L 3578 4134 
L 1259 4134 
L 1259 2753 
L 3481 2753 
L 3481 2222 
L 1259 2222 
L 1259 531 
L 3634 531 
L 3634 0 
L 628 0 
L 628 4666 
z
" transform="scale(0.015625)"/>
        <path id="DejaVuSans-6e" d="M 3513 2113 
L 3513 0 
L 2938 0 
L 2938 2094 
Q 2938 2591 2744 2837 
Q 2550 3084 2163 3084 
Q 1697 3084 1428 2787 
Q 1159 2491 1159 1978 
L 1159 0 
L 581 0 
L 581 3500 
L 1159 3500 
L 1159 2956 
Q 1366 3272 1645 3428 
Q 1925 3584 2291 3584 
Q 2894 3584 3203 3211 
Q 3513 2838 3513 2113 
z
" transform="scale(0.015625)"/>
        <path id="DejaVuSans-76" d="M 191 3500 
L 800 3500 
L 1894 563 
L 2988 3500 
L 3597 3500 
L 2284 0 
L 1503 0 
L 191 3500 
z
" transform="scale(0.015625)"/>
        <path id="DejaVuSans-69" d="M 603 3500 
L 1178 3500 
L 1178 0 
L 603 0 
L 603 3500 
z
M 603 4863 
L 1178 4863 
L 1178 4134 
L 603 4134 
L 603 4863 
z
" transform="scale(0.015625)"/>
        <path id="DejaVuSans-73" d="M 2834 3397 
L 2834 2853 
Q 2591 2978 2328 3040 
Q 2066 3103 1784 3103 
Q 1356 3103 1142 2972 
Q 928 2841 928 2578 
Q 928 2378 1081 2264 
Q 1234 2150 1697 2047 
L 1894 2003 
Q 2506 1872 2764 1633 
Q 3022 1394 3022 966 
Q 3022 478 2636 193 
Q 2250 -91 1575 -91 
Q 1294 -91 989 -36 
Q 684 19 347 128 
L 347 722 
Q 666 556 975 473 
Q 1284 391 1588 391 
Q 1994 391 2212 530 
Q 2431 669 2431 922 
Q 2431 1156 2273 1281 
Q 2116 1406 1581 1522 
L 1381 1569 
Q 847 1681 609 1914 
Q 372 2147 372 2553 
Q 372 3047 722 3315 
Q 1072 3584 1716 3584 
Q 2034 3584 2315 3537 
Q 2597 3491 2834 3397 
z
" transform="scale(0.015625)"/>
        <path id="DejaVuSans-6f" d="M 1959 3097 
Q 1497 3097 1228 2736 
Q 959 2375 959 1747 
Q 959 1119 1226 758 
Q 1494 397 1959 397 
Q 2419 397 2687 759 
Q 2956 1122 2956 1747 
Q 2956 2369 2687 2733 
Q 2419 3097 1959 3097 
z
M 1959 3584 
Q 2709 3584 3137 3096 
Q 3566 2609 3566 1747 
Q 3566 888 3137 398 
Q 2709 -91 1959 -91 
Q 1206 -91 779 398 
Q 353 888 353 1747 
Q 353 2609 779 3096 
Q 1206 3584 1959 3584 
z
" transform="scale(0.015625)"/>
       </defs>
       <use xlink:href="#DejaVuSans-45"/>
       <use xlink:href="#DejaVuSans-6e" x="63.183594"/>
       <use xlink:href="#DejaVuSans-76" x="126.5625"/>
       <use xlink:href="#DejaVuSans-69" x="185.742188"/>
       <use xlink:href="#DejaVuSans-73" x="213.525391"/>
       <use xlink:href="#DejaVuSans-69" x="265.625"/>
       <use xlink:href="#DejaVuSans-6f" x="293.408203"/>
       <use xlink:href="#DejaVuSans-6e" x="354.589844"/>
      </g>
     </g>
    </g>
    <g id="ytick_4">
     <g id="line2d_12">
      <g>
       <use xlink:href="#m14f3ecb10d" x="221.16" y="181.2" style="stroke: #000000; stroke-width: 0.8"/>
      </g>
     </g>
     <g id="text_12">
      <!-- QAFI -->
      <g transform="translate(190.745938 183.959375) scale(0.1 -0.1)">
       <defs>
        <path id="DejaVuSans-51" d="M 2522 4238 
Q 1834 4238 1429 3725 
Q 1025 3213 1025 2328 
Q 1025 1447 1429 934 
Q 1834 422 2522 422 
Q 3209 422 3611 934 
Q 4013 1447 4013 2328 
Q 4013 3213 3611 3725 
Q 3209 4238 2522 4238 
z
M 3406 84 
L 4238 -825 
L 3475 -825 
L 2784 -78 
Q 2681 -84 2626 -87 
Q 2572 -91 2522 -91 
Q 1538 -91 948 567 
Q 359 1225 359 2328 
Q 359 3434 948 4092 
Q 1538 4750 2522 4750 
Q 3503 4750 4090 4092 
Q 4678 3434 4678 2328 
Q 4678 1516 4351 937 
Q 4025 359 3406 84 
z
" transform="scale(0.015625)"/>
        <path id="DejaVuSans-46" d="M 628 4666 
L 3309 4666 
L 3309 4134 
L 1259 4134 
L 1259 2759 
L 3109 2759 
L 3109 2228 
L 1259 2228 
L 1259 0 
L 628 0 
L 628 4666 
z
" transform="scale(0.015625)"/>
        <path id="DejaVuSans-49" d="M 628 4666 
L 1259 4666 
L 1259 0 
L 628 0 
L 628 4666 
z
" transform="scale(0.015625)"/>
       </defs>
       <use xlink:href="#DejaVuSans-51"/>
       <use xlink:href="#DejaVuSans-41" x="78.710938"/>
       <use xlink:href="#DejaVuSans-46" x="147.119141"/>
       <use xlink:href="#DejaVuSans-49" x="204.638672"/>
      </g>
     </g>
    </g>
    <g id="ytick_5">
     <g id="line2d_13">
      <g>
       <use xlink:href="#m14f3ecb10d" x="221.16" y="218.16" style="stroke: #000000; stroke-width: 0.8"/>
      </g>
     </g>
     <g id="text_13">
      <!-- EVE -->
      <g transform="translate(194.681875 220.919375) scale(0.1 -0.1)">
       <use xlink:href="#DejaVuSans-45"/>
       <use xlink:href="#DejaVuSans-56" x="63.183594"/>
       <use xlink:href="#DejaVuSans-45" x="131.591797"/>
      </g>
     </g>
    </g>
    <g id="ytick_6">
     <g id="line2d_14">
      <g>
       <use xlink:href="#m14f3ecb10d" x="221.16" y="255.12" style="stroke: #000000; stroke-width: 0.8"/>
      </g>
     </g>
     <g id="text_14">
      <!-- AlphaMissense -->
      <g transform="translate(140.049063 257.879375) scale(0.1 -0.1)">
       <defs>
        <path id="DejaVuSans-6c" d="M 603 4863 
L 1178 4863 
L 1178 0 
L 603 0 
L 603 4863 
z
" transform="scale(0.015625)"/>
        <path id="DejaVuSans-70" d="M 1159 525 
L 1159 -1331 
L 581 -1331 
L 581 3500 
L 1159 3500 
L 1159 2969 
Q 1341 3281 1617 3432 
Q 1894 3584 2278 3584 
Q 2916 3584 3314 3078 
Q 3713 2572 3713 1747 
Q 3713 922 3314 415 
Q 2916 -91 2278 -91 
Q 1894 -91 1617 61 
Q 1341 213 1159 525 
z
M 3116 1747 
Q 3116 2381 2855 2742 
Q 2594 3103 2138 3103 
Q 1681 3103 1420 2742 
Q 1159 2381 1159 1747 
Q 1159 1113 1420 752 
Q 1681 391 2138 391 
Q 2594 391 2855 752 
Q 3116 1113 3116 1747 
z
" transform="scale(0.015625)"/>
        <path id="DejaVuSans-68" d="M 3513 2113 
L 3513 0 
L 2938 0 
L 2938 2094 
Q 2938 2591 2744 2837 
Q 2550 3084 2163 3084 
Q 1697 3084 1428 2787 
Q 1159 2491 1159 1978 
L 1159 0 
L 581 0 
L 581 4863 
L 1159 4863 
L 1159 2956 
Q 1366 3272 1645 3428 
Q 1925 3584 2291 3584 
Q 2894 3584 3203 3211 
Q 3513 2838 3513 2113 
z
" transform="scale(0.015625)"/>
       </defs>
       <use xlink:href="#DejaVuSans-41"/>
       <use xlink:href="#DejaVuSans-6c" x="68.408203"/>
       <use xlink:href="#DejaVuSans-70" x="96.191406"/>
       <use xlink:href="#DejaVuSans-68" x="159.667969"/>
       <use xlink:href="#DejaVuSans-61" x="223.046875"/>
       <use xlink:href="#DejaVuSans-4d" x="284.326172"/>
       <use xlink:href="#DejaVuSans-69" x="370.605469"/>
       <use xlink:href="#DejaVuSans-73" x="398.388672"/>
       <use xlink:href="#DejaVuSans-73" x="450.488281"/>
       <use xlink:href="#DejaVuSans-65" x="502.587891"/>
       <use xlink:href="#DejaVuSans-6e" x="564.111328"/>
       <use xlink:href="#DejaVuSans-73" x="627.490234"/>
       <use xlink:href="#DejaVuSans-65" x="679.589844"/>
      </g>
     </g>
    </g>
    <g id="ytick_7">
     <g id="line2d_15">
      <g>
       <use xlink:href="#m14f3ecb10d" x="221.16" y="292.08" style="stroke: #000000; stroke-width: 0.8"/>
      </g>
     </g>
     <g id="text_15">
      <!-- BayesDel -->
      <g transform="translate(167.258438 294.839375) scale(0.1 -0.1)">
       <defs>
        <path id="DejaVuSans-79" d="M 2059 -325 
Q 1816 -950 1584 -1140 
Q 1353 -1331 966 -1331 
L 506 -1331 
L 506 -850 
L 844 -850 
Q 1081 -850 1212 -737 
Q 1344 -625 1503 -206 
L 1606 56 
L 191 3500 
L 800 3500 
L 1894 763 
L 2988 3500 
L 3597 3500 
L 2059 -325 
z
" transform="scale(0.015625)"/>
       </defs>
       <use xlink:href="#DejaVuSans-42"/>
       <use xlink:href="#DejaVuSans-61" x="68.603516"/>
       <use xlink:href="#DejaVuSans-79" x="129.882812"/>
       <use xlink:href="#DejaVuSans-65" x="189.0625"/>
       <use xlink:href="#DejaVuSans-73" x="250.585938"/>
       <use xlink:href="#DejaVuSans-44" x="302.685547"/>
       <use xlink:href="#DejaVuSans-65" x="379.6875"/>
       <use xlink:href="#DejaVuSans-6c" x="441.210938"/>
      </g>
     </g>
    </g>
    <g id="ytick_8">
     <g id="line2d_16">
      <g>
       <use xlink:href="#m14f3ecb10d" x="221.16" y="329.04" style="stroke: #000000; stroke-width: 0.8"/>
      </g>
     </g>
     <g id="text_16">
      <!-- REVEL -->
      <g transform="translate(182.161563 331.799375) scale(0.1 -0.1)">
       <defs>
        <path id="DejaVuSans-4c" d="M 628 4666 
L 1259 4666 
L 1259 531 
L 3531 531 
L 3531 0 
L 628 0 
L 628 4666 
z
" transform="scale(0.015625)"/>
       </defs>
       <use xlink:href="#DejaVuSans-52"/>
       <use xlink:href="#DejaVuSans-45" x="69.482422"/>
       <use xlink:href="#DejaVuSans-56" x="132.666016"/>
       <use xlink:href="#DejaVuSans-45" x="201.074219"/>
       <use xlink:href="#DejaVuSans-4c" x="264.257812"/>
      </g>
     </g>
    </g>
    <g id="ytick_9">
     <g id="line2d_17">
      <g>
       <use xlink:href="#m14f3ecb10d" x="221.16" y="366" style="stroke: #000000; stroke-width: 0.8"/>
      </g>
     </g>
     <g id="text_17">
      <!-- VEST4 -->
      <g transform="translate(182.181875 368.759375) scale(0.1 -0.1)">
       <use xlink:href="#DejaVuSans-56"/>
       <use xlink:href="#DejaVuSans-45" x="68.408203"/>
       <use xlink:href="#DejaVuSans-53" x="131.591797"/>
       <use xlink:href="#DejaVuSans-54" x="195.068359"/>
       <use xlink:href="#DejaVuSans-34" x="256.152344"/>
      </g>
     </g>
    </g>
   </g>
   <g id="patch_3">
    <path d="M 221.16 384.48 
L 221.16 51.84 
" style="fill: none; stroke: #000000; stroke-width: 0.5; stroke-linejoin: miter; stroke-linecap: square"/>
   </g>
   <g id="patch_4">
    <path d="M 516.84 384.48 
L 516.84 51.84 
" style="fill: none; stroke: #000000; stroke-width: 0.5; stroke-linejoin: miter; stroke-linecap: square"/>
   </g>
   <g id="patch_5">
    <path d="M 221.16 384.48 
L 516.84 384.48 
" style="fill: none; stroke: #000000; stroke-width: 0.5; stroke-linejoin: miter; stroke-linecap: square"/>
   </g>
   <g id="patch_6">
    <path d="M 221.16 51.84 
L 516.84 51.84 
" style="fill: none; stroke: #000000; stroke-width: 0.5; stroke-linejoin: miter; stroke-linecap: square"/>
   </g>
  </g>
 </g>
 <defs>
  <clipPath id="pc747417b93">
   <rect x="221.16" y="51.84" width="295.68" height="332.64"/>
  </clipPath>
 </defs>
</svg>
