<?xml version="1.0" encoding="utf-8" standalone="no"?>
<!DOCTYPE svg PUBLIC "-//W3C//DTD SVG 1.1//EN"
  "http://www.w3.org/Graphics/SVG/1.1/DTD/svg11.dtd">
<svg xmlns:xlink="http://www.w3.org/1999/xlink" width="376.240625pt" height="199.98825pt" viewBox="0 0 376.240625 199.98825" xmlns="http://www.w3.org/2000/svg" version="1.1">
 <metadata>
  <rdf:RDF xmlns:dc="http://purl.org/dc/elements/1.1/" xmlns:cc="http://creativecommons.org/ns#" xmlns:rdf="http://www.w3.org/1999/02/22-rdf-syntax-ns#">
   <cc:Work>
    <dc:type rdf:resource="http://purl.org/dc/dcmitype/StillImage"/>
    <dc:date>2025-05-27T21:49:46.495971</dc:date>
    <dc:format>image/svg+xml</dc:format>
    <dc:creator>
     <cc:Agent>
      <dc:title>Matplotlib v3.9.2, https://matplotlib.org/</dc:title>
     </cc:Agent>
    </dc:creator>
   </cc:Work>
  </rdf:RDF>
 </metadata>
 <defs>
  <style type="text/css">*{stroke-linejoin: round; stroke-linecap: butt}</style>
 </defs>
 <g id="figure_1">
  <g id="patch_1">
   <path d="M 0 199.98825 
L 376.240625 199.98825 
L 376.240625 -0 
L 0 -0 
z
" style="fill: #ffffff"/>
  </g>
  <g id="axes_1">
   <g id="patch_2">
    <path d="M 34.240625 162.432 
L 186.422443 162.432 
L 186.422443 7.2 
L 34.240625 7.2 
z
" style="fill: #ffffff"/>
   </g>
   <g id="PolyCollection_1">
    <defs>
     <path id="m66681c9846" d="M 41.15798 -37.556636 
L 41.15798 -37.55625 
L 41.753175 -37.55625 
L 42.348371 -37.55625 
L 42.943566 -37.55625 
L 43.538761 -37.55625 
L 44.133956 -37.55625 
L 44.729151 -37.55625 
L 45.324346 -37.55625 
L 45.919541 -37.55625 
L 46.514736 -37.55625 
L 47.109931 -37.55625 
L 47.705126 -37.55625 
L 48.300322 -37.55625 
L 48.895517 -37.55625 
L 49.490712 -37.55625 
L 50.085907 -37.55625 
L 50.681102 -37.55625 
L 51.276297 -37.55625 
L 51.871492 -37.55625 
L 52.466687 -37.55625 
L 53.061882 -37.55625 
L 53.657077 -37.55625 
L 54.252273 -37.55625 
L 54.847468 -37.55625 
L 55.442663 -37.55625 
L 56.037858 -37.55625 
L 56.633053 -37.55625 
L 57.228248 -37.55625 
L 57.823443 -37.55625 
L 58.418638 -37.55625 
L 59.013833 -37.55625 
L 59.609028 -37.55625 
L 60.204224 -37.55625 
L 60.799419 -37.55625 
L 61.394614 -37.55625 
L 61.989809 -37.55625 
L 62.585004 -37.55625 
L 63.180199 -37.55625 
L 63.775394 -37.55625 
L 64.370589 -37.55625 
L 64.965784 -37.55625 
L 65.560979 -37.55625 
L 66.156175 -37.55625 
L 66.75137 -37.55625 
L 67.346565 -37.55625 
L 67.94176 -37.55625 
L 68.536955 -37.55625 
L 69.13215 -37.55625 
L 69.727345 -37.55625 
L 70.32254 -37.55625 
L 70.917735 -37.55625 
L 71.51293 -37.55625 
L 72.108126 -37.55625 
L 72.703321 -37.55625 
L 73.298516 -37.55625 
L 73.893711 -37.55625 
L 74.488906 -37.55625 
L 75.084101 -37.55625 
L 75.679296 -37.55625 
L 76.274491 -37.55625 
L 76.869686 -37.55625 
L 77.464881 -37.55625 
L 78.060076 -37.55625 
L 78.655272 -37.55625 
L 79.250467 -37.55625 
L 79.845662 -37.55625 
L 80.440857 -37.55625 
L 81.036052 -37.55625 
L 81.631247 -37.55625 
L 82.226442 -37.55625 
L 82.821637 -37.55625 
L 83.416832 -37.55625 
L 84.012027 -37.55625 
L 84.607223 -37.55625 
L 85.202418 -37.55625 
L 85.797613 -37.55625 
L 86.392808 -37.55625 
L 86.988003 -37.55625 
L 87.583198 -37.55625 
L 88.178393 -37.55625 
L 88.773588 -37.55625 
L 89.368783 -37.55625 
L 89.963978 -37.55625 
L 90.559174 -37.55625 
L 91.154369 -37.55625 
L 91.749564 -37.55625 
L 92.344759 -37.55625 
L 92.939954 -37.55625 
L 93.535149 -37.55625 
L 94.130344 -37.55625 
L 94.725539 -37.55625 
L 95.320734 -37.55625 
L 95.915929 -37.55625 
L 96.511125 -37.55625 
L 97.10632 -37.55625 
L 97.701515 -37.55625 
L 98.29671 -37.55625 
L 98.891905 -37.55625 
L 99.4871 -37.55625 
L 100.082295 -37.55625 
L 100.67749 -37.55625 
L 101.272685 -37.55625 
L 101.86788 -37.55625 
L 102.463076 -37.55625 
L 103.058271 -37.55625 
L 103.653466 -37.55625 
L 104.248661 -37.55625 
L 104.843856 -37.55625 
L 105.439051 -37.55625 
L 106.034246 -37.55625 
L 106.629441 -37.55625 
L 107.224636 -37.55625 
L 107.819831 -37.55625 
L 108.415027 -37.55625 
L 109.010222 -37.55625 
L 109.605417 -37.55625 
L 110.200612 -37.55625 
L 110.795807 -37.55625 
L 111.391002 -37.55625 
L 111.986197 -37.55625 
L 112.581392 -37.55625 
L 113.176587 -37.55625 
L 113.771782 -37.55625 
L 114.366978 -37.55625 
L 114.962173 -37.55625 
L 115.557368 -37.55625 
L 116.152563 -37.55625 
L 116.747758 -37.55625 
L 117.342953 -37.55625 
L 117.938148 -37.55625 
L 118.533343 -37.55625 
L 119.128538 -37.55625 
L 119.723733 -37.55625 
L 120.318928 -37.55625 
L 120.914124 -37.55625 
L 121.509319 -37.55625 
L 122.104514 -37.55625 
L 122.699709 -37.55625 
L 123.294904 -37.55625 
L 123.890099 -37.55625 
L 124.485294 -37.55625 
L 125.080489 -37.55625 
L 125.675684 -37.55625 
L 126.270879 -37.55625 
L 126.866075 -37.55625 
L 127.46127 -37.55625 
L 128.056465 -37.55625 
L 128.65166 -37.55625 
L 129.246855 -37.55625 
L 129.84205 -37.55625 
L 130.437245 -37.55625 
L 131.03244 -37.55625 
L 131.627635 -37.55625 
L 132.22283 -37.55625 
L 132.818026 -37.55625 
L 133.413221 -37.55625 
L 134.008416 -37.55625 
L 134.603611 -37.55625 
L 135.198806 -37.55625 
L 135.794001 -37.55625 
L 136.389196 -37.55625 
L 136.984391 -37.55625 
L 137.579586 -37.55625 
L 138.174781 -37.55625 
L 138.769977 -37.55625 
L 139.365172 -37.55625 
L 139.960367 -37.55625 
L 140.555562 -37.55625 
L 141.150757 -37.55625 
L 141.745952 -37.55625 
L 142.341147 -37.55625 
L 142.936342 -37.55625 
L 143.531537 -37.55625 
L 144.126732 -37.55625 
L 144.721928 -37.55625 
L 145.317123 -37.55625 
L 145.912318 -37.55625 
L 146.507513 -37.55625 
L 147.102708 -37.55625 
L 147.697903 -37.55625 
L 148.293098 -37.55625 
L 148.888293 -37.55625 
L 149.483488 -37.55625 
L 150.078683 -37.55625 
L 150.673879 -37.55625 
L 151.269074 -37.55625 
L 151.864269 -37.55625 
L 152.459464 -37.55625 
L 153.054659 -37.55625 
L 153.649854 -37.55625 
L 154.245049 -37.55625 
L 154.840244 -37.55625 
L 155.435439 -37.55625 
L 156.030634 -37.55625 
L 156.62583 -37.55625 
L 157.221025 -37.55625 
L 157.81622 -37.55625 
L 158.411415 -37.55625 
L 159.00661 -37.55625 
L 159.601805 -37.55625 
L 159.601805 -37.556646 
L 159.601805 -37.556646 
L 159.00661 -37.557419 
L 158.411415 -37.559257 
L 157.81622 -37.563027 
L 157.221025 -37.569707 
L 156.62583 -37.579973 
L 156.030634 -37.593742 
L 155.435439 -37.609959 
L 154.840244 -37.626755 
L 154.245049 -37.641922 
L 153.649854 -37.653664 
L 153.054659 -37.661691 
L 152.459464 -37.668296 
L 151.864269 -37.678436 
L 151.269074 -37.698014 
L 150.673879 -37.730859 
L 150.078683 -37.776149 
L 149.483488 -37.828032 
L 148.888293 -37.87785 
L 148.293098 -37.917667 
L 147.697903 -37.942908 
L 147.102708 -37.952716 
L 146.507513 -37.948441 
L 145.912318 -37.932144 
L 145.317123 -37.906542 
L 144.721928 -37.876057 
L 144.126732 -37.847258 
L 143.531537 -37.827643 
L 142.936342 -37.82347 
L 142.341147 -37.838225 
L 141.745952 -37.872441 
L 141.150757 -37.92431 
L 140.555562 -37.989923 
L 139.960367 -38.062741 
L 139.365172 -38.13342 
L 138.769977 -38.19193 
L 138.174781 -38.23226 
L 137.579586 -38.256836 
L 136.984391 -38.276793 
L 136.389196 -38.306919 
L 135.794001 -38.357779 
L 135.198806 -38.429109 
L 134.603611 -38.508124 
L 134.008416 -38.574948 
L 133.413221 -38.614162 
L 132.818026 -38.626416 
L 132.22283 -38.631404 
L 131.627635 -38.658338 
L 131.03244 -38.730198 
L 130.437245 -38.85373 
L 129.84205 -39.021707 
L 129.246855 -39.222491 
L 128.65166 -39.446616 
L 128.056465 -39.686045 
L 127.46127 -39.931549 
L 126.866075 -40.175335 
L 126.270879 -40.41834 
L 125.675684 -40.674747 
L 125.080489 -40.9682 
L 124.485294 -41.321538 
L 123.890099 -41.746984 
L 123.294904 -42.243768 
L 122.699709 -42.805386 
L 122.104514 -43.430335 
L 121.509319 -44.125373 
L 120.914124 -44.897554 
L 120.318928 -45.745507 
L 119.723733 -46.663457 
L 119.128538 -47.656395 
L 118.533343 -48.749311 
L 117.938148 -49.978007 
L 117.342953 -51.368584 
L 116.747758 -52.922583 
L 116.152563 -54.614754 
L 115.557368 -56.396618 
L 114.962173 -58.199855 
L 114.366978 -59.945801 
L 113.771782 -61.571418 
L 113.176587 -63.067143 
L 112.581392 -64.500441 
L 111.986197 -65.996387 
L 111.391002 -67.675164 
L 110.795807 -69.584833 
L 110.200612 -71.677018 
L 109.605417 -73.839434 
L 109.010222 -75.953973 
L 108.415027 -77.937067 
L 107.819831 -79.747948 
L 107.224636 -81.383931 
L 106.629441 -82.884914 
L 106.034246 -84.345499 
L 105.439051 -85.911981 
L 104.843856 -87.744196 
L 104.248661 -89.948405 
L 103.653466 -92.518471 
L 103.058271 -95.330544 
L 102.463076 -98.204531 
L 101.86788 -100.993483 
L 101.272685 -103.6367 
L 100.67749 -106.143321 
L 100.082295 -108.535341 
L 99.4871 -110.810807 
L 98.891905 -112.955773 
L 98.29671 -114.976042 
L 97.701515 -116.905688 
L 97.10632 -118.789623 
L 96.511125 -120.670487 
L 95.915929 -122.59208 
L 95.320734 -124.59874 
L 94.725539 -126.717182 
L 94.130344 -128.942669 
L 93.535149 -131.259025 
L 92.939954 -133.685503 
L 92.344759 -136.304769 
L 91.749564 -139.232081 
L 91.154369 -142.537219 
L 90.559174 -146.179889 
L 89.963978 -150.013632 
L 89.368783 -153.855346 
L 88.773588 -157.567379 
L 88.178393 -161.102729 
L 87.583198 -164.499938 
L 86.988003 -167.83751 
L 86.392808 -171.164644 
L 85.797613 -174.439301 
L 85.202418 -177.516813 
L 84.607223 -180.207682 
L 84.012027 -182.366575 
L 83.416832 -183.942221 
L 82.821637 -184.95002 
L 82.226442 -185.39625 
L 81.631247 -185.21922 
L 81.036052 -184.289642 
L 80.440857 -182.46256 
L 79.845662 -179.645502 
L 79.250467 -175.851315 
L 78.655272 -171.213114 
L 78.060076 -165.942979 
L 77.464881 -160.238307 
L 76.869686 -154.185233 
L 76.274491 -147.731957 
L 75.679296 -140.762131 
L 75.084101 -133.217178 
L 74.488906 -125.177372 
L 73.893711 -116.853887 
L 73.298516 -108.518612 
L 72.703321 -100.430429 
L 72.108126 -92.792227 
L 71.51293 -85.737246 
L 70.917735 -79.331791 
L 70.32254 -73.587167 
L 69.727345 -68.477732 
L 69.13215 -63.960044 
L 68.536955 -59.986121 
L 67.94176 -56.50699 
L 67.346565 -53.470587 
L 66.75137 -50.823314 
L 66.156175 -48.519509 
L 65.560979 -46.531741 
L 64.965784 -44.850493 
L 64.370589 -43.470426 
L 63.775394 -42.37311 
L 63.180199 -41.519749 
L 62.585004 -40.858578 
L 61.989809 -40.339229 
L 61.394614 -39.922513 
L 60.799419 -39.581188 
L 60.204224 -39.295896 
L 59.609028 -39.051717 
L 59.013833 -38.836698 
L 58.418638 -38.641558 
L 57.823443 -38.460481 
L 57.228248 -38.292494 
L 56.633053 -38.141266 
L 56.037858 -38.011976 
L 55.442663 -37.907305 
L 54.847468 -37.825834 
L 54.252273 -37.763429 
L 53.657077 -37.715384 
L 53.061882 -37.677549 
L 52.466687 -37.646688 
L 51.871492 -37.620821 
L 51.276297 -37.599398 
L 50.681102 -37.582821 
L 50.085907 -37.571567 
L 49.490712 -37.565632 
L 48.895517 -37.564571 
L 48.300322 -37.567698 
L 47.705126 -37.573973 
L 47.109931 -37.581622 
L 46.514736 -37.588122 
L 45.919541 -37.591001 
L 45.324346 -37.589064 
L 44.729151 -37.583074 
L 44.133956 -37.57523 
L 43.538761 -37.567875 
L 42.943566 -37.562413 
L 42.348371 -37.559078 
L 41.753175 -37.557373 
L 41.15798 -37.556636 
z
" style="stroke: #1f77b4"/>
    </defs>
    <g clip-path="url(#p264e2bcd04)">
     <use xlink:href="#m66681c9846" x="0" y="199.98825" style="fill: #1f77b4; fill-opacity: 0.6; stroke: #1f77b4"/>
    </g>
   </g>
   <g id="PolyCollection_2">
    <defs>
     <path id="m364eba248f" d="M 43.848026 -37.556758 
L 43.848026 -37.55625 
L 44.52972 -37.55625 
L 45.211413 -37.55625 
L 45.893107 -37.55625 
L 46.574801 -37.55625 
L 47.256495 -37.55625 
L 47.938189 -37.55625 
L 48.619882 -37.55625 
L 49.301576 -37.55625 
L 49.98327 -37.55625 
L 50.664964 -37.55625 
L 51.346657 -37.55625 
L 52.028351 -37.55625 
L 52.710045 -37.55625 
L 53.391739 -37.55625 
L 54.073433 -37.55625 
L 54.755126 -37.55625 
L 55.43682 -37.55625 
L 56.118514 -37.55625 
L 56.800208 -37.55625 
L 57.481901 -37.55625 
L 58.163595 -37.55625 
L 58.845289 -37.55625 
L 59.526983 -37.55625 
L 60.208677 -37.55625 
L 60.89037 -37.55625 
L 61.572064 -37.55625 
L 62.253758 -37.55625 
L 62.935452 -37.55625 
L 63.617145 -37.55625 
L 64.298839 -37.55625 
L 64.980533 -37.55625 
L 65.662227 -37.55625 
L 66.343921 -37.55625 
L 67.025614 -37.55625 
L 67.707308 -37.55625 
L 68.389002 -37.55625 
L 69.070696 -37.55625 
L 69.752389 -37.55625 
L 70.434083 -37.55625 
L 71.115777 -37.55625 
L 71.797471 -37.55625 
L 72.479165 -37.55625 
L 73.160858 -37.55625 
L 73.842552 -37.55625 
L 74.524246 -37.55625 
L 75.20594 -37.55625 
L 75.887633 -37.55625 
L 76.569327 -37.55625 
L 77.251021 -37.55625 
L 77.932715 -37.55625 
L 78.614409 -37.55625 
L 79.296102 -37.55625 
L 79.977796 -37.55625 
L 80.65949 -37.55625 
L 81.341184 -37.55625 
L 82.022877 -37.55625 
L 82.704571 -37.55625 
L 83.386265 -37.55625 
L 84.067959 -37.55625 
L 84.749653 -37.55625 
L 85.431346 -37.55625 
L 86.11304 -37.55625 
L 86.794734 -37.55625 
L 87.476428 -37.55625 
L 88.158121 -37.55625 
L 88.839815 -37.55625 
L 89.521509 -37.55625 
L 90.203203 -37.55625 
L 90.884897 -37.55625 
L 91.56659 -37.55625 
L 92.248284 -37.55625 
L 92.929978 -37.55625 
L 93.611672 -37.55625 
L 94.293365 -37.55625 
L 94.975059 -37.55625 
L 95.656753 -37.55625 
L 96.338447 -37.55625 
L 97.020141 -37.55625 
L 97.701834 -37.55625 
L 98.383528 -37.55625 
L 99.065222 -37.55625 
L 99.746916 -37.55625 
L 100.428609 -37.55625 
L 101.110303 -37.55625 
L 101.791997 -37.55625 
L 102.473691 -37.55625 
L 103.155385 -37.55625 
L 103.837078 -37.55625 
L 104.518772 -37.55625 
L 105.200466 -37.55625 
L 105.88216 -37.55625 
L 106.563853 -37.55625 
L 107.245547 -37.55625 
L 107.927241 -37.55625 
L 108.608935 -37.55625 
L 109.290629 -37.55625 
L 109.972322 -37.55625 
L 110.654016 -37.55625 
L 111.33571 -37.55625 
L 112.017404 -37.55625 
L 112.699097 -37.55625 
L 113.380791 -37.55625 
L 114.062485 -37.55625 
L 114.744179 -37.55625 
L 115.425873 -37.55625 
L 116.107566 -37.55625 
L 116.78926 -37.55625 
L 117.470954 -37.55625 
L 118.152648 -37.55625 
L 118.834342 -37.55625 
L 119.516035 -37.55625 
L 120.197729 -37.55625 
L 120.879423 -37.55625 
L 121.561117 -37.55625 
L 122.24281 -37.55625 
L 122.924504 -37.55625 
L 123.606198 -37.55625 
L 124.287892 -37.55625 
L 124.969586 -37.55625 
L 125.651279 -37.55625 
L 126.332973 -37.55625 
L 127.014667 -37.55625 
L 127.696361 -37.55625 
L 128.378054 -37.55625 
L 129.059748 -37.55625 
L 129.741442 -37.55625 
L 130.423136 -37.55625 
L 131.10483 -37.55625 
L 131.786523 -37.55625 
L 132.468217 -37.55625 
L 133.149911 -37.55625 
L 133.831605 -37.55625 
L 134.513298 -37.55625 
L 135.194992 -37.55625 
L 135.876686 -37.55625 
L 136.55838 -37.55625 
L 137.240074 -37.55625 
L 137.921767 -37.55625 
L 138.603461 -37.55625 
L 139.285155 -37.55625 
L 139.966849 -37.55625 
L 140.648542 -37.55625 
L 141.330236 -37.55625 
L 142.01193 -37.55625 
L 142.693624 -37.55625 
L 143.375318 -37.55625 
L 144.057011 -37.55625 
L 144.738705 -37.55625 
L 145.420399 -37.55625 
L 146.102093 -37.55625 
L 146.783786 -37.55625 
L 147.46548 -37.55625 
L 148.147174 -37.55625 
L 148.828868 -37.55625 
L 149.510562 -37.55625 
L 150.192255 -37.55625 
L 150.873949 -37.55625 
L 151.555643 -37.55625 
L 152.237337 -37.55625 
L 152.91903 -37.55625 
L 153.600724 -37.55625 
L 154.282418 -37.55625 
L 154.964112 -37.55625 
L 155.645806 -37.55625 
L 156.327499 -37.55625 
L 157.009193 -37.55625 
L 157.690887 -37.55625 
L 158.372581 -37.55625 
L 159.054274 -37.55625 
L 159.735968 -37.55625 
L 160.417662 -37.55625 
L 161.099356 -37.55625 
L 161.78105 -37.55625 
L 162.462743 -37.55625 
L 163.144437 -37.55625 
L 163.826131 -37.55625 
L 164.507825 -37.55625 
L 165.189518 -37.55625 
L 165.871212 -37.55625 
L 166.552906 -37.55625 
L 167.2346 -37.55625 
L 167.916294 -37.55625 
L 168.597987 -37.55625 
L 169.279681 -37.55625 
L 169.961375 -37.55625 
L 170.643069 -37.55625 
L 171.324762 -37.55625 
L 172.006456 -37.55625 
L 172.68815 -37.55625 
L 173.369844 -37.55625 
L 174.051538 -37.55625 
L 174.733231 -37.55625 
L 175.414925 -37.55625 
L 176.096619 -37.55625 
L 176.778313 -37.55625 
L 177.460006 -37.55625 
L 178.1417 -37.55625 
L 178.823394 -37.55625 
L 179.505088 -37.55625 
L 179.505088 -37.556761 
L 179.505088 -37.556761 
L 178.823394 -37.557349 
L 178.1417 -37.558454 
L 177.460006 -37.56038 
L 176.778313 -37.563491 
L 176.096619 -37.568146 
L 175.414925 -37.57461 
L 174.733231 -37.582972 
L 174.051538 -37.593128 
L 173.369844 -37.604878 
L 172.68815 -37.618138 
L 172.006456 -37.63319 
L 171.324762 -37.650856 
L 170.643069 -37.672486 
L 169.961375 -37.69973 
L 169.279681 -37.734215 
L 168.597987 -37.777302 
L 167.916294 -37.830108 
L 167.2346 -37.893808 
L 166.552906 -37.97007 
L 165.871212 -38.061349 
L 165.189518 -38.170821 
L 164.507825 -38.301927 
L 163.826131 -38.457756 
L 163.144437 -38.640583 
L 162.462743 -38.851808 
L 161.78105 -39.092262 
L 161.099356 -39.362617 
L 160.417662 -39.66352 
L 159.735968 -39.995295 
L 159.054274 -40.357357 
L 158.372581 -40.747824 
L 157.690887 -41.163867 
L 157.009193 -41.603051 
L 156.327499 -42.065347 
L 155.645806 -42.554885 
L 154.964112 -43.080322 
L 154.282418 -43.653098 
L 153.600724 -44.283848 
L 152.91903 -44.978312 
L 152.237337 -45.734528 
L 151.555643 -46.542642 
L 150.873949 -47.387246 
L 150.192255 -48.250829 
L 149.510562 -49.116412 
L 148.828868 -49.968259 
L 148.147174 -50.791095 
L 147.46548 -51.569417 
L 146.783786 -52.288452 
L 146.102093 -52.937139 
L 145.420399 -53.512113 
L 144.738705 -54.021006 
L 144.057011 -54.483604 
L 143.375318 -54.93009 
L 142.693624 -55.396264 
L 142.01193 -55.916165 
L 141.330236 -56.513307 
L 140.648542 -57.192763 
L 139.966849 -57.936969 
L 139.285155 -58.707606 
L 138.603461 -59.453897 
L 137.921767 -60.125053 
L 137.240074 -60.682804 
L 136.55838 -61.110046 
L 135.876686 -61.413371 
L 135.194992 -61.619663 
L 134.513298 -61.768655 
L 133.831605 -61.904113 
L 133.149911 -62.066159 
L 132.468217 -62.286698 
L 131.786523 -62.588839 
L 131.10483 -62.989706 
L 130.423136 -63.504409 
L 129.741442 -64.148209 
L 129.059748 -64.934742 
L 128.378054 -65.870569 
L 127.696361 -66.949005 
L 127.014667 -68.147593 
L 126.332973 -69.432563 
L 125.651279 -70.770534 
L 124.969586 -72.143819 
L 124.287892 -73.563174 
L 123.606198 -75.072093 
L 122.924504 -76.740051 
L 122.24281 -78.646921 
L 121.561117 -80.864537 
L 120.879423 -83.441935 
L 120.197729 -86.397789 
L 119.516035 -89.719182 
L 118.834342 -93.363112 
L 118.152648 -97.257888 
L 117.470954 -101.304995 
L 116.78926 -105.384957 
L 116.107566 -109.370469 
L 115.425873 -113.146159 
L 114.744179 -116.629372 
L 114.062485 -119.783833 
L 113.380791 -122.620164 
L 112.699097 -125.183011 
L 112.017404 -127.530783 
L 111.33571 -129.717016 
L 110.654016 -131.780473 
L 109.972322 -133.745491 
L 109.290629 -135.628121 
L 108.608935 -137.440903 
L 107.927241 -139.191133 
L 107.245547 -140.8728 
L 106.563853 -142.457509 
L 105.88216 -143.891255 
L 105.200466 -145.100976 
L 104.518772 -146.009205 
L 103.837078 -146.550652 
L 103.155385 -146.68371 
L 102.473691 -146.393012 
L 101.791997 -145.683913 
L 101.110303 -144.573066 
L 100.428609 -143.079685 
L 99.746916 -141.220323 
L 99.065222 -139.007833 
L 98.383528 -136.454054 
L 97.701834 -133.575385 
L 97.020141 -130.399929 
L 96.338447 -126.973961 
L 95.656753 -123.364792 
L 94.975059 -119.657739 
L 94.293365 -115.947064 
L 93.611672 -112.323324 
L 92.929978 -108.86115 
L 92.248284 -105.611252 
L 91.56659 -102.598538 
L 90.884897 -99.825784 
L 90.203203 -97.280279 
L 89.521509 -94.940152 
L 88.839815 -92.777948 
L 88.158121 -90.760954 
L 87.476428 -88.849913 
L 86.794734 -86.998837 
L 86.11304 -85.158062 
L 85.431346 -83.280796 
L 84.749653 -81.331159 
L 84.067959 -79.290578 
L 83.386265 -77.159859 
L 82.704571 -74.95622 
L 82.022877 -72.706809 
L 81.341184 -70.441578 
L 80.65949 -68.188082 
L 79.977796 -65.969261 
L 79.296102 -63.803397 
L 78.614409 -61.704518 
L 77.932715 -59.681974 
L 77.251021 -57.739311 
L 76.569327 -55.873869 
L 75.887633 -54.078676 
L 75.20594 -52.346977 
L 74.524246 -50.677872 
L 73.842552 -49.080365 
L 73.160858 -47.573557 
L 72.479165 -46.182507 
L 71.797471 -44.931384 
L 71.115777 -43.836653 
L 70.434083 -42.902732 
L 69.752389 -42.121234 
L 69.070696 -41.473466 
L 68.389002 -40.934947 
L 67.707308 -40.480421 
L 67.025614 -40.088046 
L 66.343921 -39.741851 
L 65.662227 -39.432173 
L 64.980533 -39.154397 
L 64.298839 -38.906873 
L 63.617145 -38.688945 
L 62.935452 -38.499768 
L 62.253758 -38.337963 
L 61.572064 -38.201768 
L 60.89037 -38.089199 
L 60.208677 -37.998021 
L 59.526983 -37.925596 
L 58.845289 -37.86882 
L 58.163595 -37.824293 
L 57.481901 -37.788679 
L 56.800208 -37.759129 
L 56.118514 -37.733584 
L 55.43682 -37.710871 
L 54.755126 -37.690557 
L 54.073433 -37.672623 
L 53.391739 -37.657078 
L 52.710045 -37.643686 
L 52.028351 -37.63191 
L 51.346657 -37.621073 
L 50.664964 -37.610637 
L 49.98327 -37.600408 
L 49.301576 -37.590581 
L 48.619882 -37.581594 
L 47.938189 -37.573906 
L 47.256495 -37.567808 
L 46.574801 -37.563339 
L 45.893107 -37.560316 
L 45.211413 -37.558429 
L 44.52972 -37.557339 
L 43.848026 -37.556758 
z
" style="stroke: #ff7f0e"/>
    </defs>
    <g clip-path="url(#p264e2bcd04)">
     <use xlink:href="#m364eba248f" x="0" y="199.98825" style="fill: #ff7f0e; fill-opacity: 0.6; stroke: #ff7f0e"/>
    </g>
   </g>
   <g id="matplotlib.axis_1">
    <g id="xtick_1">
     <g id="line2d_1">
      <defs>
       <path id="m3b909c3657" d="M 0 0 
L 0 3.5 
" style="stroke: #000000; stroke-width: 0.8"/>
      </defs>
      <g>
       <use xlink:href="#m3b909c3657" x="40.622431" y="162.432" style="stroke: #000000; stroke-width: 0.8"/>
      </g>
     </g>
     <g id="text_1">
      <!-- −1.25 -->
      <g transform="translate(25.299775 177.030437) scale(0.1 -0.1)">
       <defs>
        <path id="DejaVuSans-2212" d="M 678 2272 
L 4684 2272 
L 4684 1741 
L 678 1741 
L 678 2272 
z
" transform="scale(0.015625)"/>
        <path id="DejaVuSans-31" d="M 794 531 
L 1825 531 
L 1825 4091 
L 703 3866 
L 703 4441 
L 1819 4666 
L 2450 4666 
L 2450 531 
L 3481 531 
L 3481 0 
L 794 0 
L 794 531 
z
" transform="scale(0.015625)"/>
        <path id="DejaVuSans-2e" d="M 684 794 
L 1344 794 
L 1344 0 
L 684 0 
L 684 794 
z
" transform="scale(0.015625)"/>
        <path id="DejaVuSans-32" d="M 1228 531 
L 3431 531 
L 3431 0 
L 469 0 
L 469 531 
Q 828 903 1448 1529 
Q 2069 2156 2228 2338 
Q 2531 2678 2651 2914 
Q 2772 3150 2772 3378 
Q 2772 3750 2511 3984 
Q 2250 4219 1831 4219 
Q 1534 4219 1204 4116 
Q 875 4013 500 3803 
L 500 4441 
Q 881 4594 1212 4672 
Q 1544 4750 1819 4750 
Q 2544 4750 2975 4387 
Q 3406 4025 3406 3419 
Q 3406 3131 3298 2873 
Q 3191 2616 2906 2266 
Q 2828 2175 2409 1742 
Q 1991 1309 1228 531 
z
" transform="scale(0.015625)"/>
        <path id="DejaVuSans-35" d="M 691 4666 
L 3169 4666 
L 3169 4134 
L 1269 4134 
L 1269 2991 
Q 1406 3038 1543 3061 
Q 1681 3084 1819 3084 
Q 2600 3084 3056 2656 
Q 3513 2228 3513 1497 
Q 3513 744 3044 326 
Q 2575 -91 1722 -91 
Q 1428 -91 1123 -41 
Q 819 9 494 109 
L 494 744 
Q 775 591 1075 516 
Q 1375 441 1709 441 
Q 2250 441 2565 725 
Q 2881 1009 2881 1497 
Q 2881 1984 2565 2268 
Q 2250 2553 1709 2553 
Q 1456 2553 1204 2497 
Q 953 2441 691 2322 
L 691 4666 
z
" transform="scale(0.015625)"/>
       </defs>
       <use xlink:href="#DejaVuSans-2212"/>
       <use xlink:href="#DejaVuSans-31" x="83.789062"/>
       <use xlink:href="#DejaVuSans-2e" x="147.412109"/>
       <use xlink:href="#DejaVuSans-32" x="179.199219"/>
       <use xlink:href="#DejaVuSans-35" x="242.822266"/>
      </g>
     </g>
    </g>
    <g id="xtick_2">
     <g id="line2d_2">
      <g>
       <use xlink:href="#m3b909c3657" x="77.942877" y="162.432" style="stroke: #000000; stroke-width: 0.8"/>
      </g>
     </g>
     <g id="text_2">
      <!-- −1.00 -->
      <g transform="translate(62.620221 177.030437) scale(0.1 -0.1)">
       <defs>
        <path id="DejaVuSans-30" d="M 2034 4250 
Q 1547 4250 1301 3770 
Q 1056 3291 1056 2328 
Q 1056 1369 1301 889 
Q 1547 409 2034 409 
Q 2525 409 2770 889 
Q 3016 1369 3016 2328 
Q 3016 3291 2770 3770 
Q 2525 4250 2034 4250 
z
M 2034 4750 
Q 2819 4750 3233 4129 
Q 3647 3509 3647 2328 
Q 3647 1150 3233 529 
Q 2819 -91 2034 -91 
Q 1250 -91 836 529 
Q 422 1150 422 2328 
Q 422 3509 836 4129 
Q 1250 4750 2034 4750 
z
" transform="scale(0.015625)"/>
       </defs>
       <use xlink:href="#DejaVuSans-2212"/>
       <use xlink:href="#DejaVuSans-31" x="83.789062"/>
       <use xlink:href="#DejaVuSans-2e" x="147.412109"/>
       <use xlink:href="#DejaVuSans-30" x="179.199219"/>
       <use xlink:href="#DejaVuSans-30" x="242.822266"/>
      </g>
     </g>
    </g>
    <g id="xtick_3">
     <g id="line2d_3">
      <g>
       <use xlink:href="#m3b909c3657" x="115.263323" y="162.432" style="stroke: #000000; stroke-width: 0.8"/>
      </g>
     </g>
     <g id="text_3">
      <!-- −0.75 -->
      <g transform="translate(99.940667 177.030437) scale(0.1 -0.1)">
       <defs>
        <path id="DejaVuSans-37" d="M 525 4666 
L 3525 4666 
L 3525 4397 
L 1831 0 
L 1172 0 
L 2766 4134 
L 525 4134 
L 525 4666 
z
" transform="scale(0.015625)"/>
       </defs>
       <use xlink:href="#DejaVuSans-2212"/>
       <use xlink:href="#DejaVuSans-30" x="83.789062"/>
       <use xlink:href="#DejaVuSans-2e" x="147.412109"/>
       <use xlink:href="#DejaVuSans-37" x="179.199219"/>
       <use xlink:href="#DejaVuSans-35" x="242.822266"/>
      </g>
     </g>
    </g>
    <g id="xtick_4">
     <g id="line2d_4">
      <g>
       <use xlink:href="#m3b909c3657" x="152.583769" y="162.432" style="stroke: #000000; stroke-width: 0.8"/>
      </g>
     </g>
     <g id="text_4">
      <!-- −0.50 -->
      <g transform="translate(137.261113 177.030437) scale(0.1 -0.1)">
       <use xlink:href="#DejaVuSans-2212"/>
       <use xlink:href="#DejaVuSans-30" x="83.789062"/>
       <use xlink:href="#DejaVuSans-2e" x="147.412109"/>
       <use xlink:href="#DejaVuSans-35" x="179.199219"/>
       <use xlink:href="#DejaVuSans-30" x="242.822266"/>
      </g>
     </g>
    </g>
    <g id="text_5">
     <!-- Envision -->
     <g transform="translate(89.433097 190.708562) scale(0.1 -0.1)">
      <defs>
       <path id="DejaVuSans-45" d="M 628 4666 
L 3578 4666 
L 3578 4134 
L 1259 4134 
L 1259 2753 
L 3481 2753 
L 3481 2222 
L 1259 2222 
L 1259 531 
L 3634 531 
L 3634 0 
L 628 0 
L 628 4666 
z
" transform="scale(0.015625)"/>
       <path id="DejaVuSans-6e" d="M 3513 2113 
L 3513 0 
L 2938 0 
L 2938 2094 
Q 2938 2591 2744 2837 
Q 2550 3084 2163 3084 
Q 1697 3084 1428 2787 
Q 1159 2491 1159 1978 
L 1159 0 
L 581 0 
L 581 3500 
L 1159 3500 
L 1159 2956 
Q 1366 3272 1645 3428 
Q 1925 3584 2291 3584 
Q 2894 3584 3203 3211 
Q 3513 2838 3513 2113 
z
" transform="scale(0.015625)"/>
       <path id="DejaVuSans-76" d="M 191 3500 
L 800 3500 
L 1894 563 
L 2988 3500 
L 3597 3500 
L 2284 0 
L 1503 0 
L 191 3500 
z
" transform="scale(0.015625)"/>
       <path id="DejaVuSans-69" d="M 603 3500 
L 1178 3500 
L 1178 0 
L 603 0 
L 603 3500 
z
M 603 4863 
L 1178 4863 
L 1178 4134 
L 603 4134 
L 603 4863 
z
" transform="scale(0.015625)"/>
       <path id="DejaVuSans-73" d="M 2834 3397 
L 2834 2853 
Q 2591 2978 2328 3040 
Q 2066 3103 1784 3103 
Q 1356 3103 1142 2972 
Q 928 2841 928 2578 
Q 928 2378 1081 2264 
Q 1234 2150 1697 2047 
L 1894 2003 
Q 2506 1872 2764 1633 
Q 3022 1394 3022 966 
Q 3022 478 2636 193 
Q 2250 -91 1575 -91 
Q 1294 -91 989 -36 
Q 684 19 347 128 
L 347 722 
Q 666 556 975 473 
Q 1284 391 1588 391 
Q 1994 391 2212 530 
Q 2431 669 2431 922 
Q 2431 1156 2273 1281 
Q 2116 1406 1581 1522 
L 1381 1569 
Q 847 1681 609 1914 
Q 372 2147 372 2553 
Q 372 3047 722 3315 
Q 1072 3584 1716 3584 
Q 2034 3584 2315 3537 
Q 2597 3491 2834 3397 
z
" transform="scale(0.015625)"/>
       <path id="DejaVuSans-6f" d="M 1959 3097 
Q 1497 3097 1228 2736 
Q 959 2375 959 1747 
Q 959 1119 1226 758 
Q 1494 397 1959 397 
Q 2419 397 2687 759 
Q 2956 1122 2956 1747 
Q 2956 2369 2687 2733 
Q 2419 3097 1959 3097 
z
M 1959 3584 
Q 2709 3584 3137 3096 
Q 3566 2609 3566 1747 
Q 3566 888 3137 398 
Q 2709 -91 1959 -91 
Q 1206 -91 779 398 
Q 353 888 353 1747 
Q 353 2609 779 3096 
Q 1206 3584 1959 3584 
z
" transform="scale(0.015625)"/>
      </defs>
      <use xlink:href="#DejaVuSans-45"/>
      <use xlink:href="#DejaVuSans-6e" x="63.183594"/>
      <use xlink:href="#DejaVuSans-76" x="126.5625"/>
      <use xlink:href="#DejaVuSans-69" x="185.742188"/>
      <use xlink:href="#DejaVuSans-73" x="213.525391"/>
      <use xlink:href="#DejaVuSans-69" x="265.625"/>
      <use xlink:href="#DejaVuSans-6f" x="293.408203"/>
      <use xlink:href="#DejaVuSans-6e" x="354.589844"/>
     </g>
    </g>
   </g>
   <g id="matplotlib.axis_2">
    <g id="ytick_1">
     <g id="line2d_5">
      <defs>
       <path id="mda8b05e0d7" d="M 0 0 
L -3.5 0 
" style="stroke: #000000; stroke-width: 0.8"/>
      </defs>
      <g>
       <use xlink:href="#mda8b05e0d7" x="34.240625" y="162.432" style="stroke: #000000; stroke-width: 0.8"/>
      </g>
     </g>
     <g id="text_6">
      <!-- 0 -->
      <g transform="translate(20.878125 166.231219) scale(0.1 -0.1)">
       <use xlink:href="#DejaVuSans-30"/>
      </g>
     </g>
    </g>
    <g id="ytick_2">
     <g id="line2d_6">
      <g>
       <use xlink:href="#mda8b05e0d7" x="34.240625" y="135.218981" style="stroke: #000000; stroke-width: 0.8"/>
      </g>
     </g>
     <g id="text_7">
      <!-- 1 -->
      <g transform="translate(20.878125 139.018199) scale(0.1 -0.1)">
       <use xlink:href="#DejaVuSans-31"/>
      </g>
     </g>
    </g>
    <g id="ytick_3">
     <g id="line2d_7">
      <g>
       <use xlink:href="#mda8b05e0d7" x="34.240625" y="108.005961" style="stroke: #000000; stroke-width: 0.8"/>
      </g>
     </g>
     <g id="text_8">
      <!-- 2 -->
      <g transform="translate(20.878125 111.80518) scale(0.1 -0.1)">
       <use xlink:href="#DejaVuSans-32"/>
      </g>
     </g>
    </g>
    <g id="ytick_4">
     <g id="line2d_8">
      <g>
       <use xlink:href="#mda8b05e0d7" x="34.240625" y="80.792942" style="stroke: #000000; stroke-width: 0.8"/>
      </g>
     </g>
     <g id="text_9">
      <!-- 3 -->
      <g transform="translate(20.878125 84.592161) scale(0.1 -0.1)">
       <defs>
        <path id="DejaVuSans-33" d="M 2597 2516 
Q 3050 2419 3304 2112 
Q 3559 1806 3559 1356 
Q 3559 666 3084 287 
Q 2609 -91 1734 -91 
Q 1441 -91 1130 -33 
Q 819 25 488 141 
L 488 750 
Q 750 597 1062 519 
Q 1375 441 1716 441 
Q 2309 441 2620 675 
Q 2931 909 2931 1356 
Q 2931 1769 2642 2001 
Q 2353 2234 1838 2234 
L 1294 2234 
L 1294 2753 
L 1863 2753 
Q 2328 2753 2575 2939 
Q 2822 3125 2822 3475 
Q 2822 3834 2567 4026 
Q 2313 4219 1838 4219 
Q 1578 4219 1281 4162 
Q 984 4106 628 3988 
L 628 4550 
Q 988 4650 1302 4700 
Q 1616 4750 1894 4750 
Q 2613 4750 3031 4423 
Q 3450 4097 3450 3541 
Q 3450 3153 3228 2886 
Q 3006 2619 2597 2516 
z
" transform="scale(0.015625)"/>
       </defs>
       <use xlink:href="#DejaVuSans-33"/>
      </g>
     </g>
    </g>
    <g id="ytick_5">
     <g id="line2d_9">
      <g>
       <use xlink:href="#mda8b05e0d7" x="34.240625" y="53.579922" style="stroke: #000000; stroke-width: 0.8"/>
      </g>
     </g>
     <g id="text_10">
      <!-- 4 -->
      <g transform="translate(20.878125 57.379141) scale(0.1 -0.1)">
       <defs>
        <path id="DejaVuSans-34" d="M 2419 4116 
L 825 1625 
L 2419 1625 
L 2419 4116 
z
M 2253 4666 
L 3047 4666 
L 3047 1625 
L 3713 1625 
L 3713 1100 
L 3047 1100 
L 3047 0 
L 2419 0 
L 2419 1100 
L 313 1100 
L 313 1709 
L 2253 4666 
z
" transform="scale(0.015625)"/>
       </defs>
       <use xlink:href="#DejaVuSans-34"/>
      </g>
     </g>
    </g>
    <g id="ytick_6">
     <g id="line2d_10">
      <g>
       <use xlink:href="#mda8b05e0d7" x="34.240625" y="26.366903" style="stroke: #000000; stroke-width: 0.8"/>
      </g>
     </g>
     <g id="text_11">
      <!-- 5 -->
      <g transform="translate(20.878125 30.166122) scale(0.1 -0.1)">
       <use xlink:href="#DejaVuSans-35"/>
      </g>
     </g>
    </g>
    <g id="text_12">
     <!-- Density -->
     <g transform="translate(14.798437 103.824594) rotate(-90) scale(0.1 -0.1)">
      <defs>
       <path id="DejaVuSans-44" d="M 1259 4147 
L 1259 519 
L 2022 519 
Q 2988 519 3436 956 
Q 3884 1394 3884 2338 
Q 3884 3275 3436 3711 
Q 2988 4147 2022 4147 
L 1259 4147 
z
M 628 4666 
L 1925 4666 
Q 3281 4666 3915 4102 
Q 4550 3538 4550 2338 
Q 4550 1131 3912 565 
Q 3275 0 1925 0 
L 628 0 
L 628 4666 
z
" transform="scale(0.015625)"/>
       <path id="DejaVuSans-65" d="M 3597 1894 
L 3597 1613 
L 953 1613 
Q 991 1019 1311 708 
Q 1631 397 2203 397 
Q 2534 397 2845 478 
Q 3156 559 3463 722 
L 3463 178 
Q 3153 47 2828 -22 
Q 2503 -91 2169 -91 
Q 1331 -91 842 396 
Q 353 884 353 1716 
Q 353 2575 817 3079 
Q 1281 3584 2069 3584 
Q 2775 3584 3186 3129 
Q 3597 2675 3597 1894 
z
M 3022 2063 
Q 3016 2534 2758 2815 
Q 2500 3097 2075 3097 
Q 1594 3097 1305 2825 
Q 1016 2553 972 2059 
L 3022 2063 
z
" transform="scale(0.015625)"/>
       <path id="DejaVuSans-74" d="M 1172 4494 
L 1172 3500 
L 2356 3500 
L 2356 3053 
L 1172 3053 
L 1172 1153 
Q 1172 725 1289 603 
Q 1406 481 1766 481 
L 2356 481 
L 2356 0 
L 1766 0 
Q 1100 0 847 248 
Q 594 497 594 1153 
L 594 3053 
L 172 3053 
L 172 3500 
L 594 3500 
L 594 4494 
L 1172 4494 
z
" transform="scale(0.015625)"/>
       <path id="DejaVuSans-79" d="M 2059 -325 
Q 1816 -950 1584 -1140 
Q 1353 -1331 966 -1331 
L 506 -1331 
L 506 -850 
L 844 -850 
Q 1081 -850 1212 -737 
Q 1344 -625 1503 -206 
L 1606 56 
L 191 3500 
L 800 3500 
L 1894 763 
L 2988 3500 
L 3597 3500 
L 2059 -325 
z
" transform="scale(0.015625)"/>
      </defs>
      <use xlink:href="#DejaVuSans-44"/>
      <use xlink:href="#DejaVuSans-65" x="77.001953"/>
      <use xlink:href="#DejaVuSans-6e" x="138.525391"/>
      <use xlink:href="#DejaVuSans-73" x="201.904297"/>
      <use xlink:href="#DejaVuSans-69" x="254.003906"/>
      <use xlink:href="#DejaVuSans-74" x="281.787109"/>
      <use xlink:href="#DejaVuSans-79" x="320.996094"/>
     </g>
    </g>
   </g>
   <g id="patch_3">
    <path d="M 34.240625 162.432 
L 34.240625 7.2 
" style="fill: none; stroke: #000000; stroke-width: 0.8; stroke-linejoin: miter; stroke-linecap: square"/>
   </g>
   <g id="patch_4">
    <path d="M 186.422443 162.432 
L 186.422443 7.2 
" style="fill: none; stroke: #000000; stroke-width: 0.8; stroke-linejoin: miter; stroke-linecap: square"/>
   </g>
   <g id="patch_5">
    <path d="M 34.240625 162.432 
L 186.422443 162.432 
" style="fill: none; stroke: #000000; stroke-width: 0.8; stroke-linejoin: miter; stroke-linecap: square"/>
   </g>
   <g id="patch_6">
    <path d="M 34.240625 7.2 
L 186.422443 7.2 
" style="fill: none; stroke: #000000; stroke-width: 0.8; stroke-linejoin: miter; stroke-linecap: square"/>
   </g>
   <g id="legend_1">
    <g id="patch_7">
     <path d="M 120.482443 33.349375 
L 181.522443 33.349375 
Q 182.922443 33.349375 182.922443 31.949375 
L 182.922443 12.1 
Q 182.922443 10.7 181.522443 10.7 
L 120.482443 10.7 
Q 119.082443 10.7 119.082443 12.1 
L 119.082443 31.949375 
Q 119.082443 33.349375 120.482443 33.349375 
z
" style="fill: #ffffff; opacity: 0.8; stroke: #cccccc; stroke-linejoin: miter"/>
    </g>
    <g id="patch_8">
     <path d="M 121.882443 18.818906 
L 135.882443 18.818906 
L 135.882443 13.918906 
L 121.882443 13.918906 
z
" style="fill: #1f77b4; fill-opacity: 0.6; stroke: #1f77b4; stroke-linejoin: miter"/>
    </g>
    <g id="text_13">
     <!-- Benign -->
     <g transform="translate(141.482443 18.818906) scale(0.07 -0.07)">
      <defs>
       <path id="DejaVuSans-42" d="M 1259 2228 
L 1259 519 
L 2272 519 
Q 2781 519 3026 730 
Q 3272 941 3272 1375 
Q 3272 1813 3026 2020 
Q 2781 2228 2272 2228 
L 1259 2228 
z
M 1259 4147 
L 1259 2741 
L 2194 2741 
Q 2656 2741 2882 2914 
Q 3109 3088 3109 3444 
Q 3109 3797 2882 3972 
Q 2656 4147 2194 4147 
L 1259 4147 
z
M 628 4666 
L 2241 4666 
Q 2963 4666 3353 4366 
Q 3744 4066 3744 3513 
Q 3744 3084 3544 2831 
Q 3344 2578 2956 2516 
Q 3422 2416 3680 2098 
Q 3938 1781 3938 1306 
Q 3938 681 3513 340 
Q 3088 0 2303 0 
L 628 0 
L 628 4666 
z
" transform="scale(0.015625)"/>
       <path id="DejaVuSans-67" d="M 2906 1791 
Q 2906 2416 2648 2759 
Q 2391 3103 1925 3103 
Q 1463 3103 1205 2759 
Q 947 2416 947 1791 
Q 947 1169 1205 825 
Q 1463 481 1925 481 
Q 2391 481 2648 825 
Q 2906 1169 2906 1791 
z
M 3481 434 
Q 3481 -459 3084 -895 
Q 2688 -1331 1869 -1331 
Q 1566 -1331 1297 -1286 
Q 1028 -1241 775 -1147 
L 775 -588 
Q 1028 -725 1275 -790 
Q 1522 -856 1778 -856 
Q 2344 -856 2625 -561 
Q 2906 -266 2906 331 
L 2906 616 
Q 2728 306 2450 153 
Q 2172 0 1784 0 
Q 1141 0 747 490 
Q 353 981 353 1791 
Q 353 2603 747 3093 
Q 1141 3584 1784 3584 
Q 2172 3584 2450 3431 
Q 2728 3278 2906 2969 
L 2906 3500 
L 3481 3500 
L 3481 434 
z
" transform="scale(0.015625)"/>
      </defs>
      <use xlink:href="#DejaVuSans-42"/>
      <use xlink:href="#DejaVuSans-65" x="68.603516"/>
      <use xlink:href="#DejaVuSans-6e" x="130.126953"/>
      <use xlink:href="#DejaVuSans-69" x="193.505859"/>
      <use xlink:href="#DejaVuSans-67" x="221.289062"/>
      <use xlink:href="#DejaVuSans-6e" x="284.765625"/>
     </g>
    </g>
    <g id="patch_9">
     <path d="M 121.882443 29.093594 
L 135.882443 29.093594 
L 135.882443 24.193594 
L 121.882443 24.193594 
z
" style="fill: #ff7f0e; fill-opacity: 0.6; stroke: #ff7f0e; stroke-linejoin: miter"/>
    </g>
    <g id="text_14">
     <!-- Pathogenic -->
     <g transform="translate(141.482443 29.093594) scale(0.07 -0.07)">
      <defs>
       <path id="DejaVuSans-50" d="M 1259 4147 
L 1259 2394 
L 2053 2394 
Q 2494 2394 2734 2622 
Q 2975 2850 2975 3272 
Q 2975 3691 2734 3919 
Q 2494 4147 2053 4147 
L 1259 4147 
z
M 628 4666 
L 2053 4666 
Q 2838 4666 3239 4311 
Q 3641 3956 3641 3272 
Q 3641 2581 3239 2228 
Q 2838 1875 2053 1875 
L 1259 1875 
L 1259 0 
L 628 0 
L 628 4666 
z
" transform="scale(0.015625)"/>
       <path id="DejaVuSans-61" d="M 2194 1759 
Q 1497 1759 1228 1600 
Q 959 1441 959 1056 
Q 959 750 1161 570 
Q 1363 391 1709 391 
Q 2188 391 2477 730 
Q 2766 1069 2766 1631 
L 2766 1759 
L 2194 1759 
z
M 3341 1997 
L 3341 0 
L 2766 0 
L 2766 531 
Q 2569 213 2275 61 
Q 1981 -91 1556 -91 
Q 1019 -91 701 211 
Q 384 513 384 1019 
Q 384 1609 779 1909 
Q 1175 2209 1959 2209 
L 2766 2209 
L 2766 2266 
Q 2766 2663 2505 2880 
Q 2244 3097 1772 3097 
Q 1472 3097 1187 3025 
Q 903 2953 641 2809 
L 641 3341 
Q 956 3463 1253 3523 
Q 1550 3584 1831 3584 
Q 2591 3584 2966 3190 
Q 3341 2797 3341 1997 
z
" transform="scale(0.015625)"/>
       <path id="DejaVuSans-68" d="M 3513 2113 
L 3513 0 
L 2938 0 
L 2938 2094 
Q 2938 2591 2744 2837 
Q 2550 3084 2163 3084 
Q 1697 3084 1428 2787 
Q 1159 2491 1159 1978 
L 1159 0 
L 581 0 
L 581 4863 
L 1159 4863 
L 1159 2956 
Q 1366 3272 1645 3428 
Q 1925 3584 2291 3584 
Q 2894 3584 3203 3211 
Q 3513 2838 3513 2113 
z
" transform="scale(0.015625)"/>
       <path id="DejaVuSans-63" d="M 3122 3366 
L 3122 2828 
Q 2878 2963 2633 3030 
Q 2388 3097 2138 3097 
Q 1578 3097 1268 2742 
Q 959 2388 959 1747 
Q 959 1106 1268 751 
Q 1578 397 2138 397 
Q 2388 397 2633 464 
Q 2878 531 3122 666 
L 3122 134 
Q 2881 22 2623 -34 
Q 2366 -91 2075 -91 
Q 1284 -91 818 406 
Q 353 903 353 1747 
Q 353 2603 823 3093 
Q 1294 3584 2113 3584 
Q 2378 3584 2631 3529 
Q 2884 3475 3122 3366 
z
" transform="scale(0.015625)"/>
      </defs>
      <use xlink:href="#DejaVuSans-50"/>
      <use xlink:href="#DejaVuSans-61" x="55.802734"/>
      <use xlink:href="#DejaVuSans-74" x="117.082031"/>
      <use xlink:href="#DejaVuSans-68" x="156.291016"/>
      <use xlink:href="#DejaVuSans-6f" x="219.669922"/>
      <use xlink:href="#DejaVuSans-67" x="280.851562"/>
      <use xlink:href="#DejaVuSans-65" x="344.328125"/>
      <use xlink:href="#DejaVuSans-6e" x="405.851562"/>
      <use xlink:href="#DejaVuSans-69" x="469.230469"/>
      <use xlink:href="#DejaVuSans-63" x="497.013672"/>
     </g>
    </g>
   </g>
  </g>
  <g id="axes_2">
   <g id="patch_10">
    <path d="M 216.858807 162.432 
L 369.040625 162.432 
L 369.040625 7.2 
L 216.858807 7.2 
z
" style="fill: #ffffff"/>
   </g>
   <g id="PolyCollection_3">
    <defs>
     <path id="m7f57a62db6" d="M 228.864874 -37.567431 
L 228.864874 -37.55625 
L 229.503613 -37.55625 
L 230.142352 -37.55625 
L 230.781091 -37.55625 
L 231.41983 -37.55625 
L 232.058569 -37.55625 
L 232.697308 -37.55625 
L 233.336047 -37.55625 
L 233.974786 -37.55625 
L 234.613525 -37.55625 
L 235.252264 -37.55625 
L 235.891003 -37.55625 
L 236.529742 -37.55625 
L 237.168481 -37.55625 
L 237.80722 -37.55625 
L 238.445959 -37.55625 
L 239.084698 -37.55625 
L 239.723437 -37.55625 
L 240.362176 -37.55625 
L 241.000915 -37.55625 
L 241.639653 -37.55625 
L 242.278392 -37.55625 
L 242.917131 -37.55625 
L 243.55587 -37.55625 
L 244.194609 -37.55625 
L 244.833348 -37.55625 
L 245.472087 -37.55625 
L 246.110826 -37.55625 
L 246.749565 -37.55625 
L 247.388304 -37.55625 
L 248.027043 -37.55625 
L 248.665782 -37.55625 
L 249.304521 -37.55625 
L 249.94326 -37.55625 
L 250.581999 -37.55625 
L 251.220738 -37.55625 
L 251.859477 -37.55625 
L 252.498216 -37.55625 
L 253.136955 -37.55625 
L 253.775694 -37.55625 
L 254.414433 -37.55625 
L 255.053172 -37.55625 
L 255.691911 -37.55625 
L 256.33065 -37.55625 
L 256.969389 -37.55625 
L 257.608128 -37.55625 
L 258.246867 -37.55625 
L 258.885606 -37.55625 
L 259.524345 -37.55625 
L 260.163084 -37.55625 
L 260.801823 -37.55625 
L 261.440562 -37.55625 
L 262.079301 -37.55625 
L 262.71804 -37.55625 
L 263.356779 -37.55625 
L 263.995518 -37.55625 
L 264.634257 -37.55625 
L 265.272996 -37.55625 
L 265.911735 -37.55625 
L 266.550474 -37.55625 
L 267.189213 -37.55625 
L 267.827952 -37.55625 
L 268.466691 -37.55625 
L 269.10543 -37.55625 
L 269.744169 -37.55625 
L 270.382908 -37.55625 
L 271.021647 -37.55625 
L 271.660386 -37.55625 
L 272.299125 -37.55625 
L 272.937864 -37.55625 
L 273.576603 -37.55625 
L 274.215342 -37.55625 
L 274.854081 -37.55625 
L 275.49282 -37.55625 
L 276.131559 -37.55625 
L 276.770298 -37.55625 
L 277.409037 -37.55625 
L 278.047776 -37.55625 
L 278.686515 -37.55625 
L 279.325254 -37.55625 
L 279.963993 -37.55625 
L 280.602732 -37.55625 
L 281.241471 -37.55625 
L 281.88021 -37.55625 
L 282.518949 -37.55625 
L 283.157688 -37.55625 
L 283.796427 -37.55625 
L 284.435166 -37.55625 
L 285.073905 -37.55625 
L 285.712644 -37.55625 
L 286.351383 -37.55625 
L 286.990122 -37.55625 
L 287.628861 -37.55625 
L 288.2676 -37.55625 
L 288.906339 -37.55625 
L 289.545078 -37.55625 
L 290.183817 -37.55625 
L 290.822556 -37.55625 
L 291.461295 -37.55625 
L 292.100034 -37.55625 
L 292.738773 -37.55625 
L 293.377512 -37.55625 
L 294.016251 -37.55625 
L 294.65499 -37.55625 
L 295.293729 -37.55625 
L 295.932468 -37.55625 
L 296.571207 -37.55625 
L 297.209946 -37.55625 
L 297.848685 -37.55625 
L 298.487424 -37.55625 
L 299.126163 -37.55625 
L 299.764902 -37.55625 
L 300.403641 -37.55625 
L 301.04238 -37.55625 
L 301.681119 -37.55625 
L 302.319858 -37.55625 
L 302.958597 -37.55625 
L 303.597336 -37.55625 
L 304.236075 -37.55625 
L 304.874814 -37.55625 
L 305.513553 -37.55625 
L 306.152292 -37.55625 
L 306.791031 -37.55625 
L 307.42977 -37.55625 
L 308.068509 -37.55625 
L 308.707248 -37.55625 
L 309.345987 -37.55625 
L 309.984726 -37.55625 
L 310.623465 -37.55625 
L 311.262204 -37.55625 
L 311.900943 -37.55625 
L 312.539682 -37.55625 
L 313.178421 -37.55625 
L 313.81716 -37.55625 
L 314.455899 -37.55625 
L 315.094638 -37.55625 
L 315.733377 -37.55625 
L 316.372116 -37.55625 
L 317.010855 -37.55625 
L 317.649594 -37.55625 
L 318.288333 -37.55625 
L 318.927072 -37.55625 
L 319.565811 -37.55625 
L 320.20455 -37.55625 
L 320.843289 -37.55625 
L 321.482028 -37.55625 
L 322.120767 -37.55625 
L 322.759506 -37.55625 
L 323.398245 -37.55625 
L 324.036984 -37.55625 
L 324.675723 -37.55625 
L 325.314462 -37.55625 
L 325.953201 -37.55625 
L 326.59194 -37.55625 
L 327.230679 -37.55625 
L 327.869418 -37.55625 
L 328.508157 -37.55625 
L 329.146896 -37.55625 
L 329.785635 -37.55625 
L 330.424374 -37.55625 
L 331.063113 -37.55625 
L 331.701852 -37.55625 
L 332.340591 -37.55625 
L 332.97933 -37.55625 
L 333.618069 -37.55625 
L 334.256808 -37.55625 
L 334.895547 -37.55625 
L 335.534286 -37.55625 
L 336.173025 -37.55625 
L 336.811764 -37.55625 
L 337.450503 -37.55625 
L 338.089242 -37.55625 
L 338.727981 -37.55625 
L 339.36672 -37.55625 
L 340.005459 -37.55625 
L 340.644198 -37.55625 
L 341.282937 -37.55625 
L 341.921676 -37.55625 
L 342.560415 -37.55625 
L 343.199154 -37.55625 
L 343.837892 -37.55625 
L 344.476631 -37.55625 
L 345.11537 -37.55625 
L 345.754109 -37.55625 
L 346.392848 -37.55625 
L 347.031587 -37.55625 
L 347.670326 -37.55625 
L 348.309065 -37.55625 
L 348.947804 -37.55625 
L 349.586543 -37.55625 
L 350.225282 -37.55625 
L 350.864021 -37.55625 
L 351.50276 -37.55625 
L 352.141499 -37.55625 
L 352.780238 -37.55625 
L 353.418977 -37.55625 
L 354.057716 -37.55625 
L 354.696455 -37.55625 
L 355.335194 -37.55625 
L 355.973933 -37.55625 
L 355.973933 -37.557118 
L 355.973933 -37.557118 
L 355.335194 -37.558151 
L 354.696455 -37.560202 
L 354.057716 -37.564053 
L 353.418977 -37.570896 
L 352.780238 -37.582402 
L 352.141499 -37.600715 
L 351.50276 -37.628309 
L 350.864021 -37.667694 
L 350.225282 -37.720961 
L 349.586543 -37.789259 
L 348.947804 -37.872318 
L 348.309065 -37.968156 
L 347.670326 -38.073089 
L 347.031587 -38.182054 
L 346.392848 -38.289196 
L 345.754109 -38.388579 
L 345.11537 -38.474877 
L 344.476631 -38.543945 
L 343.837892 -38.59319 
L 343.199154 -38.621759 
L 342.560415 -38.630531 
L 341.921676 -38.621931 
L 341.282937 -38.599578 
L 340.644198 -38.567791 
L 340.005459 -38.531046 
L 339.36672 -38.493468 
L 338.727981 -38.458492 
L 338.089242 -38.428726 
L 337.450503 -38.406044 
L 336.811764 -38.391818 
L 336.173025 -38.38725 
L 335.534286 -38.393723 
L 334.895547 -38.413201 
L 334.256808 -38.44868 
L 333.618069 -38.504663 
L 332.97933 -38.587495 
L 332.340591 -38.705286 
L 331.701852 -38.867089 
L 331.063113 -39.081143 
L 330.424374 -39.352319 
L 329.785635 -39.679321 
L 329.146896 -40.052548 
L 328.508157 -40.45352 
L 327.869418 -40.856432 
L 327.230679 -41.231697 
L 326.59194 -41.550672 
L 325.953201 -41.79035 
L 325.314462 -41.936928 
L 324.675723 -41.987577 
L 324.036984 -41.950373 
L 323.398245 -41.842763 
L 322.759506 -41.689047 
L 322.120767 -41.517321 
L 321.482028 -41.356212 
L 320.843289 -41.231767 
L 320.20455 -41.164934 
L 319.565811 -41.170142 
L 318.927072 -41.255277 
L 318.288333 -41.423041 
L 317.649594 -41.673176 
L 317.010855 -42.004628 
L 316.372116 -42.416708 
L 315.733377 -42.908573 
L 315.094638 -43.477113 
L 314.455899 -44.114101 
L 313.81716 -44.804038 
L 313.178421 -45.524009 
L 312.539682 -46.246146 
L 311.900943 -46.942099 
L 311.262204 -47.587936 
L 310.623465 -48.167486 
L 309.984726 -48.672804 
L 309.345987 -49.10165 
L 308.707248 -49.453249 
L 308.068509 -49.724366 
L 307.42977 -49.907535 
L 306.791031 -49.992266 
L 306.152292 -49.968735 
L 305.513553 -49.83244 
L 304.874814 -49.588036 
L 304.236075 -49.250986 
L 303.597336 -48.84666 
L 302.958597 -48.407356 
L 302.319858 -47.968364 
L 301.681119 -47.564163 
L 301.04238 -47.225515 
L 300.403641 -46.977658 
L 299.764902 -46.839361 
L 299.126163 -46.822416 
L 298.487424 -46.931159 
L 297.848685 -47.161876 
L 297.209946 -47.502288 
L 296.571207 -47.93162 
L 295.932468 -48.421938 
L 295.293729 -48.941196 
L 294.65499 -49.457874 
L 294.016251 -49.946298 
L 293.377512 -50.391116 
L 292.738773 -50.789383 
L 292.100034 -51.149405 
L 291.461295 -51.486633 
L 290.822556 -51.817992 
L 290.183817 -52.156563 
L 289.545078 -52.508259 
L 288.906339 -52.871339 
L 288.2676 -53.238604 
L 287.628861 -53.601369 
L 286.990122 -53.953933 
L 286.351383 -54.297292 
L 285.712644 -54.641119 
L 285.073905 -55.003513 
L 284.435166 -55.408544 
L 283.796427 -55.882197 
L 283.157688 -56.44761 
L 282.518949 -57.120615 
L 281.88021 -57.906357 
L 281.241471 -58.797385 
L 280.602732 -59.773301 
L 279.963993 -60.801796 
L 279.325254 -61.840949 
L 278.686515 -62.842665 
L 278.047776 -63.757173 
L 277.409037 -64.538299 
L 276.770298 -65.148896 
L 276.131559 -65.565454 
L 275.49282 -65.780741 
L 274.854081 -65.803622 
L 274.215342 -65.655913 
L 273.576603 -65.367086 
L 272.937864 -64.96844 
L 272.299125 -64.48862 
L 271.660386 -63.951977 
L 271.021647 -63.38023 
L 270.382908 -62.796754 
L 269.744169 -62.231787 
L 269.10543 -61.726561 
L 268.466691 -61.334696 
L 267.827952 -61.120167 
L 267.189213 -61.152235 
L 266.550474 -61.498554 
L 265.911735 -62.217909 
L 265.272996 -63.353769 
L 264.634257 -64.929281 
L 263.995518 -66.943839 
L 263.356779 -69.371118 
L 262.71804 -72.158542 
L 262.079301 -75.228414 
L 261.440562 -78.481253 
L 260.801823 -81.802087 
L 260.163084 -85.070303 
L 259.524345 -88.172972 
L 258.885606 -91.020279 
L 258.246867 -93.560171 
L 257.608128 -95.788251 
L 256.969389 -97.74933 
L 256.33065 -99.529263 
L 255.691911 -101.239271 
L 255.053172 -102.998357 
L 254.414433 -104.920799 
L 253.775694 -107.113756 
L 253.136955 -109.685107 
L 252.498216 -112.755622 
L 251.859477 -116.465274 
L 251.220738 -120.963472 
L 250.581999 -126.378058 
L 249.94326 -132.766758 
L 249.304521 -140.06387 
L 248.665782 -148.040152 
L 248.027043 -156.291918 
L 247.388304 -164.266456 
L 246.749565 -171.318634 
L 246.110826 -176.784039 
L 245.472087 -180.051955 
L 244.833348 -180.627389 
L 244.194609 -178.180497 
L 243.55587 -172.587236 
L 242.917131 -163.962561 
L 242.278392 -152.67888 
L 241.639653 -139.355099 
L 241.000915 -124.802909 
L 240.362176 -109.929331 
L 239.723437 -95.612355 
L 239.084698 -82.580136 
L 238.445959 -71.325444 
L 237.80722 -62.075073 
L 237.168481 -54.814718 
L 236.529742 -49.35277 
L 235.891003 -45.398517 
L 235.252264 -42.632624 
L 234.613525 -40.756879 
L 233.974786 -39.520535 
L 233.336047 -38.727768 
L 232.697308 -38.233591 
L 232.058569 -37.934782 
L 231.41983 -37.760084 
L 230.781091 -37.661693 
L 230.142352 -37.608505 
L 229.503613 -37.581 
L 228.864874 -37.567431 
z
" style="stroke: #1f77b4"/>
    </defs>
    <g clip-path="url(#p645ad328e2)">
     <use xlink:href="#m7f57a62db6" x="0" y="199.98825" style="fill: #1f77b4; fill-opacity: 0.6; stroke: #1f77b4"/>
    </g>
   </g>
   <g id="PolyCollection_4">
    <defs>
     <path id="mab805c59db" d="M 223.776162 -37.562544 
L 223.776162 -37.55625 
L 224.471374 -37.55625 
L 225.166585 -37.55625 
L 225.861797 -37.55625 
L 226.557009 -37.55625 
L 227.25222 -37.55625 
L 227.947432 -37.55625 
L 228.642643 -37.55625 
L 229.337855 -37.55625 
L 230.033067 -37.55625 
L 230.728278 -37.55625 
L 231.42349 -37.55625 
L 232.118701 -37.55625 
L 232.813913 -37.55625 
L 233.509125 -37.55625 
L 234.204336 -37.55625 
L 234.899548 -37.55625 
L 235.594759 -37.55625 
L 236.289971 -37.55625 
L 236.985182 -37.55625 
L 237.680394 -37.55625 
L 238.375606 -37.55625 
L 239.070817 -37.55625 
L 239.766029 -37.55625 
L 240.46124 -37.55625 
L 241.156452 -37.55625 
L 241.851664 -37.55625 
L 242.546875 -37.55625 
L 243.242087 -37.55625 
L 243.937298 -37.55625 
L 244.63251 -37.55625 
L 245.327722 -37.55625 
L 246.022933 -37.55625 
L 246.718145 -37.55625 
L 247.413356 -37.55625 
L 248.108568 -37.55625 
L 248.80378 -37.55625 
L 249.498991 -37.55625 
L 250.194203 -37.55625 
L 250.889414 -37.55625 
L 251.584626 -37.55625 
L 252.279838 -37.55625 
L 252.975049 -37.55625 
L 253.670261 -37.55625 
L 254.365472 -37.55625 
L 255.060684 -37.55625 
L 255.755896 -37.55625 
L 256.451107 -37.55625 
L 257.146319 -37.55625 
L 257.84153 -37.55625 
L 258.536742 -37.55625 
L 259.231954 -37.55625 
L 259.927165 -37.55625 
L 260.622377 -37.55625 
L 261.317588 -37.55625 
L 262.0128 -37.55625 
L 262.708012 -37.55625 
L 263.403223 -37.55625 
L 264.098435 -37.55625 
L 264.793646 -37.55625 
L 265.488858 -37.55625 
L 266.184069 -37.55625 
L 266.879281 -37.55625 
L 267.574493 -37.55625 
L 268.269704 -37.55625 
L 268.964916 -37.55625 
L 269.660127 -37.55625 
L 270.355339 -37.55625 
L 271.050551 -37.55625 
L 271.745762 -37.55625 
L 272.440974 -37.55625 
L 273.136185 -37.55625 
L 273.831397 -37.55625 
L 274.526609 -37.55625 
L 275.22182 -37.55625 
L 275.917032 -37.55625 
L 276.612243 -37.55625 
L 277.307455 -37.55625 
L 278.002667 -37.55625 
L 278.697878 -37.55625 
L 279.39309 -37.55625 
L 280.088301 -37.55625 
L 280.783513 -37.55625 
L 281.478725 -37.55625 
L 282.173936 -37.55625 
L 282.869148 -37.55625 
L 283.564359 -37.55625 
L 284.259571 -37.55625 
L 284.954783 -37.55625 
L 285.649994 -37.55625 
L 286.345206 -37.55625 
L 287.040417 -37.55625 
L 287.735629 -37.55625 
L 288.430841 -37.55625 
L 289.126052 -37.55625 
L 289.821264 -37.55625 
L 290.516475 -37.55625 
L 291.211687 -37.55625 
L 291.906899 -37.55625 
L 292.60211 -37.55625 
L 293.297322 -37.55625 
L 293.992533 -37.55625 
L 294.687745 -37.55625 
L 295.382956 -37.55625 
L 296.078168 -37.55625 
L 296.77338 -37.55625 
L 297.468591 -37.55625 
L 298.163803 -37.55625 
L 298.859014 -37.55625 
L 299.554226 -37.55625 
L 300.249438 -37.55625 
L 300.944649 -37.55625 
L 301.639861 -37.55625 
L 302.335072 -37.55625 
L 303.030284 -37.55625 
L 303.725496 -37.55625 
L 304.420707 -37.55625 
L 305.115919 -37.55625 
L 305.81113 -37.55625 
L 306.506342 -37.55625 
L 307.201554 -37.55625 
L 307.896765 -37.55625 
L 308.591977 -37.55625 
L 309.287188 -37.55625 
L 309.9824 -37.55625 
L 310.677612 -37.55625 
L 311.372823 -37.55625 
L 312.068035 -37.55625 
L 312.763246 -37.55625 
L 313.458458 -37.55625 
L 314.15367 -37.55625 
L 314.848881 -37.55625 
L 315.544093 -37.55625 
L 316.239304 -37.55625 
L 316.934516 -37.55625 
L 317.629728 -37.55625 
L 318.324939 -37.55625 
L 319.020151 -37.55625 
L 319.715362 -37.55625 
L 320.410574 -37.55625 
L 321.105786 -37.55625 
L 321.800997 -37.55625 
L 322.496209 -37.55625 
L 323.19142 -37.55625 
L 323.886632 -37.55625 
L 324.581843 -37.55625 
L 325.277055 -37.55625 
L 325.972267 -37.55625 
L 326.667478 -37.55625 
L 327.36269 -37.55625 
L 328.057901 -37.55625 
L 328.753113 -37.55625 
L 329.448325 -37.55625 
L 330.143536 -37.55625 
L 330.838748 -37.55625 
L 331.533959 -37.55625 
L 332.229171 -37.55625 
L 332.924383 -37.55625 
L 333.619594 -37.55625 
L 334.314806 -37.55625 
L 335.010017 -37.55625 
L 335.705229 -37.55625 
L 336.400441 -37.55625 
L 337.095652 -37.55625 
L 337.790864 -37.55625 
L 338.486075 -37.55625 
L 339.181287 -37.55625 
L 339.876499 -37.55625 
L 340.57171 -37.55625 
L 341.266922 -37.55625 
L 341.962133 -37.55625 
L 342.657345 -37.55625 
L 343.352557 -37.55625 
L 344.047768 -37.55625 
L 344.74298 -37.55625 
L 345.438191 -37.55625 
L 346.133403 -37.55625 
L 346.828615 -37.55625 
L 347.523826 -37.55625 
L 348.219038 -37.55625 
L 348.914249 -37.55625 
L 349.609461 -37.55625 
L 350.304673 -37.55625 
L 350.999884 -37.55625 
L 351.695096 -37.55625 
L 352.390307 -37.55625 
L 353.085519 -37.55625 
L 353.78073 -37.55625 
L 354.475942 -37.55625 
L 355.171154 -37.55625 
L 355.866365 -37.55625 
L 356.561577 -37.55625 
L 357.256788 -37.55625 
L 357.952 -37.55625 
L 358.647212 -37.55625 
L 359.342423 -37.55625 
L 360.037635 -37.55625 
L 360.732846 -37.55625 
L 361.428058 -37.55625 
L 362.12327 -37.55625 
L 362.12327 -37.609219 
L 362.12327 -37.609219 
L 361.428058 -37.643997 
L 360.732846 -37.6984 
L 360.037635 -37.781465 
L 359.342423 -37.905252 
L 358.647212 -38.085283 
L 357.952 -38.34078 
L 357.256788 -38.69457 
L 356.561577 -39.172491 
L 355.866365 -39.802208 
L 355.171154 -40.611338 
L 354.475942 -41.624933 
L 353.78073 -42.862437 
L 353.085519 -44.33439 
L 352.390307 -46.039267 
L 351.695096 -47.960909 
L 350.999884 -50.067019 
L 350.304673 -52.309126 
L 349.609461 -54.624268 
L 348.914249 -56.938394 
L 348.219038 -59.17127 
L 347.523826 -61.242378 
L 346.828615 -63.077167 
L 346.133403 -64.612885 
L 345.438191 -65.803318 
L 344.74298 -66.621871 
L 344.047768 -67.062708 
L 343.352557 -67.139932 
L 342.657345 -66.885058 
L 341.962133 -66.343241 
L 341.266922 -65.568818 
L 340.57171 -64.620757 
L 339.876499 -63.558491 
L 339.181287 -62.438492 
L 338.486075 -61.311768 
L 337.790864 -60.222289 
L 337.095652 -59.206238 
L 336.400441 -58.291891 
L 335.705229 -57.499905 
L 335.010017 -56.843832 
L 334.314806 -56.33069 
L 333.619594 -55.961533 
L 332.924383 -55.731997 
L 332.229171 -55.632865 
L 331.533959 -55.650733 
L 330.838748 -55.768856 
L 330.143536 -55.968219 
L 329.448325 -56.228871 
L 328.753113 -56.531446 
L 328.057901 -56.858762 
L 327.36269 -57.197335 
L 326.667478 -57.538588 
L 325.972267 -57.879584 
L 325.277055 -58.223109 
L 324.581843 -58.577049 
L 323.886632 -58.953088 
L 323.19142 -59.364863 
L 322.496209 -59.825808 
L 321.800997 -60.346976 
L 321.105786 -60.935137 
L 320.410574 -61.591411 
L 319.715362 -62.310628 
L 319.020151 -63.081468 
L 318.324939 -63.88736 
L 317.629728 -64.707963 
L 316.934516 -65.52103 
L 316.239304 -66.304367 
L 315.544093 -67.037658 
L 314.848881 -67.703921 
L 314.15367 -68.290478 
L 313.458458 -68.78936 
L 312.763246 -69.197178 
L 312.068035 -69.514537 
L 311.372823 -69.745142 
L 310.677612 -69.894732 
L 309.9824 -69.970038 
L 309.287188 -69.977899 
L 308.591977 -69.924659 
L 307.896765 -69.815938 
L 307.201554 -69.656771 
L 306.506342 -69.452094 
L 305.81113 -69.207453 
L 305.115919 -68.929799 
L 304.420707 -68.628176 
L 303.725496 -68.314139 
L 303.030284 -68.001759 
L 302.335072 -67.707142 
L 301.639861 -67.447473 
L 300.944649 -67.239688 
L 300.249438 -67.098944 
L 299.554226 -67.037104 
L 298.859014 -67.061455 
L 298.163803 -67.173874 
L 297.468591 -67.370551 
L 296.77338 -67.642325 
L 296.078168 -67.97561 
L 295.382956 -68.35376 
L 294.687745 -68.758731 
L 293.992533 -69.17283 
L 293.297322 -69.580349 
L 292.60211 -69.968927 
L 291.906899 -70.330504 
L 291.211687 -70.661816 
L 290.516475 -70.964393 
L 289.821264 -71.244113 
L 289.126052 -71.510363 
L 288.430841 -71.7749 
L 287.735629 -72.050511 
L 287.040417 -72.349573 
L 286.345206 -72.682603 
L 285.649994 -73.056894 
L 284.954783 -73.475314 
L 284.259571 -73.935354 
L 283.564359 -74.428511 
L 282.869148 -74.94006 
L 282.173936 -75.449312 
L 281.478725 -75.930376 
L 280.783513 -76.353459 
L 280.088301 -76.686657 
L 279.39309 -76.898152 
L 278.697878 -76.958658 
L 278.002667 -76.843909 
L 277.307455 -76.536944 
L 276.612243 -76.029932 
L 275.917032 -75.325328 
L 275.22182 -74.436178 
L 274.526609 -73.385526 
L 273.831397 -72.204958 
L 273.136185 -70.932424 
L 272.440974 -69.609587 
L 271.745762 -68.278985 
L 271.050551 -66.981289 
L 270.355339 -65.752948 
L 269.660127 -64.624393 
L 268.964916 -63.618925 
L 268.269704 -62.752287 
L 267.574493 -62.032859 
L 266.879281 -61.462341 
L 266.184069 -61.036772 
L 265.488858 -60.747732 
L 264.793646 -60.583582 
L 264.098435 -60.530645 
L 263.403223 -60.574273 
L 262.708012 -60.699741 
L 262.0128 -60.892972 
L 261.317588 -61.141068 
L 260.622377 -61.43264 
L 259.927165 -61.75792 
L 259.231954 -62.108641 
L 258.536742 -62.477695 
L 257.84153 -62.858575 
L 257.146319 -63.24467 
L 256.451107 -63.62848 
L 255.755896 -64.000874 
L 255.060684 -64.350516 
L 254.365472 -64.66356 
L 253.670261 -64.923722 
L 252.975049 -65.112757 
L 252.279838 -65.211325 
L 251.584626 -65.200167 
L 250.889414 -65.061449 
L 250.194203 -64.780126 
L 249.498991 -64.34515 
L 248.80378 -63.750376 
L 248.108568 -62.995084 
L 247.413356 -62.084075 
L 246.718145 -61.027368 
L 246.022933 -59.839584 
L 245.327722 -58.539114 
L 244.63251 -57.147187 
L 243.937298 -55.68694 
L 243.242087 -54.18254 
L 242.546875 -52.658406 
L 241.851664 -51.13851 
L 241.156452 -49.645748 
L 240.46124 -48.201357 
L 239.766029 -46.824367 
L 239.070817 -45.531095 
L 238.375606 -44.334706 
L 237.680394 -43.244878 
L 236.985182 -42.267629 
L 236.289971 -41.405305 
L 235.594759 -40.656774 
L 234.899548 -40.017798 
L 234.204336 -39.481548 
L 233.509125 -39.039229 
L 232.813913 -38.680741 
L 232.118701 -38.395325 
L 231.42349 -38.172155 
L 230.728278 -38.000821 
L 230.033067 -37.871699 
L 229.337855 -37.776203 
L 228.642643 -37.706907 
L 227.947432 -37.657586 
L 227.25222 -37.623163 
L 226.557009 -37.599609 
L 225.861797 -37.583813 
L 225.166585 -37.573435 
L 224.471374 -37.566754 
L 223.776162 -37.562544 
z
" style="stroke: #ff7f0e"/>
    </defs>
    <g clip-path="url(#p645ad328e2)">
     <use xlink:href="#mab805c59db" x="0" y="199.98825" style="fill: #ff7f0e; fill-opacity: 0.6; stroke: #ff7f0e"/>
    </g>
   </g>
   <g id="matplotlib.axis_3">
    <g id="xtick_5">
     <g id="line2d_11">
      <g>
       <use xlink:href="#m3b909c3657" x="235.408567" y="162.432" style="stroke: #000000; stroke-width: 0.8"/>
      </g>
     </g>
     <g id="text_15">
      <!-- 0.0 -->
      <g transform="translate(227.457005 177.030437) scale(0.1 -0.1)">
       <use xlink:href="#DejaVuSans-30"/>
       <use xlink:href="#DejaVuSans-2e" x="63.623047"/>
       <use xlink:href="#DejaVuSans-30" x="95.410156"/>
      </g>
     </g>
    </g>
    <g id="xtick_6">
     <g id="line2d_12">
      <g>
       <use xlink:href="#m3b909c3657" x="292.229407" y="162.432" style="stroke: #000000; stroke-width: 0.8"/>
      </g>
     </g>
     <g id="text_16">
      <!-- 0.5 -->
      <g transform="translate(284.277845 177.030437) scale(0.1 -0.1)">
       <use xlink:href="#DejaVuSans-30"/>
       <use xlink:href="#DejaVuSans-2e" x="63.623047"/>
       <use xlink:href="#DejaVuSans-35" x="95.410156"/>
      </g>
     </g>
    </g>
    <g id="xtick_7">
     <g id="line2d_13">
      <g>
       <use xlink:href="#m3b909c3657" x="349.050247" y="162.432" style="stroke: #000000; stroke-width: 0.8"/>
      </g>
     </g>
     <g id="text_17">
      <!-- 1.0 -->
      <g transform="translate(341.098685 177.030437) scale(0.1 -0.1)">
       <use xlink:href="#DejaVuSans-31"/>
       <use xlink:href="#DejaVuSans-2e" x="63.623047"/>
       <use xlink:href="#DejaVuSans-30" x="95.410156"/>
      </g>
     </g>
    </g>
    <g id="text_18">
     <!-- Predicted probability -->
     <g transform="translate(241.21456 190.708562) scale(0.1 -0.1)">
      <defs>
       <path id="DejaVuSans-72" d="M 2631 2963 
Q 2534 3019 2420 3045 
Q 2306 3072 2169 3072 
Q 1681 3072 1420 2755 
Q 1159 2438 1159 1844 
L 1159 0 
L 581 0 
L 581 3500 
L 1159 3500 
L 1159 2956 
Q 1341 3275 1631 3429 
Q 1922 3584 2338 3584 
Q 2397 3584 2469 3576 
Q 2541 3569 2628 3553 
L 2631 2963 
z
" transform="scale(0.015625)"/>
       <path id="DejaVuSans-64" d="M 2906 2969 
L 2906 4863 
L 3481 4863 
L 3481 0 
L 2906 0 
L 2906 525 
Q 2725 213 2448 61 
Q 2172 -91 1784 -91 
Q 1150 -91 751 415 
Q 353 922 353 1747 
Q 353 2572 751 3078 
Q 1150 3584 1784 3584 
Q 2172 3584 2448 3432 
Q 2725 3281 2906 2969 
z
M 947 1747 
Q 947 1113 1208 752 
Q 1469 391 1925 391 
Q 2381 391 2643 752 
Q 2906 1113 2906 1747 
Q 2906 2381 2643 2742 
Q 2381 3103 1925 3103 
Q 1469 3103 1208 2742 
Q 947 2381 947 1747 
z
" transform="scale(0.015625)"/>
       <path id="DejaVuSans-20" transform="scale(0.015625)"/>
       <path id="DejaVuSans-70" d="M 1159 525 
L 1159 -1331 
L 581 -1331 
L 581 3500 
L 1159 3500 
L 1159 2969 
Q 1341 3281 1617 3432 
Q 1894 3584 2278 3584 
Q 2916 3584 3314 3078 
Q 3713 2572 3713 1747 
Q 3713 922 3314 415 
Q 2916 -91 2278 -91 
Q 1894 -91 1617 61 
Q 1341 213 1159 525 
z
M 3116 1747 
Q 3116 2381 2855 2742 
Q 2594 3103 2138 3103 
Q 1681 3103 1420 2742 
Q 1159 2381 1159 1747 
Q 1159 1113 1420 752 
Q 1681 391 2138 391 
Q 2594 391 2855 752 
Q 3116 1113 3116 1747 
z
" transform="scale(0.015625)"/>
       <path id="DejaVuSans-62" d="M 3116 1747 
Q 3116 2381 2855 2742 
Q 2594 3103 2138 3103 
Q 1681 3103 1420 2742 
Q 1159 2381 1159 1747 
Q 1159 1113 1420 752 
Q 1681 391 2138 391 
Q 2594 391 2855 752 
Q 3116 1113 3116 1747 
z
M 1159 2969 
Q 1341 3281 1617 3432 
Q 1894 3584 2278 3584 
Q 2916 3584 3314 3078 
Q 3713 2572 3713 1747 
Q 3713 922 3314 415 
Q 2916 -91 2278 -91 
Q 1894 -91 1617 61 
Q 1341 213 1159 525 
L 1159 0 
L 581 0 
L 581 4863 
L 1159 4863 
L 1159 2969 
z
" transform="scale(0.015625)"/>
       <path id="DejaVuSans-6c" d="M 603 4863 
L 1178 4863 
L 1178 0 
L 603 0 
L 603 4863 
z
" transform="scale(0.015625)"/>
      </defs>
      <use xlink:href="#DejaVuSans-50"/>
      <use xlink:href="#DejaVuSans-72" x="58.552734"/>
      <use xlink:href="#DejaVuSans-65" x="97.416016"/>
      <use xlink:href="#DejaVuSans-64" x="158.939453"/>
      <use xlink:href="#DejaVuSans-69" x="222.416016"/>
      <use xlink:href="#DejaVuSans-63" x="250.199219"/>
      <use xlink:href="#DejaVuSans-74" x="305.179688"/>
      <use xlink:href="#DejaVuSans-65" x="344.388672"/>
      <use xlink:href="#DejaVuSans-64" x="405.912109"/>
      <use xlink:href="#DejaVuSans-20" x="469.388672"/>
      <use xlink:href="#DejaVuSans-70" x="501.175781"/>
      <use xlink:href="#DejaVuSans-72" x="564.652344"/>
      <use xlink:href="#DejaVuSans-6f" x="603.515625"/>
      <use xlink:href="#DejaVuSans-62" x="664.697266"/>
      <use xlink:href="#DejaVuSans-61" x="728.173828"/>
      <use xlink:href="#DejaVuSans-62" x="789.453125"/>
      <use xlink:href="#DejaVuSans-69" x="852.929688"/>
      <use xlink:href="#DejaVuSans-6c" x="880.712891"/>
      <use xlink:href="#DejaVuSans-69" x="908.496094"/>
      <use xlink:href="#DejaVuSans-74" x="936.279297"/>
      <use xlink:href="#DejaVuSans-79" x="975.488281"/>
     </g>
    </g>
   </g>
   <g id="matplotlib.axis_4">
    <g id="ytick_7">
     <g id="line2d_14">
      <g>
       <use xlink:href="#mda8b05e0d7" x="216.858807" y="162.432" style="stroke: #000000; stroke-width: 0.8"/>
      </g>
     </g>
    </g>
    <g id="ytick_8">
     <g id="line2d_15">
      <g>
       <use xlink:href="#mda8b05e0d7" x="216.858807" y="135.218981" style="stroke: #000000; stroke-width: 0.8"/>
      </g>
     </g>
    </g>
    <g id="ytick_9">
     <g id="line2d_16">
      <g>
       <use xlink:href="#mda8b05e0d7" x="216.858807" y="108.005961" style="stroke: #000000; stroke-width: 0.8"/>
      </g>
     </g>
    </g>
    <g id="ytick_10">
     <g id="line2d_17">
      <g>
       <use xlink:href="#mda8b05e0d7" x="216.858807" y="80.792942" style="stroke: #000000; stroke-width: 0.8"/>
      </g>
     </g>
    </g>
    <g id="ytick_11">
     <g id="line2d_18">
      <g>
       <use xlink:href="#mda8b05e0d7" x="216.858807" y="53.579922" style="stroke: #000000; stroke-width: 0.8"/>
      </g>
     </g>
    </g>
    <g id="ytick_12">
     <g id="line2d_19">
      <g>
       <use xlink:href="#mda8b05e0d7" x="216.858807" y="26.366903" style="stroke: #000000; stroke-width: 0.8"/>
      </g>
     </g>
    </g>
   </g>
   <g id="patch_11">
    <path d="M 216.858807 162.432 
L 216.858807 7.2 
" style="fill: none; stroke: #000000; stroke-width: 0.8; stroke-linejoin: miter; stroke-linecap: square"/>
   </g>
   <g id="patch_12">
    <path d="M 369.040625 162.432 
L 369.040625 7.2 
" style="fill: none; stroke: #000000; stroke-width: 0.8; stroke-linejoin: miter; stroke-linecap: square"/>
   </g>
   <g id="patch_13">
    <path d="M 216.858807 162.432 
L 369.040625 162.432 
" style="fill: none; stroke: #000000; stroke-width: 0.8; stroke-linejoin: miter; stroke-linecap: square"/>
   </g>
   <g id="patch_14">
    <path d="M 216.858807 7.2 
L 369.040625 7.2 
" style="fill: none; stroke: #000000; stroke-width: 0.8; stroke-linejoin: miter; stroke-linecap: square"/>
   </g>
  </g>
 </g>
 <defs>
  <clipPath id="p264e2bcd04">
   <rect x="34.240625" y="7.2" width="152.181818" height="155.232"/>
  </clipPath>
  <clipPath id="p645ad328e2">
   <rect x="216.858807" y="7.2" width="152.181818" height="155.232"/>
  </clipPath>
 </defs>
</svg>
