<?xml version="1.0" encoding="utf-8" standalone="no"?>
<!DOCTYPE svg PUBLIC "-//W3C//DTD SVG 1.1//EN"
  "http://www.w3.org/Graphics/SVG/1.1/DTD/svg11.dtd">
<svg xmlns:xlink="http://www.w3.org/1999/xlink" width="376.240625pt" height="199.98825pt" viewBox="0 0 376.240625 199.98825" xmlns="http://www.w3.org/2000/svg" version="1.1">
 <metadata>
  <rdf:RDF xmlns:dc="http://purl.org/dc/elements/1.1/" xmlns:cc="http://creativecommons.org/ns#" xmlns:rdf="http://www.w3.org/1999/02/22-rdf-syntax-ns#">
   <cc:Work>
    <dc:type rdf:resource="http://purl.org/dc/dcmitype/StillImage"/>
    <dc:date>2025-05-27T21:49:46.747379</dc:date>
    <dc:format>image/svg+xml</dc:format>
    <dc:creator>
     <cc:Agent>
      <dc:title>Matplotlib v3.9.2, https://matplotlib.org/</dc:title>
     </cc:Agent>
    </dc:creator>
   </cc:Work>
  </rdf:RDF>
 </metadata>
 <defs>
  <style type="text/css">*{stroke-linejoin: round; stroke-linecap: butt}</style>
 </defs>
 <g id="figure_1">
  <g id="patch_1">
   <path d="M 0 199.98825 
L 376.240625 199.98825 
L 376.240625 -0 
L 0 -0 
z
" style="fill: #ffffff"/>
  </g>
  <g id="axes_1">
   <g id="patch_2">
    <path d="M 34.240625 162.432 
L 186.422443 162.432 
L 186.422443 7.2 
L 34.240625 7.2 
z
" style="fill: #ffffff"/>
   </g>
   <g id="PolyCollection_1">
    <defs>
     <path id="m086b564434" d="M 41.15798 -37.556477 
L 41.15798 -37.55625 
L 41.794883 -37.55625 
L 42.431786 -37.55625 
L 43.068688 -37.55625 
L 43.705591 -37.55625 
L 44.342493 -37.55625 
L 44.979396 -37.55625 
L 45.616298 -37.55625 
L 46.253201 -37.55625 
L 46.890104 -37.55625 
L 47.527006 -37.55625 
L 48.163909 -37.55625 
L 48.800811 -37.55625 
L 49.437714 -37.55625 
L 50.074616 -37.55625 
L 50.711519 -37.55625 
L 51.348422 -37.55625 
L 51.985324 -37.55625 
L 52.622227 -37.55625 
L 53.259129 -37.55625 
L 53.896032 -37.55625 
L 54.532934 -37.55625 
L 55.169837 -37.55625 
L 55.80674 -37.55625 
L 56.443642 -37.55625 
L 57.080545 -37.55625 
L 57.717447 -37.55625 
L 58.35435 -37.55625 
L 58.991252 -37.55625 
L 59.628155 -37.55625 
L 60.265058 -37.55625 
L 60.90196 -37.55625 
L 61.538863 -37.55625 
L 62.175765 -37.55625 
L 62.812668 -37.55625 
L 63.44957 -37.55625 
L 64.086473 -37.55625 
L 64.723376 -37.55625 
L 65.360278 -37.55625 
L 65.997181 -37.55625 
L 66.634083 -37.55625 
L 67.270986 -37.55625 
L 67.907888 -37.55625 
L 68.544791 -37.55625 
L 69.181694 -37.55625 
L 69.818596 -37.55625 
L 70.455499 -37.55625 
L 71.092401 -37.55625 
L 71.729304 -37.55625 
L 72.366207 -37.55625 
L 73.003109 -37.55625 
L 73.640012 -37.55625 
L 74.276914 -37.55625 
L 74.913817 -37.55625 
L 75.550719 -37.55625 
L 76.187622 -37.55625 
L 76.824525 -37.55625 
L 77.461427 -37.55625 
L 78.09833 -37.55625 
L 78.735232 -37.55625 
L 79.372135 -37.55625 
L 80.009037 -37.55625 
L 80.64594 -37.55625 
L 81.282843 -37.55625 
L 81.919745 -37.55625 
L 82.556648 -37.55625 
L 83.19355 -37.55625 
L 83.830453 -37.55625 
L 84.467355 -37.55625 
L 85.104258 -37.55625 
L 85.741161 -37.55625 
L 86.378063 -37.55625 
L 87.014966 -37.55625 
L 87.651868 -37.55625 
L 88.288771 -37.55625 
L 88.925673 -37.55625 
L 89.562576 -37.55625 
L 90.199479 -37.55625 
L 90.836381 -37.55625 
L 91.473284 -37.55625 
L 92.110186 -37.55625 
L 92.747089 -37.55625 
L 93.383991 -37.55625 
L 94.020894 -37.55625 
L 94.657797 -37.55625 
L 95.294699 -37.55625 
L 95.931602 -37.55625 
L 96.568504 -37.55625 
L 97.205407 -37.55625 
L 97.842309 -37.55625 
L 98.479212 -37.55625 
L 99.116115 -37.55625 
L 99.753017 -37.55625 
L 100.38992 -37.55625 
L 101.026822 -37.55625 
L 101.663725 -37.55625 
L 102.300627 -37.55625 
L 102.93753 -37.55625 
L 103.574433 -37.55625 
L 104.211335 -37.55625 
L 104.848238 -37.55625 
L 105.48514 -37.55625 
L 106.122043 -37.55625 
L 106.758946 -37.55625 
L 107.395848 -37.55625 
L 108.032751 -37.55625 
L 108.669653 -37.55625 
L 109.306556 -37.55625 
L 109.943458 -37.55625 
L 110.580361 -37.55625 
L 111.217264 -37.55625 
L 111.854166 -37.55625 
L 112.491069 -37.55625 
L 113.127971 -37.55625 
L 113.764874 -37.55625 
L 114.401776 -37.55625 
L 115.038679 -37.55625 
L 115.675582 -37.55625 
L 116.312484 -37.55625 
L 116.949387 -37.55625 
L 117.586289 -37.55625 
L 118.223192 -37.55625 
L 118.860094 -37.55625 
L 119.496997 -37.55625 
L 120.1339 -37.55625 
L 120.770802 -37.55625 
L 121.407705 -37.55625 
L 122.044607 -37.55625 
L 122.68151 -37.55625 
L 123.318412 -37.55625 
L 123.955315 -37.55625 
L 124.592218 -37.55625 
L 125.22912 -37.55625 
L 125.866023 -37.55625 
L 126.502925 -37.55625 
L 127.139828 -37.55625 
L 127.77673 -37.55625 
L 128.413633 -37.55625 
L 129.050536 -37.55625 
L 129.687438 -37.55625 
L 130.324341 -37.55625 
L 130.961243 -37.55625 
L 131.598146 -37.55625 
L 132.235048 -37.55625 
L 132.871951 -37.55625 
L 133.508854 -37.55625 
L 134.145756 -37.55625 
L 134.782659 -37.55625 
L 135.419561 -37.55625 
L 136.056464 -37.55625 
L 136.693366 -37.55625 
L 137.330269 -37.55625 
L 137.967172 -37.55625 
L 138.604074 -37.55625 
L 139.240977 -37.55625 
L 139.877879 -37.55625 
L 140.514782 -37.55625 
L 141.151685 -37.55625 
L 141.788587 -37.55625 
L 142.42549 -37.55625 
L 143.062392 -37.55625 
L 143.699295 -37.55625 
L 144.336197 -37.55625 
L 144.9731 -37.55625 
L 145.610003 -37.55625 
L 146.246905 -37.55625 
L 146.883808 -37.55625 
L 147.52071 -37.55625 
L 148.157613 -37.55625 
L 148.794515 -37.55625 
L 149.431418 -37.55625 
L 150.068321 -37.55625 
L 150.705223 -37.55625 
L 151.342126 -37.55625 
L 151.979028 -37.55625 
L 152.615931 -37.55625 
L 153.252833 -37.55625 
L 153.889736 -37.55625 
L 154.526639 -37.55625 
L 155.163541 -37.55625 
L 155.800444 -37.55625 
L 156.437346 -37.55625 
L 157.074249 -37.55625 
L 157.711151 -37.55625 
L 158.348054 -37.55625 
L 158.984957 -37.55625 
L 159.621859 -37.55625 
L 160.258762 -37.55625 
L 160.895664 -37.55625 
L 161.532567 -37.55625 
L 162.169469 -37.55625 
L 162.806372 -37.55625 
L 163.443275 -37.55625 
L 164.080177 -37.55625 
L 164.71708 -37.55625 
L 165.353982 -37.55625 
L 165.990885 -37.55625 
L 166.627787 -37.55625 
L 167.26469 -37.55625 
L 167.901593 -37.55625 
L 167.901593 -37.55646 
L 167.901593 -37.55646 
L 167.26469 -37.556804 
L 166.627787 -37.55755 
L 165.990885 -37.558965 
L 165.353982 -37.561309 
L 164.71708 -37.564684 
L 164.080177 -37.568896 
L 163.443275 -37.573484 
L 162.806372 -37.578003 
L 162.169469 -37.582461 
L 161.532567 -37.587574 
L 160.895664 -37.594519 
L 160.258762 -37.604182 
L 159.621859 -37.616343 
L 158.984957 -37.629426 
L 158.348054 -37.641116 
L 157.711151 -37.649619 
L 157.074249 -37.654889 
L 156.437346 -37.659154 
L 155.800444 -37.666475 
L 155.163541 -37.68141 
L 154.526639 -37.70725 
L 153.889736 -37.744426 
L 153.252833 -37.789896 
L 152.615931 -37.838094 
L 151.979028 -37.883258 
L 151.342126 -37.921996 
L 150.705223 -37.954485 
L 150.068321 -37.983506 
L 149.431418 -38.01198 
L 148.794515 -38.040823 
L 148.157613 -38.068665 
L 147.52071 -38.093606 
L 146.883808 -38.115628 
L 146.246905 -38.137743 
L 145.610003 -38.164977 
L 144.9731 -38.202048 
L 144.336197 -38.251764 
L 143.699295 -38.315451 
L 143.062392 -38.39468 
L 142.42549 -38.492078 
L 141.788587 -38.609796 
L 141.151685 -38.746585 
L 140.514782 -38.89615 
L 139.877879 -39.048853 
L 139.240977 -39.196519 
L 138.604074 -39.337841 
L 137.967172 -39.481125 
L 137.330269 -39.642127 
L 136.693366 -39.837276 
L 136.056464 -40.075608 
L 135.419561 -40.354423 
L 134.782659 -40.661965 
L 134.145756 -40.985902 
L 133.508854 -41.32215 
L 132.871951 -41.67829 
L 132.235048 -42.069455 
L 131.598146 -42.509231 
L 130.961243 -43.000766 
L 130.324341 -43.533118 
L 129.687438 -44.08549 
L 129.050536 -44.637819 
L 128.413633 -45.182136 
L 127.77673 -45.727939 
L 127.139828 -46.298591 
L 126.502925 -46.921654 
L 125.866023 -47.619286 
L 125.22912 -48.402954 
L 124.592218 -49.272621 
L 123.955315 -50.218498 
L 123.318412 -51.224658 
L 122.68151 -52.275388 
L 122.044607 -53.363753 
L 121.407705 -54.497826 
L 120.770802 -55.69801 
L 120.1339 -56.983154 
L 119.496997 -58.352226 
L 118.860094 -59.774557 
L 118.223192 -61.198365 
L 117.586289 -62.575233 
L 116.949387 -63.886222 
L 116.312484 -65.152765 
L 115.675582 -66.424685 
L 115.038679 -67.75238 
L 114.401776 -69.160173 
L 113.764874 -70.636795 
L 113.127971 -72.147979 
L 112.491069 -73.662428 
L 111.854166 -75.174461 
L 111.217264 -76.709029 
L 110.580361 -78.305804 
L 109.943458 -79.992006 
L 109.306556 -81.76105 
L 108.669653 -83.571642 
L 108.032751 -85.370042 
L 107.395848 -87.122497 
L 106.758946 -88.835449 
L 106.122043 -90.54697 
L 105.48514 -92.293447 
L 104.848238 -94.076078 
L 104.211335 -95.853508 
L 103.574433 -97.565714 
L 102.93753 -99.16824 
L 102.300627 -100.648833 
L 101.663725 -102.016044 
L 101.026822 -103.273687 
L 100.38992 -104.4045 
L 99.753017 -105.375333 
L 99.116115 -106.157254 
L 98.479212 -106.743395 
L 97.842309 -107.151549 
L 97.205407 -107.411648 
L 96.568504 -107.549085 
L 95.931602 -107.576539 
L 95.294699 -107.499842 
L 94.657797 -107.332605 
L 94.020894 -107.106383 
L 93.383991 -106.864122 
L 92.747089 -106.635733 
L 92.110186 -106.408887 
L 91.473284 -106.114573 
L 90.836381 -105.64026 
L 90.199479 -104.867921 
L 89.562576 -103.719943 
L 88.925673 -102.191359 
L 88.288771 -100.354292 
L 87.651868 -98.334572 
L 87.014966 -96.272123 
L 86.378063 -94.280774 
L 85.741161 -92.420837 
L 85.104258 -90.692383 
L 84.467355 -89.049426 
L 83.830453 -87.426403 
L 83.19355 -85.76332 
L 82.556648 -84.019317 
L 81.919745 -82.174134 
L 81.282843 -80.224489 
L 80.64594 -78.181855 
L 80.009037 -76.072084 
L 79.372135 -73.933202 
L 78.735232 -71.80884 
L 78.09833 -69.738392 
L 77.461427 -67.747251 
L 76.824525 -65.840764 
L 76.187622 -64.005034 
L 75.550719 -62.215663 
L 74.913817 -60.451584 
L 74.276914 -58.707054 
L 73.640012 -56.994755 
L 73.003109 -55.338445 
L 72.366207 -53.76096 
L 71.729304 -52.276168 
L 71.092401 -50.889111 
L 70.455499 -49.601652 
L 69.818596 -48.417898 
L 69.181694 -47.345883 
L 68.544791 -46.395217 
L 67.907888 -45.571706 
L 67.270986 -44.870555 
L 66.634083 -44.271713 
L 65.997181 -43.741875 
L 65.360278 -43.244473 
L 64.723376 -42.752831 
L 64.086473 -42.258485 
L 63.44957 -41.769985 
L 62.812668 -41.304338 
L 62.175765 -40.877472 
L 61.538863 -40.49874 
L 60.90196 -40.170016 
L 60.265058 -39.886923 
L 59.628155 -39.64012 
L 58.991252 -39.416862 
L 58.35435 -39.204101 
L 57.717447 -38.992929 
L 57.080545 -38.782062 
L 56.443642 -38.577851 
L 55.80674 -38.390654 
L 55.169837 -38.229896 
L 54.532934 -38.100461 
L 53.896032 -38.001532 
L 53.259129 -37.927472 
L 52.622227 -37.870061 
L 51.985324 -37.821447 
L 51.348422 -37.776764 
L 50.711519 -37.735135 
L 50.074616 -37.698449 
L 49.437714 -37.668866 
L 48.800811 -37.646804 
L 48.163909 -37.630617 
L 47.527006 -37.617728 
L 46.890104 -37.606057 
L 46.253201 -37.594772 
L 45.616298 -37.584148 
L 44.979396 -37.574927 
L 44.342493 -37.567711 
L 43.705591 -37.562657 
L 43.068688 -37.559498 
L 42.431786 -37.557737 
L 41.794883 -37.556863 
L 41.15798 -37.556477 
z
" style="stroke: #1f77b4"/>
    </defs>
    <g clip-path="url(#p349d5ca953)">
     <use xlink:href="#m086b564434" x="0" y="199.98825" style="fill: #1f77b4; fill-opacity: 0.6; stroke: #1f77b4"/>
    </g>
   </g>
   <g id="PolyCollection_2">
    <defs>
     <path id="m55cec2eb29" d="M 50.410681 -37.55661 
L 50.410681 -37.55625 
L 51.059397 -37.55625 
L 51.708112 -37.55625 
L 52.356828 -37.55625 
L 53.005543 -37.55625 
L 53.654259 -37.55625 
L 54.302975 -37.55625 
L 54.95169 -37.55625 
L 55.600406 -37.55625 
L 56.249121 -37.55625 
L 56.897837 -37.55625 
L 57.546553 -37.55625 
L 58.195268 -37.55625 
L 58.843984 -37.55625 
L 59.4927 -37.55625 
L 60.141415 -37.55625 
L 60.790131 -37.55625 
L 61.438846 -37.55625 
L 62.087562 -37.55625 
L 62.736278 -37.55625 
L 63.384993 -37.55625 
L 64.033709 -37.55625 
L 64.682424 -37.55625 
L 65.33114 -37.55625 
L 65.979856 -37.55625 
L 66.628571 -37.55625 
L 67.277287 -37.55625 
L 67.926002 -37.55625 
L 68.574718 -37.55625 
L 69.223434 -37.55625 
L 69.872149 -37.55625 
L 70.520865 -37.55625 
L 71.169581 -37.55625 
L 71.818296 -37.55625 
L 72.467012 -37.55625 
L 73.115727 -37.55625 
L 73.764443 -37.55625 
L 74.413159 -37.55625 
L 75.061874 -37.55625 
L 75.71059 -37.55625 
L 76.359305 -37.55625 
L 77.008021 -37.55625 
L 77.656737 -37.55625 
L 78.305452 -37.55625 
L 78.954168 -37.55625 
L 79.602884 -37.55625 
L 80.251599 -37.55625 
L 80.900315 -37.55625 
L 81.54903 -37.55625 
L 82.197746 -37.55625 
L 82.846462 -37.55625 
L 83.495177 -37.55625 
L 84.143893 -37.55625 
L 84.792608 -37.55625 
L 85.441324 -37.55625 
L 86.09004 -37.55625 
L 86.738755 -37.55625 
L 87.387471 -37.55625 
L 88.036186 -37.55625 
L 88.684902 -37.55625 
L 89.333618 -37.55625 
L 89.982333 -37.55625 
L 90.631049 -37.55625 
L 91.279765 -37.55625 
L 91.92848 -37.55625 
L 92.577196 -37.55625 
L 93.225911 -37.55625 
L 93.874627 -37.55625 
L 94.523343 -37.55625 
L 95.172058 -37.55625 
L 95.820774 -37.55625 
L 96.469489 -37.55625 
L 97.118205 -37.55625 
L 97.766921 -37.55625 
L 98.415636 -37.55625 
L 99.064352 -37.55625 
L 99.713067 -37.55625 
L 100.361783 -37.55625 
L 101.010499 -37.55625 
L 101.659214 -37.55625 
L 102.30793 -37.55625 
L 102.956646 -37.55625 
L 103.605361 -37.55625 
L 104.254077 -37.55625 
L 104.902792 -37.55625 
L 105.551508 -37.55625 
L 106.200224 -37.55625 
L 106.848939 -37.55625 
L 107.497655 -37.55625 
L 108.14637 -37.55625 
L 108.795086 -37.55625 
L 109.443802 -37.55625 
L 110.092517 -37.55625 
L 110.741233 -37.55625 
L 111.389949 -37.55625 
L 112.038664 -37.55625 
L 112.68738 -37.55625 
L 113.336095 -37.55625 
L 113.984811 -37.55625 
L 114.633527 -37.55625 
L 115.282242 -37.55625 
L 115.930958 -37.55625 
L 116.579673 -37.55625 
L 117.228389 -37.55625 
L 117.877105 -37.55625 
L 118.52582 -37.55625 
L 119.174536 -37.55625 
L 119.823251 -37.55625 
L 120.471967 -37.55625 
L 121.120683 -37.55625 
L 121.769398 -37.55625 
L 122.418114 -37.55625 
L 123.06683 -37.55625 
L 123.715545 -37.55625 
L 124.364261 -37.55625 
L 125.012976 -37.55625 
L 125.661692 -37.55625 
L 126.310408 -37.55625 
L 126.959123 -37.55625 
L 127.607839 -37.55625 
L 128.256554 -37.55625 
L 128.90527 -37.55625 
L 129.553986 -37.55625 
L 130.202701 -37.55625 
L 130.851417 -37.55625 
L 131.500132 -37.55625 
L 132.148848 -37.55625 
L 132.797564 -37.55625 
L 133.446279 -37.55625 
L 134.094995 -37.55625 
L 134.743711 -37.55625 
L 135.392426 -37.55625 
L 136.041142 -37.55625 
L 136.689857 -37.55625 
L 137.338573 -37.55625 
L 137.987289 -37.55625 
L 138.636004 -37.55625 
L 139.28472 -37.55625 
L 139.933435 -37.55625 
L 140.582151 -37.55625 
L 141.230867 -37.55625 
L 141.879582 -37.55625 
L 142.528298 -37.55625 
L 143.177014 -37.55625 
L 143.825729 -37.55625 
L 144.474445 -37.55625 
L 145.12316 -37.55625 
L 145.771876 -37.55625 
L 146.420592 -37.55625 
L 147.069307 -37.55625 
L 147.718023 -37.55625 
L 148.366738 -37.55625 
L 149.015454 -37.55625 
L 149.66417 -37.55625 
L 150.312885 -37.55625 
L 150.961601 -37.55625 
L 151.610316 -37.55625 
L 152.259032 -37.55625 
L 152.907748 -37.55625 
L 153.556463 -37.55625 
L 154.205179 -37.55625 
L 154.853895 -37.55625 
L 155.50261 -37.55625 
L 156.151326 -37.55625 
L 156.800041 -37.55625 
L 157.448757 -37.55625 
L 158.097473 -37.55625 
L 158.746188 -37.55625 
L 159.394904 -37.55625 
L 160.043619 -37.55625 
L 160.692335 -37.55625 
L 161.341051 -37.55625 
L 161.989766 -37.55625 
L 162.638482 -37.55625 
L 163.287198 -37.55625 
L 163.935913 -37.55625 
L 164.584629 -37.55625 
L 165.233344 -37.55625 
L 165.88206 -37.55625 
L 166.530776 -37.55625 
L 167.179491 -37.55625 
L 167.828207 -37.55625 
L 168.476922 -37.55625 
L 169.125638 -37.55625 
L 169.774354 -37.55625 
L 170.423069 -37.55625 
L 171.071785 -37.55625 
L 171.7205 -37.55625 
L 172.369216 -37.55625 
L 173.017932 -37.55625 
L 173.666647 -37.55625 
L 174.315363 -37.55625 
L 174.964079 -37.55625 
L 175.612794 -37.55625 
L 176.26151 -37.55625 
L 176.910225 -37.55625 
L 177.558941 -37.55625 
L 178.207657 -37.55625 
L 178.856372 -37.55625 
L 179.505088 -37.55625 
L 179.505088 -37.556616 
L 179.505088 -37.556616 
L 178.856372 -37.557073 
L 178.207657 -37.557964 
L 177.558941 -37.55956 
L 176.910225 -37.562185 
L 176.26151 -37.566148 
L 175.612794 -37.571648 
L 174.964079 -37.578682 
L 174.315363 -37.587035 
L 173.666647 -37.596406 
L 173.017932 -37.606694 
L 172.369216 -37.618386 
L 171.7205 -37.632934 
L 171.071785 -37.652953 
L 170.423069 -37.682105 
L 169.774354 -37.724618 
L 169.125638 -37.78453 
L 168.476922 -37.864938 
L 167.828207 -37.967611 
L 167.179491 -38.093216 
L 166.530776 -38.24211 
L 165.88206 -38.415352 
L 165.233344 -38.615428 
L 164.584629 -38.84639 
L 163.935913 -39.1134 
L 163.287198 -39.42195 
L 162.638482 -39.776998 
L 161.989766 -40.182107 
L 161.341051 -40.638515 
L 160.692335 -41.144124 
L 160.043619 -41.692717 
L 159.394904 -42.274097 
L 158.746188 -42.875926 
L 158.097473 -43.487531 
L 157.448757 -44.104771 
L 156.800041 -44.733816 
L 156.151326 -45.391441 
L 155.50261 -46.100598 
L 154.853895 -46.882436 
L 154.205179 -47.747982 
L 153.556463 -48.693262 
L 152.907748 -49.700244 
L 152.259032 -50.743459 
L 151.610316 -51.799762 
L 150.961601 -52.857326 
L 150.312885 -53.92007 
L 149.66417 -55.005299 
L 149.015454 -56.135129 
L 148.366738 -57.325381 
L 147.718023 -58.577292 
L 147.069307 -59.876367 
L 146.420592 -61.198947 
L 145.771876 -62.522895 
L 145.12316 -63.836724 
L 144.474445 -65.142897 
L 143.825729 -66.45468 
L 143.177014 -67.789264 
L 142.528298 -69.16099 
L 141.879582 -70.577269 
L 141.230867 -72.037771 
L 140.582151 -73.536028 
L 139.933435 -75.062383 
L 139.28472 -76.607437 
L 138.636004 -78.16517 
L 137.987289 -79.734574 
L 137.338573 -81.318697 
L 136.689857 -82.921078 
L 136.041142 -84.541267 
L 135.392426 -86.1722 
L 134.743711 -87.80143 
L 134.094995 -89.415743 
L 133.446279 -91.006215 
L 132.797564 -92.57024 
L 132.148848 -94.109133 
L 131.500132 -95.622987 
L 130.851417 -97.106097 
L 130.202701 -98.545264 
L 129.553986 -99.920721 
L 128.90527 -101.207718 
L 128.256554 -102.377298 
L 127.607839 -103.396627 
L 126.959123 -104.230446 
L 126.310408 -104.844737 
L 125.661692 -105.212231 
L 125.012976 -105.318121 
L 124.364261 -105.164134 
L 123.715545 -104.769594 
L 123.06683 -104.169082 
L 122.418114 -103.407422 
L 121.769398 -102.533619 
L 121.120683 -101.59539 
L 120.471967 -100.634757 
L 119.823251 -99.683793 
L 119.174536 -98.759456 
L 118.52582 -97.858135 
L 117.877105 -96.953038 
L 117.228389 -95.998393 
L 116.579673 -94.942093 
L 115.930958 -93.743632 
L 115.282242 -92.389918 
L 114.633527 -90.901154 
L 113.984811 -89.323452 
L 113.336095 -87.711748 
L 112.68738 -86.111611 
L 112.038664 -84.548336 
L 111.389949 -83.02671 
L 110.741233 -81.538478 
L 110.092517 -80.071105 
L 109.443802 -78.612602 
L 108.795086 -77.151394 
L 108.14637 -75.674023 
L 107.497655 -74.164479 
L 106.848939 -72.607136 
L 106.200224 -70.992425 
L 105.551508 -69.32263 
L 104.902792 -67.615095 
L 104.254077 -65.901374 
L 103.605361 -64.222325 
L 102.956646 -62.620315 
L 102.30793 -61.130515 
L 101.659214 -59.773591 
L 101.010499 -58.55197 
L 100.361783 -57.45098 
L 99.713067 -56.444534 
L 99.064352 -55.50326 
L 98.415636 -54.601926 
L 97.766921 -53.723486 
L 97.118205 -52.859026 
L 96.469489 -52.005169 
L 95.820774 -51.161597 
L 95.172058 -50.330491 
L 94.523343 -49.517659 
L 93.874627 -48.73354 
L 93.225911 -47.992261 
L 92.577196 -47.308381 
L 91.92848 -46.692489 
L 91.279765 -46.147424 
L 90.631049 -45.666447 
L 89.982333 -45.233879 
L 89.333618 -44.828147 
L 88.684902 -44.426667 
L 88.036186 -44.011428 
L 87.387471 -43.573514 
L 86.738755 -43.114777 
L 86.09004 -42.645858 
L 85.441324 -42.181352 
L 84.792608 -41.734298 
L 84.143893 -41.312439 
L 83.495177 -40.917613 
L 82.846462 -40.548003 
L 82.197746 -40.201586 
L 81.54903 -39.878796 
L 80.900315 -39.583161 
L 80.251599 -39.319903 
L 79.602884 -39.093544 
L 78.954168 -38.905761 
L 78.305452 -38.754314 
L 77.656737 -38.633194 
L 77.008021 -38.533719 
L 76.359305 -38.446282 
L 75.71059 -38.362446 
L 75.061874 -38.276936 
L 74.413159 -38.188836 
L 73.764443 -38.10135 
L 73.115727 -38.02002 
L 72.467012 -37.950079 
L 71.818296 -37.894136 
L 71.169581 -37.851246 
L 70.520865 -37.81764 
L 69.872149 -37.788556 
L 69.223434 -37.760137 
L 68.574718 -37.730538 
L 67.926002 -37.699959 
L 67.277287 -37.669903 
L 66.628571 -37.642212 
L 65.979856 -37.618343 
L 65.33114 -37.599055 
L 64.682424 -37.58444 
L 64.033709 -37.574126 
L 63.384993 -37.567521 
L 62.736278 -37.564012 
L 62.087562 -37.563085 
L 61.438846 -37.564349 
L 60.790131 -37.567459 
L 60.141415 -37.571981 
L 59.4927 -37.577267 
L 58.843984 -37.582427 
L 58.195268 -37.586456 
L 57.546553 -37.588483 
L 56.897837 -37.58804 
L 56.249121 -37.585224 
L 55.600406 -37.580652 
L 54.95169 -37.57524 
L 54.302975 -37.569906 
L 53.654259 -37.565325 
L 53.005543 -37.561822 
L 52.356828 -37.559412 
L 51.708112 -37.557908 
L 51.059397 -37.557053 
L 50.410681 -37.55661 
z
" style="stroke: #ff7f0e"/>
    </defs>
    <g clip-path="url(#p349d5ca953)">
     <use xlink:href="#m55cec2eb29" x="0" y="199.98825" style="fill: #ff7f0e; fill-opacity: 0.6; stroke: #ff7f0e"/>
    </g>
   </g>
   <g id="matplotlib.axis_1">
    <g id="xtick_1">
     <g id="line2d_1">
      <defs>
       <path id="mae1fce21af" d="M 0 0 
L 0 3.5 
" style="stroke: #000000; stroke-width: 0.8"/>
      </defs>
      <g>
       <use xlink:href="#mae1fce21af" x="46.976951" y="162.432" style="stroke: #000000; stroke-width: 0.8"/>
      </g>
     </g>
     <g id="text_1">
      <!-- −1.5 -->
      <g transform="translate(34.835545 177.030437) scale(0.1 -0.1)">
       <defs>
        <path id="DejaVuSans-2212" d="M 678 2272 
L 4684 2272 
L 4684 1741 
L 678 1741 
L 678 2272 
z
" transform="scale(0.015625)"/>
        <path id="DejaVuSans-31" d="M 794 531 
L 1825 531 
L 1825 4091 
L 703 3866 
L 703 4441 
L 1819 4666 
L 2450 4666 
L 2450 531 
L 3481 531 
L 3481 0 
L 794 0 
L 794 531 
z
" transform="scale(0.015625)"/>
        <path id="DejaVuSans-2e" d="M 684 794 
L 1344 794 
L 1344 0 
L 684 0 
L 684 794 
z
" transform="scale(0.015625)"/>
        <path id="DejaVuSans-35" d="M 691 4666 
L 3169 4666 
L 3169 4134 
L 1269 4134 
L 1269 2991 
Q 1406 3038 1543 3061 
Q 1681 3084 1819 3084 
Q 2600 3084 3056 2656 
Q 3513 2228 3513 1497 
Q 3513 744 3044 326 
Q 2575 -91 1722 -91 
Q 1428 -91 1123 -41 
Q 819 9 494 109 
L 494 744 
Q 775 591 1075 516 
Q 1375 441 1709 441 
Q 2250 441 2565 725 
Q 2881 1009 2881 1497 
Q 2881 1984 2565 2268 
Q 2250 2553 1709 2553 
Q 1456 2553 1204 2497 
Q 953 2441 691 2322 
L 691 4666 
z
" transform="scale(0.015625)"/>
       </defs>
       <use xlink:href="#DejaVuSans-2212"/>
       <use xlink:href="#DejaVuSans-31" x="83.789062"/>
       <use xlink:href="#DejaVuSans-2e" x="147.412109"/>
       <use xlink:href="#DejaVuSans-35" x="179.199219"/>
      </g>
     </g>
    </g>
    <g id="xtick_2">
     <g id="line2d_2">
      <g>
       <use xlink:href="#mae1fce21af" x="93.635107" y="162.432" style="stroke: #000000; stroke-width: 0.8"/>
      </g>
     </g>
     <g id="text_2">
      <!-- −1.0 -->
      <g transform="translate(81.493701 177.030437) scale(0.1 -0.1)">
       <defs>
        <path id="DejaVuSans-30" d="M 2034 4250 
Q 1547 4250 1301 3770 
Q 1056 3291 1056 2328 
Q 1056 1369 1301 889 
Q 1547 409 2034 409 
Q 2525 409 2770 889 
Q 3016 1369 3016 2328 
Q 3016 3291 2770 3770 
Q 2525 4250 2034 4250 
z
M 2034 4750 
Q 2819 4750 3233 4129 
Q 3647 3509 3647 2328 
Q 3647 1150 3233 529 
Q 2819 -91 2034 -91 
Q 1250 -91 836 529 
Q 422 1150 422 2328 
Q 422 3509 836 4129 
Q 1250 4750 2034 4750 
z
" transform="scale(0.015625)"/>
       </defs>
       <use xlink:href="#DejaVuSans-2212"/>
       <use xlink:href="#DejaVuSans-31" x="83.789062"/>
       <use xlink:href="#DejaVuSans-2e" x="147.412109"/>
       <use xlink:href="#DejaVuSans-30" x="179.199219"/>
      </g>
     </g>
    </g>
    <g id="xtick_3">
     <g id="line2d_3">
      <g>
       <use xlink:href="#mae1fce21af" x="140.293263" y="162.432" style="stroke: #000000; stroke-width: 0.8"/>
      </g>
     </g>
     <g id="text_3">
      <!-- −0.5 -->
      <g transform="translate(128.151857 177.030437) scale(0.1 -0.1)">
       <use xlink:href="#DejaVuSans-2212"/>
       <use xlink:href="#DejaVuSans-30" x="83.789062"/>
       <use xlink:href="#DejaVuSans-2e" x="147.412109"/>
       <use xlink:href="#DejaVuSans-35" x="179.199219"/>
      </g>
     </g>
    </g>
    <g id="text_4">
     <!-- QAFI -->
     <g transform="translate(98.624503 190.708562) scale(0.1 -0.1)">
      <defs>
       <path id="DejaVuSans-51" d="M 2522 4238 
Q 1834 4238 1429 3725 
Q 1025 3213 1025 2328 
Q 1025 1447 1429 934 
Q 1834 422 2522 422 
Q 3209 422 3611 934 
Q 4013 1447 4013 2328 
Q 4013 3213 3611 3725 
Q 3209 4238 2522 4238 
z
M 3406 84 
L 4238 -825 
L 3475 -825 
L 2784 -78 
Q 2681 -84 2626 -87 
Q 2572 -91 2522 -91 
Q 1538 -91 948 567 
Q 359 1225 359 2328 
Q 359 3434 948 4092 
Q 1538 4750 2522 4750 
Q 3503 4750 4090 4092 
Q 4678 3434 4678 2328 
Q 4678 1516 4351 937 
Q 4025 359 3406 84 
z
" transform="scale(0.015625)"/>
       <path id="DejaVuSans-41" d="M 2188 4044 
L 1331 1722 
L 3047 1722 
L 2188 4044 
z
M 1831 4666 
L 2547 4666 
L 4325 0 
L 3669 0 
L 3244 1197 
L 1141 1197 
L 716 0 
L 50 0 
L 1831 4666 
z
" transform="scale(0.015625)"/>
       <path id="DejaVuSans-46" d="M 628 4666 
L 3309 4666 
L 3309 4134 
L 1259 4134 
L 1259 2759 
L 3109 2759 
L 3109 2228 
L 1259 2228 
L 1259 0 
L 628 0 
L 628 4666 
z
" transform="scale(0.015625)"/>
       <path id="DejaVuSans-49" d="M 628 4666 
L 1259 4666 
L 1259 0 
L 628 0 
L 628 4666 
z
" transform="scale(0.015625)"/>
      </defs>
      <use xlink:href="#DejaVuSans-51"/>
      <use xlink:href="#DejaVuSans-41" x="78.710938"/>
      <use xlink:href="#DejaVuSans-46" x="147.119141"/>
      <use xlink:href="#DejaVuSans-49" x="204.638672"/>
     </g>
    </g>
   </g>
   <g id="matplotlib.axis_2">
    <g id="ytick_1">
     <g id="line2d_4">
      <defs>
       <path id="m9afd49856e" d="M 0 0 
L -3.5 0 
" style="stroke: #000000; stroke-width: 0.8"/>
      </defs>
      <g>
       <use xlink:href="#m9afd49856e" x="34.240625" y="162.432" style="stroke: #000000; stroke-width: 0.8"/>
      </g>
     </g>
     <g id="text_5">
      <!-- 0 -->
      <g transform="translate(20.878125 166.231219) scale(0.1 -0.1)">
       <use xlink:href="#DejaVuSans-30"/>
      </g>
     </g>
    </g>
    <g id="ytick_2">
     <g id="line2d_5">
      <g>
       <use xlink:href="#m9afd49856e" x="34.240625" y="135.110272" style="stroke: #000000; stroke-width: 0.8"/>
      </g>
     </g>
     <g id="text_6">
      <!-- 1 -->
      <g transform="translate(20.878125 138.909491) scale(0.1 -0.1)">
       <use xlink:href="#DejaVuSans-31"/>
      </g>
     </g>
    </g>
    <g id="ytick_3">
     <g id="line2d_6">
      <g>
       <use xlink:href="#m9afd49856e" x="34.240625" y="107.788545" style="stroke: #000000; stroke-width: 0.8"/>
      </g>
     </g>
     <g id="text_7">
      <!-- 2 -->
      <g transform="translate(20.878125 111.587763) scale(0.1 -0.1)">
       <defs>
        <path id="DejaVuSans-32" d="M 1228 531 
L 3431 531 
L 3431 0 
L 469 0 
L 469 531 
Q 828 903 1448 1529 
Q 2069 2156 2228 2338 
Q 2531 2678 2651 2914 
Q 2772 3150 2772 3378 
Q 2772 3750 2511 3984 
Q 2250 4219 1831 4219 
Q 1534 4219 1204 4116 
Q 875 4013 500 3803 
L 500 4441 
Q 881 4594 1212 4672 
Q 1544 4750 1819 4750 
Q 2544 4750 2975 4387 
Q 3406 4025 3406 3419 
Q 3406 3131 3298 2873 
Q 3191 2616 2906 2266 
Q 2828 2175 2409 1742 
Q 1991 1309 1228 531 
z
" transform="scale(0.015625)"/>
       </defs>
       <use xlink:href="#DejaVuSans-32"/>
      </g>
     </g>
    </g>
    <g id="ytick_4">
     <g id="line2d_7">
      <g>
       <use xlink:href="#m9afd49856e" x="34.240625" y="80.466817" style="stroke: #000000; stroke-width: 0.8"/>
      </g>
     </g>
     <g id="text_8">
      <!-- 3 -->
      <g transform="translate(20.878125 84.266036) scale(0.1 -0.1)">
       <defs>
        <path id="DejaVuSans-33" d="M 2597 2516 
Q 3050 2419 3304 2112 
Q 3559 1806 3559 1356 
Q 3559 666 3084 287 
Q 2609 -91 1734 -91 
Q 1441 -91 1130 -33 
Q 819 25 488 141 
L 488 750 
Q 750 597 1062 519 
Q 1375 441 1716 441 
Q 2309 441 2620 675 
Q 2931 909 2931 1356 
Q 2931 1769 2642 2001 
Q 2353 2234 1838 2234 
L 1294 2234 
L 1294 2753 
L 1863 2753 
Q 2328 2753 2575 2939 
Q 2822 3125 2822 3475 
Q 2822 3834 2567 4026 
Q 2313 4219 1838 4219 
Q 1578 4219 1281 4162 
Q 984 4106 628 3988 
L 628 4550 
Q 988 4650 1302 4700 
Q 1616 4750 1894 4750 
Q 2613 4750 3031 4423 
Q 3450 4097 3450 3541 
Q 3450 3153 3228 2886 
Q 3006 2619 2597 2516 
z
" transform="scale(0.015625)"/>
       </defs>
       <use xlink:href="#DejaVuSans-33"/>
      </g>
     </g>
    </g>
    <g id="ytick_5">
     <g id="line2d_8">
      <g>
       <use xlink:href="#m9afd49856e" x="34.240625" y="53.145089" style="stroke: #000000; stroke-width: 0.8"/>
      </g>
     </g>
     <g id="text_9">
      <!-- 4 -->
      <g transform="translate(20.878125 56.944308) scale(0.1 -0.1)">
       <defs>
        <path id="DejaVuSans-34" d="M 2419 4116 
L 825 1625 
L 2419 1625 
L 2419 4116 
z
M 2253 4666 
L 3047 4666 
L 3047 1625 
L 3713 1625 
L 3713 1100 
L 3047 1100 
L 3047 0 
L 2419 0 
L 2419 1100 
L 313 1100 
L 313 1709 
L 2253 4666 
z
" transform="scale(0.015625)"/>
       </defs>
       <use xlink:href="#DejaVuSans-34"/>
      </g>
     </g>
    </g>
    <g id="ytick_6">
     <g id="line2d_9">
      <g>
       <use xlink:href="#m9afd49856e" x="34.240625" y="25.823362" style="stroke: #000000; stroke-width: 0.8"/>
      </g>
     </g>
     <g id="text_10">
      <!-- 5 -->
      <g transform="translate(20.878125 29.62258) scale(0.1 -0.1)">
       <use xlink:href="#DejaVuSans-35"/>
      </g>
     </g>
    </g>
    <g id="text_11">
     <!-- Density -->
     <g transform="translate(14.798437 103.824594) rotate(-90) scale(0.1 -0.1)">
      <defs>
       <path id="DejaVuSans-44" d="M 1259 4147 
L 1259 519 
L 2022 519 
Q 2988 519 3436 956 
Q 3884 1394 3884 2338 
Q 3884 3275 3436 3711 
Q 2988 4147 2022 4147 
L 1259 4147 
z
M 628 4666 
L 1925 4666 
Q 3281 4666 3915 4102 
Q 4550 3538 4550 2338 
Q 4550 1131 3912 565 
Q 3275 0 1925 0 
L 628 0 
L 628 4666 
z
" transform="scale(0.015625)"/>
       <path id="DejaVuSans-65" d="M 3597 1894 
L 3597 1613 
L 953 1613 
Q 991 1019 1311 708 
Q 1631 397 2203 397 
Q 2534 397 2845 478 
Q 3156 559 3463 722 
L 3463 178 
Q 3153 47 2828 -22 
Q 2503 -91 2169 -91 
Q 1331 -91 842 396 
Q 353 884 353 1716 
Q 353 2575 817 3079 
Q 1281 3584 2069 3584 
Q 2775 3584 3186 3129 
Q 3597 2675 3597 1894 
z
M 3022 2063 
Q 3016 2534 2758 2815 
Q 2500 3097 2075 3097 
Q 1594 3097 1305 2825 
Q 1016 2553 972 2059 
L 3022 2063 
z
" transform="scale(0.015625)"/>
       <path id="DejaVuSans-6e" d="M 3513 2113 
L 3513 0 
L 2938 0 
L 2938 2094 
Q 2938 2591 2744 2837 
Q 2550 3084 2163 3084 
Q 1697 3084 1428 2787 
Q 1159 2491 1159 1978 
L 1159 0 
L 581 0 
L 581 3500 
L 1159 3500 
L 1159 2956 
Q 1366 3272 1645 3428 
Q 1925 3584 2291 3584 
Q 2894 3584 3203 3211 
Q 3513 2838 3513 2113 
z
" transform="scale(0.015625)"/>
       <path id="DejaVuSans-73" d="M 2834 3397 
L 2834 2853 
Q 2591 2978 2328 3040 
Q 2066 3103 1784 3103 
Q 1356 3103 1142 2972 
Q 928 2841 928 2578 
Q 928 2378 1081 2264 
Q 1234 2150 1697 2047 
L 1894 2003 
Q 2506 1872 2764 1633 
Q 3022 1394 3022 966 
Q 3022 478 2636 193 
Q 2250 -91 1575 -91 
Q 1294 -91 989 -36 
Q 684 19 347 128 
L 347 722 
Q 666 556 975 473 
Q 1284 391 1588 391 
Q 1994 391 2212 530 
Q 2431 669 2431 922 
Q 2431 1156 2273 1281 
Q 2116 1406 1581 1522 
L 1381 1569 
Q 847 1681 609 1914 
Q 372 2147 372 2553 
Q 372 3047 722 3315 
Q 1072 3584 1716 3584 
Q 2034 3584 2315 3537 
Q 2597 3491 2834 3397 
z
" transform="scale(0.015625)"/>
       <path id="DejaVuSans-69" d="M 603 3500 
L 1178 3500 
L 1178 0 
L 603 0 
L 603 3500 
z
M 603 4863 
L 1178 4863 
L 1178 4134 
L 603 4134 
L 603 4863 
z
" transform="scale(0.015625)"/>
       <path id="DejaVuSans-74" d="M 1172 4494 
L 1172 3500 
L 2356 3500 
L 2356 3053 
L 1172 3053 
L 1172 1153 
Q 1172 725 1289 603 
Q 1406 481 1766 481 
L 2356 481 
L 2356 0 
L 1766 0 
Q 1100 0 847 248 
Q 594 497 594 1153 
L 594 3053 
L 172 3053 
L 172 3500 
L 594 3500 
L 594 4494 
L 1172 4494 
z
" transform="scale(0.015625)"/>
       <path id="DejaVuSans-79" d="M 2059 -325 
Q 1816 -950 1584 -1140 
Q 1353 -1331 966 -1331 
L 506 -1331 
L 506 -850 
L 844 -850 
Q 1081 -850 1212 -737 
Q 1344 -625 1503 -206 
L 1606 56 
L 191 3500 
L 800 3500 
L 1894 763 
L 2988 3500 
L 3597 3500 
L 2059 -325 
z
" transform="scale(0.015625)"/>
      </defs>
      <use xlink:href="#DejaVuSans-44"/>
      <use xlink:href="#DejaVuSans-65" x="77.001953"/>
      <use xlink:href="#DejaVuSans-6e" x="138.525391"/>
      <use xlink:href="#DejaVuSans-73" x="201.904297"/>
      <use xlink:href="#DejaVuSans-69" x="254.003906"/>
      <use xlink:href="#DejaVuSans-74" x="281.787109"/>
      <use xlink:href="#DejaVuSans-79" x="320.996094"/>
     </g>
    </g>
   </g>
   <g id="patch_3">
    <path d="M 34.240625 162.432 
L 34.240625 7.2 
" style="fill: none; stroke: #000000; stroke-width: 0.8; stroke-linejoin: miter; stroke-linecap: square"/>
   </g>
   <g id="patch_4">
    <path d="M 186.422443 162.432 
L 186.422443 7.2 
" style="fill: none; stroke: #000000; stroke-width: 0.8; stroke-linejoin: miter; stroke-linecap: square"/>
   </g>
   <g id="patch_5">
    <path d="M 34.240625 162.432 
L 186.422443 162.432 
" style="fill: none; stroke: #000000; stroke-width: 0.8; stroke-linejoin: miter; stroke-linecap: square"/>
   </g>
   <g id="patch_6">
    <path d="M 34.240625 7.2 
L 186.422443 7.2 
" style="fill: none; stroke: #000000; stroke-width: 0.8; stroke-linejoin: miter; stroke-linecap: square"/>
   </g>
   <g id="legend_1">
    <g id="patch_7">
     <path d="M 120.482443 33.349375 
L 181.522443 33.349375 
Q 182.922443 33.349375 182.922443 31.949375 
L 182.922443 12.1 
Q 182.922443 10.7 181.522443 10.7 
L 120.482443 10.7 
Q 119.082443 10.7 119.082443 12.1 
L 119.082443 31.949375 
Q 119.082443 33.349375 120.482443 33.349375 
z
" style="fill: #ffffff; opacity: 0.8; stroke: #cccccc; stroke-linejoin: miter"/>
    </g>
    <g id="patch_8">
     <path d="M 121.882443 18.818906 
L 135.882443 18.818906 
L 135.882443 13.918906 
L 121.882443 13.918906 
z
" style="fill: #1f77b4; fill-opacity: 0.6; stroke: #1f77b4; stroke-linejoin: miter"/>
    </g>
    <g id="text_12">
     <!-- Benign -->
     <g transform="translate(141.482443 18.818906) scale(0.07 -0.07)">
      <defs>
       <path id="DejaVuSans-42" d="M 1259 2228 
L 1259 519 
L 2272 519 
Q 2781 519 3026 730 
Q 3272 941 3272 1375 
Q 3272 1813 3026 2020 
Q 2781 2228 2272 2228 
L 1259 2228 
z
M 1259 4147 
L 1259 2741 
L 2194 2741 
Q 2656 2741 2882 2914 
Q 3109 3088 3109 3444 
Q 3109 3797 2882 3972 
Q 2656 4147 2194 4147 
L 1259 4147 
z
M 628 4666 
L 2241 4666 
Q 2963 4666 3353 4366 
Q 3744 4066 3744 3513 
Q 3744 3084 3544 2831 
Q 3344 2578 2956 2516 
Q 3422 2416 3680 2098 
Q 3938 1781 3938 1306 
Q 3938 681 3513 340 
Q 3088 0 2303 0 
L 628 0 
L 628 4666 
z
" transform="scale(0.015625)"/>
       <path id="DejaVuSans-67" d="M 2906 1791 
Q 2906 2416 2648 2759 
Q 2391 3103 1925 3103 
Q 1463 3103 1205 2759 
Q 947 2416 947 1791 
Q 947 1169 1205 825 
Q 1463 481 1925 481 
Q 2391 481 2648 825 
Q 2906 1169 2906 1791 
z
M 3481 434 
Q 3481 -459 3084 -895 
Q 2688 -1331 1869 -1331 
Q 1566 -1331 1297 -1286 
Q 1028 -1241 775 -1147 
L 775 -588 
Q 1028 -725 1275 -790 
Q 1522 -856 1778 -856 
Q 2344 -856 2625 -561 
Q 2906 -266 2906 331 
L 2906 616 
Q 2728 306 2450 153 
Q 2172 0 1784 0 
Q 1141 0 747 490 
Q 353 981 353 1791 
Q 353 2603 747 3093 
Q 1141 3584 1784 3584 
Q 2172 3584 2450 3431 
Q 2728 3278 2906 2969 
L 2906 3500 
L 3481 3500 
L 3481 434 
z
" transform="scale(0.015625)"/>
      </defs>
      <use xlink:href="#DejaVuSans-42"/>
      <use xlink:href="#DejaVuSans-65" x="68.603516"/>
      <use xlink:href="#DejaVuSans-6e" x="130.126953"/>
      <use xlink:href="#DejaVuSans-69" x="193.505859"/>
      <use xlink:href="#DejaVuSans-67" x="221.289062"/>
      <use xlink:href="#DejaVuSans-6e" x="284.765625"/>
     </g>
    </g>
    <g id="patch_9">
     <path d="M 121.882443 29.093594 
L 135.882443 29.093594 
L 135.882443 24.193594 
L 121.882443 24.193594 
z
" style="fill: #ff7f0e; fill-opacity: 0.6; stroke: #ff7f0e; stroke-linejoin: miter"/>
    </g>
    <g id="text_13">
     <!-- Pathogenic -->
     <g transform="translate(141.482443 29.093594) scale(0.07 -0.07)">
      <defs>
       <path id="DejaVuSans-50" d="M 1259 4147 
L 1259 2394 
L 2053 2394 
Q 2494 2394 2734 2622 
Q 2975 2850 2975 3272 
Q 2975 3691 2734 3919 
Q 2494 4147 2053 4147 
L 1259 4147 
z
M 628 4666 
L 2053 4666 
Q 2838 4666 3239 4311 
Q 3641 3956 3641 3272 
Q 3641 2581 3239 2228 
Q 2838 1875 2053 1875 
L 1259 1875 
L 1259 0 
L 628 0 
L 628 4666 
z
" transform="scale(0.015625)"/>
       <path id="DejaVuSans-61" d="M 2194 1759 
Q 1497 1759 1228 1600 
Q 959 1441 959 1056 
Q 959 750 1161 570 
Q 1363 391 1709 391 
Q 2188 391 2477 730 
Q 2766 1069 2766 1631 
L 2766 1759 
L 2194 1759 
z
M 3341 1997 
L 3341 0 
L 2766 0 
L 2766 531 
Q 2569 213 2275 61 
Q 1981 -91 1556 -91 
Q 1019 -91 701 211 
Q 384 513 384 1019 
Q 384 1609 779 1909 
Q 1175 2209 1959 2209 
L 2766 2209 
L 2766 2266 
Q 2766 2663 2505 2880 
Q 2244 3097 1772 3097 
Q 1472 3097 1187 3025 
Q 903 2953 641 2809 
L 641 3341 
Q 956 3463 1253 3523 
Q 1550 3584 1831 3584 
Q 2591 3584 2966 3190 
Q 3341 2797 3341 1997 
z
" transform="scale(0.015625)"/>
       <path id="DejaVuSans-68" d="M 3513 2113 
L 3513 0 
L 2938 0 
L 2938 2094 
Q 2938 2591 2744 2837 
Q 2550 3084 2163 3084 
Q 1697 3084 1428 2787 
Q 1159 2491 1159 1978 
L 1159 0 
L 581 0 
L 581 4863 
L 1159 4863 
L 1159 2956 
Q 1366 3272 1645 3428 
Q 1925 3584 2291 3584 
Q 2894 3584 3203 3211 
Q 3513 2838 3513 2113 
z
" transform="scale(0.015625)"/>
       <path id="DejaVuSans-6f" d="M 1959 3097 
Q 1497 3097 1228 2736 
Q 959 2375 959 1747 
Q 959 1119 1226 758 
Q 1494 397 1959 397 
Q 2419 397 2687 759 
Q 2956 1122 2956 1747 
Q 2956 2369 2687 2733 
Q 2419 3097 1959 3097 
z
M 1959 3584 
Q 2709 3584 3137 3096 
Q 3566 2609 3566 1747 
Q 3566 888 3137 398 
Q 2709 -91 1959 -91 
Q 1206 -91 779 398 
Q 353 888 353 1747 
Q 353 2609 779 3096 
Q 1206 3584 1959 3584 
z
" transform="scale(0.015625)"/>
       <path id="DejaVuSans-63" d="M 3122 3366 
L 3122 2828 
Q 2878 2963 2633 3030 
Q 2388 3097 2138 3097 
Q 1578 3097 1268 2742 
Q 959 2388 959 1747 
Q 959 1106 1268 751 
Q 1578 397 2138 397 
Q 2388 397 2633 464 
Q 2878 531 3122 666 
L 3122 134 
Q 2881 22 2623 -34 
Q 2366 -91 2075 -91 
Q 1284 -91 818 406 
Q 353 903 353 1747 
Q 353 2603 823 3093 
Q 1294 3584 2113 3584 
Q 2378 3584 2631 3529 
Q 2884 3475 3122 3366 
z
" transform="scale(0.015625)"/>
      </defs>
      <use xlink:href="#DejaVuSans-50"/>
      <use xlink:href="#DejaVuSans-61" x="55.802734"/>
      <use xlink:href="#DejaVuSans-74" x="117.082031"/>
      <use xlink:href="#DejaVuSans-68" x="156.291016"/>
      <use xlink:href="#DejaVuSans-6f" x="219.669922"/>
      <use xlink:href="#DejaVuSans-67" x="280.851562"/>
      <use xlink:href="#DejaVuSans-65" x="344.328125"/>
      <use xlink:href="#DejaVuSans-6e" x="405.851562"/>
      <use xlink:href="#DejaVuSans-69" x="469.230469"/>
      <use xlink:href="#DejaVuSans-63" x="497.013672"/>
     </g>
    </g>
   </g>
  </g>
  <g id="axes_2">
   <g id="patch_10">
    <path d="M 216.858807 162.432 
L 369.040625 162.432 
L 369.040625 7.2 
L 216.858807 7.2 
z
" style="fill: #ffffff"/>
   </g>
   <g id="PolyCollection_3">
    <defs>
     <path id="m7c2f9440e5" d="M 229.05663 -37.805183 
L 229.05663 -37.55625 
L 229.696123 -37.55625 
L 230.335616 -37.55625 
L 230.975109 -37.55625 
L 231.614602 -37.55625 
L 232.254095 -37.55625 
L 232.893588 -37.55625 
L 233.533081 -37.55625 
L 234.172574 -37.55625 
L 234.812067 -37.55625 
L 235.45156 -37.55625 
L 236.091052 -37.55625 
L 236.730545 -37.55625 
L 237.370038 -37.55625 
L 238.009531 -37.55625 
L 238.649024 -37.55625 
L 239.288517 -37.55625 
L 239.92801 -37.55625 
L 240.567503 -37.55625 
L 241.206996 -37.55625 
L 241.846489 -37.55625 
L 242.485982 -37.55625 
L 243.125475 -37.55625 
L 243.764968 -37.55625 
L 244.404461 -37.55625 
L 245.043954 -37.55625 
L 245.683447 -37.55625 
L 246.32294 -37.55625 
L 246.962433 -37.55625 
L 247.601926 -37.55625 
L 248.241419 -37.55625 
L 248.880912 -37.55625 
L 249.520404 -37.55625 
L 250.159897 -37.55625 
L 250.79939 -37.55625 
L 251.438883 -37.55625 
L 252.078376 -37.55625 
L 252.717869 -37.55625 
L 253.357362 -37.55625 
L 253.996855 -37.55625 
L 254.636348 -37.55625 
L 255.275841 -37.55625 
L 255.915334 -37.55625 
L 256.554827 -37.55625 
L 257.19432 -37.55625 
L 257.833813 -37.55625 
L 258.473306 -37.55625 
L 259.112799 -37.55625 
L 259.752292 -37.55625 
L 260.391785 -37.55625 
L 261.031278 -37.55625 
L 261.670771 -37.55625 
L 262.310264 -37.55625 
L 262.949757 -37.55625 
L 263.589249 -37.55625 
L 264.228742 -37.55625 
L 264.868235 -37.55625 
L 265.507728 -37.55625 
L 266.147221 -37.55625 
L 266.786714 -37.55625 
L 267.426207 -37.55625 
L 268.0657 -37.55625 
L 268.705193 -37.55625 
L 269.344686 -37.55625 
L 269.984179 -37.55625 
L 270.623672 -37.55625 
L 271.263165 -37.55625 
L 271.902658 -37.55625 
L 272.542151 -37.55625 
L 273.181644 -37.55625 
L 273.821137 -37.55625 
L 274.46063 -37.55625 
L 275.100123 -37.55625 
L 275.739616 -37.55625 
L 276.379109 -37.55625 
L 277.018601 -37.55625 
L 277.658094 -37.55625 
L 278.297587 -37.55625 
L 278.93708 -37.55625 
L 279.576573 -37.55625 
L 280.216066 -37.55625 
L 280.855559 -37.55625 
L 281.495052 -37.55625 
L 282.134545 -37.55625 
L 282.774038 -37.55625 
L 283.413531 -37.55625 
L 284.053024 -37.55625 
L 284.692517 -37.55625 
L 285.33201 -37.55625 
L 285.971503 -37.55625 
L 286.610996 -37.55625 
L 287.250489 -37.55625 
L 287.889982 -37.55625 
L 288.529475 -37.55625 
L 289.168968 -37.55625 
L 289.808461 -37.55625 
L 290.447953 -37.55625 
L 291.087446 -37.55625 
L 291.726939 -37.55625 
L 292.366432 -37.55625 
L 293.005925 -37.55625 
L 293.645418 -37.55625 
L 294.284911 -37.55625 
L 294.924404 -37.55625 
L 295.563897 -37.55625 
L 296.20339 -37.55625 
L 296.842883 -37.55625 
L 297.482376 -37.55625 
L 298.121869 -37.55625 
L 298.761362 -37.55625 
L 299.400855 -37.55625 
L 300.040348 -37.55625 
L 300.679841 -37.55625 
L 301.319334 -37.55625 
L 301.958827 -37.55625 
L 302.59832 -37.55625 
L 303.237813 -37.55625 
L 303.877306 -37.55625 
L 304.516798 -37.55625 
L 305.156291 -37.55625 
L 305.795784 -37.55625 
L 306.435277 -37.55625 
L 307.07477 -37.55625 
L 307.714263 -37.55625 
L 308.353756 -37.55625 
L 308.993249 -37.55625 
L 309.632742 -37.55625 
L 310.272235 -37.55625 
L 310.911728 -37.55625 
L 311.551221 -37.55625 
L 312.190714 -37.55625 
L 312.830207 -37.55625 
L 313.4697 -37.55625 
L 314.109193 -37.55625 
L 314.748686 -37.55625 
L 315.388179 -37.55625 
L 316.027672 -37.55625 
L 316.667165 -37.55625 
L 317.306658 -37.55625 
L 317.94615 -37.55625 
L 318.585643 -37.55625 
L 319.225136 -37.55625 
L 319.864629 -37.55625 
L 320.504122 -37.55625 
L 321.143615 -37.55625 
L 321.783108 -37.55625 
L 322.422601 -37.55625 
L 323.062094 -37.55625 
L 323.701587 -37.55625 
L 324.34108 -37.55625 
L 324.980573 -37.55625 
L 325.620066 -37.55625 
L 326.259559 -37.55625 
L 326.899052 -37.55625 
L 327.538545 -37.55625 
L 328.178038 -37.55625 
L 328.817531 -37.55625 
L 329.457024 -37.55625 
L 330.096517 -37.55625 
L 330.73601 -37.55625 
L 331.375502 -37.55625 
L 332.014995 -37.55625 
L 332.654488 -37.55625 
L 333.293981 -37.55625 
L 333.933474 -37.55625 
L 334.572967 -37.55625 
L 335.21246 -37.55625 
L 335.851953 -37.55625 
L 336.491446 -37.55625 
L 337.130939 -37.55625 
L 337.770432 -37.55625 
L 338.409925 -37.55625 
L 339.049418 -37.55625 
L 339.688911 -37.55625 
L 340.328404 -37.55625 
L 340.967897 -37.55625 
L 341.60739 -37.55625 
L 342.246883 -37.55625 
L 342.886376 -37.55625 
L 343.525869 -37.55625 
L 344.165362 -37.55625 
L 344.804854 -37.55625 
L 345.444347 -37.55625 
L 346.08384 -37.55625 
L 346.723333 -37.55625 
L 347.362826 -37.55625 
L 348.002319 -37.55625 
L 348.641812 -37.55625 
L 349.281305 -37.55625 
L 349.920798 -37.55625 
L 350.560291 -37.55625 
L 351.199784 -37.55625 
L 351.839277 -37.55625 
L 352.47877 -37.55625 
L 353.118263 -37.55625 
L 353.757756 -37.55625 
L 354.397249 -37.55625 
L 355.036742 -37.55625 
L 355.676235 -37.55625 
L 356.315728 -37.55625 
L 356.315728 -37.557702 
L 356.315728 -37.557702 
L 355.676235 -37.55926 
L 355.036742 -37.562214 
L 354.397249 -37.567555 
L 353.757756 -37.576755 
L 353.118263 -37.591854 
L 352.47877 -37.615469 
L 351.839277 -37.650663 
L 351.199784 -37.700644 
L 350.560291 -37.768291 
L 349.920798 -37.855567 
L 349.281305 -37.962945 
L 348.641812 -38.089016 
L 348.002319 -38.230427 
L 347.362826 -38.382248 
L 346.723333 -38.5387 
L 346.08384 -38.694102 
L 345.444347 -38.843756 
L 344.804854 -38.984552 
L 344.165362 -39.115116 
L 343.525869 -39.235552 
L 342.886376 -39.346905 
L 342.246883 -39.450622 
L 341.60739 -39.548176 
L 340.967897 -39.640964 
L 340.328404 -39.73039 
L 339.688911 -39.817976 
L 339.049418 -39.905332 
L 338.409925 -39.993919 
L 337.770432 -40.084681 
L 337.130939 -40.177715 
L 336.491446 -40.272186 
L 335.851953 -40.366569 
L 335.21246 -40.459189 
L 334.572967 -40.548875 
L 333.933474 -40.635491 
L 333.293981 -40.720174 
L 332.654488 -40.805166 
L 332.014995 -40.893295 
L 331.375502 -40.98723 
L 330.73601 -41.088691 
L 330.096517 -41.197804 
L 329.457024 -41.312774 
L 328.817531 -41.429981 
L 328.178038 -41.544543 
L 327.538545 -41.651238 
L 326.899052 -41.745605 
L 326.259559 -41.824927 
L 325.620066 -41.888849 
L 324.980573 -41.939421 
L 324.34108 -41.98059 
L 323.701587 -42.017284 
L 323.062094 -42.054379 
L 322.422601 -42.095839 
L 321.783108 -42.144249 
L 321.143615 -42.200791 
L 320.504122 -42.26556 
L 319.864629 -42.338031 
L 319.225136 -42.417472 
L 318.585643 -42.50317 
L 317.94615 -42.594477 
L 317.306658 -42.690773 
L 316.667165 -42.791479 
L 316.027672 -42.896185 
L 315.388179 -43.00486 
L 314.748686 -43.117973 
L 314.109193 -43.236378 
L 313.4697 -43.360875 
L 312.830207 -43.49156 
L 312.190714 -43.627212 
L 311.551221 -43.765012 
L 310.911728 -43.900788 
L 310.272235 -44.029801 
L 309.632742 -44.147836 
L 308.993249 -44.252288 
L 308.353756 -44.342912 
L 307.714263 -44.422032 
L 307.07477 -44.494198 
L 306.435277 -44.565401 
L 305.795784 -44.642105 
L 305.156291 -44.730307 
L 304.516798 -44.834835 
L 303.877306 -44.958948 
L 303.237813 -45.104229 
L 302.59832 -45.270684 
L 301.958827 -45.456925 
L 301.319334 -45.660371 
L 300.679841 -45.877413 
L 300.040348 -46.103588 
L 299.400855 -46.333763 
L 298.761362 -46.562374 
L 298.121869 -46.783734 
L 297.482376 -46.992395 
L 296.842883 -47.18359 
L 296.20339 -47.353745 
L 295.563897 -47.501016 
L 294.924404 -47.625753 
L 294.284911 -47.730729 
L 293.645418 -47.820979 
L 293.005925 -47.903171 
L 292.366432 -47.984632 
L 291.726939 -48.072234 
L 291.087446 -48.171504 
L 290.447953 -48.286205 
L 289.808461 -48.418489 
L 289.168968 -48.569508 
L 288.529475 -48.740153 
L 287.889982 -48.931577 
L 287.250489 -49.145204 
L 286.610996 -49.382197 
L 285.971503 -49.642571 
L 285.33201 -49.924359 
L 284.692517 -50.223238 
L 284.053024 -50.532875 
L 283.413531 -50.84597 
L 282.774038 -51.155661 
L 282.134545 -51.456834 
L 281.495052 -51.746899 
L 280.855559 -52.025863 
L 280.216066 -52.295769 
L 279.576573 -52.559884 
L 278.93708 -52.821985 
L 278.297587 -53.08603 
L 277.658094 -53.35623 
L 277.018601 -53.637342 
L 276.379109 -53.934877 
L 275.739616 -54.25501 
L 275.100123 -54.604097 
L 274.46063 -54.987955 
L 273.821137 -55.411117 
L 273.181644 -55.876299 
L 272.542151 -56.384172 
L 271.902658 -56.933402 
L 271.263165 -57.520824 
L 270.623672 -58.141628 
L 269.984179 -58.78956 
L 269.344686 -59.457227 
L 268.705193 -60.13672 
L 268.0657 -60.820661 
L 267.426207 -61.503705 
L 266.786714 -62.184279 
L 266.147221 -62.866133 
L 265.507728 -63.559192 
L 264.868235 -64.279213 
L 264.228742 -65.046015 
L 263.589249 -65.880441 
L 262.949757 -66.800673 
L 262.310264 -67.818834 
L 261.670771 -68.938895 
L 261.031278 -70.156585 
L 260.391785 -71.461473 
L 259.752292 -72.840711 
L 259.112799 -74.283406 
L 258.473306 -75.784393 
L 257.833813 -77.346399 
L 257.19432 -78.980103 
L 256.554827 -80.70227 
L 255.915334 -82.532724 
L 255.275841 -84.491185 
L 254.636348 -86.594962 
L 253.996855 -88.858177 
L 253.357362 -91.292708 
L 252.717869 -93.910557 
L 252.078376 -96.727044 
L 251.438883 -99.76407 
L 250.79939 -103.052737 
L 250.159897 -106.634793 
L 249.520404 -110.562529 
L 248.880912 -114.896816 
L 248.241419 -119.702827 
L 247.601926 -125.042732 
L 246.962433 -130.964351 
L 246.32294 -137.48474 
L 245.683447 -144.568259 
L 245.043954 -152.100014 
L 244.404461 -159.857953 
L 243.764968 -167.489851 
L 243.125475 -174.504298 
L 242.485982 -180.28609 
L 241.846489 -184.14446 
L 241.206996 -185.39625 
L 240.567503 -183.475856 
L 239.92801 -178.052146 
L 239.288517 -169.124106 
L 238.649024 -157.066286 
L 238.009531 -142.604604 
L 237.370038 -126.720994 
L 236.730545 -110.50599 
L 236.091052 -94.993884 
L 235.45156 -81.019565 
L 234.812067 -69.127912 
L 234.172574 -59.549379 
L 233.533081 -52.236037 
L 232.893588 -46.937828 
L 232.254095 -43.293184 
L 231.614602 -40.911257 
L 230.975109 -39.431718 
L 230.335616 -38.557975 
L 229.696123 -38.067287 
L 229.05663 -37.805183 
z
" style="stroke: #1f77b4"/>
    </defs>
    <g clip-path="url(#pf2db032906)">
     <use xlink:href="#m7c2f9440e5" x="0" y="199.98825" style="fill: #1f77b4; fill-opacity: 0.6; stroke: #1f77b4"/>
    </g>
   </g>
   <g id="PolyCollection_4">
    <defs>
     <path id="m5b2f9707a6" d="M 223.776162 -37.56631 
L 223.776162 -37.55625 
L 224.471374 -37.55625 
L 225.166585 -37.55625 
L 225.861797 -37.55625 
L 226.557009 -37.55625 
L 227.25222 -37.55625 
L 227.947432 -37.55625 
L 228.642643 -37.55625 
L 229.337855 -37.55625 
L 230.033067 -37.55625 
L 230.728278 -37.55625 
L 231.42349 -37.55625 
L 232.118701 -37.55625 
L 232.813913 -37.55625 
L 233.509125 -37.55625 
L 234.204336 -37.55625 
L 234.899548 -37.55625 
L 235.594759 -37.55625 
L 236.289971 -37.55625 
L 236.985182 -37.55625 
L 237.680394 -37.55625 
L 238.375606 -37.55625 
L 239.070817 -37.55625 
L 239.766029 -37.55625 
L 240.46124 -37.55625 
L 241.156452 -37.55625 
L 241.851664 -37.55625 
L 242.546875 -37.55625 
L 243.242087 -37.55625 
L 243.937298 -37.55625 
L 244.63251 -37.55625 
L 245.327722 -37.55625 
L 246.022933 -37.55625 
L 246.718145 -37.55625 
L 247.413356 -37.55625 
L 248.108568 -37.55625 
L 248.80378 -37.55625 
L 249.498991 -37.55625 
L 250.194203 -37.55625 
L 250.889414 -37.55625 
L 251.584626 -37.55625 
L 252.279838 -37.55625 
L 252.975049 -37.55625 
L 253.670261 -37.55625 
L 254.365472 -37.55625 
L 255.060684 -37.55625 
L 255.755896 -37.55625 
L 256.451107 -37.55625 
L 257.146319 -37.55625 
L 257.84153 -37.55625 
L 258.536742 -37.55625 
L 259.231954 -37.55625 
L 259.927165 -37.55625 
L 260.622377 -37.55625 
L 261.317588 -37.55625 
L 262.0128 -37.55625 
L 262.708012 -37.55625 
L 263.403223 -37.55625 
L 264.098435 -37.55625 
L 264.793646 -37.55625 
L 265.488858 -37.55625 
L 266.184069 -37.55625 
L 266.879281 -37.55625 
L 267.574493 -37.55625 
L 268.269704 -37.55625 
L 268.964916 -37.55625 
L 269.660127 -37.55625 
L 270.355339 -37.55625 
L 271.050551 -37.55625 
L 271.745762 -37.55625 
L 272.440974 -37.55625 
L 273.136185 -37.55625 
L 273.831397 -37.55625 
L 274.526609 -37.55625 
L 275.22182 -37.55625 
L 275.917032 -37.55625 
L 276.612243 -37.55625 
L 277.307455 -37.55625 
L 278.002667 -37.55625 
L 278.697878 -37.55625 
L 279.39309 -37.55625 
L 280.088301 -37.55625 
L 280.783513 -37.55625 
L 281.478725 -37.55625 
L 282.173936 -37.55625 
L 282.869148 -37.55625 
L 283.564359 -37.55625 
L 284.259571 -37.55625 
L 284.954783 -37.55625 
L 285.649994 -37.55625 
L 286.345206 -37.55625 
L 287.040417 -37.55625 
L 287.735629 -37.55625 
L 288.430841 -37.55625 
L 289.126052 -37.55625 
L 289.821264 -37.55625 
L 290.516475 -37.55625 
L 291.211687 -37.55625 
L 291.906899 -37.55625 
L 292.60211 -37.55625 
L 293.297322 -37.55625 
L 293.992533 -37.55625 
L 294.687745 -37.55625 
L 295.382956 -37.55625 
L 296.078168 -37.55625 
L 296.77338 -37.55625 
L 297.468591 -37.55625 
L 298.163803 -37.55625 
L 298.859014 -37.55625 
L 299.554226 -37.55625 
L 300.249438 -37.55625 
L 300.944649 -37.55625 
L 301.639861 -37.55625 
L 302.335072 -37.55625 
L 303.030284 -37.55625 
L 303.725496 -37.55625 
L 304.420707 -37.55625 
L 305.115919 -37.55625 
L 305.81113 -37.55625 
L 306.506342 -37.55625 
L 307.201554 -37.55625 
L 307.896765 -37.55625 
L 308.591977 -37.55625 
L 309.287188 -37.55625 
L 309.9824 -37.55625 
L 310.677612 -37.55625 
L 311.372823 -37.55625 
L 312.068035 -37.55625 
L 312.763246 -37.55625 
L 313.458458 -37.55625 
L 314.15367 -37.55625 
L 314.848881 -37.55625 
L 315.544093 -37.55625 
L 316.239304 -37.55625 
L 316.934516 -37.55625 
L 317.629728 -37.55625 
L 318.324939 -37.55625 
L 319.020151 -37.55625 
L 319.715362 -37.55625 
L 320.410574 -37.55625 
L 321.105786 -37.55625 
L 321.800997 -37.55625 
L 322.496209 -37.55625 
L 323.19142 -37.55625 
L 323.886632 -37.55625 
L 324.581843 -37.55625 
L 325.277055 -37.55625 
L 325.972267 -37.55625 
L 326.667478 -37.55625 
L 327.36269 -37.55625 
L 328.057901 -37.55625 
L 328.753113 -37.55625 
L 329.448325 -37.55625 
L 330.143536 -37.55625 
L 330.838748 -37.55625 
L 331.533959 -37.55625 
L 332.229171 -37.55625 
L 332.924383 -37.55625 
L 333.619594 -37.55625 
L 334.314806 -37.55625 
L 335.010017 -37.55625 
L 335.705229 -37.55625 
L 336.400441 -37.55625 
L 337.095652 -37.55625 
L 337.790864 -37.55625 
L 338.486075 -37.55625 
L 339.181287 -37.55625 
L 339.876499 -37.55625 
L 340.57171 -37.55625 
L 341.266922 -37.55625 
L 341.962133 -37.55625 
L 342.657345 -37.55625 
L 343.352557 -37.55625 
L 344.047768 -37.55625 
L 344.74298 -37.55625 
L 345.438191 -37.55625 
L 346.133403 -37.55625 
L 346.828615 -37.55625 
L 347.523826 -37.55625 
L 348.219038 -37.55625 
L 348.914249 -37.55625 
L 349.609461 -37.55625 
L 350.304673 -37.55625 
L 350.999884 -37.55625 
L 351.695096 -37.55625 
L 352.390307 -37.55625 
L 353.085519 -37.55625 
L 353.78073 -37.55625 
L 354.475942 -37.55625 
L 355.171154 -37.55625 
L 355.866365 -37.55625 
L 356.561577 -37.55625 
L 357.256788 -37.55625 
L 357.952 -37.55625 
L 358.647212 -37.55625 
L 359.342423 -37.55625 
L 360.037635 -37.55625 
L 360.732846 -37.55625 
L 361.428058 -37.55625 
L 362.12327 -37.55625 
L 362.12327 -37.624949 
L 362.12327 -37.624949 
L 361.428058 -37.668491 
L 360.732846 -37.73588 
L 360.037635 -37.83788 
L 359.342423 -37.988859 
L 358.647212 -38.2074 
L 357.952 -38.516735 
L 357.256788 -38.944881 
L 356.561577 -39.524301 
L 355.866365 -40.290974 
L 355.171154 -41.28274 
L 354.475942 -42.536898 
L 353.78073 -44.087119 
L 353.085519 -45.959851 
L 352.390307 -48.170548 
L 351.695096 -50.720126 
L 350.999884 -53.592133 
L 350.304673 -56.751108 
L 349.609461 -60.142502 
L 348.914249 -63.694403 
L 348.219038 -67.321045 
L 347.523826 -70.927876 
L 346.828615 -74.417707 
L 346.133403 -77.697297 
L 345.438191 -80.683665 
L 344.74298 -83.309438 
L 344.047768 -85.526675 
L 343.352557 -87.30883 
L 342.657345 -88.650763 
L 341.962133 -89.566959 
L 341.266922 -90.088317 
L 340.57171 -90.258014 
L 339.876499 -90.126991 
L 339.181287 -89.749555 
L 338.486075 -89.179537 
L 337.790864 -88.467244 
L 337.095652 -87.657355 
L 336.400441 -86.787725 
L 335.705229 -85.889012 
L 335.010017 -84.984916 
L 334.314806 -84.092864 
L 333.619594 -83.224931 
L 332.924383 -82.388845 
L 332.229171 -81.58896 
L 331.533959 -80.827127 
L 330.838748 -80.103414 
L 330.143536 -79.416686 
L 329.448325 -78.765029 
L 328.753113 -78.146057 
L 328.057901 -77.557111 
L 327.36269 -76.995384 
L 326.667478 -76.457992 
L 325.972267 -75.942018 
L 325.277055 -75.444534 
L 324.581843 -74.962635 
L 323.886632 -74.493479 
L 323.19142 -74.034327 
L 322.496209 -73.5826 
L 321.800997 -73.135923 
L 321.105786 -72.692158 
L 320.410574 -72.249434 
L 319.715362 -71.806161 
L 319.020151 -71.361044 
L 318.324939 -70.913104 
L 317.629728 -70.461711 
L 316.934516 -70.006636 
L 316.239304 -69.548098 
L 315.544093 -69.086815 
L 314.848881 -68.624017 
L 314.15367 -68.161412 
L 313.458458 -67.701106 
L 312.763246 -67.245449 
L 312.068035 -66.796854 
L 311.372823 -66.357587 
L 310.677612 -65.929575 
L 309.9824 -65.514263 
L 309.287188 -65.112535 
L 308.591977 -64.724728 
L 307.896765 -64.350724 
L 307.201554 -63.990101 
L 306.506342 -63.64233 
L 305.81113 -63.306961 
L 305.115919 -62.983794 
L 304.420707 -62.672981 
L 303.725496 -62.375078 
L 303.030284 -62.091014 
L 302.335072 -61.822007 
L 301.639861 -61.569433 
L 300.944649 -61.334663 
L 300.249438 -61.118889 
L 299.554226 -60.922943 
L 298.859014 -60.747138 
L 298.163803 -60.591117 
L 297.468591 -60.453742 
L 296.77338 -60.33302 
L 296.078168 -60.226084 
L 295.382956 -60.129248 
L 294.687745 -60.038138 
L 293.992533 -59.947912 
L 293.297322 -59.853563 
L 292.60211 -59.750272 
L 291.906899 -59.633804 
L 291.211687 -59.500881 
L 290.516475 -59.3495 
L 289.821264 -59.179152 
L 289.126052 -58.990901 
L 288.430841 -58.787322 
L 287.735629 -58.572286 
L 287.040417 -58.350623 
L 286.345206 -58.127696 
L 285.649994 -57.908941 
L 284.954783 -57.699406 
L 284.259571 -57.503356 
L 283.564359 -57.323963 
L 282.869148 -57.163121 
L 282.173936 -57.021381 
L 281.478725 -56.898021 
L 280.783513 -56.791227 
L 280.088301 -56.698369 
L 279.39309 -56.616327 
L 278.697878 -56.541853 
L 278.002667 -56.471904 
L 277.307455 -56.403937 
L 276.612243 -56.336111 
L 275.917032 -56.267392 
L 275.22182 -56.19755 
L 274.526609 -56.127044 
L 273.831397 -56.056833 
L 273.136185 -55.988118 
L 272.440974 -55.92208 
L 271.745762 -55.859624 
L 271.050551 -55.801177 
L 270.355339 -55.746554 
L 269.660127 -55.694916 
L 268.964916 -55.644805 
L 268.269704 -55.594258 
L 267.574493 -55.540974 
L 266.879281 -55.48252 
L 266.184069 -55.416545 
L 265.488858 -55.340993 
L 264.793646 -55.254281 
L 264.098435 -55.155449 
L 263.403223 -55.044266 
L 262.708012 -54.92128 
L 262.0128 -54.787829 
L 261.317588 -54.645993 
L 260.622377 -54.4985 
L 259.927165 -54.34858 
L 259.231954 -54.199784 
L 258.536742 -54.055753 
L 257.84153 -53.919979 
L 257.146319 -53.79555 
L 256.451107 -53.684905 
L 255.755896 -53.589629 
L 255.060684 -53.510286 
L 254.365472 -53.446321 
L 253.670261 -53.396014 
L 252.975049 -53.356501 
L 252.279838 -53.323835 
L 251.584626 -53.293072 
L 250.889414 -53.258375 
L 250.194203 -53.213101 
L 249.498991 -53.149894 
L 248.80378 -53.060774 
L 248.108568 -52.937248 
L 247.413356 -52.770475 
L 246.718145 -52.551511 
L 246.022933 -52.271678 
L 245.327722 -51.923036 
L 244.63251 -51.498984 
L 243.937298 -50.994924 
L 243.242087 -50.408929 
L 242.546875 -49.742343 
L 241.851664 -49.000192 
L 241.156452 -48.191354 
L 240.46124 -47.328398 
L 239.766029 -46.427084 
L 239.070817 -45.505546 
L 238.375606 -44.583216 
L 237.680394 -43.679612 
L 236.985182 -42.8131 
L 236.289971 -41.999781 
L 235.594759 -41.252595 
L 234.899548 -40.58075 
L 234.204336 -39.989496 
L 233.509125 -39.480233 
L 232.813913 -39.050925 
L 232.118701 -38.696723 
L 231.42349 -38.410709 
L 230.728278 -38.184672 
L 230.033067 -38.00984 
L 229.337855 -37.877493 
L 228.642643 -37.779441 
L 227.947432 -37.708345 
L 227.25222 -37.657892 
L 226.557009 -37.622853 
L 225.861797 -37.599037 
L 225.166585 -37.583194 
L 224.471374 -37.572881 
L 223.776162 -37.56631 
z
" style="stroke: #ff7f0e"/>
    </defs>
    <g clip-path="url(#pf2db032906)">
     <use xlink:href="#m5b2f9707a6" x="0" y="199.98825" style="fill: #ff7f0e; fill-opacity: 0.6; stroke: #ff7f0e"/>
    </g>
   </g>
   <g id="matplotlib.axis_3">
    <g id="xtick_4">
     <g id="line2d_10">
      <g>
       <use xlink:href="#mae1fce21af" x="237.62204" y="162.432" style="stroke: #000000; stroke-width: 0.8"/>
      </g>
     </g>
     <g id="text_14">
      <!-- 0.0 -->
      <g transform="translate(229.670477 177.030437) scale(0.1 -0.1)">
       <use xlink:href="#DejaVuSans-30"/>
       <use xlink:href="#DejaVuSans-2e" x="63.623047"/>
       <use xlink:href="#DejaVuSans-30" x="95.410156"/>
      </g>
     </g>
    </g>
    <g id="xtick_5">
     <g id="line2d_11">
      <g>
       <use xlink:href="#mae1fce21af" x="292.980395" y="162.432" style="stroke: #000000; stroke-width: 0.8"/>
      </g>
     </g>
     <g id="text_15">
      <!-- 0.5 -->
      <g transform="translate(285.028832 177.030437) scale(0.1 -0.1)">
       <use xlink:href="#DejaVuSans-30"/>
       <use xlink:href="#DejaVuSans-2e" x="63.623047"/>
       <use xlink:href="#DejaVuSans-35" x="95.410156"/>
      </g>
     </g>
    </g>
    <g id="xtick_6">
     <g id="line2d_12">
      <g>
       <use xlink:href="#mae1fce21af" x="348.338749" y="162.432" style="stroke: #000000; stroke-width: 0.8"/>
      </g>
     </g>
     <g id="text_16">
      <!-- 1.0 -->
      <g transform="translate(340.387187 177.030437) scale(0.1 -0.1)">
       <use xlink:href="#DejaVuSans-31"/>
       <use xlink:href="#DejaVuSans-2e" x="63.623047"/>
       <use xlink:href="#DejaVuSans-30" x="95.410156"/>
      </g>
     </g>
    </g>
    <g id="text_17">
     <!-- Predicted probability -->
     <g transform="translate(241.21456 190.708562) scale(0.1 -0.1)">
      <defs>
       <path id="DejaVuSans-72" d="M 2631 2963 
Q 2534 3019 2420 3045 
Q 2306 3072 2169 3072 
Q 1681 3072 1420 2755 
Q 1159 2438 1159 1844 
L 1159 0 
L 581 0 
L 581 3500 
L 1159 3500 
L 1159 2956 
Q 1341 3275 1631 3429 
Q 1922 3584 2338 3584 
Q 2397 3584 2469 3576 
Q 2541 3569 2628 3553 
L 2631 2963 
z
" transform="scale(0.015625)"/>
       <path id="DejaVuSans-64" d="M 2906 2969 
L 2906 4863 
L 3481 4863 
L 3481 0 
L 2906 0 
L 2906 525 
Q 2725 213 2448 61 
Q 2172 -91 1784 -91 
Q 1150 -91 751 415 
Q 353 922 353 1747 
Q 353 2572 751 3078 
Q 1150 3584 1784 3584 
Q 2172 3584 2448 3432 
Q 2725 3281 2906 2969 
z
M 947 1747 
Q 947 1113 1208 752 
Q 1469 391 1925 391 
Q 2381 391 2643 752 
Q 2906 1113 2906 1747 
Q 2906 2381 2643 2742 
Q 2381 3103 1925 3103 
Q 1469 3103 1208 2742 
Q 947 2381 947 1747 
z
" transform="scale(0.015625)"/>
       <path id="DejaVuSans-20" transform="scale(0.015625)"/>
       <path id="DejaVuSans-70" d="M 1159 525 
L 1159 -1331 
L 581 -1331 
L 581 3500 
L 1159 3500 
L 1159 2969 
Q 1341 3281 1617 3432 
Q 1894 3584 2278 3584 
Q 2916 3584 3314 3078 
Q 3713 2572 3713 1747 
Q 3713 922 3314 415 
Q 2916 -91 2278 -91 
Q 1894 -91 1617 61 
Q 1341 213 1159 525 
z
M 3116 1747 
Q 3116 2381 2855 2742 
Q 2594 3103 2138 3103 
Q 1681 3103 1420 2742 
Q 1159 2381 1159 1747 
Q 1159 1113 1420 752 
Q 1681 391 2138 391 
Q 2594 391 2855 752 
Q 3116 1113 3116 1747 
z
" transform="scale(0.015625)"/>
       <path id="DejaVuSans-62" d="M 3116 1747 
Q 3116 2381 2855 2742 
Q 2594 3103 2138 3103 
Q 1681 3103 1420 2742 
Q 1159 2381 1159 1747 
Q 1159 1113 1420 752 
Q 1681 391 2138 391 
Q 2594 391 2855 752 
Q 3116 1113 3116 1747 
z
M 1159 2969 
Q 1341 3281 1617 3432 
Q 1894 3584 2278 3584 
Q 2916 3584 3314 3078 
Q 3713 2572 3713 1747 
Q 3713 922 3314 415 
Q 2916 -91 2278 -91 
Q 1894 -91 1617 61 
Q 1341 213 1159 525 
L 1159 0 
L 581 0 
L 581 4863 
L 1159 4863 
L 1159 2969 
z
" transform="scale(0.015625)"/>
       <path id="DejaVuSans-6c" d="M 603 4863 
L 1178 4863 
L 1178 0 
L 603 0 
L 603 4863 
z
" transform="scale(0.015625)"/>
      </defs>
      <use xlink:href="#DejaVuSans-50"/>
      <use xlink:href="#DejaVuSans-72" x="58.552734"/>
      <use xlink:href="#DejaVuSans-65" x="97.416016"/>
      <use xlink:href="#DejaVuSans-64" x="158.939453"/>
      <use xlink:href="#DejaVuSans-69" x="222.416016"/>
      <use xlink:href="#DejaVuSans-63" x="250.199219"/>
      <use xlink:href="#DejaVuSans-74" x="305.179688"/>
      <use xlink:href="#DejaVuSans-65" x="344.388672"/>
      <use xlink:href="#DejaVuSans-64" x="405.912109"/>
      <use xlink:href="#DejaVuSans-20" x="469.388672"/>
      <use xlink:href="#DejaVuSans-70" x="501.175781"/>
      <use xlink:href="#DejaVuSans-72" x="564.652344"/>
      <use xlink:href="#DejaVuSans-6f" x="603.515625"/>
      <use xlink:href="#DejaVuSans-62" x="664.697266"/>
      <use xlink:href="#DejaVuSans-61" x="728.173828"/>
      <use xlink:href="#DejaVuSans-62" x="789.453125"/>
      <use xlink:href="#DejaVuSans-69" x="852.929688"/>
      <use xlink:href="#DejaVuSans-6c" x="880.712891"/>
      <use xlink:href="#DejaVuSans-69" x="908.496094"/>
      <use xlink:href="#DejaVuSans-74" x="936.279297"/>
      <use xlink:href="#DejaVuSans-79" x="975.488281"/>
     </g>
    </g>
   </g>
   <g id="matplotlib.axis_4">
    <g id="ytick_7">
     <g id="line2d_13">
      <g>
       <use xlink:href="#m9afd49856e" x="216.858807" y="162.432" style="stroke: #000000; stroke-width: 0.8"/>
      </g>
     </g>
    </g>
    <g id="ytick_8">
     <g id="line2d_14">
      <g>
       <use xlink:href="#m9afd49856e" x="216.858807" y="135.110272" style="stroke: #000000; stroke-width: 0.8"/>
      </g>
     </g>
    </g>
    <g id="ytick_9">
     <g id="line2d_15">
      <g>
       <use xlink:href="#m9afd49856e" x="216.858807" y="107.788545" style="stroke: #000000; stroke-width: 0.8"/>
      </g>
     </g>
    </g>
    <g id="ytick_10">
     <g id="line2d_16">
      <g>
       <use xlink:href="#m9afd49856e" x="216.858807" y="80.466817" style="stroke: #000000; stroke-width: 0.8"/>
      </g>
     </g>
    </g>
    <g id="ytick_11">
     <g id="line2d_17">
      <g>
       <use xlink:href="#m9afd49856e" x="216.858807" y="53.145089" style="stroke: #000000; stroke-width: 0.8"/>
      </g>
     </g>
    </g>
    <g id="ytick_12">
     <g id="line2d_18">
      <g>
       <use xlink:href="#m9afd49856e" x="216.858807" y="25.823362" style="stroke: #000000; stroke-width: 0.8"/>
      </g>
     </g>
    </g>
   </g>
   <g id="patch_11">
    <path d="M 216.858807 162.432 
L 216.858807 7.2 
" style="fill: none; stroke: #000000; stroke-width: 0.8; stroke-linejoin: miter; stroke-linecap: square"/>
   </g>
   <g id="patch_12">
    <path d="M 369.040625 162.432 
L 369.040625 7.2 
" style="fill: none; stroke: #000000; stroke-width: 0.8; stroke-linejoin: miter; stroke-linecap: square"/>
   </g>
   <g id="patch_13">
    <path d="M 216.858807 162.432 
L 369.040625 162.432 
" style="fill: none; stroke: #000000; stroke-width: 0.8; stroke-linejoin: miter; stroke-linecap: square"/>
   </g>
   <g id="patch_14">
    <path d="M 216.858807 7.2 
L 369.040625 7.2 
" style="fill: none; stroke: #000000; stroke-width: 0.8; stroke-linejoin: miter; stroke-linecap: square"/>
   </g>
  </g>
 </g>
 <defs>
  <clipPath id="p349d5ca953">
   <rect x="34.240625" y="7.2" width="152.181818" height="155.232"/>
  </clipPath>
  <clipPath id="pf2db032906">
   <rect x="216.858807" y="7.2" width="152.181818" height="155.232"/>
  </clipPath>
 </defs>
</svg>
