<?xml version="1.0" encoding="utf-8" standalone="no"?>
<!DOCTYPE svg PUBLIC "-//W3C//DTD SVG 1.1//EN"
  "http://www.w3.org/Graphics/SVG/1.1/DTD/svg11.dtd">
<svg xmlns:xlink="http://www.w3.org/1999/xlink" width="376.240625pt" height="199.98825pt" viewBox="0 0 376.240625 199.98825" xmlns="http://www.w3.org/2000/svg" version="1.1">
 <metadata>
  <rdf:RDF xmlns:dc="http://purl.org/dc/elements/1.1/" xmlns:cc="http://creativecommons.org/ns#" xmlns:rdf="http://www.w3.org/1999/02/22-rdf-syntax-ns#">
   <cc:Work>
    <dc:type rdf:resource="http://purl.org/dc/dcmitype/StillImage"/>
    <dc:date>2025-05-27T21:49:46.940250</dc:date>
    <dc:format>image/svg+xml</dc:format>
    <dc:creator>
     <cc:Agent>
      <dc:title>Matplotlib v3.9.2, https://matplotlib.org/</dc:title>
     </cc:Agent>
    </dc:creator>
   </cc:Work>
  </rdf:RDF>
 </metadata>
 <defs>
  <style type="text/css">*{stroke-linejoin: round; stroke-linecap: butt}</style>
 </defs>
 <g id="figure_1">
  <g id="patch_1">
   <path d="M 0 199.98825 
L 376.240625 199.98825 
L 376.240625 -0 
L 0 -0 
z
" style="fill: #ffffff"/>
  </g>
  <g id="axes_1">
   <g id="patch_2">
    <path d="M 34.240625 162.432 
L 186.422443 162.432 
L 186.422443 7.2 
L 34.240625 7.2 
z
" style="fill: #ffffff"/>
   </g>
   <g id="PolyCollection_1">
    <defs>
     <path id="m865535760a" d="M 41.15798 -37.565383 
L 41.15798 -37.55625 
L 41.844785 -37.55625 
L 42.531589 -37.55625 
L 43.218394 -37.55625 
L 43.905198 -37.55625 
L 44.592003 -37.55625 
L 45.278807 -37.55625 
L 45.965612 -37.55625 
L 46.652417 -37.55625 
L 47.339221 -37.55625 
L 48.026026 -37.55625 
L 48.71283 -37.55625 
L 49.399635 -37.55625 
L 50.086439 -37.55625 
L 50.773244 -37.55625 
L 51.460048 -37.55625 
L 52.146853 -37.55625 
L 52.833657 -37.55625 
L 53.520462 -37.55625 
L 54.207266 -37.55625 
L 54.894071 -37.55625 
L 55.580875 -37.55625 
L 56.26768 -37.55625 
L 56.954484 -37.55625 
L 57.641289 -37.55625 
L 58.328093 -37.55625 
L 59.014898 -37.55625 
L 59.701702 -37.55625 
L 60.388507 -37.55625 
L 61.075311 -37.55625 
L 61.762116 -37.55625 
L 62.44892 -37.55625 
L 63.135725 -37.55625 
L 63.822529 -37.55625 
L 64.509334 -37.55625 
L 65.196138 -37.55625 
L 65.882943 -37.55625 
L 66.569748 -37.55625 
L 67.256552 -37.55625 
L 67.943357 -37.55625 
L 68.630161 -37.55625 
L 69.316966 -37.55625 
L 70.00377 -37.55625 
L 70.690575 -37.55625 
L 71.377379 -37.55625 
L 72.064184 -37.55625 
L 72.750988 -37.55625 
L 73.437793 -37.55625 
L 74.124597 -37.55625 
L 74.811402 -37.55625 
L 75.498206 -37.55625 
L 76.185011 -37.55625 
L 76.871815 -37.55625 
L 77.55862 -37.55625 
L 78.245424 -37.55625 
L 78.932229 -37.55625 
L 79.619033 -37.55625 
L 80.305838 -37.55625 
L 80.992642 -37.55625 
L 81.679447 -37.55625 
L 82.366251 -37.55625 
L 83.053056 -37.55625 
L 83.73986 -37.55625 
L 84.426665 -37.55625 
L 85.11347 -37.55625 
L 85.800274 -37.55625 
L 86.487079 -37.55625 
L 87.173883 -37.55625 
L 87.860688 -37.55625 
L 88.547492 -37.55625 
L 89.234297 -37.55625 
L 89.921101 -37.55625 
L 90.607906 -37.55625 
L 91.29471 -37.55625 
L 91.981515 -37.55625 
L 92.668319 -37.55625 
L 93.355124 -37.55625 
L 94.041928 -37.55625 
L 94.728733 -37.55625 
L 95.415537 -37.55625 
L 96.102342 -37.55625 
L 96.789146 -37.55625 
L 97.475951 -37.55625 
L 98.162755 -37.55625 
L 98.84956 -37.55625 
L 99.536364 -37.55625 
L 100.223169 -37.55625 
L 100.909973 -37.55625 
L 101.596778 -37.55625 
L 102.283582 -37.55625 
L 102.970387 -37.55625 
L 103.657192 -37.55625 
L 104.343996 -37.55625 
L 105.030801 -37.55625 
L 105.717605 -37.55625 
L 106.40441 -37.55625 
L 107.091214 -37.55625 
L 107.778019 -37.55625 
L 108.464823 -37.55625 
L 109.151628 -37.55625 
L 109.838432 -37.55625 
L 110.525237 -37.55625 
L 111.212041 -37.55625 
L 111.898846 -37.55625 
L 112.58565 -37.55625 
L 113.272455 -37.55625 
L 113.959259 -37.55625 
L 114.646064 -37.55625 
L 115.332868 -37.55625 
L 116.019673 -37.55625 
L 116.706477 -37.55625 
L 117.393282 -37.55625 
L 118.080086 -37.55625 
L 118.766891 -37.55625 
L 119.453695 -37.55625 
L 120.1405 -37.55625 
L 120.827304 -37.55625 
L 121.514109 -37.55625 
L 122.200913 -37.55625 
L 122.887718 -37.55625 
L 123.574523 -37.55625 
L 124.261327 -37.55625 
L 124.948132 -37.55625 
L 125.634936 -37.55625 
L 126.321741 -37.55625 
L 127.008545 -37.55625 
L 127.69535 -37.55625 
L 128.382154 -37.55625 
L 129.068959 -37.55625 
L 129.755763 -37.55625 
L 130.442568 -37.55625 
L 131.129372 -37.55625 
L 131.816177 -37.55625 
L 132.502981 -37.55625 
L 133.189786 -37.55625 
L 133.87659 -37.55625 
L 134.563395 -37.55625 
L 135.250199 -37.55625 
L 135.937004 -37.55625 
L 136.623808 -37.55625 
L 137.310613 -37.55625 
L 137.997417 -37.55625 
L 138.684222 -37.55625 
L 139.371026 -37.55625 
L 140.057831 -37.55625 
L 140.744635 -37.55625 
L 141.43144 -37.55625 
L 142.118245 -37.55625 
L 142.805049 -37.55625 
L 143.491854 -37.55625 
L 144.178658 -37.55625 
L 144.865463 -37.55625 
L 145.552267 -37.55625 
L 146.239072 -37.55625 
L 146.925876 -37.55625 
L 147.612681 -37.55625 
L 148.299485 -37.55625 
L 148.98629 -37.55625 
L 149.673094 -37.55625 
L 150.359899 -37.55625 
L 151.046703 -37.55625 
L 151.733508 -37.55625 
L 152.420312 -37.55625 
L 153.107117 -37.55625 
L 153.793921 -37.55625 
L 154.480726 -37.55625 
L 155.16753 -37.55625 
L 155.854335 -37.55625 
L 156.541139 -37.55625 
L 157.227944 -37.55625 
L 157.914748 -37.55625 
L 158.601553 -37.55625 
L 159.288357 -37.55625 
L 159.975162 -37.55625 
L 160.661966 -37.55625 
L 161.348771 -37.55625 
L 162.035576 -37.55625 
L 162.72238 -37.55625 
L 163.409185 -37.55625 
L 164.095989 -37.55625 
L 164.782794 -37.55625 
L 165.469598 -37.55625 
L 166.156403 -37.55625 
L 166.843207 -37.55625 
L 167.530012 -37.55625 
L 168.216816 -37.55625 
L 168.903621 -37.55625 
L 169.590425 -37.55625 
L 170.27723 -37.55625 
L 170.964034 -37.55625 
L 171.650839 -37.55625 
L 172.337643 -37.55625 
L 173.024448 -37.55625 
L 173.711252 -37.55625 
L 174.398057 -37.55625 
L 175.084861 -37.55625 
L 175.771666 -37.55625 
L 176.45847 -37.55625 
L 177.145275 -37.55625 
L 177.832079 -37.55625 
L 177.832079 -37.55721 
L 177.832079 -37.55721 
L 177.145275 -37.558025 
L 176.45847 -37.559423 
L 175.771666 -37.561737 
L 175.084861 -37.565434 
L 174.398057 -37.571136 
L 173.711252 -37.579627 
L 173.024448 -37.591839 
L 172.337643 -37.608812 
L 171.650839 -37.631622 
L 170.964034 -37.661281 
L 170.27723 -37.698633 
L 169.590425 -37.744244 
L 168.903621 -37.79834 
L 168.216816 -37.860783 
L 167.530012 -37.93113 
L 166.843207 -38.008749 
L 166.156403 -38.092998 
L 165.469598 -38.183428 
L 164.782794 -38.279966 
L 164.095989 -38.383038 
L 163.409185 -38.493597 
L 162.72238 -38.613026 
L 162.035576 -38.742935 
L 161.348771 -38.88487 
L 160.661966 -39.039999 
L 159.975162 -39.208842 
L 159.288357 -39.391111 
L 158.601553 -39.585711 
L 157.914748 -39.790901 
L 157.227944 -40.004574 
L 156.541139 -40.2246 
L 155.854335 -40.449109 
L 155.16753 -40.676673 
L 154.480726 -40.906327 
L 153.793921 -41.137463 
L 153.107117 -41.36964 
L 152.420312 -41.602418 
L 151.733508 -41.83526 
L 151.046703 -42.067568 
L 150.359899 -42.298814 
L 149.673094 -42.528742 
L 148.98629 -42.757548 
L 148.299485 -42.986003 
L 147.612681 -43.215489 
L 146.925876 -43.447946 
L 146.239072 -43.685792 
L 145.552267 -43.931834 
L 144.865463 -44.189199 
L 144.178658 -44.461281 
L 143.491854 -44.751661 
L 142.805049 -45.063955 
L 142.118245 -45.401542 
L 141.43144 -45.767179 
L 140.744635 -46.162534 
L 140.057831 -46.587716 
L 139.371026 -47.040905 
L 138.684222 -47.518174 
L 137.997417 -48.013575 
L 137.310613 -48.51949 
L 136.623808 -49.027225 
L 135.937004 -49.527768 
L 135.250199 -50.012594 
L 134.563395 -50.474408 
L 133.87659 -50.907726 
L 133.189786 -51.309205 
L 132.502981 -51.677678 
L 131.816177 -52.013882 
L 131.129372 -52.319913 
L 130.442568 -52.598477 
L 129.755763 -52.852058 
L 129.068959 -53.082135 
L 128.382154 -53.288598 
L 127.69535 -53.469495 
L 127.008545 -53.621202 
L 126.321741 -53.739029 
L 125.634936 -53.818192 
L 124.948132 -53.854996 
L 124.261327 -53.847985 
L 123.574523 -53.798801 
L 122.887718 -53.712534 
L 122.200913 -53.597417 
L 121.514109 -53.463881 
L 120.827304 -53.323118 
L 120.1405 -53.185441 
L 119.453695 -53.058774 
L 118.766891 -52.947601 
L 118.080086 -52.85259 
L 117.393282 -52.770964 
L 116.706477 -52.697493 
L 116.019673 -52.625896 
L 115.332868 -52.550309 
L 114.646064 -52.466566 
L 113.959259 -52.373057 
L 113.272455 -52.271107 
L 112.58565 -52.164886 
L 111.898846 -52.060968 
L 111.212041 -51.967646 
L 110.525237 -51.894099 
L 109.838432 -51.849472 
L 109.151628 -51.841912 
L 108.464823 -51.877605 
L 107.778019 -51.95994 
L 107.091214 -52.08893 
L 106.40441 -52.261072 
L 105.717605 -52.469765 
L 105.030801 -52.7063 
L 104.343996 -52.961291 
L 103.657192 -53.226282 
L 102.970387 -53.495183 
L 102.283582 -53.765191 
L 101.596778 -54.036979 
L 100.909973 -54.314094 
L 100.223169 -54.601718 
L 99.536364 -54.90509 
L 98.84956 -55.228003 
L 98.162755 -55.571726 
L 97.475951 -55.934619 
L 96.789146 -56.312531 
L 96.102342 -56.69985 
L 95.415537 -57.090971 
L 94.728733 -57.481823 
L 94.041928 -57.871124 
L 93.355124 -58.261131 
L 92.668319 -58.657736 
L 91.981515 -59.069966 
L 91.29471 -59.508992 
L 90.607906 -59.986883 
L 89.921101 -60.51531 
L 89.234297 -61.104415 
L 88.547492 -61.761995 
L 87.860688 -62.493073 
L 87.173883 -63.299864 
L 86.487079 -64.182112 
L 85.800274 -65.137677 
L 85.11347 -66.163303 
L 84.426665 -67.255443 
L 83.73986 -68.411057 
L 83.053056 -69.628289 
L 82.366251 -70.906948 
L 81.679447 -72.248697 
L 80.992642 -73.656918 
L 80.305838 -75.136203 
L 79.619033 -76.691568 
L 78.932229 -78.327516 
L 78.245424 -80.047179 
L 77.55862 -81.851745 
L 76.871815 -83.74035 
L 76.185011 -85.710446 
L 75.498206 -87.758509 
L 74.811402 -89.880819 
L 74.124597 -92.073976 
L 73.437793 -94.334848 
L 72.750988 -96.659756 
L 72.064184 -99.04291 
L 71.377379 -101.474221 
L 70.690575 -103.936844 
L 70.00377 -106.404843 
L 69.316966 -108.841448 
L 68.630161 -111.198327 
L 67.943357 -113.41617 
L 67.256552 -115.426718 
L 66.569748 -117.156088 
L 65.882943 -118.52897 
L 65.196138 -119.473119 
L 64.509334 -119.923454 
L 63.822529 -119.82524 
L 63.135725 -119.136142 
L 62.44892 -117.827273 
L 61.762116 -115.883698 
L 61.075311 -113.30496 
L 60.388507 -110.106096 
L 59.701702 -106.319225 
L 59.014898 -101.99544 
L 58.328093 -97.20629 
L 57.641289 -92.04405 
L 56.954484 -86.620021 
L 56.26768 -81.060466 
L 55.580875 -75.500261 
L 54.894071 -70.074817 
L 54.207266 -64.911229 
L 53.520462 -60.119776 
L 52.833657 -55.786886 
L 52.146853 -51.970467 
L 51.460048 -48.698106 
L 50.773244 -45.968232 
L 50.086439 -43.75389 
L 49.399635 -42.00842 
L 48.71283 -40.672149 
L 48.026026 -39.679152 
L 47.339221 -38.963271 
L 46.652417 -38.46283 
L 45.965612 -38.123766 
L 45.278807 -37.90121 
L 44.592003 -37.759743 
L 43.905198 -37.672693 
L 43.218394 -37.620856 
L 42.531589 -37.590991 
L 41.844785 -37.57435 
L 41.15798 -37.565383 
z
" style="stroke: #1f77b4"/>
    </defs>
    <g clip-path="url(#p0f6a235079)">
     <use xlink:href="#m865535760a" x="0" y="199.98825" style="fill: #1f77b4; fill-opacity: 0.6; stroke: #1f77b4"/>
    </g>
   </g>
   <g id="PolyCollection_2">
    <defs>
     <path id="mfdd3a275e6" d="M 42.584224 -37.557389 
L 42.584224 -37.55625 
L 43.272268 -37.55625 
L 43.960313 -37.55625 
L 44.648357 -37.55625 
L 45.336402 -37.55625 
L 46.024446 -37.55625 
L 46.712491 -37.55625 
L 47.400535 -37.55625 
L 48.08858 -37.55625 
L 48.776624 -37.55625 
L 49.464669 -37.55625 
L 50.152713 -37.55625 
L 50.840758 -37.55625 
L 51.528803 -37.55625 
L 52.216847 -37.55625 
L 52.904892 -37.55625 
L 53.592936 -37.55625 
L 54.280981 -37.55625 
L 54.969025 -37.55625 
L 55.65707 -37.55625 
L 56.345114 -37.55625 
L 57.033159 -37.55625 
L 57.721203 -37.55625 
L 58.409248 -37.55625 
L 59.097293 -37.55625 
L 59.785337 -37.55625 
L 60.473382 -37.55625 
L 61.161426 -37.55625 
L 61.849471 -37.55625 
L 62.537515 -37.55625 
L 63.22556 -37.55625 
L 63.913604 -37.55625 
L 64.601649 -37.55625 
L 65.289693 -37.55625 
L 65.977738 -37.55625 
L 66.665783 -37.55625 
L 67.353827 -37.55625 
L 68.041872 -37.55625 
L 68.729916 -37.55625 
L 69.417961 -37.55625 
L 70.106005 -37.55625 
L 70.79405 -37.55625 
L 71.482094 -37.55625 
L 72.170139 -37.55625 
L 72.858183 -37.55625 
L 73.546228 -37.55625 
L 74.234273 -37.55625 
L 74.922317 -37.55625 
L 75.610362 -37.55625 
L 76.298406 -37.55625 
L 76.986451 -37.55625 
L 77.674495 -37.55625 
L 78.36254 -37.55625 
L 79.050584 -37.55625 
L 79.738629 -37.55625 
L 80.426673 -37.55625 
L 81.114718 -37.55625 
L 81.802763 -37.55625 
L 82.490807 -37.55625 
L 83.178852 -37.55625 
L 83.866896 -37.55625 
L 84.554941 -37.55625 
L 85.242985 -37.55625 
L 85.93103 -37.55625 
L 86.619074 -37.55625 
L 87.307119 -37.55625 
L 87.995163 -37.55625 
L 88.683208 -37.55625 
L 89.371253 -37.55625 
L 90.059297 -37.55625 
L 90.747342 -37.55625 
L 91.435386 -37.55625 
L 92.123431 -37.55625 
L 92.811475 -37.55625 
L 93.49952 -37.55625 
L 94.187564 -37.55625 
L 94.875609 -37.55625 
L 95.563653 -37.55625 
L 96.251698 -37.55625 
L 96.939743 -37.55625 
L 97.627787 -37.55625 
L 98.315832 -37.55625 
L 99.003876 -37.55625 
L 99.691921 -37.55625 
L 100.379965 -37.55625 
L 101.06801 -37.55625 
L 101.756054 -37.55625 
L 102.444099 -37.55625 
L 103.132143 -37.55625 
L 103.820188 -37.55625 
L 104.508232 -37.55625 
L 105.196277 -37.55625 
L 105.884322 -37.55625 
L 106.572366 -37.55625 
L 107.260411 -37.55625 
L 107.948455 -37.55625 
L 108.6365 -37.55625 
L 109.324544 -37.55625 
L 110.012589 -37.55625 
L 110.700633 -37.55625 
L 111.388678 -37.55625 
L 112.076722 -37.55625 
L 112.764767 -37.55625 
L 113.452812 -37.55625 
L 114.140856 -37.55625 
L 114.828901 -37.55625 
L 115.516945 -37.55625 
L 116.20499 -37.55625 
L 116.893034 -37.55625 
L 117.581079 -37.55625 
L 118.269123 -37.55625 
L 118.957168 -37.55625 
L 119.645212 -37.55625 
L 120.333257 -37.55625 
L 121.021302 -37.55625 
L 121.709346 -37.55625 
L 122.397391 -37.55625 
L 123.085435 -37.55625 
L 123.77348 -37.55625 
L 124.461524 -37.55625 
L 125.149569 -37.55625 
L 125.837613 -37.55625 
L 126.525658 -37.55625 
L 127.213702 -37.55625 
L 127.901747 -37.55625 
L 128.589792 -37.55625 
L 129.277836 -37.55625 
L 129.965881 -37.55625 
L 130.653925 -37.55625 
L 131.34197 -37.55625 
L 132.030014 -37.55625 
L 132.718059 -37.55625 
L 133.406103 -37.55625 
L 134.094148 -37.55625 
L 134.782192 -37.55625 
L 135.470237 -37.55625 
L 136.158282 -37.55625 
L 136.846326 -37.55625 
L 137.534371 -37.55625 
L 138.222415 -37.55625 
L 138.91046 -37.55625 
L 139.598504 -37.55625 
L 140.286549 -37.55625 
L 140.974593 -37.55625 
L 141.662638 -37.55625 
L 142.350682 -37.55625 
L 143.038727 -37.55625 
L 143.726772 -37.55625 
L 144.414816 -37.55625 
L 145.102861 -37.55625 
L 145.790905 -37.55625 
L 146.47895 -37.55625 
L 147.166994 -37.55625 
L 147.855039 -37.55625 
L 148.543083 -37.55625 
L 149.231128 -37.55625 
L 149.919172 -37.55625 
L 150.607217 -37.55625 
L 151.295261 -37.55625 
L 151.983306 -37.55625 
L 152.671351 -37.55625 
L 153.359395 -37.55625 
L 154.04744 -37.55625 
L 154.735484 -37.55625 
L 155.423529 -37.55625 
L 156.111573 -37.55625 
L 156.799618 -37.55625 
L 157.487662 -37.55625 
L 158.175707 -37.55625 
L 158.863751 -37.55625 
L 159.551796 -37.55625 
L 160.239841 -37.55625 
L 160.927885 -37.55625 
L 161.61593 -37.55625 
L 162.303974 -37.55625 
L 162.992019 -37.55625 
L 163.680063 -37.55625 
L 164.368108 -37.55625 
L 165.056152 -37.55625 
L 165.744197 -37.55625 
L 166.432241 -37.55625 
L 167.120286 -37.55625 
L 167.808331 -37.55625 
L 168.496375 -37.55625 
L 169.18442 -37.55625 
L 169.872464 -37.55625 
L 170.560509 -37.55625 
L 171.248553 -37.55625 
L 171.936598 -37.55625 
L 172.624642 -37.55625 
L 173.312687 -37.55625 
L 174.000731 -37.55625 
L 174.688776 -37.55625 
L 175.376821 -37.55625 
L 176.064865 -37.55625 
L 176.75291 -37.55625 
L 177.440954 -37.55625 
L 178.128999 -37.55625 
L 178.817043 -37.55625 
L 179.505088 -37.55625 
L 179.505088 -37.589961 
L 179.505088 -37.589961 
L 178.817043 -37.615244 
L 178.128999 -37.656817 
L 177.440954 -37.723284 
L 176.75291 -37.826618 
L 176.064865 -37.982846 
L 175.376821 -38.212565 
L 174.688776 -38.541115 
L 174.000731 -38.998232 
L 173.312687 -39.617014 
L 172.624642 -40.432097 
L 171.936598 -41.477073 
L 171.248553 -42.781297 
L 170.560509 -44.366399 
L 169.872464 -46.242964 
L 169.18442 -48.407877 
L 168.496375 -50.842815 
L 167.808331 -53.514238 
L 167.120286 -56.375004 
L 166.432241 -59.367456 
L 165.744197 -62.427585 
L 165.056152 -65.489693 
L 164.368108 -68.490884 
L 163.680063 -71.374823 
L 162.992019 -74.094333 
L 162.303974 -76.612698 
L 161.61593 -78.903735 
L 160.927885 -80.950953 
L 160.239841 -82.746169 
L 159.551796 -84.287984 
L 158.863751 -85.5804 
L 158.175707 -86.631763 
L 157.487662 -87.454015 
L 156.799618 -88.062176 
L 156.111573 -88.473898 
L 155.423529 -88.708928 
L 154.735484 -88.7884 
L 154.04744 -88.733936 
L 153.359395 -88.566624 
L 152.671351 -88.306036 
L 151.983306 -87.969449 
L 151.295261 -87.571437 
L 150.607217 -87.123946 
L 149.919172 -86.636876 
L 149.231128 -86.11907 
L 148.543083 -85.57952 
L 147.855039 -85.028536 
L 147.166994 -84.47857 
L 146.47895 -83.944468 
L 145.790905 -83.442987 
L 145.102861 -82.991585 
L 144.414816 -82.606634 
L 143.726772 -82.301366 
L 143.038727 -82.0839 
L 142.350682 -81.955765 
L 141.662638 -81.9112 
L 140.974593 -81.937403 
L 140.286549 -82.015705 
L 139.598504 -82.123492 
L 138.91046 -82.236548 
L 138.222415 -82.331454 
L 137.534371 -82.387697 
L 136.846326 -82.389218 
L 136.158282 -82.325261 
L 135.470237 -82.190513 
L 134.782192 -81.984642 
L 134.094148 -81.711382 
L 133.406103 -81.377367 
L 132.718059 -80.99088 
L 132.030014 -80.560646 
L 131.34197 -80.094761 
L 130.653925 -79.599814 
L 129.965881 -79.080231 
L 129.277836 -78.537874 
L 128.589792 -77.971902 
L 127.901747 -77.378924 
L 127.213702 -76.753424 
L 126.525658 -76.088442 
L 125.837613 -75.376432 
L 125.149569 -74.610238 
L 124.461524 -73.784052 
L 123.77348 -72.894284 
L 123.085435 -71.940231 
L 122.397391 -70.92451 
L 121.709346 -69.853196 
L 121.021302 -68.735686 
L 120.333257 -67.584294 
L 119.645212 -66.413617 
L 118.957168 -65.239722 
L 118.269123 -64.079221 
L 117.581079 -62.948297 
L 116.893034 -61.861759 
L 116.20499 -60.832224 
L 115.516945 -59.86948 
L 114.828901 -58.980093 
L 114.140856 -58.167301 
L 113.452812 -57.431188 
L 112.764767 -56.769103 
L 112.076722 -56.176269 
L 111.388678 -55.646486 
L 110.700633 -55.172833 
L 110.012589 -54.748274 
L 109.324544 -54.366099 
L 108.6365 -54.020161 
L 107.948455 -53.704924 
L 107.260411 -53.415373 
L 106.572366 -53.146862 
L 105.884322 -52.894986 
L 105.196277 -52.65553 
L 104.508232 -52.424527 
L 103.820188 -52.198402 
L 103.132143 -51.974147 
L 102.444099 -51.749467 
L 101.756054 -51.522833 
L 101.06801 -51.293429 
L 100.379965 -51.061015 
L 99.691921 -50.825748 
L 99.003876 -50.588055 
L 98.315832 -50.348598 
L 97.627787 -50.108379 
L 96.939743 -49.86894 
L 96.251698 -49.63262 
L 95.563653 -49.402749 
L 94.875609 -49.183702 
L 94.187564 -48.980728 
L 93.49952 -48.799545 
L 92.811475 -48.645733 
L 92.123431 -48.524028 
L 91.435386 -48.437629 
L 90.747342 -48.387669 
L 90.059297 -48.372935 
L 89.371253 -48.389913 
L 88.683208 -48.433129 
L 87.995163 -48.495742 
L 87.307119 -48.570256 
L 86.619074 -48.64925 
L 85.93103 -48.725985 
L 85.242985 -48.794839 
L 84.554941 -48.851511 
L 83.866896 -48.893032 
L 83.178852 -48.917634 
L 82.490807 -48.924539 
L 81.802763 -48.913756 
L 81.114718 -48.885911 
L 80.426673 -48.842142 
L 79.738629 -48.784031 
L 79.050584 -48.713541 
L 78.36254 -48.632908 
L 77.674495 -48.544453 
L 76.986451 -48.450319 
L 76.298406 -48.352135 
L 75.610362 -48.250676 
L 74.922317 -48.145582 
L 74.234273 -48.035203 
L 73.546228 -47.916619 
L 72.858183 -47.785849 
L 72.170139 -47.638232 
L 71.482094 -47.468918 
L 70.79405 -47.273392 
L 70.106005 -47.047964 
L 69.417961 -46.790142 
L 68.729916 -46.498875 
L 68.041872 -46.174629 
L 67.353827 -45.819331 
L 66.665783 -45.436186 
L 65.977738 -45.02942 
L 65.289693 -44.603956 
L 64.601649 -44.165077 
L 63.913604 -43.718083 
L 63.22556 -43.267987 
L 62.537515 -42.819288 
L 61.849471 -42.375823 
L 61.161426 -41.940754 
L 60.473382 -41.516653 
L 59.785337 -41.105679 
L 59.097293 -40.709796 
L 58.409248 -40.330978 
L 57.721203 -39.971342 
L 57.033159 -39.633177 
L 56.345114 -39.318856 
L 55.65707 -39.030652 
L 54.969025 -38.770494 
L 54.280981 -38.539721 
L 53.592936 -38.338884 
L 52.904892 -38.167637 
L 52.216847 -38.024735 
L 51.528803 -37.908136 
L 50.840758 -37.815175 
L 50.152713 -37.742798 
L 49.464669 -37.687788 
L 48.776624 -37.646987 
L 48.08858 -37.617462 
L 47.400535 -37.596622 
L 46.712491 -37.582274 
L 46.024446 -37.572642 
L 45.336402 -37.566336 
L 44.648357 -37.562311 
L 43.960313 -37.559807 
L 43.272268 -37.558287 
L 42.584224 -37.557389 
z
" style="stroke: #ff7f0e"/>
    </defs>
    <g clip-path="url(#p0f6a235079)">
     <use xlink:href="#mfdd3a275e6" x="0" y="199.98825" style="fill: #ff7f0e; fill-opacity: 0.6; stroke: #ff7f0e"/>
    </g>
   </g>
   <g id="matplotlib.axis_1">
    <g id="xtick_1">
     <g id="line2d_1">
      <defs>
       <path id="m504ccefdfe" d="M 0 0 
L 0 3.5 
" style="stroke: #000000; stroke-width: 0.8"/>
      </defs>
      <g>
       <use xlink:href="#m504ccefdfe" x="50.405938" y="162.432" style="stroke: #000000; stroke-width: 0.8"/>
      </g>
     </g>
     <g id="text_1">
      <!-- 0.0 -->
      <g transform="translate(42.454376 177.030437) scale(0.1 -0.1)">
       <defs>
        <path id="DejaVuSans-30" d="M 2034 4250 
Q 1547 4250 1301 3770 
Q 1056 3291 1056 2328 
Q 1056 1369 1301 889 
Q 1547 409 2034 409 
Q 2525 409 2770 889 
Q 3016 1369 3016 2328 
Q 3016 3291 2770 3770 
Q 2525 4250 2034 4250 
z
M 2034 4750 
Q 2819 4750 3233 4129 
Q 3647 3509 3647 2328 
Q 3647 1150 3233 529 
Q 2819 -91 2034 -91 
Q 1250 -91 836 529 
Q 422 1150 422 2328 
Q 422 3509 836 4129 
Q 1250 4750 2034 4750 
z
" transform="scale(0.015625)"/>
        <path id="DejaVuSans-2e" d="M 684 794 
L 1344 794 
L 1344 0 
L 684 0 
L 684 794 
z
" transform="scale(0.015625)"/>
       </defs>
       <use xlink:href="#DejaVuSans-30"/>
       <use xlink:href="#DejaVuSans-2e" x="63.623047"/>
       <use xlink:href="#DejaVuSans-30" x="95.410156"/>
      </g>
     </g>
    </g>
    <g id="xtick_2">
     <g id="line2d_2">
      <g>
       <use xlink:href="#m504ccefdfe" x="108.911381" y="162.432" style="stroke: #000000; stroke-width: 0.8"/>
      </g>
     </g>
     <g id="text_2">
      <!-- 0.5 -->
      <g transform="translate(100.959819 177.030437) scale(0.1 -0.1)">
       <defs>
        <path id="DejaVuSans-35" d="M 691 4666 
L 3169 4666 
L 3169 4134 
L 1269 4134 
L 1269 2991 
Q 1406 3038 1543 3061 
Q 1681 3084 1819 3084 
Q 2600 3084 3056 2656 
Q 3513 2228 3513 1497 
Q 3513 744 3044 326 
Q 2575 -91 1722 -91 
Q 1428 -91 1123 -41 
Q 819 9 494 109 
L 494 744 
Q 775 591 1075 516 
Q 1375 441 1709 441 
Q 2250 441 2565 725 
Q 2881 1009 2881 1497 
Q 2881 1984 2565 2268 
Q 2250 2553 1709 2553 
Q 1456 2553 1204 2497 
Q 953 2441 691 2322 
L 691 4666 
z
" transform="scale(0.015625)"/>
       </defs>
       <use xlink:href="#DejaVuSans-30"/>
       <use xlink:href="#DejaVuSans-2e" x="63.623047"/>
       <use xlink:href="#DejaVuSans-35" x="95.410156"/>
      </g>
     </g>
    </g>
    <g id="xtick_3">
     <g id="line2d_3">
      <g>
       <use xlink:href="#m504ccefdfe" x="167.416825" y="162.432" style="stroke: #000000; stroke-width: 0.8"/>
      </g>
     </g>
     <g id="text_3">
      <!-- 1.0 -->
      <g transform="translate(159.465262 177.030437) scale(0.1 -0.1)">
       <defs>
        <path id="DejaVuSans-31" d="M 794 531 
L 1825 531 
L 1825 4091 
L 703 3866 
L 703 4441 
L 1819 4666 
L 2450 4666 
L 2450 531 
L 3481 531 
L 3481 0 
L 794 0 
L 794 531 
z
" transform="scale(0.015625)"/>
       </defs>
       <use xlink:href="#DejaVuSans-31"/>
       <use xlink:href="#DejaVuSans-2e" x="63.623047"/>
       <use xlink:href="#DejaVuSans-30" x="95.410156"/>
      </g>
     </g>
    </g>
    <g id="text_4">
     <!-- EVE -->
     <g transform="translate(100.592472 190.708562) scale(0.1 -0.1)">
      <defs>
       <path id="DejaVuSans-45" d="M 628 4666 
L 3578 4666 
L 3578 4134 
L 1259 4134 
L 1259 2753 
L 3481 2753 
L 3481 2222 
L 1259 2222 
L 1259 531 
L 3634 531 
L 3634 0 
L 628 0 
L 628 4666 
z
" transform="scale(0.015625)"/>
       <path id="DejaVuSans-56" d="M 1831 0 
L 50 4666 
L 709 4666 
L 2188 738 
L 3669 4666 
L 4325 4666 
L 2547 0 
L 1831 0 
z
" transform="scale(0.015625)"/>
      </defs>
      <use xlink:href="#DejaVuSans-45"/>
      <use xlink:href="#DejaVuSans-56" x="63.183594"/>
      <use xlink:href="#DejaVuSans-45" x="131.591797"/>
     </g>
    </g>
   </g>
   <g id="matplotlib.axis_2">
    <g id="ytick_1">
     <g id="line2d_4">
      <defs>
       <path id="mad89356ed8" d="M 0 0 
L -3.5 0 
" style="stroke: #000000; stroke-width: 0.8"/>
      </defs>
      <g>
       <use xlink:href="#mad89356ed8" x="34.240625" y="162.432" style="stroke: #000000; stroke-width: 0.8"/>
      </g>
     </g>
     <g id="text_5">
      <!-- 0 -->
      <g transform="translate(20.878125 166.231219) scale(0.1 -0.1)">
       <use xlink:href="#DejaVuSans-30"/>
      </g>
     </g>
    </g>
    <g id="ytick_2">
     <g id="line2d_5">
      <g>
       <use xlink:href="#mad89356ed8" x="34.240625" y="138.077295" style="stroke: #000000; stroke-width: 0.8"/>
      </g>
     </g>
     <g id="text_6">
      <!-- 1 -->
      <g transform="translate(20.878125 141.876514) scale(0.1 -0.1)">
       <use xlink:href="#DejaVuSans-31"/>
      </g>
     </g>
    </g>
    <g id="ytick_3">
     <g id="line2d_6">
      <g>
       <use xlink:href="#mad89356ed8" x="34.240625" y="113.72259" style="stroke: #000000; stroke-width: 0.8"/>
      </g>
     </g>
     <g id="text_7">
      <!-- 2 -->
      <g transform="translate(20.878125 117.521809) scale(0.1 -0.1)">
       <defs>
        <path id="DejaVuSans-32" d="M 1228 531 
L 3431 531 
L 3431 0 
L 469 0 
L 469 531 
Q 828 903 1448 1529 
Q 2069 2156 2228 2338 
Q 2531 2678 2651 2914 
Q 2772 3150 2772 3378 
Q 2772 3750 2511 3984 
Q 2250 4219 1831 4219 
Q 1534 4219 1204 4116 
Q 875 4013 500 3803 
L 500 4441 
Q 881 4594 1212 4672 
Q 1544 4750 1819 4750 
Q 2544 4750 2975 4387 
Q 3406 4025 3406 3419 
Q 3406 3131 3298 2873 
Q 3191 2616 2906 2266 
Q 2828 2175 2409 1742 
Q 1991 1309 1228 531 
z
" transform="scale(0.015625)"/>
       </defs>
       <use xlink:href="#DejaVuSans-32"/>
      </g>
     </g>
    </g>
    <g id="ytick_4">
     <g id="line2d_7">
      <g>
       <use xlink:href="#mad89356ed8" x="34.240625" y="89.367885" style="stroke: #000000; stroke-width: 0.8"/>
      </g>
     </g>
     <g id="text_8">
      <!-- 3 -->
      <g transform="translate(20.878125 93.167104) scale(0.1 -0.1)">
       <defs>
        <path id="DejaVuSans-33" d="M 2597 2516 
Q 3050 2419 3304 2112 
Q 3559 1806 3559 1356 
Q 3559 666 3084 287 
Q 2609 -91 1734 -91 
Q 1441 -91 1130 -33 
Q 819 25 488 141 
L 488 750 
Q 750 597 1062 519 
Q 1375 441 1716 441 
Q 2309 441 2620 675 
Q 2931 909 2931 1356 
Q 2931 1769 2642 2001 
Q 2353 2234 1838 2234 
L 1294 2234 
L 1294 2753 
L 1863 2753 
Q 2328 2753 2575 2939 
Q 2822 3125 2822 3475 
Q 2822 3834 2567 4026 
Q 2313 4219 1838 4219 
Q 1578 4219 1281 4162 
Q 984 4106 628 3988 
L 628 4550 
Q 988 4650 1302 4700 
Q 1616 4750 1894 4750 
Q 2613 4750 3031 4423 
Q 3450 4097 3450 3541 
Q 3450 3153 3228 2886 
Q 3006 2619 2597 2516 
z
" transform="scale(0.015625)"/>
       </defs>
       <use xlink:href="#DejaVuSans-33"/>
      </g>
     </g>
    </g>
    <g id="ytick_5">
     <g id="line2d_8">
      <g>
       <use xlink:href="#mad89356ed8" x="34.240625" y="65.01318" style="stroke: #000000; stroke-width: 0.8"/>
      </g>
     </g>
     <g id="text_9">
      <!-- 4 -->
      <g transform="translate(20.878125 68.812399) scale(0.1 -0.1)">
       <defs>
        <path id="DejaVuSans-34" d="M 2419 4116 
L 825 1625 
L 2419 1625 
L 2419 4116 
z
M 2253 4666 
L 3047 4666 
L 3047 1625 
L 3713 1625 
L 3713 1100 
L 3047 1100 
L 3047 0 
L 2419 0 
L 2419 1100 
L 313 1100 
L 313 1709 
L 2253 4666 
z
" transform="scale(0.015625)"/>
       </defs>
       <use xlink:href="#DejaVuSans-34"/>
      </g>
     </g>
    </g>
    <g id="ytick_6">
     <g id="line2d_9">
      <g>
       <use xlink:href="#mad89356ed8" x="34.240625" y="40.658475" style="stroke: #000000; stroke-width: 0.8"/>
      </g>
     </g>
     <g id="text_10">
      <!-- 5 -->
      <g transform="translate(20.878125 44.457694) scale(0.1 -0.1)">
       <use xlink:href="#DejaVuSans-35"/>
      </g>
     </g>
    </g>
    <g id="ytick_7">
     <g id="line2d_10">
      <g>
       <use xlink:href="#mad89356ed8" x="34.240625" y="16.30377" style="stroke: #000000; stroke-width: 0.8"/>
      </g>
     </g>
     <g id="text_11">
      <!-- 6 -->
      <g transform="translate(20.878125 20.102989) scale(0.1 -0.1)">
       <defs>
        <path id="DejaVuSans-36" d="M 2113 2584 
Q 1688 2584 1439 2293 
Q 1191 2003 1191 1497 
Q 1191 994 1439 701 
Q 1688 409 2113 409 
Q 2538 409 2786 701 
Q 3034 994 3034 1497 
Q 3034 2003 2786 2293 
Q 2538 2584 2113 2584 
z
M 3366 4563 
L 3366 3988 
Q 3128 4100 2886 4159 
Q 2644 4219 2406 4219 
Q 1781 4219 1451 3797 
Q 1122 3375 1075 2522 
Q 1259 2794 1537 2939 
Q 1816 3084 2150 3084 
Q 2853 3084 3261 2657 
Q 3669 2231 3669 1497 
Q 3669 778 3244 343 
Q 2819 -91 2113 -91 
Q 1303 -91 875 529 
Q 447 1150 447 2328 
Q 447 3434 972 4092 
Q 1497 4750 2381 4750 
Q 2619 4750 2861 4703 
Q 3103 4656 3366 4563 
z
" transform="scale(0.015625)"/>
       </defs>
       <use xlink:href="#DejaVuSans-36"/>
      </g>
     </g>
    </g>
    <g id="text_12">
     <!-- Density -->
     <g transform="translate(14.798437 103.824594) rotate(-90) scale(0.1 -0.1)">
      <defs>
       <path id="DejaVuSans-44" d="M 1259 4147 
L 1259 519 
L 2022 519 
Q 2988 519 3436 956 
Q 3884 1394 3884 2338 
Q 3884 3275 3436 3711 
Q 2988 4147 2022 4147 
L 1259 4147 
z
M 628 4666 
L 1925 4666 
Q 3281 4666 3915 4102 
Q 4550 3538 4550 2338 
Q 4550 1131 3912 565 
Q 3275 0 1925 0 
L 628 0 
L 628 4666 
z
" transform="scale(0.015625)"/>
       <path id="DejaVuSans-65" d="M 3597 1894 
L 3597 1613 
L 953 1613 
Q 991 1019 1311 708 
Q 1631 397 2203 397 
Q 2534 397 2845 478 
Q 3156 559 3463 722 
L 3463 178 
Q 3153 47 2828 -22 
Q 2503 -91 2169 -91 
Q 1331 -91 842 396 
Q 353 884 353 1716 
Q 353 2575 817 3079 
Q 1281 3584 2069 3584 
Q 2775 3584 3186 3129 
Q 3597 2675 3597 1894 
z
M 3022 2063 
Q 3016 2534 2758 2815 
Q 2500 3097 2075 3097 
Q 1594 3097 1305 2825 
Q 1016 2553 972 2059 
L 3022 2063 
z
" transform="scale(0.015625)"/>
       <path id="DejaVuSans-6e" d="M 3513 2113 
L 3513 0 
L 2938 0 
L 2938 2094 
Q 2938 2591 2744 2837 
Q 2550 3084 2163 3084 
Q 1697 3084 1428 2787 
Q 1159 2491 1159 1978 
L 1159 0 
L 581 0 
L 581 3500 
L 1159 3500 
L 1159 2956 
Q 1366 3272 1645 3428 
Q 1925 3584 2291 3584 
Q 2894 3584 3203 3211 
Q 3513 2838 3513 2113 
z
" transform="scale(0.015625)"/>
       <path id="DejaVuSans-73" d="M 2834 3397 
L 2834 2853 
Q 2591 2978 2328 3040 
Q 2066 3103 1784 3103 
Q 1356 3103 1142 2972 
Q 928 2841 928 2578 
Q 928 2378 1081 2264 
Q 1234 2150 1697 2047 
L 1894 2003 
Q 2506 1872 2764 1633 
Q 3022 1394 3022 966 
Q 3022 478 2636 193 
Q 2250 -91 1575 -91 
Q 1294 -91 989 -36 
Q 684 19 347 128 
L 347 722 
Q 666 556 975 473 
Q 1284 391 1588 391 
Q 1994 391 2212 530 
Q 2431 669 2431 922 
Q 2431 1156 2273 1281 
Q 2116 1406 1581 1522 
L 1381 1569 
Q 847 1681 609 1914 
Q 372 2147 372 2553 
Q 372 3047 722 3315 
Q 1072 3584 1716 3584 
Q 2034 3584 2315 3537 
Q 2597 3491 2834 3397 
z
" transform="scale(0.015625)"/>
       <path id="DejaVuSans-69" d="M 603 3500 
L 1178 3500 
L 1178 0 
L 603 0 
L 603 3500 
z
M 603 4863 
L 1178 4863 
L 1178 4134 
L 603 4134 
L 603 4863 
z
" transform="scale(0.015625)"/>
       <path id="DejaVuSans-74" d="M 1172 4494 
L 1172 3500 
L 2356 3500 
L 2356 3053 
L 1172 3053 
L 1172 1153 
Q 1172 725 1289 603 
Q 1406 481 1766 481 
L 2356 481 
L 2356 0 
L 1766 0 
Q 1100 0 847 248 
Q 594 497 594 1153 
L 594 3053 
L 172 3053 
L 172 3500 
L 594 3500 
L 594 4494 
L 1172 4494 
z
" transform="scale(0.015625)"/>
       <path id="DejaVuSans-79" d="M 2059 -325 
Q 1816 -950 1584 -1140 
Q 1353 -1331 966 -1331 
L 506 -1331 
L 506 -850 
L 844 -850 
Q 1081 -850 1212 -737 
Q 1344 -625 1503 -206 
L 1606 56 
L 191 3500 
L 800 3500 
L 1894 763 
L 2988 3500 
L 3597 3500 
L 2059 -325 
z
" transform="scale(0.015625)"/>
      </defs>
      <use xlink:href="#DejaVuSans-44"/>
      <use xlink:href="#DejaVuSans-65" x="77.001953"/>
      <use xlink:href="#DejaVuSans-6e" x="138.525391"/>
      <use xlink:href="#DejaVuSans-73" x="201.904297"/>
      <use xlink:href="#DejaVuSans-69" x="254.003906"/>
      <use xlink:href="#DejaVuSans-74" x="281.787109"/>
      <use xlink:href="#DejaVuSans-79" x="320.996094"/>
     </g>
    </g>
   </g>
   <g id="patch_3">
    <path d="M 34.240625 162.432 
L 34.240625 7.2 
" style="fill: none; stroke: #000000; stroke-width: 0.8; stroke-linejoin: miter; stroke-linecap: square"/>
   </g>
   <g id="patch_4">
    <path d="M 186.422443 162.432 
L 186.422443 7.2 
" style="fill: none; stroke: #000000; stroke-width: 0.8; stroke-linejoin: miter; stroke-linecap: square"/>
   </g>
   <g id="patch_5">
    <path d="M 34.240625 162.432 
L 186.422443 162.432 
" style="fill: none; stroke: #000000; stroke-width: 0.8; stroke-linejoin: miter; stroke-linecap: square"/>
   </g>
   <g id="patch_6">
    <path d="M 34.240625 7.2 
L 186.422443 7.2 
" style="fill: none; stroke: #000000; stroke-width: 0.8; stroke-linejoin: miter; stroke-linecap: square"/>
   </g>
   <g id="legend_1">
    <g id="patch_7">
     <path d="M 120.482443 33.349375 
L 181.522443 33.349375 
Q 182.922443 33.349375 182.922443 31.949375 
L 182.922443 12.1 
Q 182.922443 10.7 181.522443 10.7 
L 120.482443 10.7 
Q 119.082443 10.7 119.082443 12.1 
L 119.082443 31.949375 
Q 119.082443 33.349375 120.482443 33.349375 
z
" style="fill: #ffffff; opacity: 0.8; stroke: #cccccc; stroke-linejoin: miter"/>
    </g>
    <g id="patch_8">
     <path d="M 121.882443 18.818906 
L 135.882443 18.818906 
L 135.882443 13.918906 
L 121.882443 13.918906 
z
" style="fill: #1f77b4; fill-opacity: 0.6; stroke: #1f77b4; stroke-linejoin: miter"/>
    </g>
    <g id="text_13">
     <!-- Benign -->
     <g transform="translate(141.482443 18.818906) scale(0.07 -0.07)">
      <defs>
       <path id="DejaVuSans-42" d="M 1259 2228 
L 1259 519 
L 2272 519 
Q 2781 519 3026 730 
Q 3272 941 3272 1375 
Q 3272 1813 3026 2020 
Q 2781 2228 2272 2228 
L 1259 2228 
z
M 1259 4147 
L 1259 2741 
L 2194 2741 
Q 2656 2741 2882 2914 
Q 3109 3088 3109 3444 
Q 3109 3797 2882 3972 
Q 2656 4147 2194 4147 
L 1259 4147 
z
M 628 4666 
L 2241 4666 
Q 2963 4666 3353 4366 
Q 3744 4066 3744 3513 
Q 3744 3084 3544 2831 
Q 3344 2578 2956 2516 
Q 3422 2416 3680 2098 
Q 3938 1781 3938 1306 
Q 3938 681 3513 340 
Q 3088 0 2303 0 
L 628 0 
L 628 4666 
z
" transform="scale(0.015625)"/>
       <path id="DejaVuSans-67" d="M 2906 1791 
Q 2906 2416 2648 2759 
Q 2391 3103 1925 3103 
Q 1463 3103 1205 2759 
Q 947 2416 947 1791 
Q 947 1169 1205 825 
Q 1463 481 1925 481 
Q 2391 481 2648 825 
Q 2906 1169 2906 1791 
z
M 3481 434 
Q 3481 -459 3084 -895 
Q 2688 -1331 1869 -1331 
Q 1566 -1331 1297 -1286 
Q 1028 -1241 775 -1147 
L 775 -588 
Q 1028 -725 1275 -790 
Q 1522 -856 1778 -856 
Q 2344 -856 2625 -561 
Q 2906 -266 2906 331 
L 2906 616 
Q 2728 306 2450 153 
Q 2172 0 1784 0 
Q 1141 0 747 490 
Q 353 981 353 1791 
Q 353 2603 747 3093 
Q 1141 3584 1784 3584 
Q 2172 3584 2450 3431 
Q 2728 3278 2906 2969 
L 2906 3500 
L 3481 3500 
L 3481 434 
z
" transform="scale(0.015625)"/>
      </defs>
      <use xlink:href="#DejaVuSans-42"/>
      <use xlink:href="#DejaVuSans-65" x="68.603516"/>
      <use xlink:href="#DejaVuSans-6e" x="130.126953"/>
      <use xlink:href="#DejaVuSans-69" x="193.505859"/>
      <use xlink:href="#DejaVuSans-67" x="221.289062"/>
      <use xlink:href="#DejaVuSans-6e" x="284.765625"/>
     </g>
    </g>
    <g id="patch_9">
     <path d="M 121.882443 29.093594 
L 135.882443 29.093594 
L 135.882443 24.193594 
L 121.882443 24.193594 
z
" style="fill: #ff7f0e; fill-opacity: 0.6; stroke: #ff7f0e; stroke-linejoin: miter"/>
    </g>
    <g id="text_14">
     <!-- Pathogenic -->
     <g transform="translate(141.482443 29.093594) scale(0.07 -0.07)">
      <defs>
       <path id="DejaVuSans-50" d="M 1259 4147 
L 1259 2394 
L 2053 2394 
Q 2494 2394 2734 2622 
Q 2975 2850 2975 3272 
Q 2975 3691 2734 3919 
Q 2494 4147 2053 4147 
L 1259 4147 
z
M 628 4666 
L 2053 4666 
Q 2838 4666 3239 4311 
Q 3641 3956 3641 3272 
Q 3641 2581 3239 2228 
Q 2838 1875 2053 1875 
L 1259 1875 
L 1259 0 
L 628 0 
L 628 4666 
z
" transform="scale(0.015625)"/>
       <path id="DejaVuSans-61" d="M 2194 1759 
Q 1497 1759 1228 1600 
Q 959 1441 959 1056 
Q 959 750 1161 570 
Q 1363 391 1709 391 
Q 2188 391 2477 730 
Q 2766 1069 2766 1631 
L 2766 1759 
L 2194 1759 
z
M 3341 1997 
L 3341 0 
L 2766 0 
L 2766 531 
Q 2569 213 2275 61 
Q 1981 -91 1556 -91 
Q 1019 -91 701 211 
Q 384 513 384 1019 
Q 384 1609 779 1909 
Q 1175 2209 1959 2209 
L 2766 2209 
L 2766 2266 
Q 2766 2663 2505 2880 
Q 2244 3097 1772 3097 
Q 1472 3097 1187 3025 
Q 903 2953 641 2809 
L 641 3341 
Q 956 3463 1253 3523 
Q 1550 3584 1831 3584 
Q 2591 3584 2966 3190 
Q 3341 2797 3341 1997 
z
" transform="scale(0.015625)"/>
       <path id="DejaVuSans-68" d="M 3513 2113 
L 3513 0 
L 2938 0 
L 2938 2094 
Q 2938 2591 2744 2837 
Q 2550 3084 2163 3084 
Q 1697 3084 1428 2787 
Q 1159 2491 1159 1978 
L 1159 0 
L 581 0 
L 581 4863 
L 1159 4863 
L 1159 2956 
Q 1366 3272 1645 3428 
Q 1925 3584 2291 3584 
Q 2894 3584 3203 3211 
Q 3513 2838 3513 2113 
z
" transform="scale(0.015625)"/>
       <path id="DejaVuSans-6f" d="M 1959 3097 
Q 1497 3097 1228 2736 
Q 959 2375 959 1747 
Q 959 1119 1226 758 
Q 1494 397 1959 397 
Q 2419 397 2687 759 
Q 2956 1122 2956 1747 
Q 2956 2369 2687 2733 
Q 2419 3097 1959 3097 
z
M 1959 3584 
Q 2709 3584 3137 3096 
Q 3566 2609 3566 1747 
Q 3566 888 3137 398 
Q 2709 -91 1959 -91 
Q 1206 -91 779 398 
Q 353 888 353 1747 
Q 353 2609 779 3096 
Q 1206 3584 1959 3584 
z
" transform="scale(0.015625)"/>
       <path id="DejaVuSans-63" d="M 3122 3366 
L 3122 2828 
Q 2878 2963 2633 3030 
Q 2388 3097 2138 3097 
Q 1578 3097 1268 2742 
Q 959 2388 959 1747 
Q 959 1106 1268 751 
Q 1578 397 2138 397 
Q 2388 397 2633 464 
Q 2878 531 3122 666 
L 3122 134 
Q 2881 22 2623 -34 
Q 2366 -91 2075 -91 
Q 1284 -91 818 406 
Q 353 903 353 1747 
Q 353 2603 823 3093 
Q 1294 3584 2113 3584 
Q 2378 3584 2631 3529 
Q 2884 3475 3122 3366 
z
" transform="scale(0.015625)"/>
      </defs>
      <use xlink:href="#DejaVuSans-50"/>
      <use xlink:href="#DejaVuSans-61" x="55.802734"/>
      <use xlink:href="#DejaVuSans-74" x="117.082031"/>
      <use xlink:href="#DejaVuSans-68" x="156.291016"/>
      <use xlink:href="#DejaVuSans-6f" x="219.669922"/>
      <use xlink:href="#DejaVuSans-67" x="280.851562"/>
      <use xlink:href="#DejaVuSans-65" x="344.328125"/>
      <use xlink:href="#DejaVuSans-6e" x="405.851562"/>
      <use xlink:href="#DejaVuSans-69" x="469.230469"/>
      <use xlink:href="#DejaVuSans-63" x="497.013672"/>
     </g>
    </g>
   </g>
  </g>
  <g id="axes_2">
   <g id="patch_10">
    <path d="M 216.858807 162.432 
L 369.040625 162.432 
L 369.040625 7.2 
L 216.858807 7.2 
z
" style="fill: #ffffff"/>
   </g>
   <g id="PolyCollection_3">
    <defs>
     <path id="m88dc7cae3c" d="M 226.250149 -37.776072 
L 226.250149 -37.55625 
L 226.917143 -37.55625 
L 227.584136 -37.55625 
L 228.251129 -37.55625 
L 228.918122 -37.55625 
L 229.585115 -37.55625 
L 230.252109 -37.55625 
L 230.919102 -37.55625 
L 231.586095 -37.55625 
L 232.253088 -37.55625 
L 232.920081 -37.55625 
L 233.587075 -37.55625 
L 234.254068 -37.55625 
L 234.921061 -37.55625 
L 235.588054 -37.55625 
L 236.255048 -37.55625 
L 236.922041 -37.55625 
L 237.589034 -37.55625 
L 238.256027 -37.55625 
L 238.92302 -37.55625 
L 239.590014 -37.55625 
L 240.257007 -37.55625 
L 240.924 -37.55625 
L 241.590993 -37.55625 
L 242.257986 -37.55625 
L 242.92498 -37.55625 
L 243.591973 -37.55625 
L 244.258966 -37.55625 
L 244.925959 -37.55625 
L 245.592953 -37.55625 
L 246.259946 -37.55625 
L 246.926939 -37.55625 
L 247.593932 -37.55625 
L 248.260925 -37.55625 
L 248.927919 -37.55625 
L 249.594912 -37.55625 
L 250.261905 -37.55625 
L 250.928898 -37.55625 
L 251.595891 -37.55625 
L 252.262885 -37.55625 
L 252.929878 -37.55625 
L 253.596871 -37.55625 
L 254.263864 -37.55625 
L 254.930858 -37.55625 
L 255.597851 -37.55625 
L 256.264844 -37.55625 
L 256.931837 -37.55625 
L 257.59883 -37.55625 
L 258.265824 -37.55625 
L 258.932817 -37.55625 
L 259.59981 -37.55625 
L 260.266803 -37.55625 
L 260.933796 -37.55625 
L 261.60079 -37.55625 
L 262.267783 -37.55625 
L 262.934776 -37.55625 
L 263.601769 -37.55625 
L 264.268763 -37.55625 
L 264.935756 -37.55625 
L 265.602749 -37.55625 
L 266.269742 -37.55625 
L 266.936735 -37.55625 
L 267.603729 -37.55625 
L 268.270722 -37.55625 
L 268.937715 -37.55625 
L 269.604708 -37.55625 
L 270.271701 -37.55625 
L 270.938695 -37.55625 
L 271.605688 -37.55625 
L 272.272681 -37.55625 
L 272.939674 -37.55625 
L 273.606667 -37.55625 
L 274.273661 -37.55625 
L 274.940654 -37.55625 
L 275.607647 -37.55625 
L 276.27464 -37.55625 
L 276.941634 -37.55625 
L 277.608627 -37.55625 
L 278.27562 -37.55625 
L 278.942613 -37.55625 
L 279.609606 -37.55625 
L 280.2766 -37.55625 
L 280.943593 -37.55625 
L 281.610586 -37.55625 
L 282.277579 -37.55625 
L 282.944572 -37.55625 
L 283.611566 -37.55625 
L 284.278559 -37.55625 
L 284.945552 -37.55625 
L 285.612545 -37.55625 
L 286.279539 -37.55625 
L 286.946532 -37.55625 
L 287.613525 -37.55625 
L 288.280518 -37.55625 
L 288.947511 -37.55625 
L 289.614505 -37.55625 
L 290.281498 -37.55625 
L 290.948491 -37.55625 
L 291.615484 -37.55625 
L 292.282477 -37.55625 
L 292.949471 -37.55625 
L 293.616464 -37.55625 
L 294.283457 -37.55625 
L 294.95045 -37.55625 
L 295.617444 -37.55625 
L 296.284437 -37.55625 
L 296.95143 -37.55625 
L 297.618423 -37.55625 
L 298.285416 -37.55625 
L 298.95241 -37.55625 
L 299.619403 -37.55625 
L 300.286396 -37.55625 
L 300.953389 -37.55625 
L 301.620382 -37.55625 
L 302.287376 -37.55625 
L 302.954369 -37.55625 
L 303.621362 -37.55625 
L 304.288355 -37.55625 
L 304.955349 -37.55625 
L 305.622342 -37.55625 
L 306.289335 -37.55625 
L 306.956328 -37.55625 
L 307.623321 -37.55625 
L 308.290315 -37.55625 
L 308.957308 -37.55625 
L 309.624301 -37.55625 
L 310.291294 -37.55625 
L 310.958287 -37.55625 
L 311.625281 -37.55625 
L 312.292274 -37.55625 
L 312.959267 -37.55625 
L 313.62626 -37.55625 
L 314.293253 -37.55625 
L 314.960247 -37.55625 
L 315.62724 -37.55625 
L 316.294233 -37.55625 
L 316.961226 -37.55625 
L 317.62822 -37.55625 
L 318.295213 -37.55625 
L 318.962206 -37.55625 
L 319.629199 -37.55625 
L 320.296192 -37.55625 
L 320.963186 -37.55625 
L 321.630179 -37.55625 
L 322.297172 -37.55625 
L 322.964165 -37.55625 
L 323.631158 -37.55625 
L 324.298152 -37.55625 
L 324.965145 -37.55625 
L 325.632138 -37.55625 
L 326.299131 -37.55625 
L 326.966125 -37.55625 
L 327.633118 -37.55625 
L 328.300111 -37.55625 
L 328.967104 -37.55625 
L 329.634097 -37.55625 
L 330.301091 -37.55625 
L 330.968084 -37.55625 
L 331.635077 -37.55625 
L 332.30207 -37.55625 
L 332.969063 -37.55625 
L 333.636057 -37.55625 
L 334.30305 -37.55625 
L 334.970043 -37.55625 
L 335.637036 -37.55625 
L 336.30403 -37.55625 
L 336.971023 -37.55625 
L 337.638016 -37.55625 
L 338.305009 -37.55625 
L 338.972002 -37.55625 
L 339.638996 -37.55625 
L 340.305989 -37.55625 
L 340.972982 -37.55625 
L 341.639975 -37.55625 
L 342.306968 -37.55625 
L 342.973962 -37.55625 
L 343.640955 -37.55625 
L 344.307948 -37.55625 
L 344.974941 -37.55625 
L 345.641935 -37.55625 
L 346.308928 -37.55625 
L 346.975921 -37.55625 
L 347.642914 -37.55625 
L 348.309907 -37.55625 
L 348.976901 -37.55625 
L 349.643894 -37.55625 
L 350.310887 -37.55625 
L 350.97788 -37.55625 
L 351.644873 -37.55625 
L 352.311867 -37.55625 
L 352.97886 -37.55625 
L 353.645853 -37.55625 
L 354.312846 -37.55625 
L 354.979839 -37.55625 
L 355.646833 -37.55625 
L 356.313826 -37.55625 
L 356.980819 -37.55625 
L 357.647812 -37.55625 
L 358.314806 -37.55625 
L 358.981799 -37.55625 
L 358.981799 -37.558833 
L 358.981799 -37.558833 
L 358.314806 -37.560777 
L 357.647812 -37.563977 
L 356.980819 -37.569097 
L 356.313826 -37.577064 
L 355.646833 -37.589125 
L 354.979839 -37.606894 
L 354.312846 -37.632376 
L 353.645853 -37.667965 
L 352.97886 -37.716394 
L 352.311867 -37.78064 
L 351.644873 -37.863774 
L 350.97788 -37.968775 
L 350.310887 -38.098308 
L 349.643894 -38.254506 
L 348.976901 -38.438754 
L 348.309907 -38.651524 
L 347.642914 -38.892266 
L 346.975921 -39.159365 
L 346.308928 -39.450176 
L 345.641935 -39.761127 
L 344.974941 -40.087884 
L 344.307948 -40.425562 
L 343.640955 -40.768962 
L 342.973962 -41.11282 
L 342.306968 -41.452057 
L 341.639975 -41.781997 
L 340.972982 -42.098563 
L 340.305989 -42.398426 
L 339.638996 -42.679106 
L 338.972002 -42.939029 
L 338.305009 -43.177534 
L 337.638016 -43.394832 
L 336.971023 -43.591936 
L 336.30403 -43.770554 
L 335.637036 -43.932966 
L 334.970043 -44.0819 
L 334.30305 -44.220404 
L 333.636057 -44.351742 
L 332.969063 -44.479295 
L 332.30207 -44.606478 
L 331.635077 -44.736647 
L 330.968084 -44.872998 
L 330.301091 -45.018425 
L 329.634097 -45.175358 
L 328.967104 -45.34558 
L 328.300111 -45.530049 
L 327.633118 -45.728746 
L 326.966125 -45.940598 
L 326.299131 -46.163479 
L 325.632138 -46.394311 
L 324.965145 -46.629249 
L 324.298152 -46.863936 
L 323.631158 -47.093804 
L 322.964165 -47.31438 
L 322.297172 -47.521576 
L 321.630179 -47.711947 
L 320.963186 -47.882882 
L 320.296192 -48.032736 
L 319.629199 -48.160893 
L 318.962206 -48.267739 
L 318.295213 -48.35458 
L 317.62822 -48.423493 
L 316.961226 -48.477134 
L 316.294233 -48.51852 
L 315.62724 -48.550805 
L 314.960247 -48.577062 
L 314.293253 -48.600079 
L 313.62626 -48.622167 
L 312.959267 -48.644998 
L 312.292274 -48.669449 
L 311.625281 -48.695497 
L 310.958287 -48.722151 
L 310.291294 -48.74746 
L 309.624301 -48.768619 
L 308.957308 -48.782171 
L 308.290315 -48.784312 
L 307.623321 -48.771283 
L 306.956328 -48.73979 
L 306.289335 -48.687429 
L 305.622342 -48.613038 
L 304.955349 -48.516946 
L 304.288355 -48.401076 
L 303.621362 -48.26889 
L 302.954369 -48.125182 
L 302.287376 -47.975736 
L 301.620382 -47.826892 
L 300.953389 -47.685046 
L 300.286396 -47.556134 
L 299.619403 -47.445142 
L 298.95241 -47.355681 
L 298.285416 -47.289669 
L 297.618423 -47.247154 
L 296.95143 -47.226321 
L 296.284437 -47.223675 
L 295.617444 -47.234422 
L 294.95045 -47.25299 
L 294.283457 -47.273635 
L 293.616464 -47.291073 
L 292.949471 -47.301008 
L 292.282477 -47.300528 
L 291.615484 -47.288277 
L 290.948491 -47.264413 
L 290.281498 -47.230368 
L 289.614505 -47.188472 
L 288.947511 -47.141518 
L 288.280518 -47.092352 
L 287.613525 -47.043558 
L 286.946532 -46.997286 
L 286.279539 -46.955233 
L 285.612545 -46.918763 
L 284.945552 -46.889141 
L 284.278559 -46.8678 
L 283.611566 -46.856602 
L 282.944572 -46.858004 
L 282.277579 -46.875094 
L 281.610586 -46.91145 
L 280.943593 -46.970829 
L 280.2766 -47.056701 
L 279.609606 -47.171721 
L 278.942613 -47.317213 
L 278.27562 -47.492776 
L 277.608627 -47.696108 
L 276.941634 -47.923107 
L 276.27464 -48.168269 
L 275.607647 -48.425323 
L 274.940654 -48.688039 
L 274.273661 -48.951073 
L 273.606667 -49.210711 
L 272.939674 -49.465417 
L 272.272681 -49.716084 
L 271.605688 -49.965958 
L 270.938695 -50.220263 
L 270.271701 -50.485564 
L 269.604708 -50.768988 
L 268.937715 -51.077389 
L 268.270722 -51.416595 
L 267.603729 -51.790821 
L 266.936735 -52.20235 
L 266.269742 -52.651523 
L 265.602749 -53.137043 
L 264.935756 -53.656585 
L 264.268763 -54.207621 
L 263.601769 -54.788367 
L 262.934776 -55.398737 
L 262.267783 -56.041176 
L 261.60079 -56.721295 
L 260.933796 -57.448242 
L 260.266803 -58.234806 
L 259.59981 -59.097297 
L 258.932817 -60.055278 
L 258.265824 -61.131254 
L 257.59883 -62.350428 
L 256.931837 -63.740634 
L 256.264844 -65.332524 
L 255.597851 -67.160055 
L 254.930858 -69.261251 
L 254.263864 -71.679164 
L 253.596871 -74.462827 
L 252.929878 -77.667897 
L 252.262885 -81.356553 
L 251.595891 -85.596105 
L 250.928898 -90.455687 
L 250.261905 -96.000434 
L 249.594912 -102.282689 
L 248.927919 -109.330115 
L 248.260925 -117.131167 
L 247.593932 -125.61906 
L 246.926939 -134.656284 
L 246.259946 -144.022441 
L 245.592953 -153.408705 
L 244.925959 -162.422155 
L 244.258966 -170.60245 
L 243.591973 -177.45171 
L 242.92498 -182.476231 
L 242.257986 -185.236069 
L 241.590993 -185.39625 
L 240.924 -182.77191 
L 240.257007 -177.359643 
L 239.590014 -169.348888 
L 238.92302 -159.110225 
L 238.256027 -147.16133 
L 237.589034 -134.115301 
L 236.922041 -120.619115 
L 236.255048 -107.291523 
L 235.588054 -94.669285 
L 234.921061 -83.168613 
L 234.254068 -73.065467 
L 233.587075 -64.494785 
L 232.920081 -57.465676 
L 232.253088 -51.887547 
L 231.586095 -47.601374 
L 230.919102 -44.410797 
L 230.252109 -42.10901 
L 229.585115 -40.499112 
L 228.918122 -39.40721 
L 228.251129 -38.688897 
L 227.584136 -38.230478 
L 226.917143 -37.946625 
L 226.250149 -37.776072 
z
" style="stroke: #1f77b4"/>
    </defs>
    <g clip-path="url(#p38227ad47e)">
     <use xlink:href="#m88dc7cae3c" x="0" y="199.98825" style="fill: #1f77b4; fill-opacity: 0.6; stroke: #1f77b4"/>
    </g>
   </g>
   <g id="PolyCollection_4">
    <defs>
     <path id="m09dfd371cb" d="M 223.776162 -37.571706 
L 223.776162 -37.55625 
L 224.471374 -37.55625 
L 225.166585 -37.55625 
L 225.861797 -37.55625 
L 226.557009 -37.55625 
L 227.25222 -37.55625 
L 227.947432 -37.55625 
L 228.642643 -37.55625 
L 229.337855 -37.55625 
L 230.033067 -37.55625 
L 230.728278 -37.55625 
L 231.42349 -37.55625 
L 232.118701 -37.55625 
L 232.813913 -37.55625 
L 233.509125 -37.55625 
L 234.204336 -37.55625 
L 234.899548 -37.55625 
L 235.594759 -37.55625 
L 236.289971 -37.55625 
L 236.985182 -37.55625 
L 237.680394 -37.55625 
L 238.375606 -37.55625 
L 239.070817 -37.55625 
L 239.766029 -37.55625 
L 240.46124 -37.55625 
L 241.156452 -37.55625 
L 241.851664 -37.55625 
L 242.546875 -37.55625 
L 243.242087 -37.55625 
L 243.937298 -37.55625 
L 244.63251 -37.55625 
L 245.327722 -37.55625 
L 246.022933 -37.55625 
L 246.718145 -37.55625 
L 247.413356 -37.55625 
L 248.108568 -37.55625 
L 248.80378 -37.55625 
L 249.498991 -37.55625 
L 250.194203 -37.55625 
L 250.889414 -37.55625 
L 251.584626 -37.55625 
L 252.279838 -37.55625 
L 252.975049 -37.55625 
L 253.670261 -37.55625 
L 254.365472 -37.55625 
L 255.060684 -37.55625 
L 255.755896 -37.55625 
L 256.451107 -37.55625 
L 257.146319 -37.55625 
L 257.84153 -37.55625 
L 258.536742 -37.55625 
L 259.231954 -37.55625 
L 259.927165 -37.55625 
L 260.622377 -37.55625 
L 261.317588 -37.55625 
L 262.0128 -37.55625 
L 262.708012 -37.55625 
L 263.403223 -37.55625 
L 264.098435 -37.55625 
L 264.793646 -37.55625 
L 265.488858 -37.55625 
L 266.184069 -37.55625 
L 266.879281 -37.55625 
L 267.574493 -37.55625 
L 268.269704 -37.55625 
L 268.964916 -37.55625 
L 269.660127 -37.55625 
L 270.355339 -37.55625 
L 271.050551 -37.55625 
L 271.745762 -37.55625 
L 272.440974 -37.55625 
L 273.136185 -37.55625 
L 273.831397 -37.55625 
L 274.526609 -37.55625 
L 275.22182 -37.55625 
L 275.917032 -37.55625 
L 276.612243 -37.55625 
L 277.307455 -37.55625 
L 278.002667 -37.55625 
L 278.697878 -37.55625 
L 279.39309 -37.55625 
L 280.088301 -37.55625 
L 280.783513 -37.55625 
L 281.478725 -37.55625 
L 282.173936 -37.55625 
L 282.869148 -37.55625 
L 283.564359 -37.55625 
L 284.259571 -37.55625 
L 284.954783 -37.55625 
L 285.649994 -37.55625 
L 286.345206 -37.55625 
L 287.040417 -37.55625 
L 287.735629 -37.55625 
L 288.430841 -37.55625 
L 289.126052 -37.55625 
L 289.821264 -37.55625 
L 290.516475 -37.55625 
L 291.211687 -37.55625 
L 291.906899 -37.55625 
L 292.60211 -37.55625 
L 293.297322 -37.55625 
L 293.992533 -37.55625 
L 294.687745 -37.55625 
L 295.382956 -37.55625 
L 296.078168 -37.55625 
L 296.77338 -37.55625 
L 297.468591 -37.55625 
L 298.163803 -37.55625 
L 298.859014 -37.55625 
L 299.554226 -37.55625 
L 300.249438 -37.55625 
L 300.944649 -37.55625 
L 301.639861 -37.55625 
L 302.335072 -37.55625 
L 303.030284 -37.55625 
L 303.725496 -37.55625 
L 304.420707 -37.55625 
L 305.115919 -37.55625 
L 305.81113 -37.55625 
L 306.506342 -37.55625 
L 307.201554 -37.55625 
L 307.896765 -37.55625 
L 308.591977 -37.55625 
L 309.287188 -37.55625 
L 309.9824 -37.55625 
L 310.677612 -37.55625 
L 311.372823 -37.55625 
L 312.068035 -37.55625 
L 312.763246 -37.55625 
L 313.458458 -37.55625 
L 314.15367 -37.55625 
L 314.848881 -37.55625 
L 315.544093 -37.55625 
L 316.239304 -37.55625 
L 316.934516 -37.55625 
L 317.629728 -37.55625 
L 318.324939 -37.55625 
L 319.020151 -37.55625 
L 319.715362 -37.55625 
L 320.410574 -37.55625 
L 321.105786 -37.55625 
L 321.800997 -37.55625 
L 322.496209 -37.55625 
L 323.19142 -37.55625 
L 323.886632 -37.55625 
L 324.581843 -37.55625 
L 325.277055 -37.55625 
L 325.972267 -37.55625 
L 326.667478 -37.55625 
L 327.36269 -37.55625 
L 328.057901 -37.55625 
L 328.753113 -37.55625 
L 329.448325 -37.55625 
L 330.143536 -37.55625 
L 330.838748 -37.55625 
L 331.533959 -37.55625 
L 332.229171 -37.55625 
L 332.924383 -37.55625 
L 333.619594 -37.55625 
L 334.314806 -37.55625 
L 335.010017 -37.55625 
L 335.705229 -37.55625 
L 336.400441 -37.55625 
L 337.095652 -37.55625 
L 337.790864 -37.55625 
L 338.486075 -37.55625 
L 339.181287 -37.55625 
L 339.876499 -37.55625 
L 340.57171 -37.55625 
L 341.266922 -37.55625 
L 341.962133 -37.55625 
L 342.657345 -37.55625 
L 343.352557 -37.55625 
L 344.047768 -37.55625 
L 344.74298 -37.55625 
L 345.438191 -37.55625 
L 346.133403 -37.55625 
L 346.828615 -37.55625 
L 347.523826 -37.55625 
L 348.219038 -37.55625 
L 348.914249 -37.55625 
L 349.609461 -37.55625 
L 350.304673 -37.55625 
L 350.999884 -37.55625 
L 351.695096 -37.55625 
L 352.390307 -37.55625 
L 353.085519 -37.55625 
L 353.78073 -37.55625 
L 354.475942 -37.55625 
L 355.171154 -37.55625 
L 355.866365 -37.55625 
L 356.561577 -37.55625 
L 357.256788 -37.55625 
L 357.952 -37.55625 
L 358.647212 -37.55625 
L 359.342423 -37.55625 
L 360.037635 -37.55625 
L 360.732846 -37.55625 
L 361.428058 -37.55625 
L 362.12327 -37.55625 
L 362.12327 -37.662757 
L 362.12327 -37.662757 
L 361.428058 -37.725631 
L 360.732846 -37.820608 
L 360.037635 -37.961202 
L 359.342423 -38.165139 
L 358.647212 -38.455009 
L 357.952 -38.858723 
L 357.256788 -39.409644 
L 356.561577 -40.146244 
L 355.866365 -41.111129 
L 355.171154 -42.349329 
L 354.475942 -43.905795 
L 353.78073 -45.822144 
L 353.085519 -48.132811 
L 352.390307 -50.860879 
L 351.695096 -54.013962 
L 350.999884 -57.580624 
L 350.304673 -61.527796 
L 349.609461 -65.799656 
L 348.914249 -70.318283 
L 348.219038 -74.986251 
L 347.523826 -79.69108 
L 346.828615 -84.311264 
L 346.133403 -88.723341 
L 345.438191 -92.809377 
L 344.74298 -96.464129 
L 344.047768 -99.601192 
L 343.352557 -102.157586 
L 342.657345 -104.096395 
L 341.962133 -105.407329 
L 341.266922 -106.105325 
L 340.57171 -106.227481 
L 339.876499 -105.828793 
L 339.181287 -104.977223 
L 338.486075 -103.748616 
L 337.790864 -102.221921 
L 337.095652 -100.475044 
L 336.400441 -98.581535 
L 335.705229 -96.608167 
L 335.010017 -94.613361 
L 334.314806 -92.646337 
L 333.619594 -90.746835 
L 332.924383 -88.94526 
L 332.229171 -87.263107 
L 331.533959 -85.713597 
L 330.838748 -84.302452 
L 330.143536 -83.028798 
L 329.448325 -81.886178 
L 328.753113 -80.863667 
L 328.057901 -79.947063 
L 327.36269 -79.120106 
L 326.667478 -78.365684 
L 325.972267 -77.666934 
L 325.277055 -77.008195 
L 324.581843 -76.37574 
L 323.886632 -75.758274 
L 323.19142 -75.147171 
L 322.496209 -74.536486 
L 321.800997 -73.922773 
L 321.105786 -73.304759 
L 320.410574 -72.682938 
L 319.715362 -72.059131 
L 319.020151 -71.436059 
L 318.324939 -70.816948 
L 317.629728 -70.205189 
L 316.934516 -69.604053 
L 316.239304 -69.016456 
L 315.544093 -68.444766 
L 314.848881 -67.890655 
L 314.15367 -67.354989 
L 313.458458 -66.837753 
L 312.763246 -66.338036 
L 312.068035 -65.85406 
L 311.372823 -65.383268 
L 310.677612 -64.922469 
L 309.9824 -64.468031 
L 309.287188 -64.016102 
L 308.591977 -63.562843 
L 307.896765 -63.10466 
L 307.201554 -62.638394 
L 306.506342 -62.161473 
L 305.81113 -61.672005 
L 305.115919 -61.168815 
L 304.420707 -60.651436 
L 303.725496 -60.120067 
L 303.030284 -59.575508 
L 302.335072 -59.019101 
L 301.639861 -58.452672 
L 300.944649 -57.878499 
L 300.249438 -57.299272 
L 299.554226 -56.718071 
L 298.859014 -56.138321 
L 298.163803 -55.563729 
L 297.468591 -54.998191 
L 296.77338 -54.445667 
L 296.078168 -53.910037 
L 295.382956 -53.394948 
L 294.687745 -52.903664 
L 293.992533 -52.438948 
L 293.297322 -52.002972 
L 292.60211 -51.597262 
L 291.906899 -51.222691 
L 291.211687 -50.879495 
L 290.516475 -50.567305 
L 289.821264 -50.285204 
L 289.126052 -50.031781 
L 288.430841 -49.8052 
L 287.735629 -49.603276 
L 287.040417 -49.423572 
L 286.345206 -49.263516 
L 285.649994 -49.120528 
L 284.954783 -48.992173 
L 284.259571 -48.876293 
L 283.564359 -48.771127 
L 282.869148 -48.675388 
L 282.173936 -48.588277 
L 281.478725 -48.509433 
L 280.783513 -48.438833 
L 280.088301 -48.376624 
L 279.39309 -48.32296 
L 278.697878 -48.277823 
L 278.002667 -48.240895 
L 277.307455 -48.211481 
L 276.612243 -48.188512 
L 275.917032 -48.170609 
L 275.22182 -48.156213 
L 274.526609 -48.143742 
L 273.831397 -48.131761 
L 273.136185 -48.119129 
L 272.440974 -48.105089 
L 271.745762 -48.089317 
L 271.050551 -48.071894 
L 270.355339 -48.053249 
L 269.660127 -48.034053 
L 268.964916 -48.015133 
L 268.269704 -47.997392 
L 267.574493 -47.981787 
L 266.879281 -47.969348 
L 266.184069 -47.961253 
L 265.488858 -47.958938 
L 264.793646 -47.964219 
L 264.098435 -47.979386 
L 263.403223 -48.007257 
L 262.708012 -48.051159 
L 262.0128 -48.114823 
L 261.317588 -48.202201 
L 260.622377 -48.317212 
L 259.927165 -48.463456 
L 259.231954 -48.64392 
L 258.536742 -48.86071 
L 257.84153 -49.114843 
L 257.146319 -49.40612 
L 256.451107 -49.733069 
L 255.755896 -50.092974 
L 255.060684 -50.481945 
L 254.365472 -50.895007 
L 253.670261 -51.32619 
L 252.975049 -51.768568 
L 252.279838 -52.214262 
L 251.584626 -52.654378 
L 250.889414 -53.078921 
L 250.194203 -53.476711 
L 249.498991 -53.835344 
L 248.80378 -54.141266 
L 248.108568 -54.379996 
L 247.413356 -54.536545 
L 246.718145 -54.596047 
L 246.022933 -54.544582 
L 245.327722 -54.370147 
L 244.63251 -54.063699 
L 243.937298 -53.620161 
L 243.242087 -53.039264 
L 242.546875 -52.326133 
L 241.851664 -51.491487 
L 241.156452 -50.551426 
L 240.46124 -49.526762 
L 239.766029 -48.441954 
L 239.070817 -47.323725 
L 238.375606 -46.199494 
L 237.680394 -45.095771 
L 236.985182 -44.036672 
L 236.289971 -43.04269 
L 235.594759 -42.129816 
L 234.899548 -41.309075 
L 234.204336 -40.586473 
L 233.509125 -39.963316 
L 232.813913 -39.436833 
L 232.118701 -39.000994 
L 231.42349 -38.647422 
L 230.728278 -38.366309 
L 230.033067 -38.147248 
L 229.337855 -37.979921 
L 228.642643 -37.854638 
L 227.947432 -37.762685 
L 227.25222 -37.696523 
L 226.557009 -37.649857 
L 225.861797 -37.617588 
L 225.166585 -37.595713 
L 224.471374 -37.581176 
L 223.776162 -37.571706 
z
" style="stroke: #ff7f0e"/>
    </defs>
    <g clip-path="url(#p38227ad47e)">
     <use xlink:href="#m09dfd371cb" x="0" y="199.98825" style="fill: #ff7f0e; fill-opacity: 0.6; stroke: #ff7f0e"/>
    </g>
   </g>
   <g id="matplotlib.axis_3">
    <g id="xtick_4">
     <g id="line2d_11">
      <g>
       <use xlink:href="#m504ccefdfe" x="234.270806" y="162.432" style="stroke: #000000; stroke-width: 0.8"/>
      </g>
     </g>
     <g id="text_15">
      <!-- 0.0 -->
      <g transform="translate(226.319244 177.030437) scale(0.1 -0.1)">
       <use xlink:href="#DejaVuSans-30"/>
       <use xlink:href="#DejaVuSans-2e" x="63.623047"/>
       <use xlink:href="#DejaVuSans-30" x="95.410156"/>
      </g>
     </g>
    </g>
    <g id="xtick_5">
     <g id="line2d_12">
      <g>
       <use xlink:href="#m504ccefdfe" x="294.673046" y="162.432" style="stroke: #000000; stroke-width: 0.8"/>
      </g>
     </g>
     <g id="text_16">
      <!-- 0.5 -->
      <g transform="translate(286.721484 177.030437) scale(0.1 -0.1)">
       <use xlink:href="#DejaVuSans-30"/>
       <use xlink:href="#DejaVuSans-2e" x="63.623047"/>
       <use xlink:href="#DejaVuSans-35" x="95.410156"/>
      </g>
     </g>
    </g>
    <g id="xtick_6">
     <g id="line2d_13">
      <g>
       <use xlink:href="#m504ccefdfe" x="355.075287" y="162.432" style="stroke: #000000; stroke-width: 0.8"/>
      </g>
     </g>
     <g id="text_17">
      <!-- 1.0 -->
      <g transform="translate(347.123724 177.030437) scale(0.1 -0.1)">
       <use xlink:href="#DejaVuSans-31"/>
       <use xlink:href="#DejaVuSans-2e" x="63.623047"/>
       <use xlink:href="#DejaVuSans-30" x="95.410156"/>
      </g>
     </g>
    </g>
    <g id="text_18">
     <!-- Predicted probability -->
     <g transform="translate(241.21456 190.708562) scale(0.1 -0.1)">
      <defs>
       <path id="DejaVuSans-72" d="M 2631 2963 
Q 2534 3019 2420 3045 
Q 2306 3072 2169 3072 
Q 1681 3072 1420 2755 
Q 1159 2438 1159 1844 
L 1159 0 
L 581 0 
L 581 3500 
L 1159 3500 
L 1159 2956 
Q 1341 3275 1631 3429 
Q 1922 3584 2338 3584 
Q 2397 3584 2469 3576 
Q 2541 3569 2628 3553 
L 2631 2963 
z
" transform="scale(0.015625)"/>
       <path id="DejaVuSans-64" d="M 2906 2969 
L 2906 4863 
L 3481 4863 
L 3481 0 
L 2906 0 
L 2906 525 
Q 2725 213 2448 61 
Q 2172 -91 1784 -91 
Q 1150 -91 751 415 
Q 353 922 353 1747 
Q 353 2572 751 3078 
Q 1150 3584 1784 3584 
Q 2172 3584 2448 3432 
Q 2725 3281 2906 2969 
z
M 947 1747 
Q 947 1113 1208 752 
Q 1469 391 1925 391 
Q 2381 391 2643 752 
Q 2906 1113 2906 1747 
Q 2906 2381 2643 2742 
Q 2381 3103 1925 3103 
Q 1469 3103 1208 2742 
Q 947 2381 947 1747 
z
" transform="scale(0.015625)"/>
       <path id="DejaVuSans-20" transform="scale(0.015625)"/>
       <path id="DejaVuSans-70" d="M 1159 525 
L 1159 -1331 
L 581 -1331 
L 581 3500 
L 1159 3500 
L 1159 2969 
Q 1341 3281 1617 3432 
Q 1894 3584 2278 3584 
Q 2916 3584 3314 3078 
Q 3713 2572 3713 1747 
Q 3713 922 3314 415 
Q 2916 -91 2278 -91 
Q 1894 -91 1617 61 
Q 1341 213 1159 525 
z
M 3116 1747 
Q 3116 2381 2855 2742 
Q 2594 3103 2138 3103 
Q 1681 3103 1420 2742 
Q 1159 2381 1159 1747 
Q 1159 1113 1420 752 
Q 1681 391 2138 391 
Q 2594 391 2855 752 
Q 3116 1113 3116 1747 
z
" transform="scale(0.015625)"/>
       <path id="DejaVuSans-62" d="M 3116 1747 
Q 3116 2381 2855 2742 
Q 2594 3103 2138 3103 
Q 1681 3103 1420 2742 
Q 1159 2381 1159 1747 
Q 1159 1113 1420 752 
Q 1681 391 2138 391 
Q 2594 391 2855 752 
Q 3116 1113 3116 1747 
z
M 1159 2969 
Q 1341 3281 1617 3432 
Q 1894 3584 2278 3584 
Q 2916 3584 3314 3078 
Q 3713 2572 3713 1747 
Q 3713 922 3314 415 
Q 2916 -91 2278 -91 
Q 1894 -91 1617 61 
Q 1341 213 1159 525 
L 1159 0 
L 581 0 
L 581 4863 
L 1159 4863 
L 1159 2969 
z
" transform="scale(0.015625)"/>
       <path id="DejaVuSans-6c" d="M 603 4863 
L 1178 4863 
L 1178 0 
L 603 0 
L 603 4863 
z
" transform="scale(0.015625)"/>
      </defs>
      <use xlink:href="#DejaVuSans-50"/>
      <use xlink:href="#DejaVuSans-72" x="58.552734"/>
      <use xlink:href="#DejaVuSans-65" x="97.416016"/>
      <use xlink:href="#DejaVuSans-64" x="158.939453"/>
      <use xlink:href="#DejaVuSans-69" x="222.416016"/>
      <use xlink:href="#DejaVuSans-63" x="250.199219"/>
      <use xlink:href="#DejaVuSans-74" x="305.179688"/>
      <use xlink:href="#DejaVuSans-65" x="344.388672"/>
      <use xlink:href="#DejaVuSans-64" x="405.912109"/>
      <use xlink:href="#DejaVuSans-20" x="469.388672"/>
      <use xlink:href="#DejaVuSans-70" x="501.175781"/>
      <use xlink:href="#DejaVuSans-72" x="564.652344"/>
      <use xlink:href="#DejaVuSans-6f" x="603.515625"/>
      <use xlink:href="#DejaVuSans-62" x="664.697266"/>
      <use xlink:href="#DejaVuSans-61" x="728.173828"/>
      <use xlink:href="#DejaVuSans-62" x="789.453125"/>
      <use xlink:href="#DejaVuSans-69" x="852.929688"/>
      <use xlink:href="#DejaVuSans-6c" x="880.712891"/>
      <use xlink:href="#DejaVuSans-69" x="908.496094"/>
      <use xlink:href="#DejaVuSans-74" x="936.279297"/>
      <use xlink:href="#DejaVuSans-79" x="975.488281"/>
     </g>
    </g>
   </g>
   <g id="matplotlib.axis_4">
    <g id="ytick_8">
     <g id="line2d_14">
      <g>
       <use xlink:href="#mad89356ed8" x="216.858807" y="162.432" style="stroke: #000000; stroke-width: 0.8"/>
      </g>
     </g>
    </g>
    <g id="ytick_9">
     <g id="line2d_15">
      <g>
       <use xlink:href="#mad89356ed8" x="216.858807" y="138.077295" style="stroke: #000000; stroke-width: 0.8"/>
      </g>
     </g>
    </g>
    <g id="ytick_10">
     <g id="line2d_16">
      <g>
       <use xlink:href="#mad89356ed8" x="216.858807" y="113.72259" style="stroke: #000000; stroke-width: 0.8"/>
      </g>
     </g>
    </g>
    <g id="ytick_11">
     <g id="line2d_17">
      <g>
       <use xlink:href="#mad89356ed8" x="216.858807" y="89.367885" style="stroke: #000000; stroke-width: 0.8"/>
      </g>
     </g>
    </g>
    <g id="ytick_12">
     <g id="line2d_18">
      <g>
       <use xlink:href="#mad89356ed8" x="216.858807" y="65.01318" style="stroke: #000000; stroke-width: 0.8"/>
      </g>
     </g>
    </g>
    <g id="ytick_13">
     <g id="line2d_19">
      <g>
       <use xlink:href="#mad89356ed8" x="216.858807" y="40.658475" style="stroke: #000000; stroke-width: 0.8"/>
      </g>
     </g>
    </g>
    <g id="ytick_14">
     <g id="line2d_20">
      <g>
       <use xlink:href="#mad89356ed8" x="216.858807" y="16.30377" style="stroke: #000000; stroke-width: 0.8"/>
      </g>
     </g>
    </g>
   </g>
   <g id="patch_11">
    <path d="M 216.858807 162.432 
L 216.858807 7.2 
" style="fill: none; stroke: #000000; stroke-width: 0.8; stroke-linejoin: miter; stroke-linecap: square"/>
   </g>
   <g id="patch_12">
    <path d="M 369.040625 162.432 
L 369.040625 7.2 
" style="fill: none; stroke: #000000; stroke-width: 0.8; stroke-linejoin: miter; stroke-linecap: square"/>
   </g>
   <g id="patch_13">
    <path d="M 216.858807 162.432 
L 369.040625 162.432 
" style="fill: none; stroke: #000000; stroke-width: 0.8; stroke-linejoin: miter; stroke-linecap: square"/>
   </g>
   <g id="patch_14">
    <path d="M 216.858807 7.2 
L 369.040625 7.2 
" style="fill: none; stroke: #000000; stroke-width: 0.8; stroke-linejoin: miter; stroke-linecap: square"/>
   </g>
  </g>
 </g>
 <defs>
  <clipPath id="p0f6a235079">
   <rect x="34.240625" y="7.2" width="152.181818" height="155.232"/>
  </clipPath>
  <clipPath id="p38227ad47e">
   <rect x="216.858807" y="7.2" width="152.181818" height="155.232"/>
  </clipPath>
 </defs>
</svg>
