<?xml version="1.0" encoding="utf-8" standalone="no"?>
<!DOCTYPE svg PUBLIC "-//W3C//DTD SVG 1.1//EN"
  "http://www.w3.org/Graphics/SVG/1.1/DTD/svg11.dtd">
<svg xmlns:xlink="http://www.w3.org/1999/xlink" width="376.240625pt" height="199.98825pt" viewBox="0 0 376.240625 199.98825" xmlns="http://www.w3.org/2000/svg" version="1.1">
 <metadata>
  <rdf:RDF xmlns:dc="http://purl.org/dc/elements/1.1/" xmlns:cc="http://creativecommons.org/ns#" xmlns:rdf="http://www.w3.org/1999/02/22-rdf-syntax-ns#">
   <cc:Work>
    <dc:type rdf:resource="http://purl.org/dc/dcmitype/StillImage"/>
    <dc:date>2025-05-27T21:49:46.119491</dc:date>
    <dc:format>image/svg+xml</dc:format>
    <dc:creator>
     <cc:Agent>
      <dc:title>Matplotlib v3.9.2, https://matplotlib.org/</dc:title>
     </cc:Agent>
    </dc:creator>
   </cc:Work>
  </rdf:RDF>
 </metadata>
 <defs>
  <style type="text/css">*{stroke-linejoin: round; stroke-linecap: butt}</style>
 </defs>
 <g id="figure_1">
  <g id="patch_1">
   <path d="M 0 199.98825 
L 376.240625 199.98825 
L 376.240625 -0 
L 0 -0 
z
" style="fill: #ffffff"/>
  </g>
  <g id="axes_1">
   <g id="patch_2">
    <path d="M 34.240625 162.432 
L 186.422443 162.432 
L 186.422443 7.2 
L 34.240625 7.2 
z
" style="fill: #ffffff"/>
   </g>
   <g id="PolyCollection_1">
    <defs>
     <path id="m29671fe141" d="M 41.15798 -37.556319 
L 41.15798 -37.55625 
L 41.664015 -37.55625 
L 42.170049 -37.55625 
L 42.676083 -37.55625 
L 43.182117 -37.55625 
L 43.688152 -37.55625 
L 44.194186 -37.55625 
L 44.70022 -37.55625 
L 45.206254 -37.55625 
L 45.712288 -37.55625 
L 46.218323 -37.55625 
L 46.724357 -37.55625 
L 47.230391 -37.55625 
L 47.736425 -37.55625 
L 48.24246 -37.55625 
L 48.748494 -37.55625 
L 49.254528 -37.55625 
L 49.760562 -37.55625 
L 50.266597 -37.55625 
L 50.772631 -37.55625 
L 51.278665 -37.55625 
L 51.784699 -37.55625 
L 52.290733 -37.55625 
L 52.796768 -37.55625 
L 53.302802 -37.55625 
L 53.808836 -37.55625 
L 54.31487 -37.55625 
L 54.820905 -37.55625 
L 55.326939 -37.55625 
L 55.832973 -37.55625 
L 56.339007 -37.55625 
L 56.845042 -37.55625 
L 57.351076 -37.55625 
L 57.85711 -37.55625 
L 58.363144 -37.55625 
L 58.869178 -37.55625 
L 59.375213 -37.55625 
L 59.881247 -37.55625 
L 60.387281 -37.55625 
L 60.893315 -37.55625 
L 61.39935 -37.55625 
L 61.905384 -37.55625 
L 62.411418 -37.55625 
L 62.917452 -37.55625 
L 63.423487 -37.55625 
L 63.929521 -37.55625 
L 64.435555 -37.55625 
L 64.941589 -37.55625 
L 65.447623 -37.55625 
L 65.953658 -37.55625 
L 66.459692 -37.55625 
L 66.965726 -37.55625 
L 67.47176 -37.55625 
L 67.977795 -37.55625 
L 68.483829 -37.55625 
L 68.989863 -37.55625 
L 69.495897 -37.55625 
L 70.001932 -37.55625 
L 70.507966 -37.55625 
L 71.014 -37.55625 
L 71.520034 -37.55625 
L 72.026068 -37.55625 
L 72.532103 -37.55625 
L 73.038137 -37.55625 
L 73.544171 -37.55625 
L 74.050205 -37.55625 
L 74.55624 -37.55625 
L 75.062274 -37.55625 
L 75.568308 -37.55625 
L 76.074342 -37.55625 
L 76.580377 -37.55625 
L 77.086411 -37.55625 
L 77.592445 -37.55625 
L 78.098479 -37.55625 
L 78.604514 -37.55625 
L 79.110548 -37.55625 
L 79.616582 -37.55625 
L 80.122616 -37.55625 
L 80.62865 -37.55625 
L 81.134685 -37.55625 
L 81.640719 -37.55625 
L 82.146753 -37.55625 
L 82.652787 -37.55625 
L 83.158822 -37.55625 
L 83.664856 -37.55625 
L 84.17089 -37.55625 
L 84.676924 -37.55625 
L 85.182959 -37.55625 
L 85.688993 -37.55625 
L 86.195027 -37.55625 
L 86.701061 -37.55625 
L 87.207095 -37.55625 
L 87.71313 -37.55625 
L 88.219164 -37.55625 
L 88.725198 -37.55625 
L 89.231232 -37.55625 
L 89.737267 -37.55625 
L 90.243301 -37.55625 
L 90.749335 -37.55625 
L 91.255369 -37.55625 
L 91.761404 -37.55625 
L 92.267438 -37.55625 
L 92.773472 -37.55625 
L 93.279506 -37.55625 
L 93.78554 -37.55625 
L 94.291575 -37.55625 
L 94.797609 -37.55625 
L 95.303643 -37.55625 
L 95.809677 -37.55625 
L 96.315712 -37.55625 
L 96.821746 -37.55625 
L 97.32778 -37.55625 
L 97.833814 -37.55625 
L 98.339849 -37.55625 
L 98.845883 -37.55625 
L 99.351917 -37.55625 
L 99.857951 -37.55625 
L 100.363985 -37.55625 
L 100.87002 -37.55625 
L 101.376054 -37.55625 
L 101.882088 -37.55625 
L 102.388122 -37.55625 
L 102.894157 -37.55625 
L 103.400191 -37.55625 
L 103.906225 -37.55625 
L 104.412259 -37.55625 
L 104.918294 -37.55625 
L 105.424328 -37.55625 
L 105.930362 -37.55625 
L 106.436396 -37.55625 
L 106.94243 -37.55625 
L 107.448465 -37.55625 
L 107.954499 -37.55625 
L 108.460533 -37.55625 
L 108.966567 -37.55625 
L 109.472602 -37.55625 
L 109.978636 -37.55625 
L 110.48467 -37.55625 
L 110.990704 -37.55625 
L 111.496739 -37.55625 
L 112.002773 -37.55625 
L 112.508807 -37.55625 
L 113.014841 -37.55625 
L 113.520875 -37.55625 
L 114.02691 -37.55625 
L 114.532944 -37.55625 
L 115.038978 -37.55625 
L 115.545012 -37.55625 
L 116.051047 -37.55625 
L 116.557081 -37.55625 
L 117.063115 -37.55625 
L 117.569149 -37.55625 
L 118.075184 -37.55625 
L 118.581218 -37.55625 
L 119.087252 -37.55625 
L 119.593286 -37.55625 
L 120.09932 -37.55625 
L 120.605355 -37.55625 
L 121.111389 -37.55625 
L 121.617423 -37.55625 
L 122.123457 -37.55625 
L 122.629492 -37.55625 
L 123.135526 -37.55625 
L 123.64156 -37.55625 
L 124.147594 -37.55625 
L 124.653629 -37.55625 
L 125.159663 -37.55625 
L 125.665697 -37.55625 
L 126.171731 -37.55625 
L 126.677765 -37.55625 
L 127.1838 -37.55625 
L 127.689834 -37.55625 
L 128.195868 -37.55625 
L 128.701902 -37.55625 
L 129.207937 -37.55625 
L 129.713971 -37.55625 
L 130.220005 -37.55625 
L 130.726039 -37.55625 
L 131.232074 -37.55625 
L 131.738108 -37.55625 
L 132.244142 -37.55625 
L 132.750176 -37.55625 
L 133.256211 -37.55625 
L 133.762245 -37.55625 
L 134.268279 -37.55625 
L 134.774313 -37.55625 
L 135.280347 -37.55625 
L 135.786382 -37.55625 
L 136.292416 -37.55625 
L 136.79845 -37.55625 
L 137.304484 -37.55625 
L 137.810519 -37.55625 
L 138.316553 -37.55625 
L 138.822587 -37.55625 
L 139.328621 -37.55625 
L 139.834656 -37.55625 
L 140.34069 -37.55625 
L 140.846724 -37.55625 
L 141.352758 -37.55625 
L 141.858792 -37.55625 
L 141.858792 -37.556352 
L 141.858792 -37.556352 
L 141.352758 -37.556459 
L 140.846724 -37.556657 
L 140.34069 -37.557005 
L 139.834656 -37.557582 
L 139.328621 -37.558496 
L 138.822587 -37.559872 
L 138.316553 -37.561849 
L 137.810519 -37.564576 
L 137.304484 -37.568197 
L 136.79845 -37.572859 
L 136.292416 -37.578721 
L 135.786382 -37.585969 
L 135.280347 -37.594843 
L 134.774313 -37.605658 
L 134.268279 -37.618813 
L 133.762245 -37.634794 
L 133.256211 -37.654162 
L 132.750176 -37.677538 
L 132.244142 -37.705572 
L 131.738108 -37.738912 
L 131.232074 -37.778159 
L 130.726039 -37.823823 
L 130.220005 -37.876271 
L 129.713971 -37.935691 
L 129.207937 -38.002065 
L 128.701902 -38.075148 
L 128.195868 -38.154456 
L 127.689834 -38.239252 
L 127.1838 -38.328555 
L 126.677765 -38.421187 
L 126.171731 -38.515881 
L 125.665697 -38.611473 
L 125.159663 -38.707131 
L 124.653629 -38.8026 
L 124.147594 -38.89839 
L 123.64156 -38.995872 
L 123.135526 -39.097255 
L 122.629492 -39.205467 
L 122.123457 -39.323972 
L 121.617423 -39.456545 
L 121.111389 -39.607056 
L 120.605355 -39.779259 
L 120.09932 -39.976584 
L 119.593286 -40.201944 
L 119.087252 -40.457566 
L 118.581218 -40.744895 
L 118.075184 -41.064615 
L 117.569149 -41.416853 
L 117.063115 -41.801548 
L 116.557081 -42.218905 
L 116.051047 -42.66978 
L 115.545012 -43.155819 
L 115.038978 -43.679215 
L 114.532944 -44.242088 
L 114.02691 -44.845582 
L 113.520875 -45.488938 
L 113.014841 -46.168797 
L 112.508807 -46.878953 
L 112.002773 -47.61064 
L 111.496739 -48.35327 
L 110.990704 -49.095381 
L 110.48467 -49.825521 
L 109.978636 -50.532798 
L 109.472602 -51.207002 
L 108.966567 -51.838378 
L 108.460533 -52.417319 
L 107.954499 -52.934259 
L 107.448465 -53.379994 
L 106.94243 -53.746442 
L 106.436396 -54.027618 
L 105.930362 -54.22048 
L 105.424328 -54.325313 
L 104.918294 -54.345487 
L 104.412259 -54.286684 
L 103.906225 -54.155898 
L 103.400191 -53.960585 
L 102.894157 -53.70823 
L 102.388122 -53.406359 
L 101.882088 -53.062833 
L 101.376054 -52.686089 
L 100.87002 -52.285083 
L 100.363985 -51.86883 
L 99.857951 -51.445683 
L 99.351917 -51.022607 
L 98.845883 -50.604744 
L 98.339849 -50.195414 
L 97.833814 -49.79654 
L 97.32778 -49.409276 
L 96.821746 -49.034581 
L 96.315712 -48.67353 
L 95.809677 -48.327283 
L 95.303643 -47.99682 
L 94.797609 -47.6826 
L 94.291575 -47.384345 
L 93.78554 -47.101024 
L 93.279506 -46.831033 
L 92.773472 -46.572472 
L 92.267438 -46.323413 
L 91.761404 -46.082084 
L 91.255369 -45.846964 
L 90.749335 -45.616801 
L 90.243301 -45.390609 
L 89.737267 -45.167638 
L 89.231232 -44.947327 
L 88.725198 -44.729216 
L 88.219164 -44.512821 
L 87.71313 -44.297509 
L 87.207095 -44.082439 
L 86.701061 -43.866643 
L 86.195027 -43.649262 
L 85.688993 -43.429885 
L 85.182959 -43.208868 
L 84.676924 -42.987507 
L 84.17089 -42.767975 
L 83.664856 -42.553033 
L 83.158822 -42.345615 
L 82.652787 -42.148447 
L 82.146753 -41.963777 
L 81.640719 -41.793285 
L 81.134685 -41.638104 
L 80.62865 -41.498878 
L 80.122616 -41.375796 
L 79.616582 -41.268581 
L 79.110548 -41.176478 
L 78.604514 -41.09829 
L 78.098479 -41.032472 
L 77.592445 -40.977274 
L 77.086411 -40.930876 
L 76.580377 -40.891469 
L 76.074342 -40.85728 
L 75.568308 -40.826581 
L 75.062274 -40.79774 
L 74.55624 -40.769356 
L 74.050205 -40.740483 
L 73.544171 -40.710885 
L 73.038137 -40.681232 
L 72.532103 -40.653153 
L 72.026068 -40.629078 
L 71.520034 -40.611894 
L 71.014 -40.604524 
L 70.507966 -40.609524 
L 70.001932 -40.628871 
L 69.495897 -40.663947 
L 68.989863 -40.715704 
L 68.483829 -40.78488 
L 67.977795 -40.872142 
L 67.47176 -40.978057 
L 66.965726 -41.102903 
L 66.459692 -41.24636 
L 65.953658 -41.407174 
L 65.447623 -41.582855 
L 64.941589 -41.76948 
L 64.435555 -41.961641 
L 63.929521 -42.152601 
L 63.423487 -42.334661 
L 62.917452 -42.499708 
L 62.411418 -42.639831 
L 61.905384 -42.747838 
L 61.39935 -42.817571 
L 60.893315 -42.843986 
L 60.387281 -42.823095 
L 59.881247 -42.751935 
L 59.375213 -42.628687 
L 58.869178 -42.452994 
L 58.363144 -42.226396 
L 57.85711 -41.952741 
L 57.351076 -41.638396 
L 56.845042 -41.292154 
L 56.339007 -40.924765 
L 55.832973 -40.548132 
L 55.326939 -40.17427 
L 54.820905 -39.814197 
L 54.31487 -39.476971 
L 53.808836 -39.169047 
L 53.302802 -38.894089 
L 52.796768 -38.653203 
L 52.290733 -38.445501 
L 51.784699 -38.268788 
L 51.278665 -38.120202 
L 50.772631 -37.996688 
L 50.266597 -37.895264 
L 49.760562 -37.813125 
L 49.254528 -37.747647 
L 48.748494 -37.696363 
L 48.24246 -37.656955 
L 47.736425 -37.627272 
L 47.230391 -37.605368 
L 46.724357 -37.589533 
L 46.218323 -37.578323 
L 45.712288 -37.570554 
L 45.206254 -37.56529 
L 44.70022 -37.561809 
L 44.194186 -37.559567 
L 43.688152 -37.558165 
L 43.182117 -37.557317 
L 42.676083 -37.556823 
L 42.170049 -37.556545 
L 41.664015 -37.556396 
L 41.15798 -37.556319 
z
" style="stroke: #1f77b4"/>
    </defs>
    <g clip-path="url(#p394bcb0e48)">
     <use xlink:href="#m29671fe141" x="0" y="199.98825" style="fill: #1f77b4; fill-opacity: 0.6; stroke: #1f77b4"/>
    </g>
   </g>
   <g id="PolyCollection_2">
    <defs>
     <path id="meb3f8c4333" d="M 44.187219 -37.556363 
L 44.187219 -37.55625 
L 44.867208 -37.55625 
L 45.547198 -37.55625 
L 46.227187 -37.55625 
L 46.907176 -37.55625 
L 47.587165 -37.55625 
L 48.267155 -37.55625 
L 48.947144 -37.55625 
L 49.627133 -37.55625 
L 50.307123 -37.55625 
L 50.987112 -37.55625 
L 51.667101 -37.55625 
L 52.34709 -37.55625 
L 53.02708 -37.55625 
L 53.707069 -37.55625 
L 54.387058 -37.55625 
L 55.067048 -37.55625 
L 55.747037 -37.55625 
L 56.427026 -37.55625 
L 57.107015 -37.55625 
L 57.787005 -37.55625 
L 58.466994 -37.55625 
L 59.146983 -37.55625 
L 59.826973 -37.55625 
L 60.506962 -37.55625 
L 61.186951 -37.55625 
L 61.866941 -37.55625 
L 62.54693 -37.55625 
L 63.226919 -37.55625 
L 63.906908 -37.55625 
L 64.586898 -37.55625 
L 65.266887 -37.55625 
L 65.946876 -37.55625 
L 66.626866 -37.55625 
L 67.306855 -37.55625 
L 67.986844 -37.55625 
L 68.666833 -37.55625 
L 69.346823 -37.55625 
L 70.026812 -37.55625 
L 70.706801 -37.55625 
L 71.386791 -37.55625 
L 72.06678 -37.55625 
L 72.746769 -37.55625 
L 73.426758 -37.55625 
L 74.106748 -37.55625 
L 74.786737 -37.55625 
L 75.466726 -37.55625 
L 76.146716 -37.55625 
L 76.826705 -37.55625 
L 77.506694 -37.55625 
L 78.186683 -37.55625 
L 78.866673 -37.55625 
L 79.546662 -37.55625 
L 80.226651 -37.55625 
L 80.906641 -37.55625 
L 81.58663 -37.55625 
L 82.266619 -37.55625 
L 82.946609 -37.55625 
L 83.626598 -37.55625 
L 84.306587 -37.55625 
L 84.986576 -37.55625 
L 85.666566 -37.55625 
L 86.346555 -37.55625 
L 87.026544 -37.55625 
L 87.706534 -37.55625 
L 88.386523 -37.55625 
L 89.066512 -37.55625 
L 89.746501 -37.55625 
L 90.426491 -37.55625 
L 91.10648 -37.55625 
L 91.786469 -37.55625 
L 92.466459 -37.55625 
L 93.146448 -37.55625 
L 93.826437 -37.55625 
L 94.506426 -37.55625 
L 95.186416 -37.55625 
L 95.866405 -37.55625 
L 96.546394 -37.55625 
L 97.226384 -37.55625 
L 97.906373 -37.55625 
L 98.586362 -37.55625 
L 99.266351 -37.55625 
L 99.946341 -37.55625 
L 100.62633 -37.55625 
L 101.306319 -37.55625 
L 101.986309 -37.55625 
L 102.666298 -37.55625 
L 103.346287 -37.55625 
L 104.026277 -37.55625 
L 104.706266 -37.55625 
L 105.386255 -37.55625 
L 106.066244 -37.55625 
L 106.746234 -37.55625 
L 107.426223 -37.55625 
L 108.106212 -37.55625 
L 108.786202 -37.55625 
L 109.466191 -37.55625 
L 110.14618 -37.55625 
L 110.826169 -37.55625 
L 111.506159 -37.55625 
L 112.186148 -37.55625 
L 112.866137 -37.55625 
L 113.546127 -37.55625 
L 114.226116 -37.55625 
L 114.906105 -37.55625 
L 115.586094 -37.55625 
L 116.266084 -37.55625 
L 116.946073 -37.55625 
L 117.626062 -37.55625 
L 118.306052 -37.55625 
L 118.986041 -37.55625 
L 119.66603 -37.55625 
L 120.34602 -37.55625 
L 121.026009 -37.55625 
L 121.705998 -37.55625 
L 122.385987 -37.55625 
L 123.065977 -37.55625 
L 123.745966 -37.55625 
L 124.425955 -37.55625 
L 125.105945 -37.55625 
L 125.785934 -37.55625 
L 126.465923 -37.55625 
L 127.145912 -37.55625 
L 127.825902 -37.55625 
L 128.505891 -37.55625 
L 129.18588 -37.55625 
L 129.86587 -37.55625 
L 130.545859 -37.55625 
L 131.225848 -37.55625 
L 131.905837 -37.55625 
L 132.585827 -37.55625 
L 133.265816 -37.55625 
L 133.945805 -37.55625 
L 134.625795 -37.55625 
L 135.305784 -37.55625 
L 135.985773 -37.55625 
L 136.665762 -37.55625 
L 137.345752 -37.55625 
L 138.025741 -37.55625 
L 138.70573 -37.55625 
L 139.38572 -37.55625 
L 140.065709 -37.55625 
L 140.745698 -37.55625 
L 141.425688 -37.55625 
L 142.105677 -37.55625 
L 142.785666 -37.55625 
L 143.465655 -37.55625 
L 144.145645 -37.55625 
L 144.825634 -37.55625 
L 145.505623 -37.55625 
L 146.185613 -37.55625 
L 146.865602 -37.55625 
L 147.545591 -37.55625 
L 148.22558 -37.55625 
L 148.90557 -37.55625 
L 149.585559 -37.55625 
L 150.265548 -37.55625 
L 150.945538 -37.55625 
L 151.625527 -37.55625 
L 152.305516 -37.55625 
L 152.985505 -37.55625 
L 153.665495 -37.55625 
L 154.345484 -37.55625 
L 155.025473 -37.55625 
L 155.705463 -37.55625 
L 156.385452 -37.55625 
L 157.065441 -37.55625 
L 157.745431 -37.55625 
L 158.42542 -37.55625 
L 159.105409 -37.55625 
L 159.785398 -37.55625 
L 160.465388 -37.55625 
L 161.145377 -37.55625 
L 161.825366 -37.55625 
L 162.505356 -37.55625 
L 163.185345 -37.55625 
L 163.865334 -37.55625 
L 164.545323 -37.55625 
L 165.225313 -37.55625 
L 165.905302 -37.55625 
L 166.585291 -37.55625 
L 167.265281 -37.55625 
L 167.94527 -37.55625 
L 168.625259 -37.55625 
L 169.305248 -37.55625 
L 169.985238 -37.55625 
L 170.665227 -37.55625 
L 171.345216 -37.55625 
L 172.025206 -37.55625 
L 172.705195 -37.55625 
L 173.385184 -37.55625 
L 174.065173 -37.55625 
L 174.745163 -37.55625 
L 175.425152 -37.55625 
L 176.105141 -37.55625 
L 176.785131 -37.55625 
L 177.46512 -37.55625 
L 178.145109 -37.55625 
L 178.825099 -37.55625 
L 179.505088 -37.55625 
L 179.505088 -37.556358 
L 179.505088 -37.556358 
L 178.825099 -37.556664 
L 178.145109 -37.5575 
L 177.46512 -37.559227 
L 176.785131 -37.561846 
L 176.105141 -37.564551 
L 175.425152 -37.565969 
L 174.745163 -37.565229 
L 174.065173 -37.562798 
L 173.385184 -37.560018 
L 172.705195 -37.557961 
L 172.025206 -37.556863 
L 171.345216 -37.556424 
L 170.665227 -37.556289 
L 169.985238 -37.556257 
L 169.305248 -37.556251 
L 168.625259 -37.55625 
L 167.94527 -37.55625 
L 167.265281 -37.55625 
L 166.585291 -37.55625 
L 165.905302 -37.55625 
L 165.225313 -37.55625 
L 164.545323 -37.55625 
L 163.865334 -37.55625 
L 163.185345 -37.55625 
L 162.505356 -37.55625 
L 161.825366 -37.55625 
L 161.145377 -37.55625 
L 160.465388 -37.55625 
L 159.785398 -37.55625 
L 159.105409 -37.55625 
L 158.42542 -37.55625 
L 157.745431 -37.55625 
L 157.065441 -37.556252 
L 156.385452 -37.556262 
L 155.705463 -37.556314 
L 155.025473 -37.556517 
L 154.345484 -37.557124 
L 153.665495 -37.55851 
L 152.985505 -37.560863 
L 152.305516 -37.563682 
L 151.625527 -37.565699 
L 150.945538 -37.565732 
L 150.265548 -37.563759 
L 149.585559 -37.560943 
L 148.90557 -37.558565 
L 148.22558 -37.557151 
L 147.545591 -37.556527 
L 146.865602 -37.556319 
L 146.185613 -37.556275 
L 145.505623 -37.556316 
L 144.825634 -37.556518 
L 144.145645 -37.557146 
L 143.465655 -37.558674 
L 142.785666 -37.56168 
L 142.105677 -37.566797 
L 141.425688 -37.575165 
L 140.745698 -37.589052 
L 140.065709 -37.61098 
L 139.38572 -37.64095 
L 138.70573 -37.675561 
L 138.025741 -37.712816 
L 137.345752 -37.759218 
L 136.665762 -37.831201 
L 135.985773 -37.949349 
L 135.305784 -38.131824 
L 134.625795 -38.391631 
L 133.945805 -38.736927 
L 133.265816 -39.173035 
L 132.585827 -39.706194 
L 131.905837 -40.348501 
L 131.225848 -41.119451 
L 130.545859 -42.03499 
L 129.86587 -43.085894 
L 129.18588 -44.229088 
L 128.505891 -45.410148 
L 127.825902 -46.596037 
L 127.145912 -47.775894 
L 126.465923 -48.925828 
L 125.785934 -49.990884 
L 125.105945 -50.922363 
L 124.425955 -51.725701 
L 123.745966 -52.451027 
L 123.065977 -53.136424 
L 122.385987 -53.7701 
L 121.705998 -54.302549 
L 121.026009 -54.688281 
L 120.34602 -54.930512 
L 119.66603 -55.109283 
L 118.986041 -55.363343 
L 118.306052 -55.810746 
L 117.626062 -56.461376 
L 116.946073 -57.21002 
L 116.266084 -57.919885 
L 115.586094 -58.511688 
L 114.906105 -58.990038 
L 114.226116 -59.408286 
L 113.546127 -59.800864 
L 112.866137 -60.129491 
L 112.186148 -60.296655 
L 111.506159 -60.215841 
L 110.826169 -59.860776 
L 110.14618 -59.252777 
L 109.466191 -58.424441 
L 108.786202 -57.406095 
L 108.106212 -56.228971 
L 107.426223 -54.915973 
L 106.746234 -53.474554 
L 106.066244 -51.930205 
L 105.386255 -50.370045 
L 104.706266 -48.914923 
L 104.026277 -47.625968 
L 103.346287 -46.459395 
L 102.666298 -45.333363 
L 101.986309 -44.22747 
L 101.306319 -43.201771 
L 100.62633 -42.330415 
L 99.946341 -41.636091 
L 99.266351 -41.083031 
L 98.586362 -40.612456 
L 97.906373 -40.181162 
L 97.226384 -39.779648 
L 96.546394 -39.423718 
L 95.866405 -39.132614 
L 95.186416 -38.914575 
L 94.506426 -38.765586 
L 93.826437 -38.673661 
L 93.146448 -38.623286 
L 92.466459 -38.598237 
L 91.786469 -38.581835 
L 91.10648 -38.557242 
L 90.426491 -38.511155 
L 89.746501 -38.439394 
L 89.066512 -38.349299 
L 88.386523 -38.255868 
L 87.706534 -38.174275 
L 87.026544 -38.113996 
L 86.346555 -38.075786 
L 85.666566 -38.050708 
L 84.986576 -38.024155 
L 84.306587 -37.985433 
L 83.626598 -37.934889 
L 82.946609 -37.88151 
L 82.266619 -37.835094 
L 81.58663 -37.801309 
L 80.906641 -37.781319 
L 80.226651 -37.772306 
L 79.546662 -37.767733 
L 78.866673 -37.760139 
L 78.186683 -37.746938 
L 77.506694 -37.733065 
L 76.826705 -37.725138 
L 76.146716 -37.723065 
L 75.466726 -37.719773 
L 74.786737 -37.708604 
L 74.106748 -37.688625 
L 73.426758 -37.663964 
L 72.746769 -37.640902 
L 72.06678 -37.625068 
L 71.386791 -37.618953 
L 70.706801 -37.621576 
L 70.026812 -37.630743 
L 69.346823 -37.644246 
L 68.666833 -37.658309 
L 67.986844 -37.667442 
L 67.306855 -37.668496 
L 66.626866 -37.664146 
L 65.946876 -37.660228 
L 65.266887 -37.660081 
L 64.586898 -37.66322 
L 63.906908 -37.668446 
L 63.226919 -37.675408 
L 62.54693 -37.683324 
L 61.866941 -37.691374 
L 61.186951 -37.701506 
L 60.506962 -37.717739 
L 59.826973 -37.739636 
L 59.146983 -37.757908 
L 58.466994 -37.760114 
L 57.787005 -37.741368 
L 57.107015 -37.707854 
L 56.427026 -37.670413 
L 55.747037 -37.636937 
L 55.067048 -37.610429 
L 54.387058 -37.590959 
L 53.707069 -37.577475 
L 53.02708 -37.568748 
L 52.34709 -37.56401 
L 51.667101 -37.562964 
L 50.987112 -37.565097 
L 50.307123 -37.569031 
L 49.627133 -37.572616 
L 48.947144 -37.573841 
L 48.267155 -37.571956 
L 47.587165 -37.567839 
L 46.907176 -37.563271 
L 46.227187 -37.559715 
L 45.547198 -37.557632 
L 44.867208 -37.556692 
L 44.187219 -37.556363 
z
" style="stroke: #ff7f0e"/>
    </defs>
    <g clip-path="url(#p394bcb0e48)">
     <use xlink:href="#meb3f8c4333" x="0" y="199.98825" style="fill: #ff7f0e; fill-opacity: 0.6; stroke: #ff7f0e"/>
    </g>
   </g>
   <g id="matplotlib.axis_1">
    <g id="xtick_1">
     <g id="line2d_1">
      <defs>
       <path id="m91e3b94f40" d="M 0 0 
L 0 3.5 
" style="stroke: #000000; stroke-width: 0.8"/>
      </defs>
      <g>
       <use xlink:href="#m91e3b94f40" x="65.806975" y="162.432" style="stroke: #000000; stroke-width: 0.8"/>
      </g>
     </g>
     <g id="text_1">
      <!-- −2 -->
      <g transform="translate(58.435881 177.030437) scale(0.1 -0.1)">
       <defs>
        <path id="DejaVuSans-2212" d="M 678 2272 
L 4684 2272 
L 4684 1741 
L 678 1741 
L 678 2272 
z
" transform="scale(0.015625)"/>
        <path id="DejaVuSans-32" d="M 1228 531 
L 3431 531 
L 3431 0 
L 469 0 
L 469 531 
Q 828 903 1448 1529 
Q 2069 2156 2228 2338 
Q 2531 2678 2651 2914 
Q 2772 3150 2772 3378 
Q 2772 3750 2511 3984 
Q 2250 4219 1831 4219 
Q 1534 4219 1204 4116 
Q 875 4013 500 3803 
L 500 4441 
Q 881 4594 1212 4672 
Q 1544 4750 1819 4750 
Q 2544 4750 2975 4387 
Q 3406 4025 3406 3419 
Q 3406 3131 3298 2873 
Q 3191 2616 2906 2266 
Q 2828 2175 2409 1742 
Q 1991 1309 1228 531 
z
" transform="scale(0.015625)"/>
       </defs>
       <use xlink:href="#DejaVuSans-2212"/>
       <use xlink:href="#DejaVuSans-32" x="83.789062"/>
      </g>
     </g>
    </g>
    <g id="xtick_2">
     <g id="line2d_2">
      <g>
       <use xlink:href="#m91e3b94f40" x="100.647899" y="162.432" style="stroke: #000000; stroke-width: 0.8"/>
      </g>
     </g>
     <g id="text_2">
      <!-- 0 -->
      <g transform="translate(97.466649 177.030437) scale(0.1 -0.1)">
       <defs>
        <path id="DejaVuSans-30" d="M 2034 4250 
Q 1547 4250 1301 3770 
Q 1056 3291 1056 2328 
Q 1056 1369 1301 889 
Q 1547 409 2034 409 
Q 2525 409 2770 889 
Q 3016 1369 3016 2328 
Q 3016 3291 2770 3770 
Q 2525 4250 2034 4250 
z
M 2034 4750 
Q 2819 4750 3233 4129 
Q 3647 3509 3647 2328 
Q 3647 1150 3233 529 
Q 2819 -91 2034 -91 
Q 1250 -91 836 529 
Q 422 1150 422 2328 
Q 422 3509 836 4129 
Q 1250 4750 2034 4750 
z
" transform="scale(0.015625)"/>
       </defs>
       <use xlink:href="#DejaVuSans-30"/>
      </g>
     </g>
    </g>
    <g id="xtick_3">
     <g id="line2d_3">
      <g>
       <use xlink:href="#m91e3b94f40" x="135.488822" y="162.432" style="stroke: #000000; stroke-width: 0.8"/>
      </g>
     </g>
     <g id="text_3">
      <!-- 2 -->
      <g transform="translate(132.307572 177.030437) scale(0.1 -0.1)">
       <use xlink:href="#DejaVuSans-32"/>
      </g>
     </g>
    </g>
    <g id="xtick_4">
     <g id="line2d_4">
      <g>
       <use xlink:href="#m91e3b94f40" x="170.329746" y="162.432" style="stroke: #000000; stroke-width: 0.8"/>
      </g>
     </g>
     <g id="text_4">
      <!-- 4 -->
      <g transform="translate(167.148496 177.030437) scale(0.1 -0.1)">
       <defs>
        <path id="DejaVuSans-34" d="M 2419 4116 
L 825 1625 
L 2419 1625 
L 2419 4116 
z
M 2253 4666 
L 3047 4666 
L 3047 1625 
L 3713 1625 
L 3713 1100 
L 3047 1100 
L 3047 0 
L 2419 0 
L 2419 1100 
L 313 1100 
L 313 1709 
L 2253 4666 
z
" transform="scale(0.015625)"/>
       </defs>
       <use xlink:href="#DejaVuSans-34"/>
      </g>
     </g>
    </g>
    <g id="text_5">
     <!-- CADD -->
     <g transform="translate(95.719815 190.708562) scale(0.1 -0.1)">
      <defs>
       <path id="DejaVuSans-43" d="M 4122 4306 
L 4122 3641 
Q 3803 3938 3442 4084 
Q 3081 4231 2675 4231 
Q 1875 4231 1450 3742 
Q 1025 3253 1025 2328 
Q 1025 1406 1450 917 
Q 1875 428 2675 428 
Q 3081 428 3442 575 
Q 3803 722 4122 1019 
L 4122 359 
Q 3791 134 3420 21 
Q 3050 -91 2638 -91 
Q 1578 -91 968 557 
Q 359 1206 359 2328 
Q 359 3453 968 4101 
Q 1578 4750 2638 4750 
Q 3056 4750 3426 4639 
Q 3797 4528 4122 4306 
z
" transform="scale(0.015625)"/>
       <path id="DejaVuSans-41" d="M 2188 4044 
L 1331 1722 
L 3047 1722 
L 2188 4044 
z
M 1831 4666 
L 2547 4666 
L 4325 0 
L 3669 0 
L 3244 1197 
L 1141 1197 
L 716 0 
L 50 0 
L 1831 4666 
z
" transform="scale(0.015625)"/>
       <path id="DejaVuSans-44" d="M 1259 4147 
L 1259 519 
L 2022 519 
Q 2988 519 3436 956 
Q 3884 1394 3884 2338 
Q 3884 3275 3436 3711 
Q 2988 4147 2022 4147 
L 1259 4147 
z
M 628 4666 
L 1925 4666 
Q 3281 4666 3915 4102 
Q 4550 3538 4550 2338 
Q 4550 1131 3912 565 
Q 3275 0 1925 0 
L 628 0 
L 628 4666 
z
" transform="scale(0.015625)"/>
      </defs>
      <use xlink:href="#DejaVuSans-43"/>
      <use xlink:href="#DejaVuSans-41" x="69.824219"/>
      <use xlink:href="#DejaVuSans-44" x="138.232422"/>
      <use xlink:href="#DejaVuSans-44" x="215.234375"/>
     </g>
    </g>
   </g>
   <g id="matplotlib.axis_2">
    <g id="ytick_1">
     <g id="line2d_5">
      <defs>
       <path id="md9bf05177e" d="M 0 0 
L -3.5 0 
" style="stroke: #000000; stroke-width: 0.8"/>
      </defs>
      <g>
       <use xlink:href="#md9bf05177e" x="34.240625" y="162.432" style="stroke: #000000; stroke-width: 0.8"/>
      </g>
     </g>
     <g id="text_6">
      <!-- 0 -->
      <g transform="translate(20.878125 166.231219) scale(0.1 -0.1)">
       <use xlink:href="#DejaVuSans-30"/>
      </g>
     </g>
    </g>
    <g id="ytick_2">
     <g id="line2d_6">
      <g>
       <use xlink:href="#md9bf05177e" x="34.240625" y="133.812973" style="stroke: #000000; stroke-width: 0.8"/>
      </g>
     </g>
     <g id="text_7">
      <!-- 1 -->
      <g transform="translate(20.878125 137.612191) scale(0.1 -0.1)">
       <defs>
        <path id="DejaVuSans-31" d="M 794 531 
L 1825 531 
L 1825 4091 
L 703 3866 
L 703 4441 
L 1819 4666 
L 2450 4666 
L 2450 531 
L 3481 531 
L 3481 0 
L 794 0 
L 794 531 
z
" transform="scale(0.015625)"/>
       </defs>
       <use xlink:href="#DejaVuSans-31"/>
      </g>
     </g>
    </g>
    <g id="ytick_3">
     <g id="line2d_7">
      <g>
       <use xlink:href="#md9bf05177e" x="34.240625" y="105.193945" style="stroke: #000000; stroke-width: 0.8"/>
      </g>
     </g>
     <g id="text_8">
      <!-- 2 -->
      <g transform="translate(20.878125 108.993164) scale(0.1 -0.1)">
       <use xlink:href="#DejaVuSans-32"/>
      </g>
     </g>
    </g>
    <g id="ytick_4">
     <g id="line2d_8">
      <g>
       <use xlink:href="#md9bf05177e" x="34.240625" y="76.574918" style="stroke: #000000; stroke-width: 0.8"/>
      </g>
     </g>
     <g id="text_9">
      <!-- 3 -->
      <g transform="translate(20.878125 80.374136) scale(0.1 -0.1)">
       <defs>
        <path id="DejaVuSans-33" d="M 2597 2516 
Q 3050 2419 3304 2112 
Q 3559 1806 3559 1356 
Q 3559 666 3084 287 
Q 2609 -91 1734 -91 
Q 1441 -91 1130 -33 
Q 819 25 488 141 
L 488 750 
Q 750 597 1062 519 
Q 1375 441 1716 441 
Q 2309 441 2620 675 
Q 2931 909 2931 1356 
Q 2931 1769 2642 2001 
Q 2353 2234 1838 2234 
L 1294 2234 
L 1294 2753 
L 1863 2753 
Q 2328 2753 2575 2939 
Q 2822 3125 2822 3475 
Q 2822 3834 2567 4026 
Q 2313 4219 1838 4219 
Q 1578 4219 1281 4162 
Q 984 4106 628 3988 
L 628 4550 
Q 988 4650 1302 4700 
Q 1616 4750 1894 4750 
Q 2613 4750 3031 4423 
Q 3450 4097 3450 3541 
Q 3450 3153 3228 2886 
Q 3006 2619 2597 2516 
z
" transform="scale(0.015625)"/>
       </defs>
       <use xlink:href="#DejaVuSans-33"/>
      </g>
     </g>
    </g>
    <g id="ytick_5">
     <g id="line2d_9">
      <g>
       <use xlink:href="#md9bf05177e" x="34.240625" y="47.95589" style="stroke: #000000; stroke-width: 0.8"/>
      </g>
     </g>
     <g id="text_10">
      <!-- 4 -->
      <g transform="translate(20.878125 51.755109) scale(0.1 -0.1)">
       <use xlink:href="#DejaVuSans-34"/>
      </g>
     </g>
    </g>
    <g id="ytick_6">
     <g id="line2d_10">
      <g>
       <use xlink:href="#md9bf05177e" x="34.240625" y="19.336863" style="stroke: #000000; stroke-width: 0.8"/>
      </g>
     </g>
     <g id="text_11">
      <!-- 5 -->
      <g transform="translate(20.878125 23.136081) scale(0.1 -0.1)">
       <defs>
        <path id="DejaVuSans-35" d="M 691 4666 
L 3169 4666 
L 3169 4134 
L 1269 4134 
L 1269 2991 
Q 1406 3038 1543 3061 
Q 1681 3084 1819 3084 
Q 2600 3084 3056 2656 
Q 3513 2228 3513 1497 
Q 3513 744 3044 326 
Q 2575 -91 1722 -91 
Q 1428 -91 1123 -41 
Q 819 9 494 109 
L 494 744 
Q 775 591 1075 516 
Q 1375 441 1709 441 
Q 2250 441 2565 725 
Q 2881 1009 2881 1497 
Q 2881 1984 2565 2268 
Q 2250 2553 1709 2553 
Q 1456 2553 1204 2497 
Q 953 2441 691 2322 
L 691 4666 
z
" transform="scale(0.015625)"/>
       </defs>
       <use xlink:href="#DejaVuSans-35"/>
      </g>
     </g>
    </g>
    <g id="text_12">
     <!-- Density -->
     <g transform="translate(14.798437 103.824594) rotate(-90) scale(0.1 -0.1)">
      <defs>
       <path id="DejaVuSans-65" d="M 3597 1894 
L 3597 1613 
L 953 1613 
Q 991 1019 1311 708 
Q 1631 397 2203 397 
Q 2534 397 2845 478 
Q 3156 559 3463 722 
L 3463 178 
Q 3153 47 2828 -22 
Q 2503 -91 2169 -91 
Q 1331 -91 842 396 
Q 353 884 353 1716 
Q 353 2575 817 3079 
Q 1281 3584 2069 3584 
Q 2775 3584 3186 3129 
Q 3597 2675 3597 1894 
z
M 3022 2063 
Q 3016 2534 2758 2815 
Q 2500 3097 2075 3097 
Q 1594 3097 1305 2825 
Q 1016 2553 972 2059 
L 3022 2063 
z
" transform="scale(0.015625)"/>
       <path id="DejaVuSans-6e" d="M 3513 2113 
L 3513 0 
L 2938 0 
L 2938 2094 
Q 2938 2591 2744 2837 
Q 2550 3084 2163 3084 
Q 1697 3084 1428 2787 
Q 1159 2491 1159 1978 
L 1159 0 
L 581 0 
L 581 3500 
L 1159 3500 
L 1159 2956 
Q 1366 3272 1645 3428 
Q 1925 3584 2291 3584 
Q 2894 3584 3203 3211 
Q 3513 2838 3513 2113 
z
" transform="scale(0.015625)"/>
       <path id="DejaVuSans-73" d="M 2834 3397 
L 2834 2853 
Q 2591 2978 2328 3040 
Q 2066 3103 1784 3103 
Q 1356 3103 1142 2972 
Q 928 2841 928 2578 
Q 928 2378 1081 2264 
Q 1234 2150 1697 2047 
L 1894 2003 
Q 2506 1872 2764 1633 
Q 3022 1394 3022 966 
Q 3022 478 2636 193 
Q 2250 -91 1575 -91 
Q 1294 -91 989 -36 
Q 684 19 347 128 
L 347 722 
Q 666 556 975 473 
Q 1284 391 1588 391 
Q 1994 391 2212 530 
Q 2431 669 2431 922 
Q 2431 1156 2273 1281 
Q 2116 1406 1581 1522 
L 1381 1569 
Q 847 1681 609 1914 
Q 372 2147 372 2553 
Q 372 3047 722 3315 
Q 1072 3584 1716 3584 
Q 2034 3584 2315 3537 
Q 2597 3491 2834 3397 
z
" transform="scale(0.015625)"/>
       <path id="DejaVuSans-69" d="M 603 3500 
L 1178 3500 
L 1178 0 
L 603 0 
L 603 3500 
z
M 603 4863 
L 1178 4863 
L 1178 4134 
L 603 4134 
L 603 4863 
z
" transform="scale(0.015625)"/>
       <path id="DejaVuSans-74" d="M 1172 4494 
L 1172 3500 
L 2356 3500 
L 2356 3053 
L 1172 3053 
L 1172 1153 
Q 1172 725 1289 603 
Q 1406 481 1766 481 
L 2356 481 
L 2356 0 
L 1766 0 
Q 1100 0 847 248 
Q 594 497 594 1153 
L 594 3053 
L 172 3053 
L 172 3500 
L 594 3500 
L 594 4494 
L 1172 4494 
z
" transform="scale(0.015625)"/>
       <path id="DejaVuSans-79" d="M 2059 -325 
Q 1816 -950 1584 -1140 
Q 1353 -1331 966 -1331 
L 506 -1331 
L 506 -850 
L 844 -850 
Q 1081 -850 1212 -737 
Q 1344 -625 1503 -206 
L 1606 56 
L 191 3500 
L 800 3500 
L 1894 763 
L 2988 3500 
L 3597 3500 
L 2059 -325 
z
" transform="scale(0.015625)"/>
      </defs>
      <use xlink:href="#DejaVuSans-44"/>
      <use xlink:href="#DejaVuSans-65" x="77.001953"/>
      <use xlink:href="#DejaVuSans-6e" x="138.525391"/>
      <use xlink:href="#DejaVuSans-73" x="201.904297"/>
      <use xlink:href="#DejaVuSans-69" x="254.003906"/>
      <use xlink:href="#DejaVuSans-74" x="281.787109"/>
      <use xlink:href="#DejaVuSans-79" x="320.996094"/>
     </g>
    </g>
   </g>
   <g id="patch_3">
    <path d="M 34.240625 162.432 
L 34.240625 7.2 
" style="fill: none; stroke: #000000; stroke-width: 0.8; stroke-linejoin: miter; stroke-linecap: square"/>
   </g>
   <g id="patch_4">
    <path d="M 186.422443 162.432 
L 186.422443 7.2 
" style="fill: none; stroke: #000000; stroke-width: 0.8; stroke-linejoin: miter; stroke-linecap: square"/>
   </g>
   <g id="patch_5">
    <path d="M 34.240625 162.432 
L 186.422443 162.432 
" style="fill: none; stroke: #000000; stroke-width: 0.8; stroke-linejoin: miter; stroke-linecap: square"/>
   </g>
   <g id="patch_6">
    <path d="M 34.240625 7.2 
L 186.422443 7.2 
" style="fill: none; stroke: #000000; stroke-width: 0.8; stroke-linejoin: miter; stroke-linecap: square"/>
   </g>
   <g id="legend_1">
    <g id="patch_7">
     <path d="M 120.482443 33.349375 
L 181.522443 33.349375 
Q 182.922443 33.349375 182.922443 31.949375 
L 182.922443 12.1 
Q 182.922443 10.7 181.522443 10.7 
L 120.482443 10.7 
Q 119.082443 10.7 119.082443 12.1 
L 119.082443 31.949375 
Q 119.082443 33.349375 120.482443 33.349375 
z
" style="fill: #ffffff; opacity: 0.8; stroke: #cccccc; stroke-linejoin: miter"/>
    </g>
    <g id="patch_8">
     <path d="M 121.882443 18.818906 
L 135.882443 18.818906 
L 135.882443 13.918906 
L 121.882443 13.918906 
z
" style="fill: #1f77b4; fill-opacity: 0.6; stroke: #1f77b4; stroke-linejoin: miter"/>
    </g>
    <g id="text_13">
     <!-- Benign -->
     <g transform="translate(141.482443 18.818906) scale(0.07 -0.07)">
      <defs>
       <path id="DejaVuSans-42" d="M 1259 2228 
L 1259 519 
L 2272 519 
Q 2781 519 3026 730 
Q 3272 941 3272 1375 
Q 3272 1813 3026 2020 
Q 2781 2228 2272 2228 
L 1259 2228 
z
M 1259 4147 
L 1259 2741 
L 2194 2741 
Q 2656 2741 2882 2914 
Q 3109 3088 3109 3444 
Q 3109 3797 2882 3972 
Q 2656 4147 2194 4147 
L 1259 4147 
z
M 628 4666 
L 2241 4666 
Q 2963 4666 3353 4366 
Q 3744 4066 3744 3513 
Q 3744 3084 3544 2831 
Q 3344 2578 2956 2516 
Q 3422 2416 3680 2098 
Q 3938 1781 3938 1306 
Q 3938 681 3513 340 
Q 3088 0 2303 0 
L 628 0 
L 628 4666 
z
" transform="scale(0.015625)"/>
       <path id="DejaVuSans-67" d="M 2906 1791 
Q 2906 2416 2648 2759 
Q 2391 3103 1925 3103 
Q 1463 3103 1205 2759 
Q 947 2416 947 1791 
Q 947 1169 1205 825 
Q 1463 481 1925 481 
Q 2391 481 2648 825 
Q 2906 1169 2906 1791 
z
M 3481 434 
Q 3481 -459 3084 -895 
Q 2688 -1331 1869 -1331 
Q 1566 -1331 1297 -1286 
Q 1028 -1241 775 -1147 
L 775 -588 
Q 1028 -725 1275 -790 
Q 1522 -856 1778 -856 
Q 2344 -856 2625 -561 
Q 2906 -266 2906 331 
L 2906 616 
Q 2728 306 2450 153 
Q 2172 0 1784 0 
Q 1141 0 747 490 
Q 353 981 353 1791 
Q 353 2603 747 3093 
Q 1141 3584 1784 3584 
Q 2172 3584 2450 3431 
Q 2728 3278 2906 2969 
L 2906 3500 
L 3481 3500 
L 3481 434 
z
" transform="scale(0.015625)"/>
      </defs>
      <use xlink:href="#DejaVuSans-42"/>
      <use xlink:href="#DejaVuSans-65" x="68.603516"/>
      <use xlink:href="#DejaVuSans-6e" x="130.126953"/>
      <use xlink:href="#DejaVuSans-69" x="193.505859"/>
      <use xlink:href="#DejaVuSans-67" x="221.289062"/>
      <use xlink:href="#DejaVuSans-6e" x="284.765625"/>
     </g>
    </g>
    <g id="patch_9">
     <path d="M 121.882443 29.093594 
L 135.882443 29.093594 
L 135.882443 24.193594 
L 121.882443 24.193594 
z
" style="fill: #ff7f0e; fill-opacity: 0.6; stroke: #ff7f0e; stroke-linejoin: miter"/>
    </g>
    <g id="text_14">
     <!-- Pathogenic -->
     <g transform="translate(141.482443 29.093594) scale(0.07 -0.07)">
      <defs>
       <path id="DejaVuSans-50" d="M 1259 4147 
L 1259 2394 
L 2053 2394 
Q 2494 2394 2734 2622 
Q 2975 2850 2975 3272 
Q 2975 3691 2734 3919 
Q 2494 4147 2053 4147 
L 1259 4147 
z
M 628 4666 
L 2053 4666 
Q 2838 4666 3239 4311 
Q 3641 3956 3641 3272 
Q 3641 2581 3239 2228 
Q 2838 1875 2053 1875 
L 1259 1875 
L 1259 0 
L 628 0 
L 628 4666 
z
" transform="scale(0.015625)"/>
       <path id="DejaVuSans-61" d="M 2194 1759 
Q 1497 1759 1228 1600 
Q 959 1441 959 1056 
Q 959 750 1161 570 
Q 1363 391 1709 391 
Q 2188 391 2477 730 
Q 2766 1069 2766 1631 
L 2766 1759 
L 2194 1759 
z
M 3341 1997 
L 3341 0 
L 2766 0 
L 2766 531 
Q 2569 213 2275 61 
Q 1981 -91 1556 -91 
Q 1019 -91 701 211 
Q 384 513 384 1019 
Q 384 1609 779 1909 
Q 1175 2209 1959 2209 
L 2766 2209 
L 2766 2266 
Q 2766 2663 2505 2880 
Q 2244 3097 1772 3097 
Q 1472 3097 1187 3025 
Q 903 2953 641 2809 
L 641 3341 
Q 956 3463 1253 3523 
Q 1550 3584 1831 3584 
Q 2591 3584 2966 3190 
Q 3341 2797 3341 1997 
z
" transform="scale(0.015625)"/>
       <path id="DejaVuSans-68" d="M 3513 2113 
L 3513 0 
L 2938 0 
L 2938 2094 
Q 2938 2591 2744 2837 
Q 2550 3084 2163 3084 
Q 1697 3084 1428 2787 
Q 1159 2491 1159 1978 
L 1159 0 
L 581 0 
L 581 4863 
L 1159 4863 
L 1159 2956 
Q 1366 3272 1645 3428 
Q 1925 3584 2291 3584 
Q 2894 3584 3203 3211 
Q 3513 2838 3513 2113 
z
" transform="scale(0.015625)"/>
       <path id="DejaVuSans-6f" d="M 1959 3097 
Q 1497 3097 1228 2736 
Q 959 2375 959 1747 
Q 959 1119 1226 758 
Q 1494 397 1959 397 
Q 2419 397 2687 759 
Q 2956 1122 2956 1747 
Q 2956 2369 2687 2733 
Q 2419 3097 1959 3097 
z
M 1959 3584 
Q 2709 3584 3137 3096 
Q 3566 2609 3566 1747 
Q 3566 888 3137 398 
Q 2709 -91 1959 -91 
Q 1206 -91 779 398 
Q 353 888 353 1747 
Q 353 2609 779 3096 
Q 1206 3584 1959 3584 
z
" transform="scale(0.015625)"/>
       <path id="DejaVuSans-63" d="M 3122 3366 
L 3122 2828 
Q 2878 2963 2633 3030 
Q 2388 3097 2138 3097 
Q 1578 3097 1268 2742 
Q 959 2388 959 1747 
Q 959 1106 1268 751 
Q 1578 397 2138 397 
Q 2388 397 2633 464 
Q 2878 531 3122 666 
L 3122 134 
Q 2881 22 2623 -34 
Q 2366 -91 2075 -91 
Q 1284 -91 818 406 
Q 353 903 353 1747 
Q 353 2603 823 3093 
Q 1294 3584 2113 3584 
Q 2378 3584 2631 3529 
Q 2884 3475 3122 3366 
z
" transform="scale(0.015625)"/>
      </defs>
      <use xlink:href="#DejaVuSans-50"/>
      <use xlink:href="#DejaVuSans-61" x="55.802734"/>
      <use xlink:href="#DejaVuSans-74" x="117.082031"/>
      <use xlink:href="#DejaVuSans-68" x="156.291016"/>
      <use xlink:href="#DejaVuSans-6f" x="219.669922"/>
      <use xlink:href="#DejaVuSans-67" x="280.851562"/>
      <use xlink:href="#DejaVuSans-65" x="344.328125"/>
      <use xlink:href="#DejaVuSans-6e" x="405.851562"/>
      <use xlink:href="#DejaVuSans-69" x="469.230469"/>
      <use xlink:href="#DejaVuSans-63" x="497.013672"/>
     </g>
    </g>
   </g>
  </g>
  <g id="axes_2">
   <g id="patch_10">
    <path d="M 216.858807 162.432 
L 369.040625 162.432 
L 369.040625 7.2 
L 216.858807 7.2 
z
" style="fill: #ffffff"/>
   </g>
   <g id="PolyCollection_3">
    <defs>
     <path id="m3a8da271d2" d="M 227.181583 -38.546383 
L 227.181583 -37.55625 
L 227.829041 -37.55625 
L 228.476499 -37.55625 
L 229.123957 -37.55625 
L 229.771415 -37.55625 
L 230.418872 -37.55625 
L 231.06633 -37.55625 
L 231.713788 -37.55625 
L 232.361246 -37.55625 
L 233.008703 -37.55625 
L 233.656161 -37.55625 
L 234.303619 -37.55625 
L 234.951077 -37.55625 
L 235.598535 -37.55625 
L 236.245992 -37.55625 
L 236.89345 -37.55625 
L 237.540908 -37.55625 
L 238.188366 -37.55625 
L 238.835823 -37.55625 
L 239.483281 -37.55625 
L 240.130739 -37.55625 
L 240.778197 -37.55625 
L 241.425655 -37.55625 
L 242.073112 -37.55625 
L 242.72057 -37.55625 
L 243.368028 -37.55625 
L 244.015486 -37.55625 
L 244.662943 -37.55625 
L 245.310401 -37.55625 
L 245.957859 -37.55625 
L 246.605317 -37.55625 
L 247.252775 -37.55625 
L 247.900232 -37.55625 
L 248.54769 -37.55625 
L 249.195148 -37.55625 
L 249.842606 -37.55625 
L 250.490063 -37.55625 
L 251.137521 -37.55625 
L 251.784979 -37.55625 
L 252.432437 -37.55625 
L 253.079895 -37.55625 
L 253.727352 -37.55625 
L 254.37481 -37.55625 
L 255.022268 -37.55625 
L 255.669726 -37.55625 
L 256.317183 -37.55625 
L 256.964641 -37.55625 
L 257.612099 -37.55625 
L 258.259557 -37.55625 
L 258.907015 -37.55625 
L 259.554472 -37.55625 
L 260.20193 -37.55625 
L 260.849388 -37.55625 
L 261.496846 -37.55625 
L 262.144303 -37.55625 
L 262.791761 -37.55625 
L 263.439219 -37.55625 
L 264.086677 -37.55625 
L 264.734135 -37.55625 
L 265.381592 -37.55625 
L 266.02905 -37.55625 
L 266.676508 -37.55625 
L 267.323966 -37.55625 
L 267.971423 -37.55625 
L 268.618881 -37.55625 
L 269.266339 -37.55625 
L 269.913797 -37.55625 
L 270.561255 -37.55625 
L 271.208712 -37.55625 
L 271.85617 -37.55625 
L 272.503628 -37.55625 
L 273.151086 -37.55625 
L 273.798543 -37.55625 
L 274.446001 -37.55625 
L 275.093459 -37.55625 
L 275.740917 -37.55625 
L 276.388375 -37.55625 
L 277.035832 -37.55625 
L 277.68329 -37.55625 
L 278.330748 -37.55625 
L 278.978206 -37.55625 
L 279.625664 -37.55625 
L 280.273121 -37.55625 
L 280.920579 -37.55625 
L 281.568037 -37.55625 
L 282.215495 -37.55625 
L 282.862952 -37.55625 
L 283.51041 -37.55625 
L 284.157868 -37.55625 
L 284.805326 -37.55625 
L 285.452784 -37.55625 
L 286.100241 -37.55625 
L 286.747699 -37.55625 
L 287.395157 -37.55625 
L 288.042615 -37.55625 
L 288.690072 -37.55625 
L 289.33753 -37.55625 
L 289.984988 -37.55625 
L 290.632446 -37.55625 
L 291.279904 -37.55625 
L 291.927361 -37.55625 
L 292.574819 -37.55625 
L 293.222277 -37.55625 
L 293.869735 -37.55625 
L 294.517192 -37.55625 
L 295.16465 -37.55625 
L 295.812108 -37.55625 
L 296.459566 -37.55625 
L 297.107024 -37.55625 
L 297.754481 -37.55625 
L 298.401939 -37.55625 
L 299.049397 -37.55625 
L 299.696855 -37.55625 
L 300.344312 -37.55625 
L 300.99177 -37.55625 
L 301.639228 -37.55625 
L 302.286686 -37.55625 
L 302.934144 -37.55625 
L 303.581601 -37.55625 
L 304.229059 -37.55625 
L 304.876517 -37.55625 
L 305.523975 -37.55625 
L 306.171432 -37.55625 
L 306.81889 -37.55625 
L 307.466348 -37.55625 
L 308.113806 -37.55625 
L 308.761264 -37.55625 
L 309.408721 -37.55625 
L 310.056179 -37.55625 
L 310.703637 -37.55625 
L 311.351095 -37.55625 
L 311.998552 -37.55625 
L 312.64601 -37.55625 
L 313.293468 -37.55625 
L 313.940926 -37.55625 
L 314.588384 -37.55625 
L 315.235841 -37.55625 
L 315.883299 -37.55625 
L 316.530757 -37.55625 
L 317.178215 -37.55625 
L 317.825672 -37.55625 
L 318.47313 -37.55625 
L 319.120588 -37.55625 
L 319.768046 -37.55625 
L 320.415504 -37.55625 
L 321.062961 -37.55625 
L 321.710419 -37.55625 
L 322.357877 -37.55625 
L 323.005335 -37.55625 
L 323.652792 -37.55625 
L 324.30025 -37.55625 
L 324.947708 -37.55625 
L 325.595166 -37.55625 
L 326.242624 -37.55625 
L 326.890081 -37.55625 
L 327.537539 -37.55625 
L 328.184997 -37.55625 
L 328.832455 -37.55625 
L 329.479912 -37.55625 
L 330.12737 -37.55625 
L 330.774828 -37.55625 
L 331.422286 -37.55625 
L 332.069744 -37.55625 
L 332.717201 -37.55625 
L 333.364659 -37.55625 
L 334.012117 -37.55625 
L 334.659575 -37.55625 
L 335.307032 -37.55625 
L 335.95449 -37.55625 
L 336.601948 -37.55625 
L 337.249406 -37.55625 
L 337.896864 -37.55625 
L 338.544321 -37.55625 
L 339.191779 -37.55625 
L 339.839237 -37.55625 
L 340.486695 -37.55625 
L 341.134153 -37.55625 
L 341.78161 -37.55625 
L 342.429068 -37.55625 
L 343.076526 -37.55625 
L 343.723984 -37.55625 
L 344.371441 -37.55625 
L 345.018899 -37.55625 
L 345.666357 -37.55625 
L 346.313815 -37.55625 
L 346.961273 -37.55625 
L 347.60873 -37.55625 
L 348.256188 -37.55625 
L 348.903646 -37.55625 
L 349.551104 -37.55625 
L 350.198561 -37.55625 
L 350.846019 -37.55625 
L 351.493477 -37.55625 
L 352.140935 -37.55625 
L 352.788393 -37.55625 
L 353.43585 -37.55625 
L 354.083308 -37.55625 
L 354.730766 -37.55625 
L 355.378224 -37.55625 
L 356.025681 -37.55625 
L 356.025681 -37.556413 
L 356.025681 -37.556413 
L 355.378224 -37.556567 
L 354.730766 -37.556844 
L 354.083308 -37.557325 
L 353.43585 -37.558139 
L 352.788393 -37.559485 
L 352.140935 -37.561678 
L 351.493477 -37.565215 
L 350.846019 -37.570871 
L 350.198561 -37.579843 
L 349.551104 -37.593923 
L 348.903646 -37.615681 
L 348.256188 -37.648641 
L 347.60873 -37.697368 
L 346.961273 -37.76744 
L 346.313815 -37.865233 
L 345.666357 -37.997517 
L 345.018899 -38.170859 
L 344.371441 -38.390874 
L 343.723984 -38.661383 
L 343.076526 -38.983522 
L 342.429068 -39.354907 
L 341.78161 -39.768973 
L 341.134153 -40.214705 
L 340.486695 -40.676992 
L 339.839237 -41.137762 
L 339.191779 -41.577847 
L 338.544321 -41.979176 
L 337.896864 -42.326683 
L 337.249406 -42.609316 
L 336.601948 -42.819916 
L 335.95449 -42.95432 
L 335.307032 -43.010497 
L 334.659575 -42.988515 
L 334.012117 -42.891554 
L 333.364659 -42.72735 
L 332.717201 -42.508874 
L 332.069744 -42.25318 
L 331.422286 -41.978283 
L 330.774828 -41.69909 
L 330.12737 -41.424215 
L 329.479912 -41.155354 
L 328.832455 -40.889804 
L 328.184997 -40.625263 
L 327.537539 -40.364894 
L 326.890081 -40.120463 
L 326.242624 -39.912153 
L 325.595166 -39.764996 
L 324.947708 -39.703163 
L 324.30025 -39.744017 
L 323.652792 -39.893721 
L 323.005335 -40.145517 
L 322.357877 -40.480864 
L 321.710419 -40.872849 
L 321.062961 -41.290861 
L 320.415504 -41.705425 
L 319.768046 -42.092264 
L 319.120588 -42.434966 
L 318.47313 -42.725944 
L 317.825672 -42.965712 
L 317.178215 -43.160816 
L 316.530757 -43.320973 
L 315.883299 -43.456161 
L 315.235841 -43.574338 
L 314.588384 -43.680305 
L 313.940926 -43.775833 
L 313.293468 -43.860831 
L 312.64601 -43.934974 
L 311.998552 -43.999178 
L 311.351095 -44.056373 
L 310.703637 -44.111375 
L 310.056179 -44.169985 
L 309.408721 -44.237716 
L 308.761264 -44.318648 
L 308.113806 -44.414762 
L 307.466348 -44.525922 
L 306.81889 -44.650368 
L 306.171432 -44.785457 
L 305.523975 -44.92837 
L 304.876517 -45.076592 
L 304.229059 -45.228151 
L 303.581601 -45.381692 
L 302.934144 -45.536512 
L 302.286686 -45.692599 
L 301.639228 -45.850692 
L 300.99177 -46.012282 
L 300.344312 -46.179516 
L 299.696855 -46.355004 
L 299.049397 -46.54157 
L 298.401939 -46.742006 
L 297.754481 -46.958839 
L 297.107024 -47.194078 
L 296.459566 -47.44892 
L 295.812108 -47.723431 
L 295.16465 -48.016334 
L 294.517192 -48.325098 
L 293.869735 -48.646509 
L 293.222277 -48.97771 
L 292.574819 -49.317474 
L 291.927361 -49.667257 
L 291.279904 -50.031525 
L 290.632446 -50.417074 
L 289.984988 -50.831431 
L 289.33753 -51.280832 
L 288.690072 -51.76854 
L 288.042615 -52.294152 
L 287.395157 -52.854192 
L 286.747699 -53.443787 
L 286.100241 -54.058729 
L 285.452784 -54.697132 
L 284.805326 -55.360048 
L 284.157868 -56.050894 
L 283.51041 -56.774005 
L 282.862952 -57.532987 
L 282.215495 -58.329543 
L 281.568037 -59.163162 
L 280.920579 -60.031689 
L 280.273121 -60.932368 
L 279.625664 -61.862836 
L 278.978206 -62.821539 
L 278.330748 -63.807374 
L 277.68329 -64.818644 
L 277.035832 -65.851723 
L 276.388375 -66.899972 
L 275.740917 -67.953365 
L 275.093459 -68.999067 
L 274.446001 -70.022889 
L 273.798543 -71.011184 
L 273.151086 -71.95261 
L 272.503628 -72.839132 
L 271.85617 -73.665895 
L 271.208712 -74.429979 
L 270.561255 -75.128484 
L 269.913797 -75.756681 
L 269.266339 -76.30705 
L 268.618881 -76.769784 
L 267.971423 -77.134827 
L 267.323966 -77.394954 
L 266.676508 -77.54893 
L 266.02905 -77.603616 
L 265.381592 -77.574155 
L 264.734135 -77.481966 
L 264.086677 -77.351068 
L 263.439219 -77.203906 
L 262.791761 -77.058129 
L 262.144303 -76.925483 
L 261.496846 -76.813219 
L 260.849388 -76.72736 
L 260.20193 -76.676376 
L 259.554472 -76.673444 
L 258.907015 -76.735905 
L 258.259557 -76.881558 
L 257.612099 -77.122724 
L 256.964641 -77.460044 
L 256.317183 -77.8784 
L 255.669726 -78.346846 
L 255.022268 -78.823256 
L 254.37481 -79.262886 
L 253.727352 -79.628793 
L 253.079895 -79.901448 
L 252.432437 -80.085097 
L 251.784979 -80.209428 
L 251.137521 -80.32636 
L 250.490063 -80.503113 
L 249.842606 -80.813528 
L 249.195148 -81.329986 
L 248.54769 -82.117961 
L 247.900232 -83.234629 
L 247.252775 -84.732017 
L 246.605317 -86.664273 
L 245.957859 -89.097821 
L 245.310401 -92.122281 
L 244.662943 -95.859133 
L 244.015486 -100.463794 
L 243.368028 -106.115602 
L 242.72057 -112.989808 
L 242.073112 -121.207535 
L 241.425655 -130.765032 
L 240.778197 -141.45255 
L 240.130739 -152.78382 
L 239.483281 -163.96493 
L 238.835823 -173.930929 
L 238.188366 -181.465682 
L 237.540908 -185.39625 
L 236.89345 -184.824335 
L 236.245992 -179.335685 
L 235.598535 -169.124934 
L 234.951077 -154.992855 
L 234.303619 -138.210266 
L 233.656161 -120.283926 
L 233.008703 -102.688641 
L 232.361246 -86.635457 
L 231.713788 -72.927753 
L 231.06633 -61.92446 
L 230.418872 -53.596524 
L 229.771415 -47.640826 
L 229.123957 -43.610067 
L 228.476499 -41.025355 
L 227.829041 -39.453528 
L 227.181583 -38.546383 
z
" style="stroke: #1f77b4"/>
    </defs>
    <g clip-path="url(#p58dcdb3087)">
     <use xlink:href="#m3a8da271d2" x="0" y="199.98825" style="fill: #1f77b4; fill-opacity: 0.6; stroke: #1f77b4"/>
    </g>
   </g>
   <g id="PolyCollection_4">
    <defs>
     <path id="m36f239e46d" d="M 223.776162 -37.585744 
L 223.776162 -37.55625 
L 224.471374 -37.55625 
L 225.166585 -37.55625 
L 225.861797 -37.55625 
L 226.557009 -37.55625 
L 227.25222 -37.55625 
L 227.947432 -37.55625 
L 228.642643 -37.55625 
L 229.337855 -37.55625 
L 230.033067 -37.55625 
L 230.728278 -37.55625 
L 231.42349 -37.55625 
L 232.118701 -37.55625 
L 232.813913 -37.55625 
L 233.509125 -37.55625 
L 234.204336 -37.55625 
L 234.899548 -37.55625 
L 235.594759 -37.55625 
L 236.289971 -37.55625 
L 236.985182 -37.55625 
L 237.680394 -37.55625 
L 238.375606 -37.55625 
L 239.070817 -37.55625 
L 239.766029 -37.55625 
L 240.46124 -37.55625 
L 241.156452 -37.55625 
L 241.851664 -37.55625 
L 242.546875 -37.55625 
L 243.242087 -37.55625 
L 243.937298 -37.55625 
L 244.63251 -37.55625 
L 245.327722 -37.55625 
L 246.022933 -37.55625 
L 246.718145 -37.55625 
L 247.413356 -37.55625 
L 248.108568 -37.55625 
L 248.80378 -37.55625 
L 249.498991 -37.55625 
L 250.194203 -37.55625 
L 250.889414 -37.55625 
L 251.584626 -37.55625 
L 252.279838 -37.55625 
L 252.975049 -37.55625 
L 253.670261 -37.55625 
L 254.365472 -37.55625 
L 255.060684 -37.55625 
L 255.755896 -37.55625 
L 256.451107 -37.55625 
L 257.146319 -37.55625 
L 257.84153 -37.55625 
L 258.536742 -37.55625 
L 259.231954 -37.55625 
L 259.927165 -37.55625 
L 260.622377 -37.55625 
L 261.317588 -37.55625 
L 262.0128 -37.55625 
L 262.708012 -37.55625 
L 263.403223 -37.55625 
L 264.098435 -37.55625 
L 264.793646 -37.55625 
L 265.488858 -37.55625 
L 266.184069 -37.55625 
L 266.879281 -37.55625 
L 267.574493 -37.55625 
L 268.269704 -37.55625 
L 268.964916 -37.55625 
L 269.660127 -37.55625 
L 270.355339 -37.55625 
L 271.050551 -37.55625 
L 271.745762 -37.55625 
L 272.440974 -37.55625 
L 273.136185 -37.55625 
L 273.831397 -37.55625 
L 274.526609 -37.55625 
L 275.22182 -37.55625 
L 275.917032 -37.55625 
L 276.612243 -37.55625 
L 277.307455 -37.55625 
L 278.002667 -37.55625 
L 278.697878 -37.55625 
L 279.39309 -37.55625 
L 280.088301 -37.55625 
L 280.783513 -37.55625 
L 281.478725 -37.55625 
L 282.173936 -37.55625 
L 282.869148 -37.55625 
L 283.564359 -37.55625 
L 284.259571 -37.55625 
L 284.954783 -37.55625 
L 285.649994 -37.55625 
L 286.345206 -37.55625 
L 287.040417 -37.55625 
L 287.735629 -37.55625 
L 288.430841 -37.55625 
L 289.126052 -37.55625 
L 289.821264 -37.55625 
L 290.516475 -37.55625 
L 291.211687 -37.55625 
L 291.906899 -37.55625 
L 292.60211 -37.55625 
L 293.297322 -37.55625 
L 293.992533 -37.55625 
L 294.687745 -37.55625 
L 295.382956 -37.55625 
L 296.078168 -37.55625 
L 296.77338 -37.55625 
L 297.468591 -37.55625 
L 298.163803 -37.55625 
L 298.859014 -37.55625 
L 299.554226 -37.55625 
L 300.249438 -37.55625 
L 300.944649 -37.55625 
L 301.639861 -37.55625 
L 302.335072 -37.55625 
L 303.030284 -37.55625 
L 303.725496 -37.55625 
L 304.420707 -37.55625 
L 305.115919 -37.55625 
L 305.81113 -37.55625 
L 306.506342 -37.55625 
L 307.201554 -37.55625 
L 307.896765 -37.55625 
L 308.591977 -37.55625 
L 309.287188 -37.55625 
L 309.9824 -37.55625 
L 310.677612 -37.55625 
L 311.372823 -37.55625 
L 312.068035 -37.55625 
L 312.763246 -37.55625 
L 313.458458 -37.55625 
L 314.15367 -37.55625 
L 314.848881 -37.55625 
L 315.544093 -37.55625 
L 316.239304 -37.55625 
L 316.934516 -37.55625 
L 317.629728 -37.55625 
L 318.324939 -37.55625 
L 319.020151 -37.55625 
L 319.715362 -37.55625 
L 320.410574 -37.55625 
L 321.105786 -37.55625 
L 321.800997 -37.55625 
L 322.496209 -37.55625 
L 323.19142 -37.55625 
L 323.886632 -37.55625 
L 324.581843 -37.55625 
L 325.277055 -37.55625 
L 325.972267 -37.55625 
L 326.667478 -37.55625 
L 327.36269 -37.55625 
L 328.057901 -37.55625 
L 328.753113 -37.55625 
L 329.448325 -37.55625 
L 330.143536 -37.55625 
L 330.838748 -37.55625 
L 331.533959 -37.55625 
L 332.229171 -37.55625 
L 332.924383 -37.55625 
L 333.619594 -37.55625 
L 334.314806 -37.55625 
L 335.010017 -37.55625 
L 335.705229 -37.55625 
L 336.400441 -37.55625 
L 337.095652 -37.55625 
L 337.790864 -37.55625 
L 338.486075 -37.55625 
L 339.181287 -37.55625 
L 339.876499 -37.55625 
L 340.57171 -37.55625 
L 341.266922 -37.55625 
L 341.962133 -37.55625 
L 342.657345 -37.55625 
L 343.352557 -37.55625 
L 344.047768 -37.55625 
L 344.74298 -37.55625 
L 345.438191 -37.55625 
L 346.133403 -37.55625 
L 346.828615 -37.55625 
L 347.523826 -37.55625 
L 348.219038 -37.55625 
L 348.914249 -37.55625 
L 349.609461 -37.55625 
L 350.304673 -37.55625 
L 350.999884 -37.55625 
L 351.695096 -37.55625 
L 352.390307 -37.55625 
L 353.085519 -37.55625 
L 353.78073 -37.55625 
L 354.475942 -37.55625 
L 355.171154 -37.55625 
L 355.866365 -37.55625 
L 356.561577 -37.55625 
L 357.256788 -37.55625 
L 357.952 -37.55625 
L 358.647212 -37.55625 
L 359.342423 -37.55625 
L 360.037635 -37.55625 
L 360.732846 -37.55625 
L 361.428058 -37.55625 
L 362.12327 -37.55625 
L 362.12327 -37.55724 
L 362.12327 -37.55724 
L 361.428058 -37.558037 
L 360.732846 -37.559417 
L 360.037635 -37.561764 
L 359.342423 -37.565687 
L 358.647212 -37.572137 
L 357.952 -37.582571 
L 357.256788 -37.599178 
L 356.561577 -37.625192 
L 355.866365 -37.665292 
L 355.171154 -37.726106 
L 354.475942 -37.816818 
L 353.78073 -37.949858 
L 353.085519 -38.141635 
L 352.390307 -38.413233 
L 351.695096 -38.790985 
L 350.999884 -39.306754 
L 350.304673 -39.997791 
L 349.609461 -40.905965 
L 348.914249 -42.076232 
L 348.219038 -43.554208 
L 347.523826 -45.382842 
L 346.828615 -47.598283 
L 346.133403 -50.225182 
L 345.438191 -53.271852 
L 344.74298 -56.725811 
L 344.047768 -60.550335 
L 343.352557 -64.68263 
L 342.657345 -69.034121 
L 341.962133 -73.493145 
L 341.266922 -77.930011 
L 340.57171 -82.204092 
L 339.876499 -86.172287 
L 339.181287 -89.698019 
L 338.486075 -92.65986 
L 337.790864 -94.958996 
L 337.095652 -96.524919 
L 336.400441 -97.319031 
L 335.705229 -97.336045 
L 335.010017 -96.603285 
L 334.314806 -95.178066 
L 333.619594 -93.143454 
L 332.924383 -90.602768 
L 332.229171 -87.673312 
L 331.533959 -84.479922 
L 330.838748 -81.148963 
L 330.143536 -77.803313 
L 329.448325 -74.558596 
L 328.753113 -71.520594 
L 328.057901 -68.783411 
L 327.36269 -66.427726 
L 326.667478 -64.518597 
L 325.972267 -63.102542 
L 325.277055 -62.204158 
L 324.581843 -61.823016 
L 323.886632 -61.931845 
L 323.19142 -62.476992 
L 322.496209 -63.381766 
L 321.800997 -64.552621 
L 321.105786 -65.887526 
L 320.410574 -67.285305 
L 319.715362 -68.65453 
L 319.020151 -69.920651 
L 318.324939 -71.030463 
L 317.629728 -71.953537 
L 316.934516 -72.680825 
L 316.239304 -73.221089 
L 315.544093 -73.596012 
L 314.848881 -73.834927 
L 314.15367 -73.969922 
L 313.458458 -74.031853 
L 312.763246 -74.047531 
L 312.068035 -74.038099 
L 311.372823 -74.018472 
L 310.677612 -73.997596 
L 309.9824 -73.979275 
L 309.287188 -73.963318 
L 308.591977 -73.946831 
L 307.896765 -73.925478 
L 307.201554 -73.894634 
L 306.506342 -73.850344 
L 305.81113 -73.790055 
L 305.115919 -73.71308 
L 304.420707 -73.620803 
L 303.725496 -73.516618 
L 303.030284 -73.405633 
L 302.335072 -73.294166 
L 301.639861 -73.189103 
L 300.944649 -73.097179 
L 300.249438 -73.024286 
L 299.554226 -72.974888 
L 298.859014 -72.951631 
L 298.163803 -72.955211 
L 297.468591 -72.9845 
L 296.77338 -73.036914 
L 296.078168 -73.108929 
L 295.382956 -73.196641 
L 294.687745 -73.296275 
L 293.992533 -73.40454 
L 293.297322 -73.518802 
L 292.60211 -73.637085 
L 291.906899 -73.757934 
L 291.211687 -73.880219 
L 290.516475 -74.002927 
L 289.821264 -74.12499 
L 289.126052 -74.245155 
L 288.430841 -74.36188 
L 287.735629 -74.473252 
L 287.040417 -74.576904 
L 286.345206 -74.669952 
L 285.649994 -74.748962 
L 284.954783 -74.809972 
L 284.259571 -74.84858 
L 283.564359 -74.860096 
L 282.869148 -74.839699 
L 282.173936 -74.782595 
L 281.478725 -74.684106 
L 280.783513 -74.539711 
L 280.088301 -74.345047 
L 279.39309 -74.095922 
L 278.697878 -73.788394 
L 278.002667 -73.41896 
L 277.307455 -72.984842 
L 276.612243 -72.48433 
L 275.917032 -71.917114 
L 275.22182 -71.284504 
L 274.526609 -70.589478 
L 273.831397 -69.836531 
L 273.136185 -69.031361 
L 272.440974 -68.180447 
L 271.745762 -67.29063 
L 271.050551 -66.368783 
L 270.355339 -65.421628 
L 269.660127 -64.455704 
L 268.964916 -63.477458 
L 268.269704 -62.493378 
L 267.574493 -61.510082 
L 266.879281 -60.534306 
L 266.184069 -59.572736 
L 265.488858 -58.631734 
L 264.793646 -57.716983 
L 264.098435 -56.833162 
L 263.403223 -55.983731 
L 262.708012 -55.170869 
L 262.0128 -54.395613 
L 261.317588 -53.658131 
L 260.622377 -52.958073 
L 259.927165 -52.294896 
L 259.231954 -51.668088 
L 258.536742 -51.077232 
L 257.84153 -50.521926 
L 257.146319 -50.001599 
L 256.451107 -49.515313 
L 255.755896 -49.061644 
L 255.060684 -48.638694 
L 254.365472 -48.244264 
L 253.670261 -47.876159 
L 252.975049 -47.532549 
L 252.279838 -47.212298 
L 251.584626 -46.915195 
L 250.889414 -46.64201 
L 250.194203 -46.3944 
L 249.498991 -46.174668 
L 248.80378 -45.985442 
L 248.108568 -45.829311 
L 247.413356 -45.708469 
L 246.718145 -45.624352 
L 246.022933 -45.57726 
L 245.327722 -45.565934 
L 244.63251 -45.587081 
L 243.937298 -45.634877 
L 243.242087 -45.700539 
L 242.546875 -45.77209 
L 241.851664 -45.834469 
L 241.156452 -45.870122 
L 240.46124 -45.860126 
L 239.766029 -45.785817 
L 239.070817 -45.630768 
L 238.375606 -45.382845 
L 237.680394 -45.036022 
L 236.985182 -44.591617 
L 236.289971 -44.058694 
L 235.594759 -43.453501 
L 234.899548 -42.797984 
L 234.204336 -42.11759 
L 233.509125 -41.438682 
L 232.813913 -40.785972 
L 232.118701 -40.180341 
L 231.42349 -39.637324 
L 230.728278 -39.166407 
L 230.033067 -38.77111 
L 229.337855 -38.449745 
L 228.642643 -38.196601 
L 227.947432 -38.003317 
L 227.25222 -37.860228 
L 226.557009 -37.757495 
L 225.861797 -37.685948 
L 225.166585 -37.637605 
L 224.471374 -37.60591 
L 223.776162 -37.585744 
z
" style="stroke: #ff7f0e"/>
    </defs>
    <g clip-path="url(#p58dcdb3087)">
     <use xlink:href="#m36f239e46d" x="0" y="199.98825" style="fill: #ff7f0e; fill-opacity: 0.6; stroke: #ff7f0e"/>
    </g>
   </g>
   <g id="matplotlib.axis_3">
    <g id="xtick_5">
     <g id="line2d_11">
      <g>
       <use xlink:href="#m91e3b94f40" x="236.014409" y="162.432" style="stroke: #000000; stroke-width: 0.8"/>
      </g>
     </g>
     <g id="text_15">
      <!-- 0.0 -->
      <g transform="translate(228.062846 177.030437) scale(0.1 -0.1)">
       <defs>
        <path id="DejaVuSans-2e" d="M 684 794 
L 1344 794 
L 1344 0 
L 684 0 
L 684 794 
z
" transform="scale(0.015625)"/>
       </defs>
       <use xlink:href="#DejaVuSans-30"/>
       <use xlink:href="#DejaVuSans-2e" x="63.623047"/>
       <use xlink:href="#DejaVuSans-30" x="95.410156"/>
      </g>
     </g>
    </g>
    <g id="xtick_6">
     <g id="line2d_12">
      <g>
       <use xlink:href="#m91e3b94f40" x="292.942765" y="162.432" style="stroke: #000000; stroke-width: 0.8"/>
      </g>
     </g>
     <g id="text_16">
      <!-- 0.5 -->
      <g transform="translate(284.991203 177.030437) scale(0.1 -0.1)">
       <use xlink:href="#DejaVuSans-30"/>
       <use xlink:href="#DejaVuSans-2e" x="63.623047"/>
       <use xlink:href="#DejaVuSans-35" x="95.410156"/>
      </g>
     </g>
    </g>
    <g id="xtick_7">
     <g id="line2d_13">
      <g>
       <use xlink:href="#m91e3b94f40" x="349.871122" y="162.432" style="stroke: #000000; stroke-width: 0.8"/>
      </g>
     </g>
     <g id="text_17">
      <!-- 1.0 -->
      <g transform="translate(341.91956 177.030437) scale(0.1 -0.1)">
       <use xlink:href="#DejaVuSans-31"/>
       <use xlink:href="#DejaVuSans-2e" x="63.623047"/>
       <use xlink:href="#DejaVuSans-30" x="95.410156"/>
      </g>
     </g>
    </g>
    <g id="text_18">
     <!-- Predicted probability -->
     <g transform="translate(241.21456 190.708562) scale(0.1 -0.1)">
      <defs>
       <path id="DejaVuSans-72" d="M 2631 2963 
Q 2534 3019 2420 3045 
Q 2306 3072 2169 3072 
Q 1681 3072 1420 2755 
Q 1159 2438 1159 1844 
L 1159 0 
L 581 0 
L 581 3500 
L 1159 3500 
L 1159 2956 
Q 1341 3275 1631 3429 
Q 1922 3584 2338 3584 
Q 2397 3584 2469 3576 
Q 2541 3569 2628 3553 
L 2631 2963 
z
" transform="scale(0.015625)"/>
       <path id="DejaVuSans-64" d="M 2906 2969 
L 2906 4863 
L 3481 4863 
L 3481 0 
L 2906 0 
L 2906 525 
Q 2725 213 2448 61 
Q 2172 -91 1784 -91 
Q 1150 -91 751 415 
Q 353 922 353 1747 
Q 353 2572 751 3078 
Q 1150 3584 1784 3584 
Q 2172 3584 2448 3432 
Q 2725 3281 2906 2969 
z
M 947 1747 
Q 947 1113 1208 752 
Q 1469 391 1925 391 
Q 2381 391 2643 752 
Q 2906 1113 2906 1747 
Q 2906 2381 2643 2742 
Q 2381 3103 1925 3103 
Q 1469 3103 1208 2742 
Q 947 2381 947 1747 
z
" transform="scale(0.015625)"/>
       <path id="DejaVuSans-20" transform="scale(0.015625)"/>
       <path id="DejaVuSans-70" d="M 1159 525 
L 1159 -1331 
L 581 -1331 
L 581 3500 
L 1159 3500 
L 1159 2969 
Q 1341 3281 1617 3432 
Q 1894 3584 2278 3584 
Q 2916 3584 3314 3078 
Q 3713 2572 3713 1747 
Q 3713 922 3314 415 
Q 2916 -91 2278 -91 
Q 1894 -91 1617 61 
Q 1341 213 1159 525 
z
M 3116 1747 
Q 3116 2381 2855 2742 
Q 2594 3103 2138 3103 
Q 1681 3103 1420 2742 
Q 1159 2381 1159 1747 
Q 1159 1113 1420 752 
Q 1681 391 2138 391 
Q 2594 391 2855 752 
Q 3116 1113 3116 1747 
z
" transform="scale(0.015625)"/>
       <path id="DejaVuSans-62" d="M 3116 1747 
Q 3116 2381 2855 2742 
Q 2594 3103 2138 3103 
Q 1681 3103 1420 2742 
Q 1159 2381 1159 1747 
Q 1159 1113 1420 752 
Q 1681 391 2138 391 
Q 2594 391 2855 752 
Q 3116 1113 3116 1747 
z
M 1159 2969 
Q 1341 3281 1617 3432 
Q 1894 3584 2278 3584 
Q 2916 3584 3314 3078 
Q 3713 2572 3713 1747 
Q 3713 922 3314 415 
Q 2916 -91 2278 -91 
Q 1894 -91 1617 61 
Q 1341 213 1159 525 
L 1159 0 
L 581 0 
L 581 4863 
L 1159 4863 
L 1159 2969 
z
" transform="scale(0.015625)"/>
       <path id="DejaVuSans-6c" d="M 603 4863 
L 1178 4863 
L 1178 0 
L 603 0 
L 603 4863 
z
" transform="scale(0.015625)"/>
      </defs>
      <use xlink:href="#DejaVuSans-50"/>
      <use xlink:href="#DejaVuSans-72" x="58.552734"/>
      <use xlink:href="#DejaVuSans-65" x="97.416016"/>
      <use xlink:href="#DejaVuSans-64" x="158.939453"/>
      <use xlink:href="#DejaVuSans-69" x="222.416016"/>
      <use xlink:href="#DejaVuSans-63" x="250.199219"/>
      <use xlink:href="#DejaVuSans-74" x="305.179688"/>
      <use xlink:href="#DejaVuSans-65" x="344.388672"/>
      <use xlink:href="#DejaVuSans-64" x="405.912109"/>
      <use xlink:href="#DejaVuSans-20" x="469.388672"/>
      <use xlink:href="#DejaVuSans-70" x="501.175781"/>
      <use xlink:href="#DejaVuSans-72" x="564.652344"/>
      <use xlink:href="#DejaVuSans-6f" x="603.515625"/>
      <use xlink:href="#DejaVuSans-62" x="664.697266"/>
      <use xlink:href="#DejaVuSans-61" x="728.173828"/>
      <use xlink:href="#DejaVuSans-62" x="789.453125"/>
      <use xlink:href="#DejaVuSans-69" x="852.929688"/>
      <use xlink:href="#DejaVuSans-6c" x="880.712891"/>
      <use xlink:href="#DejaVuSans-69" x="908.496094"/>
      <use xlink:href="#DejaVuSans-74" x="936.279297"/>
      <use xlink:href="#DejaVuSans-79" x="975.488281"/>
     </g>
    </g>
   </g>
   <g id="matplotlib.axis_4">
    <g id="ytick_7">
     <g id="line2d_14">
      <g>
       <use xlink:href="#md9bf05177e" x="216.858807" y="162.432" style="stroke: #000000; stroke-width: 0.8"/>
      </g>
     </g>
    </g>
    <g id="ytick_8">
     <g id="line2d_15">
      <g>
       <use xlink:href="#md9bf05177e" x="216.858807" y="133.812973" style="stroke: #000000; stroke-width: 0.8"/>
      </g>
     </g>
    </g>
    <g id="ytick_9">
     <g id="line2d_16">
      <g>
       <use xlink:href="#md9bf05177e" x="216.858807" y="105.193945" style="stroke: #000000; stroke-width: 0.8"/>
      </g>
     </g>
    </g>
    <g id="ytick_10">
     <g id="line2d_17">
      <g>
       <use xlink:href="#md9bf05177e" x="216.858807" y="76.574918" style="stroke: #000000; stroke-width: 0.8"/>
      </g>
     </g>
    </g>
    <g id="ytick_11">
     <g id="line2d_18">
      <g>
       <use xlink:href="#md9bf05177e" x="216.858807" y="47.95589" style="stroke: #000000; stroke-width: 0.8"/>
      </g>
     </g>
    </g>
    <g id="ytick_12">
     <g id="line2d_19">
      <g>
       <use xlink:href="#md9bf05177e" x="216.858807" y="19.336863" style="stroke: #000000; stroke-width: 0.8"/>
      </g>
     </g>
    </g>
   </g>
   <g id="patch_11">
    <path d="M 216.858807 162.432 
L 216.858807 7.2 
" style="fill: none; stroke: #000000; stroke-width: 0.8; stroke-linejoin: miter; stroke-linecap: square"/>
   </g>
   <g id="patch_12">
    <path d="M 369.040625 162.432 
L 369.040625 7.2 
" style="fill: none; stroke: #000000; stroke-width: 0.8; stroke-linejoin: miter; stroke-linecap: square"/>
   </g>
   <g id="patch_13">
    <path d="M 216.858807 162.432 
L 369.040625 162.432 
" style="fill: none; stroke: #000000; stroke-width: 0.8; stroke-linejoin: miter; stroke-linecap: square"/>
   </g>
   <g id="patch_14">
    <path d="M 216.858807 7.2 
L 369.040625 7.2 
" style="fill: none; stroke: #000000; stroke-width: 0.8; stroke-linejoin: miter; stroke-linecap: square"/>
   </g>
  </g>
 </g>
 <defs>
  <clipPath id="p394bcb0e48">
   <rect x="34.240625" y="7.2" width="152.181818" height="155.232"/>
  </clipPath>
  <clipPath id="p58dcdb3087">
   <rect x="216.858807" y="7.2" width="152.181818" height="155.232"/>
  </clipPath>
 </defs>
</svg>
