<?xml version="1.0" encoding="utf-8" standalone="no"?>
<!DOCTYPE svg PUBLIC "-//W3C//DTD SVG 1.1//EN"
  "http://www.w3.org/Graphics/SVG/1.1/DTD/svg11.dtd">
<svg xmlns:xlink="http://www.w3.org/1999/xlink" width="376.240625pt" height="199.98825pt" viewBox="0 0 376.240625 199.98825" xmlns="http://www.w3.org/2000/svg" version="1.1">
 <metadata>
  <rdf:RDF xmlns:dc="http://purl.org/dc/elements/1.1/" xmlns:cc="http://creativecommons.org/ns#" xmlns:rdf="http://www.w3.org/1999/02/22-rdf-syntax-ns#">
   <cc:Work>
    <dc:type rdf:resource="http://purl.org/dc/dcmitype/StillImage"/>
    <dc:date>2025-05-27T21:49:46.263346</dc:date>
    <dc:format>image/svg+xml</dc:format>
    <dc:creator>
     <cc:Agent>
      <dc:title>Matplotlib v3.9.2, https://matplotlib.org/</dc:title>
     </cc:Agent>
    </dc:creator>
   </cc:Work>
  </rdf:RDF>
 </metadata>
 <defs>
  <style type="text/css">*{stroke-linejoin: round; stroke-linecap: butt}</style>
 </defs>
 <g id="figure_1">
  <g id="patch_1">
   <path d="M 0 199.98825 
L 376.240625 199.98825 
L 376.240625 -0 
L 0 -0 
z
" style="fill: #ffffff"/>
  </g>
  <g id="axes_1">
   <g id="patch_2">
    <path d="M 34.240625 162.432 
L 186.422443 162.432 
L 186.422443 7.2 
L 34.240625 7.2 
z
" style="fill: #ffffff"/>
   </g>
   <g id="PolyCollection_1">
    <defs>
     <path id="ma618f3bdcf" d="M 41.15798 -37.952486 
L 41.15798 -37.55625 
L 41.852361 -37.55625 
L 42.546741 -37.55625 
L 43.241121 -37.55625 
L 43.935502 -37.55625 
L 44.629882 -37.55625 
L 45.324262 -37.55625 
L 46.018643 -37.55625 
L 46.713023 -37.55625 
L 47.407403 -37.55625 
L 48.101783 -37.55625 
L 48.796164 -37.55625 
L 49.490544 -37.55625 
L 50.184924 -37.55625 
L 50.879305 -37.55625 
L 51.573685 -37.55625 
L 52.268065 -37.55625 
L 52.962446 -37.55625 
L 53.656826 -37.55625 
L 54.351206 -37.55625 
L 55.045587 -37.55625 
L 55.739967 -37.55625 
L 56.434347 -37.55625 
L 57.128728 -37.55625 
L 57.823108 -37.55625 
L 58.517488 -37.55625 
L 59.211868 -37.55625 
L 59.906249 -37.55625 
L 60.600629 -37.55625 
L 61.295009 -37.55625 
L 61.98939 -37.55625 
L 62.68377 -37.55625 
L 63.37815 -37.55625 
L 64.072531 -37.55625 
L 64.766911 -37.55625 
L 65.461291 -37.55625 
L 66.155672 -37.55625 
L 66.850052 -37.55625 
L 67.544432 -37.55625 
L 68.238812 -37.55625 
L 68.933193 -37.55625 
L 69.627573 -37.55625 
L 70.321953 -37.55625 
L 71.016334 -37.55625 
L 71.710714 -37.55625 
L 72.405094 -37.55625 
L 73.099475 -37.55625 
L 73.793855 -37.55625 
L 74.488235 -37.55625 
L 75.182616 -37.55625 
L 75.876996 -37.55625 
L 76.571376 -37.55625 
L 77.265757 -37.55625 
L 77.960137 -37.55625 
L 78.654517 -37.55625 
L 79.348897 -37.55625 
L 80.043278 -37.55625 
L 80.737658 -37.55625 
L 81.432038 -37.55625 
L 82.126419 -37.55625 
L 82.820799 -37.55625 
L 83.515179 -37.55625 
L 84.20956 -37.55625 
L 84.90394 -37.55625 
L 85.59832 -37.55625 
L 86.292701 -37.55625 
L 86.987081 -37.55625 
L 87.681461 -37.55625 
L 88.375841 -37.55625 
L 89.070222 -37.55625 
L 89.764602 -37.55625 
L 90.458982 -37.55625 
L 91.153363 -37.55625 
L 91.847743 -37.55625 
L 92.542123 -37.55625 
L 93.236504 -37.55625 
L 93.930884 -37.55625 
L 94.625264 -37.55625 
L 95.319645 -37.55625 
L 96.014025 -37.55625 
L 96.708405 -37.55625 
L 97.402786 -37.55625 
L 98.097166 -37.55625 
L 98.791546 -37.55625 
L 99.485926 -37.55625 
L 100.180307 -37.55625 
L 100.874687 -37.55625 
L 101.569067 -37.55625 
L 102.263448 -37.55625 
L 102.957828 -37.55625 
L 103.652208 -37.55625 
L 104.346589 -37.55625 
L 105.040969 -37.55625 
L 105.735349 -37.55625 
L 106.42973 -37.55625 
L 107.12411 -37.55625 
L 107.81849 -37.55625 
L 108.51287 -37.55625 
L 109.207251 -37.55625 
L 109.901631 -37.55625 
L 110.596011 -37.55625 
L 111.290392 -37.55625 
L 111.984772 -37.55625 
L 112.679152 -37.55625 
L 113.373533 -37.55625 
L 114.067913 -37.55625 
L 114.762293 -37.55625 
L 115.456674 -37.55625 
L 116.151054 -37.55625 
L 116.845434 -37.55625 
L 117.539815 -37.55625 
L 118.234195 -37.55625 
L 118.928575 -37.55625 
L 119.622955 -37.55625 
L 120.317336 -37.55625 
L 121.011716 -37.55625 
L 121.706096 -37.55625 
L 122.400477 -37.55625 
L 123.094857 -37.55625 
L 123.789237 -37.55625 
L 124.483618 -37.55625 
L 125.177998 -37.55625 
L 125.872378 -37.55625 
L 126.566759 -37.55625 
L 127.261139 -37.55625 
L 127.955519 -37.55625 
L 128.649899 -37.55625 
L 129.34428 -37.55625 
L 130.03866 -37.55625 
L 130.73304 -37.55625 
L 131.427421 -37.55625 
L 132.121801 -37.55625 
L 132.816181 -37.55625 
L 133.510562 -37.55625 
L 134.204942 -37.55625 
L 134.899322 -37.55625 
L 135.593703 -37.55625 
L 136.288083 -37.55625 
L 136.982463 -37.55625 
L 137.676844 -37.55625 
L 138.371224 -37.55625 
L 139.065604 -37.55625 
L 139.759984 -37.55625 
L 140.454365 -37.55625 
L 141.148745 -37.55625 
L 141.843125 -37.55625 
L 142.537506 -37.55625 
L 143.231886 -37.55625 
L 143.926266 -37.55625 
L 144.620647 -37.55625 
L 145.315027 -37.55625 
L 146.009407 -37.55625 
L 146.703788 -37.55625 
L 147.398168 -37.55625 
L 148.092548 -37.55625 
L 148.786928 -37.55625 
L 149.481309 -37.55625 
L 150.175689 -37.55625 
L 150.870069 -37.55625 
L 151.56445 -37.55625 
L 152.25883 -37.55625 
L 152.95321 -37.55625 
L 153.647591 -37.55625 
L 154.341971 -37.55625 
L 155.036351 -37.55625 
L 155.730732 -37.55625 
L 156.425112 -37.55625 
L 157.119492 -37.55625 
L 157.813873 -37.55625 
L 158.508253 -37.55625 
L 159.202633 -37.55625 
L 159.897013 -37.55625 
L 160.591394 -37.55625 
L 161.285774 -37.55625 
L 161.980154 -37.55625 
L 162.674535 -37.55625 
L 163.368915 -37.55625 
L 164.063295 -37.55625 
L 164.757676 -37.55625 
L 165.452056 -37.55625 
L 166.146436 -37.55625 
L 166.840817 -37.55625 
L 167.535197 -37.55625 
L 168.229577 -37.55625 
L 168.923957 -37.55625 
L 169.618338 -37.55625 
L 170.312718 -37.55625 
L 171.007098 -37.55625 
L 171.701479 -37.55625 
L 172.395859 -37.55625 
L 173.090239 -37.55625 
L 173.78462 -37.55625 
L 174.479 -37.55625 
L 175.17338 -37.55625 
L 175.867761 -37.55625 
L 176.562141 -37.55625 
L 177.256521 -37.55625 
L 177.950901 -37.55625 
L 178.645282 -37.55625 
L 179.339662 -37.55625 
L 179.339662 -37.559989 
L 179.339662 -37.559989 
L 178.645282 -37.562265 
L 177.950901 -37.565728 
L 177.256521 -37.570882 
L 176.562141 -37.578384 
L 175.867761 -37.589063 
L 175.17338 -37.603931 
L 174.479 -37.624176 
L 173.78462 -37.651139 
L 173.090239 -37.686266 
L 172.395859 -37.731033 
L 171.701479 -37.786848 
L 171.007098 -37.854939 
L 170.312718 -37.936231 
L 169.618338 -38.031227 
L 168.923957 -38.139914 
L 168.229577 -38.261706 
L 167.535197 -38.395429 
L 166.840817 -38.539371 
L 166.146436 -38.691378 
L 165.452056 -38.849008 
L 164.757676 -39.009714 
L 164.063295 -39.17104 
L 163.368915 -39.330815 
L 162.674535 -39.487311 
L 161.980154 -39.639367 
L 161.285774 -39.786439 
L 160.591394 -39.928599 
L 159.897013 -40.066468 
L 159.202633 -40.201094 
L 158.508253 -40.333796 
L 157.813873 -40.465979 
L 157.119492 -40.598953 
L 156.425112 -40.733756 
L 155.730732 -40.871018 
L 155.036351 -41.010861 
L 154.341971 -41.152855 
L 153.647591 -41.296031 
L 152.95321 -41.438939 
L 152.25883 -41.579761 
L 151.56445 -41.716448 
L 150.870069 -41.846882 
L 150.175689 -41.969034 
L 149.481309 -42.081109 
L 148.786928 -42.181661 
L 148.092548 -42.269669 
L 147.398168 -42.344577 
L 146.703788 -42.406285 
L 146.009407 -42.455106 
L 145.315027 -42.491704 
L 144.620647 -42.51701 
L 143.926266 -42.532139 
L 143.231886 -42.538323 
L 142.537506 -42.536845 
L 141.843125 -42.529005 
L 141.148745 -42.516089 
L 140.454365 -42.499361 
L 139.759984 -42.480047 
L 139.065604 -42.459317 
L 138.371224 -42.438261 
L 137.676844 -42.417849 
L 136.982463 -42.398881 
L 136.288083 -42.381937 
L 135.593703 -42.367322 
L 134.899322 -42.355038 
L 134.204942 -42.344772 
L 133.510562 -42.335915 
L 132.816181 -42.327619 
L 132.121801 -42.318882 
L 131.427421 -42.308655 
L 130.73304 -42.295974 
L 130.03866 -42.280082 
L 129.34428 -42.260541 
L 128.649899 -42.237324 
L 127.955519 -42.210853 
L 127.261139 -42.182003 
L 126.566759 -42.152044 
L 125.872378 -42.122547 
L 125.177998 -42.095239 
L 124.483618 -42.07185 
L 123.789237 -42.053948 
L 123.094857 -42.042803 
L 122.400477 -42.039279 
L 121.706096 -42.043782 
L 121.011716 -42.05626 
L 120.317336 -42.076254 
L 119.622955 -42.102986 
L 118.928575 -42.135461 
L 118.234195 -42.17257 
L 117.539815 -42.213177 
L 116.845434 -42.256176 
L 116.151054 -42.300515 
L 115.456674 -42.34521 
L 114.762293 -42.389334 
L 114.067913 -42.432021 
L 113.373533 -42.472487 
L 112.679152 -42.510065 
L 111.984772 -42.544268 
L 111.290392 -42.574855 
L 110.596011 -42.601905 
L 109.901631 -42.625852 
L 109.207251 -42.647509 
L 108.51287 -42.668028 
L 107.81849 -42.688839 
L 107.12411 -42.711541 
L 106.42973 -42.737776 
L 105.735349 -42.76911 
L 105.040969 -42.806923 
L 104.346589 -42.852331 
L 103.652208 -42.906158 
L 102.957828 -42.968944 
L 102.263448 -43.040994 
L 101.569067 -43.12246 
L 100.874687 -43.213425 
L 100.180307 -43.313987 
L 99.485926 -43.424321 
L 98.791546 -43.544702 
L 98.097166 -43.675495 
L 97.402786 -43.817106 
L 96.708405 -43.969901 
L 96.014025 -44.134115 
L 95.319645 -44.309759 
L 94.625264 -44.496546 
L 93.930884 -44.693852 
L 93.236504 -44.900725 
L 92.542123 -45.115936 
L 91.847743 -45.338086 
L 91.153363 -45.565737 
L 90.458982 -45.797567 
L 89.764602 -46.03253 
L 89.070222 -46.269985 
L 88.375841 -46.509798 
L 87.681461 -46.7524 
L 86.987081 -46.998792 
L 86.292701 -47.250516 
L 85.59832 -47.509584 
L 84.90394 -47.778389 
L 84.20956 -48.059604 
L 83.515179 -48.356081 
L 82.820799 -48.670748 
L 82.126419 -49.006521 
L 81.432038 -49.366221 
L 80.737658 -49.752512 
L 80.043278 -50.167863 
L 79.348897 -50.614548 
L 78.654517 -51.094698 
L 77.960137 -51.610426 
L 77.265757 -52.164033 
L 76.571376 -52.758311 
L 75.876996 -53.396931 
L 75.182616 -54.08493 
L 74.488235 -54.829247 
L 73.793855 -55.63931 
L 73.099475 -56.527613 
L 72.405094 -57.510253 
L 71.710714 -58.607377 
L 71.016334 -59.843472 
L 70.321953 -61.24743 
L 69.627573 -62.852287 
L 68.933193 -64.694503 
L 68.238812 -66.812632 
L 67.544432 -69.245203 
L 66.850052 -72.027647 
L 66.155672 -75.18815 
L 65.461291 -78.742463 
L 64.766911 -82.687852 
L 64.072531 -86.99666 
L 63.37815 -91.6102 
L 62.68377 -96.433972 
L 61.98939 -101.335318 
L 61.295009 -106.14464 
L 60.600629 -110.661021 
L 59.906249 -114.662623 
L 59.211868 -117.921553 
L 58.517488 -120.222076 
L 57.823108 -121.380359 
L 57.128728 -121.263354 
L 56.434347 -119.804277 
L 55.739967 -117.012361 
L 55.045587 -112.975261 
L 54.351206 -107.85347 
L 53.656826 -101.867269 
L 52.962446 -95.277832 
L 52.268065 -88.364916 
L 51.573685 -81.403977 
L 50.879305 -74.645481 
L 50.184924 -68.298649 
L 49.490544 -62.521063 
L 48.796164 -57.414576 
L 48.101783 -53.027087 
L 47.407403 -49.35901 
L 46.713023 -46.372845 
L 46.018643 -44.004191 
L 45.324262 -42.172664 
L 44.629882 -40.791571 
L 43.935502 -39.775612 
L 43.241121 -39.046332 
L 42.546741 -38.535377 
L 41.852361 -38.185892 
L 41.15798 -37.952486 
z
" style="stroke: #1f77b4"/>
    </defs>
    <g clip-path="url(#p8c5758e377)">
     <use xlink:href="#ma618f3bdcf" x="0" y="199.98825" style="fill: #1f77b4; fill-opacity: 0.6; stroke: #1f77b4"/>
    </g>
   </g>
   <g id="PolyCollection_2">
    <defs>
     <path id="mda7f6a00da" d="M 41.787244 -37.567372 
L 41.787244 -37.55625 
L 42.479294 -37.55625 
L 43.171343 -37.55625 
L 43.863393 -37.55625 
L 44.555442 -37.55625 
L 45.247492 -37.55625 
L 45.939541 -37.55625 
L 46.631591 -37.55625 
L 47.32364 -37.55625 
L 48.01569 -37.55625 
L 48.707739 -37.55625 
L 49.399789 -37.55625 
L 50.091838 -37.55625 
L 50.783887 -37.55625 
L 51.475937 -37.55625 
L 52.167986 -37.55625 
L 52.860036 -37.55625 
L 53.552085 -37.55625 
L 54.244135 -37.55625 
L 54.936184 -37.55625 
L 55.628234 -37.55625 
L 56.320283 -37.55625 
L 57.012333 -37.55625 
L 57.704382 -37.55625 
L 58.396432 -37.55625 
L 59.088481 -37.55625 
L 59.780531 -37.55625 
L 60.47258 -37.55625 
L 61.164629 -37.55625 
L 61.856679 -37.55625 
L 62.548728 -37.55625 
L 63.240778 -37.55625 
L 63.932827 -37.55625 
L 64.624877 -37.55625 
L 65.316926 -37.55625 
L 66.008976 -37.55625 
L 66.701025 -37.55625 
L 67.393075 -37.55625 
L 68.085124 -37.55625 
L 68.777174 -37.55625 
L 69.469223 -37.55625 
L 70.161272 -37.55625 
L 70.853322 -37.55625 
L 71.545371 -37.55625 
L 72.237421 -37.55625 
L 72.92947 -37.55625 
L 73.62152 -37.55625 
L 74.313569 -37.55625 
L 75.005619 -37.55625 
L 75.697668 -37.55625 
L 76.389718 -37.55625 
L 77.081767 -37.55625 
L 77.773817 -37.55625 
L 78.465866 -37.55625 
L 79.157916 -37.55625 
L 79.849965 -37.55625 
L 80.542014 -37.55625 
L 81.234064 -37.55625 
L 81.926113 -37.55625 
L 82.618163 -37.55625 
L 83.310212 -37.55625 
L 84.002262 -37.55625 
L 84.694311 -37.55625 
L 85.386361 -37.55625 
L 86.07841 -37.55625 
L 86.77046 -37.55625 
L 87.462509 -37.55625 
L 88.154559 -37.55625 
L 88.846608 -37.55625 
L 89.538657 -37.55625 
L 90.230707 -37.55625 
L 90.922756 -37.55625 
L 91.614806 -37.55625 
L 92.306855 -37.55625 
L 92.998905 -37.55625 
L 93.690954 -37.55625 
L 94.383004 -37.55625 
L 95.075053 -37.55625 
L 95.767103 -37.55625 
L 96.459152 -37.55625 
L 97.151202 -37.55625 
L 97.843251 -37.55625 
L 98.535301 -37.55625 
L 99.22735 -37.55625 
L 99.919399 -37.55625 
L 100.611449 -37.55625 
L 101.303498 -37.55625 
L 101.995548 -37.55625 
L 102.687597 -37.55625 
L 103.379647 -37.55625 
L 104.071696 -37.55625 
L 104.763746 -37.55625 
L 105.455795 -37.55625 
L 106.147845 -37.55625 
L 106.839894 -37.55625 
L 107.531944 -37.55625 
L 108.223993 -37.55625 
L 108.916042 -37.55625 
L 109.608092 -37.55625 
L 110.300141 -37.55625 
L 110.992191 -37.55625 
L 111.68424 -37.55625 
L 112.37629 -37.55625 
L 113.068339 -37.55625 
L 113.760389 -37.55625 
L 114.452438 -37.55625 
L 115.144488 -37.55625 
L 115.836537 -37.55625 
L 116.528587 -37.55625 
L 117.220636 -37.55625 
L 117.912686 -37.55625 
L 118.604735 -37.55625 
L 119.296784 -37.55625 
L 119.988834 -37.55625 
L 120.680883 -37.55625 
L 121.372933 -37.55625 
L 122.064982 -37.55625 
L 122.757032 -37.55625 
L 123.449081 -37.55625 
L 124.141131 -37.55625 
L 124.83318 -37.55625 
L 125.52523 -37.55625 
L 126.217279 -37.55625 
L 126.909329 -37.55625 
L 127.601378 -37.55625 
L 128.293427 -37.55625 
L 128.985477 -37.55625 
L 129.677526 -37.55625 
L 130.369576 -37.55625 
L 131.061625 -37.55625 
L 131.753675 -37.55625 
L 132.445724 -37.55625 
L 133.137774 -37.55625 
L 133.829823 -37.55625 
L 134.521873 -37.55625 
L 135.213922 -37.55625 
L 135.905972 -37.55625 
L 136.598021 -37.55625 
L 137.29007 -37.55625 
L 137.98212 -37.55625 
L 138.674169 -37.55625 
L 139.366219 -37.55625 
L 140.058268 -37.55625 
L 140.750318 -37.55625 
L 141.442367 -37.55625 
L 142.134417 -37.55625 
L 142.826466 -37.55625 
L 143.518516 -37.55625 
L 144.210565 -37.55625 
L 144.902615 -37.55625 
L 145.594664 -37.55625 
L 146.286714 -37.55625 
L 146.978763 -37.55625 
L 147.670812 -37.55625 
L 148.362862 -37.55625 
L 149.054911 -37.55625 
L 149.746961 -37.55625 
L 150.43901 -37.55625 
L 151.13106 -37.55625 
L 151.823109 -37.55625 
L 152.515159 -37.55625 
L 153.207208 -37.55625 
L 153.899258 -37.55625 
L 154.591307 -37.55625 
L 155.283357 -37.55625 
L 155.975406 -37.55625 
L 156.667455 -37.55625 
L 157.359505 -37.55625 
L 158.051554 -37.55625 
L 158.743604 -37.55625 
L 159.435653 -37.55625 
L 160.127703 -37.55625 
L 160.819752 -37.55625 
L 161.511802 -37.55625 
L 162.203851 -37.55625 
L 162.895901 -37.55625 
L 163.58795 -37.55625 
L 164.28 -37.55625 
L 164.972049 -37.55625 
L 165.664099 -37.55625 
L 166.356148 -37.55625 
L 167.048197 -37.55625 
L 167.740247 -37.55625 
L 168.432296 -37.55625 
L 169.124346 -37.55625 
L 169.816395 -37.55625 
L 170.508445 -37.55625 
L 171.200494 -37.55625 
L 171.892544 -37.55625 
L 172.584593 -37.55625 
L 173.276643 -37.55625 
L 173.968692 -37.55625 
L 174.660742 -37.55625 
L 175.352791 -37.55625 
L 176.04484 -37.55625 
L 176.73689 -37.55625 
L 177.428939 -37.55625 
L 178.120989 -37.55625 
L 178.813038 -37.55625 
L 179.505088 -37.55625 
L 179.505088 -38.027827 
L 179.505088 -38.027827 
L 178.813038 -38.312342 
L 178.120989 -38.741509 
L 177.428939 -39.37298 
L 176.73689 -40.279143 
L 176.04484 -41.547059 
L 175.352791 -43.276459 
L 174.660742 -45.575205 
L 173.968692 -48.551801 
L 173.276643 -52.304934 
L 172.584593 -56.910489 
L 171.892544 -62.40714 
L 171.200494 -68.782182 
L 170.508445 -75.959739 
L 169.816395 -83.793632 
L 169.124346 -92.066962 
L 168.432296 -100.499782 
L 167.740247 -108.765129 
L 167.048197 -116.512417 
L 166.356148 -123.395859 
L 165.664099 -129.104548 
L 164.972049 -133.390327 
L 164.28 -136.089686 
L 163.58795 -137.136749 
L 162.895901 -136.565738 
L 162.203851 -134.502904 
L 161.511802 -131.149479 
L 160.819752 -126.758457 
L 160.127703 -121.608633 
L 159.435653 -115.979418 
L 158.743604 -110.129362 
L 158.051554 -104.280398 
L 157.359505 -98.608651 
L 156.667455 -93.24161 
L 155.975406 -88.260589 
L 155.283357 -83.706936 
L 154.591307 -79.590304 
L 153.899258 -75.897445 
L 153.207208 -72.600369 
L 152.515159 -69.66314 
L 151.823109 -67.047007 
L 151.13106 -64.713882 
L 150.43901 -62.628426 
L 149.746961 -60.759053 
L 149.054911 -59.078222 
L 148.362862 -57.562284 
L 147.670812 -56.191109 
L 146.978763 -54.947625 
L 146.286714 -53.817344 
L 145.594664 -52.787913 
L 144.902615 -51.848696 
L 144.210565 -50.9904 
L 143.518516 -50.204749 
L 142.826466 -49.48422 
L 142.134417 -48.82184 
L 141.442367 -48.211056 
L 140.750318 -47.645689 
L 140.058268 -47.119954 
L 139.366219 -46.62854 
L 138.674169 -46.166739 
L 137.98212 -45.730583 
L 137.29007 -45.316978 
L 136.598021 -44.9238 
L 135.905972 -44.549923 
L 135.213922 -44.195184 
L 134.521873 -43.860255 
L 133.829823 -43.546448 
L 133.137774 -43.255451 
L 132.445724 -42.989042 
L 131.753675 -42.748794 
L 131.061625 -42.535813 
L 130.369576 -42.350533 
L 129.677526 -42.192593 
L 128.985477 -42.060796 
L 128.293427 -41.953153 
L 127.601378 -41.866994 
L 126.909329 -41.799132 
L 126.217279 -41.746041 
L 125.52523 -41.704036 
L 124.83318 -41.66944 
L 124.141131 -41.638713 
L 123.449081 -41.608559 
L 122.757032 -41.576004 
L 122.064982 -41.538466 
L 121.372933 -41.493812 
L 120.680883 -41.440427 
L 119.988834 -41.377279 
L 119.296784 -41.303972 
L 118.604735 -41.220784 
L 117.912686 -41.128663 
L 117.220636 -41.029168 
L 116.528587 -40.924349 
L 115.836537 -40.816563 
L 115.144488 -40.708254 
L 114.452438 -40.601698 
L 113.760389 -40.498782 
L 113.068339 -40.400819 
L 112.37629 -40.308451 
L 111.68424 -40.221649 
L 110.992191 -40.139815 
L 110.300141 -40.061972 
L 109.608092 -39.987005 
L 108.916042 -39.913923 
L 108.223993 -39.842084 
L 107.531944 -39.771354 
L 106.839894 -39.702169 
L 106.147845 -39.635489 
L 105.455795 -39.57266 
L 104.763746 -39.515199 
L 104.071696 -39.464544 
L 103.379647 -39.421815 
L 102.687597 -39.38762 
L 101.995548 -39.361943 
L 101.303498 -39.344117 
L 100.611449 -39.332908 
L 99.919399 -39.326669 
L 99.22735 -39.323553 
L 98.535301 -39.321752 
L 97.843251 -39.319715 
L 97.151202 -39.316329 
L 96.459152 -39.311024 
L 95.767103 -39.303813 
L 95.075053 -39.295238 
L 94.383004 -39.286269 
L 93.690954 -39.27814 
L 92.998905 -39.272166 
L 92.306855 -39.269563 
L 91.614806 -39.271276 
L 90.922756 -39.277856 
L 90.230707 -39.289365 
L 89.538657 -39.305349 
L 88.846608 -39.324849 
L 88.154559 -39.346465 
L 87.462509 -39.368466 
L 86.77046 -39.38893 
L 86.07841 -39.405908 
L 85.386361 -39.417602 
L 84.694311 -39.42253 
L 84.002262 -39.419669 
L 83.310212 -39.40856 
L 82.618163 -39.389351 
L 81.926113 -39.362775 
L 81.234064 -39.330065 
L 80.542014 -39.292812 
L 79.849965 -39.252787 
L 79.157916 -39.211759 
L 78.465866 -39.171324 
L 77.773817 -39.132791 
L 77.081767 -39.097131 
L 76.389718 -39.064994 
L 75.697668 -39.036799 
L 75.005619 -39.01286 
L 74.313569 -38.993537 
L 73.62152 -38.979369 
L 72.92947 -38.97118 
L 72.237421 -38.970111 
L 71.545371 -38.977613 
L 70.853322 -38.99536 
L 70.161272 -39.025136 
L 69.469223 -39.068683 
L 68.777174 -39.127543 
L 68.085124 -39.202903 
L 67.393075 -39.295439 
L 66.701025 -39.405184 
L 66.008976 -39.531385 
L 65.316926 -39.672376 
L 64.624877 -39.825466 
L 63.932827 -39.986844 
L 63.240778 -40.151545 
L 62.548728 -40.313493 
L 61.856679 -40.465663 
L 61.164629 -40.600372 
L 60.47258 -40.709709 
L 59.780531 -40.786092 
L 59.088481 -40.822889 
L 58.396432 -40.815051 
L 57.704382 -40.759671 
L 57.012333 -40.656382 
L 56.320283 -40.507534 
L 55.628234 -40.318106 
L 54.936184 -40.095359 
L 54.244135 -39.84825 
L 53.552085 -39.586698 
L 52.860036 -39.320783 
L 52.167986 -39.059965 
L 51.475937 -38.812442 
L 50.783887 -38.584679 
L 50.091838 -38.381162 
L 49.399789 -38.204371 
L 48.707739 -38.054939 
L 48.01569 -37.931956 
L 47.32364 -37.833352 
L 46.631591 -37.7563 
L 45.939541 -37.697598 
L 45.247492 -37.653982 
L 44.555442 -37.62237 
L 43.863393 -37.600015 
L 43.171343 -37.58459 
L 42.479294 -37.574201 
L 41.787244 -37.567372 
z
" style="stroke: #ff7f0e"/>
    </defs>
    <g clip-path="url(#p8c5758e377)">
     <use xlink:href="#mda7f6a00da" x="0" y="199.98825" style="fill: #ff7f0e; fill-opacity: 0.6; stroke: #ff7f0e"/>
    </g>
   </g>
   <g id="matplotlib.axis_1">
    <g id="xtick_1">
     <g id="line2d_1">
      <defs>
       <path id="m7d79dbb887" d="M 0 0 
L 0 3.5 
" style="stroke: #000000; stroke-width: 0.8"/>
      </defs>
      <g>
       <use xlink:href="#m7d79dbb887" x="55.125594" y="162.432" style="stroke: #000000; stroke-width: 0.8"/>
      </g>
     </g>
     <g id="text_1">
      <!-- 0.0 -->
      <g transform="translate(47.174032 177.030437) scale(0.1 -0.1)">
       <defs>
        <path id="DejaVuSans-30" d="M 2034 4250 
Q 1547 4250 1301 3770 
Q 1056 3291 1056 2328 
Q 1056 1369 1301 889 
Q 1547 409 2034 409 
Q 2525 409 2770 889 
Q 3016 1369 3016 2328 
Q 3016 3291 2770 3770 
Q 2525 4250 2034 4250 
z
M 2034 4750 
Q 2819 4750 3233 4129 
Q 3647 3509 3647 2328 
Q 3647 1150 3233 529 
Q 2819 -91 2034 -91 
Q 1250 -91 836 529 
Q 422 1150 422 2328 
Q 422 3509 836 4129 
Q 1250 4750 2034 4750 
z
" transform="scale(0.015625)"/>
        <path id="DejaVuSans-2e" d="M 684 794 
L 1344 794 
L 1344 0 
L 684 0 
L 684 794 
z
" transform="scale(0.015625)"/>
       </defs>
       <use xlink:href="#DejaVuSans-30"/>
       <use xlink:href="#DejaVuSans-2e" x="63.623047"/>
       <use xlink:href="#DejaVuSans-30" x="95.410156"/>
      </g>
     </g>
    </g>
    <g id="xtick_2">
     <g id="line2d_2">
      <g>
       <use xlink:href="#m7d79dbb887" x="110.682176" y="162.432" style="stroke: #000000; stroke-width: 0.8"/>
      </g>
     </g>
     <g id="text_2">
      <!-- 0.5 -->
      <g transform="translate(102.730613 177.030437) scale(0.1 -0.1)">
       <defs>
        <path id="DejaVuSans-35" d="M 691 4666 
L 3169 4666 
L 3169 4134 
L 1269 4134 
L 1269 2991 
Q 1406 3038 1543 3061 
Q 1681 3084 1819 3084 
Q 2600 3084 3056 2656 
Q 3513 2228 3513 1497 
Q 3513 744 3044 326 
Q 2575 -91 1722 -91 
Q 1428 -91 1123 -41 
Q 819 9 494 109 
L 494 744 
Q 775 591 1075 516 
Q 1375 441 1709 441 
Q 2250 441 2565 725 
Q 2881 1009 2881 1497 
Q 2881 1984 2565 2268 
Q 2250 2553 1709 2553 
Q 1456 2553 1204 2497 
Q 953 2441 691 2322 
L 691 4666 
z
" transform="scale(0.015625)"/>
       </defs>
       <use xlink:href="#DejaVuSans-30"/>
       <use xlink:href="#DejaVuSans-2e" x="63.623047"/>
       <use xlink:href="#DejaVuSans-35" x="95.410156"/>
      </g>
     </g>
    </g>
    <g id="xtick_3">
     <g id="line2d_3">
      <g>
       <use xlink:href="#m7d79dbb887" x="166.238757" y="162.432" style="stroke: #000000; stroke-width: 0.8"/>
      </g>
     </g>
     <g id="text_3">
      <!-- 1.0 -->
      <g transform="translate(158.287195 177.030437) scale(0.1 -0.1)">
       <defs>
        <path id="DejaVuSans-31" d="M 794 531 
L 1825 531 
L 1825 4091 
L 703 3866 
L 703 4441 
L 1819 4666 
L 2450 4666 
L 2450 531 
L 3481 531 
L 3481 0 
L 794 0 
L 794 531 
z
" transform="scale(0.015625)"/>
       </defs>
       <use xlink:href="#DejaVuSans-31"/>
       <use xlink:href="#DejaVuSans-2e" x="63.623047"/>
       <use xlink:href="#DejaVuSans-30" x="95.410156"/>
      </g>
     </g>
    </g>
    <g id="text_4">
     <!-- MetaRNN -->
     <g transform="translate(86.961222 190.708562) scale(0.1 -0.1)">
      <defs>
       <path id="DejaVuSans-4d" d="M 628 4666 
L 1569 4666 
L 2759 1491 
L 3956 4666 
L 4897 4666 
L 4897 0 
L 4281 0 
L 4281 4097 
L 3078 897 
L 2444 897 
L 1241 4097 
L 1241 0 
L 628 0 
L 628 4666 
z
" transform="scale(0.015625)"/>
       <path id="DejaVuSans-65" d="M 3597 1894 
L 3597 1613 
L 953 1613 
Q 991 1019 1311 708 
Q 1631 397 2203 397 
Q 2534 397 2845 478 
Q 3156 559 3463 722 
L 3463 178 
Q 3153 47 2828 -22 
Q 2503 -91 2169 -91 
Q 1331 -91 842 396 
Q 353 884 353 1716 
Q 353 2575 817 3079 
Q 1281 3584 2069 3584 
Q 2775 3584 3186 3129 
Q 3597 2675 3597 1894 
z
M 3022 2063 
Q 3016 2534 2758 2815 
Q 2500 3097 2075 3097 
Q 1594 3097 1305 2825 
Q 1016 2553 972 2059 
L 3022 2063 
z
" transform="scale(0.015625)"/>
       <path id="DejaVuSans-74" d="M 1172 4494 
L 1172 3500 
L 2356 3500 
L 2356 3053 
L 1172 3053 
L 1172 1153 
Q 1172 725 1289 603 
Q 1406 481 1766 481 
L 2356 481 
L 2356 0 
L 1766 0 
Q 1100 0 847 248 
Q 594 497 594 1153 
L 594 3053 
L 172 3053 
L 172 3500 
L 594 3500 
L 594 4494 
L 1172 4494 
z
" transform="scale(0.015625)"/>
       <path id="DejaVuSans-61" d="M 2194 1759 
Q 1497 1759 1228 1600 
Q 959 1441 959 1056 
Q 959 750 1161 570 
Q 1363 391 1709 391 
Q 2188 391 2477 730 
Q 2766 1069 2766 1631 
L 2766 1759 
L 2194 1759 
z
M 3341 1997 
L 3341 0 
L 2766 0 
L 2766 531 
Q 2569 213 2275 61 
Q 1981 -91 1556 -91 
Q 1019 -91 701 211 
Q 384 513 384 1019 
Q 384 1609 779 1909 
Q 1175 2209 1959 2209 
L 2766 2209 
L 2766 2266 
Q 2766 2663 2505 2880 
Q 2244 3097 1772 3097 
Q 1472 3097 1187 3025 
Q 903 2953 641 2809 
L 641 3341 
Q 956 3463 1253 3523 
Q 1550 3584 1831 3584 
Q 2591 3584 2966 3190 
Q 3341 2797 3341 1997 
z
" transform="scale(0.015625)"/>
       <path id="DejaVuSans-52" d="M 2841 2188 
Q 3044 2119 3236 1894 
Q 3428 1669 3622 1275 
L 4263 0 
L 3584 0 
L 2988 1197 
Q 2756 1666 2539 1819 
Q 2322 1972 1947 1972 
L 1259 1972 
L 1259 0 
L 628 0 
L 628 4666 
L 2053 4666 
Q 2853 4666 3247 4331 
Q 3641 3997 3641 3322 
Q 3641 2881 3436 2590 
Q 3231 2300 2841 2188 
z
M 1259 4147 
L 1259 2491 
L 2053 2491 
Q 2509 2491 2742 2702 
Q 2975 2913 2975 3322 
Q 2975 3731 2742 3939 
Q 2509 4147 2053 4147 
L 1259 4147 
z
" transform="scale(0.015625)"/>
       <path id="DejaVuSans-4e" d="M 628 4666 
L 1478 4666 
L 3547 763 
L 3547 4666 
L 4159 4666 
L 4159 0 
L 3309 0 
L 1241 3903 
L 1241 0 
L 628 0 
L 628 4666 
z
" transform="scale(0.015625)"/>
      </defs>
      <use xlink:href="#DejaVuSans-4d"/>
      <use xlink:href="#DejaVuSans-65" x="86.279297"/>
      <use xlink:href="#DejaVuSans-74" x="147.802734"/>
      <use xlink:href="#DejaVuSans-61" x="187.011719"/>
      <use xlink:href="#DejaVuSans-52" x="248.291016"/>
      <use xlink:href="#DejaVuSans-4e" x="317.773438"/>
      <use xlink:href="#DejaVuSans-4e" x="392.578125"/>
     </g>
    </g>
   </g>
   <g id="matplotlib.axis_2">
    <g id="ytick_1">
     <g id="line2d_4">
      <defs>
       <path id="m8bdd722b09" d="M 0 0 
L -3.5 0 
" style="stroke: #000000; stroke-width: 0.8"/>
      </defs>
      <g>
       <use xlink:href="#m8bdd722b09" x="34.240625" y="162.432" style="stroke: #000000; stroke-width: 0.8"/>
      </g>
     </g>
     <g id="text_5">
      <!-- 0 -->
      <g transform="translate(20.878125 166.231219) scale(0.1 -0.1)">
       <use xlink:href="#DejaVuSans-30"/>
      </g>
     </g>
    </g>
    <g id="ytick_2">
     <g id="line2d_5">
      <g>
       <use xlink:href="#m8bdd722b09" x="34.240625" y="129.171858" style="stroke: #000000; stroke-width: 0.8"/>
      </g>
     </g>
     <g id="text_6">
      <!-- 2 -->
      <g transform="translate(20.878125 132.971076) scale(0.1 -0.1)">
       <defs>
        <path id="DejaVuSans-32" d="M 1228 531 
L 3431 531 
L 3431 0 
L 469 0 
L 469 531 
Q 828 903 1448 1529 
Q 2069 2156 2228 2338 
Q 2531 2678 2651 2914 
Q 2772 3150 2772 3378 
Q 2772 3750 2511 3984 
Q 2250 4219 1831 4219 
Q 1534 4219 1204 4116 
Q 875 4013 500 3803 
L 500 4441 
Q 881 4594 1212 4672 
Q 1544 4750 1819 4750 
Q 2544 4750 2975 4387 
Q 3406 4025 3406 3419 
Q 3406 3131 3298 2873 
Q 3191 2616 2906 2266 
Q 2828 2175 2409 1742 
Q 1991 1309 1228 531 
z
" transform="scale(0.015625)"/>
       </defs>
       <use xlink:href="#DejaVuSans-32"/>
      </g>
     </g>
    </g>
    <g id="ytick_3">
     <g id="line2d_6">
      <g>
       <use xlink:href="#m8bdd722b09" x="34.240625" y="95.911715" style="stroke: #000000; stroke-width: 0.8"/>
      </g>
     </g>
     <g id="text_7">
      <!-- 4 -->
      <g transform="translate(20.878125 99.710934) scale(0.1 -0.1)">
       <defs>
        <path id="DejaVuSans-34" d="M 2419 4116 
L 825 1625 
L 2419 1625 
L 2419 4116 
z
M 2253 4666 
L 3047 4666 
L 3047 1625 
L 3713 1625 
L 3713 1100 
L 3047 1100 
L 3047 0 
L 2419 0 
L 2419 1100 
L 313 1100 
L 313 1709 
L 2253 4666 
z
" transform="scale(0.015625)"/>
       </defs>
       <use xlink:href="#DejaVuSans-34"/>
      </g>
     </g>
    </g>
    <g id="ytick_4">
     <g id="line2d_7">
      <g>
       <use xlink:href="#m8bdd722b09" x="34.240625" y="62.651573" style="stroke: #000000; stroke-width: 0.8"/>
      </g>
     </g>
     <g id="text_8">
      <!-- 6 -->
      <g transform="translate(20.878125 66.450792) scale(0.1 -0.1)">
       <defs>
        <path id="DejaVuSans-36" d="M 2113 2584 
Q 1688 2584 1439 2293 
Q 1191 2003 1191 1497 
Q 1191 994 1439 701 
Q 1688 409 2113 409 
Q 2538 409 2786 701 
Q 3034 994 3034 1497 
Q 3034 2003 2786 2293 
Q 2538 2584 2113 2584 
z
M 3366 4563 
L 3366 3988 
Q 3128 4100 2886 4159 
Q 2644 4219 2406 4219 
Q 1781 4219 1451 3797 
Q 1122 3375 1075 2522 
Q 1259 2794 1537 2939 
Q 1816 3084 2150 3084 
Q 2853 3084 3261 2657 
Q 3669 2231 3669 1497 
Q 3669 778 3244 343 
Q 2819 -91 2113 -91 
Q 1303 -91 875 529 
Q 447 1150 447 2328 
Q 447 3434 972 4092 
Q 1497 4750 2381 4750 
Q 2619 4750 2861 4703 
Q 3103 4656 3366 4563 
z
" transform="scale(0.015625)"/>
       </defs>
       <use xlink:href="#DejaVuSans-36"/>
      </g>
     </g>
    </g>
    <g id="ytick_5">
     <g id="line2d_8">
      <g>
       <use xlink:href="#m8bdd722b09" x="34.240625" y="29.39143" style="stroke: #000000; stroke-width: 0.8"/>
      </g>
     </g>
     <g id="text_9">
      <!-- 8 -->
      <g transform="translate(20.878125 33.190649) scale(0.1 -0.1)">
       <defs>
        <path id="DejaVuSans-38" d="M 2034 2216 
Q 1584 2216 1326 1975 
Q 1069 1734 1069 1313 
Q 1069 891 1326 650 
Q 1584 409 2034 409 
Q 2484 409 2743 651 
Q 3003 894 3003 1313 
Q 3003 1734 2745 1975 
Q 2488 2216 2034 2216 
z
M 1403 2484 
Q 997 2584 770 2862 
Q 544 3141 544 3541 
Q 544 4100 942 4425 
Q 1341 4750 2034 4750 
Q 2731 4750 3128 4425 
Q 3525 4100 3525 3541 
Q 3525 3141 3298 2862 
Q 3072 2584 2669 2484 
Q 3125 2378 3379 2068 
Q 3634 1759 3634 1313 
Q 3634 634 3220 271 
Q 2806 -91 2034 -91 
Q 1263 -91 848 271 
Q 434 634 434 1313 
Q 434 1759 690 2068 
Q 947 2378 1403 2484 
z
M 1172 3481 
Q 1172 3119 1398 2916 
Q 1625 2713 2034 2713 
Q 2441 2713 2670 2916 
Q 2900 3119 2900 3481 
Q 2900 3844 2670 4047 
Q 2441 4250 2034 4250 
Q 1625 4250 1398 4047 
Q 1172 3844 1172 3481 
z
" transform="scale(0.015625)"/>
       </defs>
       <use xlink:href="#DejaVuSans-38"/>
      </g>
     </g>
    </g>
    <g id="text_10">
     <!-- Density -->
     <g transform="translate(14.798437 103.824594) rotate(-90) scale(0.1 -0.1)">
      <defs>
       <path id="DejaVuSans-44" d="M 1259 4147 
L 1259 519 
L 2022 519 
Q 2988 519 3436 956 
Q 3884 1394 3884 2338 
Q 3884 3275 3436 3711 
Q 2988 4147 2022 4147 
L 1259 4147 
z
M 628 4666 
L 1925 4666 
Q 3281 4666 3915 4102 
Q 4550 3538 4550 2338 
Q 4550 1131 3912 565 
Q 3275 0 1925 0 
L 628 0 
L 628 4666 
z
" transform="scale(0.015625)"/>
       <path id="DejaVuSans-6e" d="M 3513 2113 
L 3513 0 
L 2938 0 
L 2938 2094 
Q 2938 2591 2744 2837 
Q 2550 3084 2163 3084 
Q 1697 3084 1428 2787 
Q 1159 2491 1159 1978 
L 1159 0 
L 581 0 
L 581 3500 
L 1159 3500 
L 1159 2956 
Q 1366 3272 1645 3428 
Q 1925 3584 2291 3584 
Q 2894 3584 3203 3211 
Q 3513 2838 3513 2113 
z
" transform="scale(0.015625)"/>
       <path id="DejaVuSans-73" d="M 2834 3397 
L 2834 2853 
Q 2591 2978 2328 3040 
Q 2066 3103 1784 3103 
Q 1356 3103 1142 2972 
Q 928 2841 928 2578 
Q 928 2378 1081 2264 
Q 1234 2150 1697 2047 
L 1894 2003 
Q 2506 1872 2764 1633 
Q 3022 1394 3022 966 
Q 3022 478 2636 193 
Q 2250 -91 1575 -91 
Q 1294 -91 989 -36 
Q 684 19 347 128 
L 347 722 
Q 666 556 975 473 
Q 1284 391 1588 391 
Q 1994 391 2212 530 
Q 2431 669 2431 922 
Q 2431 1156 2273 1281 
Q 2116 1406 1581 1522 
L 1381 1569 
Q 847 1681 609 1914 
Q 372 2147 372 2553 
Q 372 3047 722 3315 
Q 1072 3584 1716 3584 
Q 2034 3584 2315 3537 
Q 2597 3491 2834 3397 
z
" transform="scale(0.015625)"/>
       <path id="DejaVuSans-69" d="M 603 3500 
L 1178 3500 
L 1178 0 
L 603 0 
L 603 3500 
z
M 603 4863 
L 1178 4863 
L 1178 4134 
L 603 4134 
L 603 4863 
z
" transform="scale(0.015625)"/>
       <path id="DejaVuSans-79" d="M 2059 -325 
Q 1816 -950 1584 -1140 
Q 1353 -1331 966 -1331 
L 506 -1331 
L 506 -850 
L 844 -850 
Q 1081 -850 1212 -737 
Q 1344 -625 1503 -206 
L 1606 56 
L 191 3500 
L 800 3500 
L 1894 763 
L 2988 3500 
L 3597 3500 
L 2059 -325 
z
" transform="scale(0.015625)"/>
      </defs>
      <use xlink:href="#DejaVuSans-44"/>
      <use xlink:href="#DejaVuSans-65" x="77.001953"/>
      <use xlink:href="#DejaVuSans-6e" x="138.525391"/>
      <use xlink:href="#DejaVuSans-73" x="201.904297"/>
      <use xlink:href="#DejaVuSans-69" x="254.003906"/>
      <use xlink:href="#DejaVuSans-74" x="281.787109"/>
      <use xlink:href="#DejaVuSans-79" x="320.996094"/>
     </g>
    </g>
   </g>
   <g id="patch_3">
    <path d="M 34.240625 162.432 
L 34.240625 7.2 
" style="fill: none; stroke: #000000; stroke-width: 0.8; stroke-linejoin: miter; stroke-linecap: square"/>
   </g>
   <g id="patch_4">
    <path d="M 186.422443 162.432 
L 186.422443 7.2 
" style="fill: none; stroke: #000000; stroke-width: 0.8; stroke-linejoin: miter; stroke-linecap: square"/>
   </g>
   <g id="patch_5">
    <path d="M 34.240625 162.432 
L 186.422443 162.432 
" style="fill: none; stroke: #000000; stroke-width: 0.8; stroke-linejoin: miter; stroke-linecap: square"/>
   </g>
   <g id="patch_6">
    <path d="M 34.240625 7.2 
L 186.422443 7.2 
" style="fill: none; stroke: #000000; stroke-width: 0.8; stroke-linejoin: miter; stroke-linecap: square"/>
   </g>
   <g id="legend_1">
    <g id="patch_7">
     <path d="M 120.482443 33.349375 
L 181.522443 33.349375 
Q 182.922443 33.349375 182.922443 31.949375 
L 182.922443 12.1 
Q 182.922443 10.7 181.522443 10.7 
L 120.482443 10.7 
Q 119.082443 10.7 119.082443 12.1 
L 119.082443 31.949375 
Q 119.082443 33.349375 120.482443 33.349375 
z
" style="fill: #ffffff; opacity: 0.8; stroke: #cccccc; stroke-linejoin: miter"/>
    </g>
    <g id="patch_8">
     <path d="M 121.882443 18.818906 
L 135.882443 18.818906 
L 135.882443 13.918906 
L 121.882443 13.918906 
z
" style="fill: #1f77b4; fill-opacity: 0.6; stroke: #1f77b4; stroke-linejoin: miter"/>
    </g>
    <g id="text_11">
     <!-- Benign -->
     <g transform="translate(141.482443 18.818906) scale(0.07 -0.07)">
      <defs>
       <path id="DejaVuSans-42" d="M 1259 2228 
L 1259 519 
L 2272 519 
Q 2781 519 3026 730 
Q 3272 941 3272 1375 
Q 3272 1813 3026 2020 
Q 2781 2228 2272 2228 
L 1259 2228 
z
M 1259 4147 
L 1259 2741 
L 2194 2741 
Q 2656 2741 2882 2914 
Q 3109 3088 3109 3444 
Q 3109 3797 2882 3972 
Q 2656 4147 2194 4147 
L 1259 4147 
z
M 628 4666 
L 2241 4666 
Q 2963 4666 3353 4366 
Q 3744 4066 3744 3513 
Q 3744 3084 3544 2831 
Q 3344 2578 2956 2516 
Q 3422 2416 3680 2098 
Q 3938 1781 3938 1306 
Q 3938 681 3513 340 
Q 3088 0 2303 0 
L 628 0 
L 628 4666 
z
" transform="scale(0.015625)"/>
       <path id="DejaVuSans-67" d="M 2906 1791 
Q 2906 2416 2648 2759 
Q 2391 3103 1925 3103 
Q 1463 3103 1205 2759 
Q 947 2416 947 1791 
Q 947 1169 1205 825 
Q 1463 481 1925 481 
Q 2391 481 2648 825 
Q 2906 1169 2906 1791 
z
M 3481 434 
Q 3481 -459 3084 -895 
Q 2688 -1331 1869 -1331 
Q 1566 -1331 1297 -1286 
Q 1028 -1241 775 -1147 
L 775 -588 
Q 1028 -725 1275 -790 
Q 1522 -856 1778 -856 
Q 2344 -856 2625 -561 
Q 2906 -266 2906 331 
L 2906 616 
Q 2728 306 2450 153 
Q 2172 0 1784 0 
Q 1141 0 747 490 
Q 353 981 353 1791 
Q 353 2603 747 3093 
Q 1141 3584 1784 3584 
Q 2172 3584 2450 3431 
Q 2728 3278 2906 2969 
L 2906 3500 
L 3481 3500 
L 3481 434 
z
" transform="scale(0.015625)"/>
      </defs>
      <use xlink:href="#DejaVuSans-42"/>
      <use xlink:href="#DejaVuSans-65" x="68.603516"/>
      <use xlink:href="#DejaVuSans-6e" x="130.126953"/>
      <use xlink:href="#DejaVuSans-69" x="193.505859"/>
      <use xlink:href="#DejaVuSans-67" x="221.289062"/>
      <use xlink:href="#DejaVuSans-6e" x="284.765625"/>
     </g>
    </g>
    <g id="patch_9">
     <path d="M 121.882443 29.093594 
L 135.882443 29.093594 
L 135.882443 24.193594 
L 121.882443 24.193594 
z
" style="fill: #ff7f0e; fill-opacity: 0.6; stroke: #ff7f0e; stroke-linejoin: miter"/>
    </g>
    <g id="text_12">
     <!-- Pathogenic -->
     <g transform="translate(141.482443 29.093594) scale(0.07 -0.07)">
      <defs>
       <path id="DejaVuSans-50" d="M 1259 4147 
L 1259 2394 
L 2053 2394 
Q 2494 2394 2734 2622 
Q 2975 2850 2975 3272 
Q 2975 3691 2734 3919 
Q 2494 4147 2053 4147 
L 1259 4147 
z
M 628 4666 
L 2053 4666 
Q 2838 4666 3239 4311 
Q 3641 3956 3641 3272 
Q 3641 2581 3239 2228 
Q 2838 1875 2053 1875 
L 1259 1875 
L 1259 0 
L 628 0 
L 628 4666 
z
" transform="scale(0.015625)"/>
       <path id="DejaVuSans-68" d="M 3513 2113 
L 3513 0 
L 2938 0 
L 2938 2094 
Q 2938 2591 2744 2837 
Q 2550 3084 2163 3084 
Q 1697 3084 1428 2787 
Q 1159 2491 1159 1978 
L 1159 0 
L 581 0 
L 581 4863 
L 1159 4863 
L 1159 2956 
Q 1366 3272 1645 3428 
Q 1925 3584 2291 3584 
Q 2894 3584 3203 3211 
Q 3513 2838 3513 2113 
z
" transform="scale(0.015625)"/>
       <path id="DejaVuSans-6f" d="M 1959 3097 
Q 1497 3097 1228 2736 
Q 959 2375 959 1747 
Q 959 1119 1226 758 
Q 1494 397 1959 397 
Q 2419 397 2687 759 
Q 2956 1122 2956 1747 
Q 2956 2369 2687 2733 
Q 2419 3097 1959 3097 
z
M 1959 3584 
Q 2709 3584 3137 3096 
Q 3566 2609 3566 1747 
Q 3566 888 3137 398 
Q 2709 -91 1959 -91 
Q 1206 -91 779 398 
Q 353 888 353 1747 
Q 353 2609 779 3096 
Q 1206 3584 1959 3584 
z
" transform="scale(0.015625)"/>
       <path id="DejaVuSans-63" d="M 3122 3366 
L 3122 2828 
Q 2878 2963 2633 3030 
Q 2388 3097 2138 3097 
Q 1578 3097 1268 2742 
Q 959 2388 959 1747 
Q 959 1106 1268 751 
Q 1578 397 2138 397 
Q 2388 397 2633 464 
Q 2878 531 3122 666 
L 3122 134 
Q 2881 22 2623 -34 
Q 2366 -91 2075 -91 
Q 1284 -91 818 406 
Q 353 903 353 1747 
Q 353 2603 823 3093 
Q 1294 3584 2113 3584 
Q 2378 3584 2631 3529 
Q 2884 3475 3122 3366 
z
" transform="scale(0.015625)"/>
      </defs>
      <use xlink:href="#DejaVuSans-50"/>
      <use xlink:href="#DejaVuSans-61" x="55.802734"/>
      <use xlink:href="#DejaVuSans-74" x="117.082031"/>
      <use xlink:href="#DejaVuSans-68" x="156.291016"/>
      <use xlink:href="#DejaVuSans-6f" x="219.669922"/>
      <use xlink:href="#DejaVuSans-67" x="280.851562"/>
      <use xlink:href="#DejaVuSans-65" x="344.328125"/>
      <use xlink:href="#DejaVuSans-6e" x="405.851562"/>
      <use xlink:href="#DejaVuSans-69" x="469.230469"/>
      <use xlink:href="#DejaVuSans-63" x="497.013672"/>
     </g>
    </g>
   </g>
  </g>
  <g id="axes_2">
   <g id="patch_10">
    <path d="M 216.858807 162.432 
L 369.040625 162.432 
L 369.040625 7.2 
L 216.858807 7.2 
z
" style="fill: #ffffff"/>
   </g>
   <g id="PolyCollection_3">
    <defs>
     <path id="m2e46b93658" d="M 227.631962 -38.766857 
L 227.631962 -37.55625 
L 228.286715 -37.55625 
L 228.941468 -37.55625 
L 229.596221 -37.55625 
L 230.250974 -37.55625 
L 230.905727 -37.55625 
L 231.56048 -37.55625 
L 232.215233 -37.55625 
L 232.869986 -37.55625 
L 233.524739 -37.55625 
L 234.179492 -37.55625 
L 234.834245 -37.55625 
L 235.488998 -37.55625 
L 236.143751 -37.55625 
L 236.798504 -37.55625 
L 237.453258 -37.55625 
L 238.108011 -37.55625 
L 238.762764 -37.55625 
L 239.417517 -37.55625 
L 240.07227 -37.55625 
L 240.727023 -37.55625 
L 241.381776 -37.55625 
L 242.036529 -37.55625 
L 242.691282 -37.55625 
L 243.346035 -37.55625 
L 244.000788 -37.55625 
L 244.655541 -37.55625 
L 245.310294 -37.55625 
L 245.965047 -37.55625 
L 246.6198 -37.55625 
L 247.274553 -37.55625 
L 247.929306 -37.55625 
L 248.584059 -37.55625 
L 249.238812 -37.55625 
L 249.893565 -37.55625 
L 250.548318 -37.55625 
L 251.203071 -37.55625 
L 251.857824 -37.55625 
L 252.512577 -37.55625 
L 253.16733 -37.55625 
L 253.822083 -37.55625 
L 254.476836 -37.55625 
L 255.131589 -37.55625 
L 255.786342 -37.55625 
L 256.441095 -37.55625 
L 257.095848 -37.55625 
L 257.750601 -37.55625 
L 258.405354 -37.55625 
L 259.060107 -37.55625 
L 259.71486 -37.55625 
L 260.369613 -37.55625 
L 261.024366 -37.55625 
L 261.67912 -37.55625 
L 262.333873 -37.55625 
L 262.988626 -37.55625 
L 263.643379 -37.55625 
L 264.298132 -37.55625 
L 264.952885 -37.55625 
L 265.607638 -37.55625 
L 266.262391 -37.55625 
L 266.917144 -37.55625 
L 267.571897 -37.55625 
L 268.22665 -37.55625 
L 268.881403 -37.55625 
L 269.536156 -37.55625 
L 270.190909 -37.55625 
L 270.845662 -37.55625 
L 271.500415 -37.55625 
L 272.155168 -37.55625 
L 272.809921 -37.55625 
L 273.464674 -37.55625 
L 274.119427 -37.55625 
L 274.77418 -37.55625 
L 275.428933 -37.55625 
L 276.083686 -37.55625 
L 276.738439 -37.55625 
L 277.393192 -37.55625 
L 278.047945 -37.55625 
L 278.702698 -37.55625 
L 279.357451 -37.55625 
L 280.012204 -37.55625 
L 280.666957 -37.55625 
L 281.32171 -37.55625 
L 281.976463 -37.55625 
L 282.631216 -37.55625 
L 283.285969 -37.55625 
L 283.940722 -37.55625 
L 284.595475 -37.55625 
L 285.250228 -37.55625 
L 285.904981 -37.55625 
L 286.559735 -37.55625 
L 287.214488 -37.55625 
L 287.869241 -37.55625 
L 288.523994 -37.55625 
L 289.178747 -37.55625 
L 289.8335 -37.55625 
L 290.488253 -37.55625 
L 291.143006 -37.55625 
L 291.797759 -37.55625 
L 292.452512 -37.55625 
L 293.107265 -37.55625 
L 293.762018 -37.55625 
L 294.416771 -37.55625 
L 295.071524 -37.55625 
L 295.726277 -37.55625 
L 296.38103 -37.55625 
L 297.035783 -37.55625 
L 297.690536 -37.55625 
L 298.345289 -37.55625 
L 299.000042 -37.55625 
L 299.654795 -37.55625 
L 300.309548 -37.55625 
L 300.964301 -37.55625 
L 301.619054 -37.55625 
L 302.273807 -37.55625 
L 302.92856 -37.55625 
L 303.583313 -37.55625 
L 304.238066 -37.55625 
L 304.892819 -37.55625 
L 305.547572 -37.55625 
L 306.202325 -37.55625 
L 306.857078 -37.55625 
L 307.511831 -37.55625 
L 308.166584 -37.55625 
L 308.821337 -37.55625 
L 309.47609 -37.55625 
L 310.130843 -37.55625 
L 310.785597 -37.55625 
L 311.44035 -37.55625 
L 312.095103 -37.55625 
L 312.749856 -37.55625 
L 313.404609 -37.55625 
L 314.059362 -37.55625 
L 314.714115 -37.55625 
L 315.368868 -37.55625 
L 316.023621 -37.55625 
L 316.678374 -37.55625 
L 317.333127 -37.55625 
L 317.98788 -37.55625 
L 318.642633 -37.55625 
L 319.297386 -37.55625 
L 319.952139 -37.55625 
L 320.606892 -37.55625 
L 321.261645 -37.55625 
L 321.916398 -37.55625 
L 322.571151 -37.55625 
L 323.225904 -37.55625 
L 323.880657 -37.55625 
L 324.53541 -37.55625 
L 325.190163 -37.55625 
L 325.844916 -37.55625 
L 326.499669 -37.55625 
L 327.154422 -37.55625 
L 327.809175 -37.55625 
L 328.463928 -37.55625 
L 329.118681 -37.55625 
L 329.773434 -37.55625 
L 330.428187 -37.55625 
L 331.08294 -37.55625 
L 331.737693 -37.55625 
L 332.392446 -37.55625 
L 333.047199 -37.55625 
L 333.701952 -37.55625 
L 334.356705 -37.55625 
L 335.011458 -37.55625 
L 335.666212 -37.55625 
L 336.320965 -37.55625 
L 336.975718 -37.55625 
L 337.630471 -37.55625 
L 338.285224 -37.55625 
L 338.939977 -37.55625 
L 339.59473 -37.55625 
L 340.249483 -37.55625 
L 340.904236 -37.55625 
L 341.558989 -37.55625 
L 342.213742 -37.55625 
L 342.868495 -37.55625 
L 343.523248 -37.55625 
L 344.178001 -37.55625 
L 344.832754 -37.55625 
L 345.487507 -37.55625 
L 346.14226 -37.55625 
L 346.797013 -37.55625 
L 347.451766 -37.55625 
L 348.106519 -37.55625 
L 348.761272 -37.55625 
L 349.416025 -37.55625 
L 350.070778 -37.55625 
L 350.725531 -37.55625 
L 351.380284 -37.55625 
L 352.035037 -37.55625 
L 352.68979 -37.55625 
L 353.344543 -37.55625 
L 353.999296 -37.55625 
L 354.654049 -37.55625 
L 355.308802 -37.55625 
L 355.963555 -37.55625 
L 356.618308 -37.55625 
L 357.273061 -37.55625 
L 357.927814 -37.55625 
L 357.927814 -37.561854 
L 357.927814 -37.561854 
L 357.273061 -37.565574 
L 356.618308 -37.571394 
L 355.963555 -37.580264 
L 355.308802 -37.593433 
L 354.654049 -37.612481 
L 353.999296 -37.639321 
L 353.344543 -37.676159 
L 352.68979 -37.725414 
L 352.035037 -37.789564 
L 351.380284 -37.870947 
L 350.725531 -37.971512 
L 350.070778 -38.092552 
L 349.416025 -38.234443 
L 348.761272 -38.396439 
L 348.106519 -38.576555 
L 347.451766 -38.771572 
L 346.797013 -38.977183 
L 346.14226 -39.188265 
L 345.487507 -39.399269 
L 344.832754 -39.604677 
L 344.178001 -39.799459 
L 343.523248 -39.979494 
L 342.868495 -40.141883 
L 342.213742 -40.285121 
L 341.558989 -40.409118 
L 340.904236 -40.515063 
L 340.249483 -40.605164 
L 339.59473 -40.682308 
L 338.939977 -40.749674 
L 338.285224 -40.810367 
L 337.630471 -40.867109 
L 336.975718 -40.922007 
L 336.320965 -40.976427 
L 335.666212 -41.030963 
L 335.011458 -41.085495 
L 334.356705 -41.139305 
L 333.701952 -41.191232 
L 333.047199 -41.239842 
L 332.392446 -41.283592 
L 331.737693 -41.320973 
L 331.08294 -41.350639 
L 330.428187 -41.371504 
L 329.773434 -41.382828 
L 329.118681 -41.384267 
L 328.463928 -41.375911 
L 327.809175 -41.358284 
L 327.154422 -41.332314 
L 326.499669 -41.299266 
L 325.844916 -41.260641 
L 325.190163 -41.218048 
L 324.53541 -41.173075 
L 323.880657 -41.127163 
L 323.225904 -41.081499 
L 322.571151 -41.03696 
L 321.916398 -40.994089 
L 321.261645 -40.953115 
L 320.606892 -40.914003 
L 319.952139 -40.876522 
L 319.297386 -40.840311 
L 318.642633 -40.804941 
L 317.98788 -40.769968 
L 317.333127 -40.734964 
L 316.678374 -40.69955 
L 316.023621 -40.66342 
L 315.368868 -40.626366 
L 314.714115 -40.588305 
L 314.059362 -40.549311 
L 313.404609 -40.509628 
L 312.749856 -40.469684 
L 312.095103 -40.430075 
L 311.44035 -40.39154 
L 310.785597 -40.354908 
L 310.130843 -40.321041 
L 309.47609 -40.290763 
L 308.821337 -40.264795 
L 308.166584 -40.243697 
L 307.511831 -40.227823 
L 306.857078 -40.217288 
L 306.202325 -40.211961 
L 305.547572 -40.211463 
L 304.892819 -40.215193 
L 304.238066 -40.222358 
L 303.583313 -40.232032 
L 302.92856 -40.24321 
L 302.273807 -40.254887 
L 301.619054 -40.266127 
L 300.964301 -40.276138 
L 300.309548 -40.284326 
L 299.654795 -40.290331 
L 299.000042 -40.294037 
L 298.345289 -40.295551 
L 297.690536 -40.295148 
L 297.035783 -40.293198 
L 296.38103 -40.290075 
L 295.726277 -40.286064 
L 295.071524 -40.281285 
L 294.416771 -40.275639 
L 293.762018 -40.268796 
L 293.107265 -40.260228 
L 292.452512 -40.249283 
L 291.797759 -40.235298 
L 291.143006 -40.21773 
L 290.488253 -40.196292 
L 289.8335 -40.171076 
L 289.178747 -40.142636 
L 288.523994 -40.112024 
L 287.869241 -40.080764 
L 287.214488 -40.050781 
L 286.559735 -40.024269 
L 285.904981 -40.003524 
L 285.250228 -39.990753 
L 284.595475 -39.987876 
L 283.940722 -39.996332 
L 283.285969 -40.016919 
L 282.631216 -40.049671 
L 281.976463 -40.093802 
L 281.32171 -40.147727 
L 280.666957 -40.209171 
L 280.012204 -40.275355 
L 279.357451 -40.343267 
L 278.702698 -40.409978 
L 278.047945 -40.472965 
L 277.393192 -40.530409 
L 276.738439 -40.581412 
L 276.083686 -40.626108 
L 275.428933 -40.665644 
L 274.77418 -40.702021 
L 274.119427 -40.737838 
L 273.464674 -40.775942 
L 272.809921 -40.819067 
L 272.155168 -40.869484 
L 271.500415 -40.928731 
L 270.845662 -40.997447 
L 270.190909 -41.075331 
L 269.536156 -41.161233 
L 268.881403 -41.253351 
L 268.22665 -41.349506 
L 267.571897 -41.447461 
L 266.917144 -41.545226 
L 266.262391 -41.641333 
L 265.607638 -41.735036 
L 264.952885 -41.826429 
L 264.298132 -41.916483 
L 263.643379 -42.00701 
L 262.988626 -42.100566 
L 262.333873 -42.200332 
L 261.67912 -42.309977 
L 261.024366 -42.433551 
L 260.369613 -42.575413 
L 259.71486 -42.740238 
L 259.060107 -42.933128 
L 258.405354 -43.159871 
L 257.750601 -43.427396 
L 257.095848 -43.744492 
L 256.441095 -44.12286 
L 255.786342 -44.578582 
L 255.131589 -45.134083 
L 254.476836 -45.820638 
L 253.822083 -46.681411 
L 253.16733 -47.774878 
L 252.512577 -49.178325 
L 251.857824 -50.990824 
L 251.203071 -53.334811 
L 250.548318 -56.355092 
L 249.893565 -60.213914 
L 249.238812 -65.080818 
L 248.584059 -71.116327 
L 247.929306 -78.449419 
L 247.274553 -87.149927 
L 246.6198 -97.198601 
L 245.965047 -108.459075 
L 245.310294 -120.657172 
L 244.655541 -133.373261 
L 244.000788 -146.052551 
L 243.346035 -158.035977 
L 242.691282 -168.611083 
L 242.036529 -177.078402 
L 241.381776 -182.825232 
L 240.727023 -185.39625 
L 240.07227 -184.549813 
L 239.417517 -180.290433 
L 238.762764 -172.871606 
L 238.108011 -162.76814 
L 237.453258 -150.622369 
L 236.798504 -137.17294 
L 236.143751 -123.177393 
L 235.488998 -109.339936 
L 234.834245 -96.253935 
L 234.179492 -84.365101 
L 233.524739 -73.957271 
L 232.869986 -65.158791 
L 232.215233 -57.96468 
L 231.56048 -52.26831 
L 230.905727 -47.896277 
L 230.250974 -44.64121 
L 229.596221 -42.288917 
L 228.941468 -40.638118 
L 228.286715 -39.512615 
L 227.631962 -38.766857 
z
" style="stroke: #1f77b4"/>
    </defs>
    <g clip-path="url(#p9b0761e6ae)">
     <use xlink:href="#m2e46b93658" x="0" y="199.98825" style="fill: #1f77b4; fill-opacity: 0.6; stroke: #1f77b4"/>
    </g>
   </g>
   <g id="PolyCollection_4">
    <defs>
     <path id="m81b4e0552f" d="M 223.776162 -37.595106 
L 223.776162 -37.55625 
L 224.471374 -37.55625 
L 225.166585 -37.55625 
L 225.861797 -37.55625 
L 226.557009 -37.55625 
L 227.25222 -37.55625 
L 227.947432 -37.55625 
L 228.642643 -37.55625 
L 229.337855 -37.55625 
L 230.033067 -37.55625 
L 230.728278 -37.55625 
L 231.42349 -37.55625 
L 232.118701 -37.55625 
L 232.813913 -37.55625 
L 233.509125 -37.55625 
L 234.204336 -37.55625 
L 234.899548 -37.55625 
L 235.594759 -37.55625 
L 236.289971 -37.55625 
L 236.985182 -37.55625 
L 237.680394 -37.55625 
L 238.375606 -37.55625 
L 239.070817 -37.55625 
L 239.766029 -37.55625 
L 240.46124 -37.55625 
L 241.156452 -37.55625 
L 241.851664 -37.55625 
L 242.546875 -37.55625 
L 243.242087 -37.55625 
L 243.937298 -37.55625 
L 244.63251 -37.55625 
L 245.327722 -37.55625 
L 246.022933 -37.55625 
L 246.718145 -37.55625 
L 247.413356 -37.55625 
L 248.108568 -37.55625 
L 248.80378 -37.55625 
L 249.498991 -37.55625 
L 250.194203 -37.55625 
L 250.889414 -37.55625 
L 251.584626 -37.55625 
L 252.279838 -37.55625 
L 252.975049 -37.55625 
L 253.670261 -37.55625 
L 254.365472 -37.55625 
L 255.060684 -37.55625 
L 255.755896 -37.55625 
L 256.451107 -37.55625 
L 257.146319 -37.55625 
L 257.84153 -37.55625 
L 258.536742 -37.55625 
L 259.231954 -37.55625 
L 259.927165 -37.55625 
L 260.622377 -37.55625 
L 261.317588 -37.55625 
L 262.0128 -37.55625 
L 262.708012 -37.55625 
L 263.403223 -37.55625 
L 264.098435 -37.55625 
L 264.793646 -37.55625 
L 265.488858 -37.55625 
L 266.184069 -37.55625 
L 266.879281 -37.55625 
L 267.574493 -37.55625 
L 268.269704 -37.55625 
L 268.964916 -37.55625 
L 269.660127 -37.55625 
L 270.355339 -37.55625 
L 271.050551 -37.55625 
L 271.745762 -37.55625 
L 272.440974 -37.55625 
L 273.136185 -37.55625 
L 273.831397 -37.55625 
L 274.526609 -37.55625 
L 275.22182 -37.55625 
L 275.917032 -37.55625 
L 276.612243 -37.55625 
L 277.307455 -37.55625 
L 278.002667 -37.55625 
L 278.697878 -37.55625 
L 279.39309 -37.55625 
L 280.088301 -37.55625 
L 280.783513 -37.55625 
L 281.478725 -37.55625 
L 282.173936 -37.55625 
L 282.869148 -37.55625 
L 283.564359 -37.55625 
L 284.259571 -37.55625 
L 284.954783 -37.55625 
L 285.649994 -37.55625 
L 286.345206 -37.55625 
L 287.040417 -37.55625 
L 287.735629 -37.55625 
L 288.430841 -37.55625 
L 289.126052 -37.55625 
L 289.821264 -37.55625 
L 290.516475 -37.55625 
L 291.211687 -37.55625 
L 291.906899 -37.55625 
L 292.60211 -37.55625 
L 293.297322 -37.55625 
L 293.992533 -37.55625 
L 294.687745 -37.55625 
L 295.382956 -37.55625 
L 296.078168 -37.55625 
L 296.77338 -37.55625 
L 297.468591 -37.55625 
L 298.163803 -37.55625 
L 298.859014 -37.55625 
L 299.554226 -37.55625 
L 300.249438 -37.55625 
L 300.944649 -37.55625 
L 301.639861 -37.55625 
L 302.335072 -37.55625 
L 303.030284 -37.55625 
L 303.725496 -37.55625 
L 304.420707 -37.55625 
L 305.115919 -37.55625 
L 305.81113 -37.55625 
L 306.506342 -37.55625 
L 307.201554 -37.55625 
L 307.896765 -37.55625 
L 308.591977 -37.55625 
L 309.287188 -37.55625 
L 309.9824 -37.55625 
L 310.677612 -37.55625 
L 311.372823 -37.55625 
L 312.068035 -37.55625 
L 312.763246 -37.55625 
L 313.458458 -37.55625 
L 314.15367 -37.55625 
L 314.848881 -37.55625 
L 315.544093 -37.55625 
L 316.239304 -37.55625 
L 316.934516 -37.55625 
L 317.629728 -37.55625 
L 318.324939 -37.55625 
L 319.020151 -37.55625 
L 319.715362 -37.55625 
L 320.410574 -37.55625 
L 321.105786 -37.55625 
L 321.800997 -37.55625 
L 322.496209 -37.55625 
L 323.19142 -37.55625 
L 323.886632 -37.55625 
L 324.581843 -37.55625 
L 325.277055 -37.55625 
L 325.972267 -37.55625 
L 326.667478 -37.55625 
L 327.36269 -37.55625 
L 328.057901 -37.55625 
L 328.753113 -37.55625 
L 329.448325 -37.55625 
L 330.143536 -37.55625 
L 330.838748 -37.55625 
L 331.533959 -37.55625 
L 332.229171 -37.55625 
L 332.924383 -37.55625 
L 333.619594 -37.55625 
L 334.314806 -37.55625 
L 335.010017 -37.55625 
L 335.705229 -37.55625 
L 336.400441 -37.55625 
L 337.095652 -37.55625 
L 337.790864 -37.55625 
L 338.486075 -37.55625 
L 339.181287 -37.55625 
L 339.876499 -37.55625 
L 340.57171 -37.55625 
L 341.266922 -37.55625 
L 341.962133 -37.55625 
L 342.657345 -37.55625 
L 343.352557 -37.55625 
L 344.047768 -37.55625 
L 344.74298 -37.55625 
L 345.438191 -37.55625 
L 346.133403 -37.55625 
L 346.828615 -37.55625 
L 347.523826 -37.55625 
L 348.219038 -37.55625 
L 348.914249 -37.55625 
L 349.609461 -37.55625 
L 350.304673 -37.55625 
L 350.999884 -37.55625 
L 351.695096 -37.55625 
L 352.390307 -37.55625 
L 353.085519 -37.55625 
L 353.78073 -37.55625 
L 354.475942 -37.55625 
L 355.171154 -37.55625 
L 355.866365 -37.55625 
L 356.561577 -37.55625 
L 357.256788 -37.55625 
L 357.952 -37.55625 
L 358.647212 -37.55625 
L 359.342423 -37.55625 
L 360.037635 -37.55625 
L 360.732846 -37.55625 
L 361.428058 -37.55625 
L 362.12327 -37.55625 
L 362.12327 -38.124507 
L 362.12327 -38.124507 
L 361.428058 -38.402119 
L 360.732846 -38.794893 
L 360.037635 -39.340621 
L 359.342423 -40.085154 
L 358.647212 -41.082406 
L 357.952 -42.393599 
L 357.256788 -44.085548 
L 356.561577 -46.227803 
L 355.866365 -48.888561 
L 355.171154 -52.129407 
L 354.475942 -55.999053 
L 353.78073 -60.526506 
L 353.085519 -65.7142 
L 352.390307 -71.53182 
L 351.695096 -77.911625 
L 350.999884 -84.746043 
L 350.304673 -91.888198 
L 349.609461 -99.155822 
L 348.914249 -106.338607 
L 348.219038 -113.208739 
L 347.523826 -119.533874 
L 346.828615 -125.091545 
L 346.133403 -129.683662 
L 345.438191 -133.149754 
L 344.74298 -135.377626 
L 344.047768 -136.310391 
L 343.352557 -135.949207 
L 342.657345 -134.351548 
L 341.962133 -131.62529 
L 341.266922 -127.919369 
L 340.57171 -123.412058 
L 339.876499 -118.298103 
L 339.181287 -112.775958 
L 338.486075 -107.036234 
L 337.790864 -101.252193 
L 337.095652 -95.572835 
L 336.400441 -90.118759 
L 335.705229 -84.980681 
L 335.010017 -80.220257 
L 334.314806 -75.872689 
L 333.619594 -71.950546 
L 332.924383 -68.448211 
L 332.229171 -65.346463 
L 331.533959 -62.616808 
L 330.838748 -60.22527 
L 330.143536 -58.135517 
L 329.448325 -56.311251 
L 328.753113 -54.717904 
L 328.057901 -53.323726 
L 327.36269 -52.100359 
L 326.667478 -51.023037 
L 325.972267 -50.070499 
L 325.277055 -49.224736 
L 324.581843 -48.470638 
L 323.886632 -47.7956 
L 323.19142 -47.18913 
L 322.496209 -46.642483 
L 321.800997 -46.148342 
L 321.105786 -45.700531 
L 320.410574 -45.293782 
L 319.715362 -44.923541 
L 319.020151 -44.585813 
L 318.324939 -44.27703 
L 317.629728 -43.993962 
L 316.934516 -43.733642 
L 316.239304 -43.493313 
L 315.544093 -43.270406 
L 314.848881 -43.062519 
L 314.15367 -42.867418 
L 313.458458 -42.68305 
L 312.763246 -42.507555 
L 312.068035 -42.339284 
L 311.372823 -42.176824 
L 310.677612 -42.019006 
L 309.9824 -41.864923 
L 309.287188 -41.713934 
L 308.591977 -41.565662 
L 307.896765 -41.419988 
L 307.201554 -41.277038 
L 306.506342 -41.137159 
L 305.81113 -41.000889 
L 305.115919 -40.868928 
L 304.420707 -40.742092 
L 303.725496 -40.621266 
L 303.030284 -40.507361 
L 302.335072 -40.401255 
L 301.639861 -40.303742 
L 300.944649 -40.215492 
L 300.249438 -40.137003 
L 299.554226 -40.06857 
L 298.859014 -40.01027 
L 298.163803 -39.961951 
L 297.468591 -39.923239 
L 296.77338 -39.893561 
L 296.078168 -39.872172 
L 295.382956 -39.858193 
L 294.687745 -39.85066 
L 293.992533 -39.848562 
L 293.297322 -39.850894 
L 292.60211 -39.856688 
L 291.906899 -39.865058 
L 291.211687 -39.875217 
L 290.516475 -39.886505 
L 289.821264 -39.898391 
L 289.126052 -39.91048 
L 288.430841 -39.922505 
L 287.735629 -39.934309 
L 287.040417 -39.945821 
L 286.345206 -39.957031 
L 285.649994 -39.967948 
L 284.954783 -39.978567 
L 284.259571 -39.988832 
L 283.564359 -39.998607 
L 282.869148 -40.007648 
L 282.173936 -40.015596 
L 281.478725 -40.021983 
L 280.783513 -40.026244 
L 280.088301 -40.027758 
L 279.39309 -40.025888 
L 278.697878 -40.020043 
L 278.002667 -40.00973 
L 277.307455 -39.994617 
L 276.612243 -39.97458 
L 275.917032 -39.949741 
L 275.22182 -39.920491 
L 274.526609 -39.887484 
L 273.831397 -39.851617 
L 273.136185 -39.813984 
L 272.440974 -39.77581 
L 271.745762 -39.738371 
L 271.050551 -39.702903 
L 270.355339 -39.670514 
L 269.660127 -39.642101 
L 268.964916 -39.618286 
L 268.269704 -39.599379 
L 267.574493 -39.58537 
L 266.879281 -39.575955 
L 266.184069 -39.570599 
L 265.488858 -39.568615 
L 264.793646 -39.569277 
L 264.098435 -39.571931 
L 263.403223 -39.576104 
L 262.708012 -39.581598 
L 262.0128 -39.588563 
L 261.317588 -39.597531 
L 260.622377 -39.609423 
L 259.927165 -39.625525 
L 259.231954 -39.647434 
L 258.536742 -39.676989 
L 257.84153 -39.716197 
L 257.146319 -39.767159 
L 256.451107 -39.831997 
L 255.755896 -39.912799 
L 255.060684 -40.011567 
L 254.365472 -40.130162 
L 253.670261 -40.270245 
L 252.975049 -40.433196 
L 252.279838 -40.619998 
L 251.584626 -40.831087 
L 250.889414 -41.066169 
L 250.194203 -41.324002 
L 249.498991 -41.602173 
L 248.80378 -41.896892 
L 248.108568 -42.202837 
L 247.413356 -42.513087 
L 246.718145 -42.819171 
L 246.022933 -43.111275 
L 245.327722 -43.37859 
L 244.63251 -43.609834 
L 243.937298 -43.79388 
L 243.242087 -43.92048 
L 242.546875 -43.981001 
L 241.851664 -43.969115 
L 241.156452 -43.881361 
L 240.46124 -43.717518 
L 239.766029 -43.480746 
L 239.070817 -43.177471 
L 238.375606 -42.817007 
L 237.680394 -42.410968 
L 236.985182 -41.972511 
L 236.289971 -41.515492 
L 235.594759 -41.053611 
L 234.899548 -40.599625 
L 234.204336 -40.164702 
L 233.509125 -39.757942 
L 232.813913 -39.38611 
L 232.118701 -39.053569 
L 231.42349 -38.762396 
L 230.728278 -38.512635 
L 230.033067 -38.302658 
L 229.337855 -38.129568 
L 228.642643 -37.989624 
L 227.947432 -37.878615 
L 227.25222 -37.792205 
L 226.557009 -37.726186 
L 225.861797 -37.676668 
L 225.166585 -37.640203 
L 224.471374 -37.613833 
L 223.776162 -37.595106 
z
" style="stroke: #ff7f0e"/>
    </defs>
    <g clip-path="url(#p9b0761e6ae)">
     <use xlink:href="#m81b4e0552f" x="0" y="199.98825" style="fill: #ff7f0e; fill-opacity: 0.6; stroke: #ff7f0e"/>
    </g>
   </g>
   <g id="matplotlib.axis_3">
    <g id="xtick_4">
     <g id="line2d_9">
      <g>
       <use xlink:href="#m7d79dbb887" x="238.9117" y="162.432" style="stroke: #000000; stroke-width: 0.8"/>
      </g>
     </g>
     <g id="text_13">
      <!-- 0.0 -->
      <g transform="translate(230.960137 177.030437) scale(0.1 -0.1)">
       <use xlink:href="#DejaVuSans-30"/>
       <use xlink:href="#DejaVuSans-2e" x="63.623047"/>
       <use xlink:href="#DejaVuSans-30" x="95.410156"/>
      </g>
     </g>
    </g>
    <g id="xtick_5">
     <g id="line2d_10">
      <g>
       <use xlink:href="#m7d79dbb887" x="297.74069" y="162.432" style="stroke: #000000; stroke-width: 0.8"/>
      </g>
     </g>
     <g id="text_14">
      <!-- 0.5 -->
      <g transform="translate(289.789127 177.030437) scale(0.1 -0.1)">
       <use xlink:href="#DejaVuSans-30"/>
       <use xlink:href="#DejaVuSans-2e" x="63.623047"/>
       <use xlink:href="#DejaVuSans-35" x="95.410156"/>
      </g>
     </g>
    </g>
    <g id="xtick_6">
     <g id="line2d_11">
      <g>
       <use xlink:href="#m7d79dbb887" x="356.56968" y="162.432" style="stroke: #000000; stroke-width: 0.8"/>
      </g>
     </g>
     <g id="text_15">
      <!-- 1.0 -->
      <g transform="translate(348.618117 177.030437) scale(0.1 -0.1)">
       <use xlink:href="#DejaVuSans-31"/>
       <use xlink:href="#DejaVuSans-2e" x="63.623047"/>
       <use xlink:href="#DejaVuSans-30" x="95.410156"/>
      </g>
     </g>
    </g>
    <g id="text_16">
     <!-- Predicted probability -->
     <g transform="translate(241.21456 190.708562) scale(0.1 -0.1)">
      <defs>
       <path id="DejaVuSans-72" d="M 2631 2963 
Q 2534 3019 2420 3045 
Q 2306 3072 2169 3072 
Q 1681 3072 1420 2755 
Q 1159 2438 1159 1844 
L 1159 0 
L 581 0 
L 581 3500 
L 1159 3500 
L 1159 2956 
Q 1341 3275 1631 3429 
Q 1922 3584 2338 3584 
Q 2397 3584 2469 3576 
Q 2541 3569 2628 3553 
L 2631 2963 
z
" transform="scale(0.015625)"/>
       <path id="DejaVuSans-64" d="M 2906 2969 
L 2906 4863 
L 3481 4863 
L 3481 0 
L 2906 0 
L 2906 525 
Q 2725 213 2448 61 
Q 2172 -91 1784 -91 
Q 1150 -91 751 415 
Q 353 922 353 1747 
Q 353 2572 751 3078 
Q 1150 3584 1784 3584 
Q 2172 3584 2448 3432 
Q 2725 3281 2906 2969 
z
M 947 1747 
Q 947 1113 1208 752 
Q 1469 391 1925 391 
Q 2381 391 2643 752 
Q 2906 1113 2906 1747 
Q 2906 2381 2643 2742 
Q 2381 3103 1925 3103 
Q 1469 3103 1208 2742 
Q 947 2381 947 1747 
z
" transform="scale(0.015625)"/>
       <path id="DejaVuSans-20" transform="scale(0.015625)"/>
       <path id="DejaVuSans-70" d="M 1159 525 
L 1159 -1331 
L 581 -1331 
L 581 3500 
L 1159 3500 
L 1159 2969 
Q 1341 3281 1617 3432 
Q 1894 3584 2278 3584 
Q 2916 3584 3314 3078 
Q 3713 2572 3713 1747 
Q 3713 922 3314 415 
Q 2916 -91 2278 -91 
Q 1894 -91 1617 61 
Q 1341 213 1159 525 
z
M 3116 1747 
Q 3116 2381 2855 2742 
Q 2594 3103 2138 3103 
Q 1681 3103 1420 2742 
Q 1159 2381 1159 1747 
Q 1159 1113 1420 752 
Q 1681 391 2138 391 
Q 2594 391 2855 752 
Q 3116 1113 3116 1747 
z
" transform="scale(0.015625)"/>
       <path id="DejaVuSans-62" d="M 3116 1747 
Q 3116 2381 2855 2742 
Q 2594 3103 2138 3103 
Q 1681 3103 1420 2742 
Q 1159 2381 1159 1747 
Q 1159 1113 1420 752 
Q 1681 391 2138 391 
Q 2594 391 2855 752 
Q 3116 1113 3116 1747 
z
M 1159 2969 
Q 1341 3281 1617 3432 
Q 1894 3584 2278 3584 
Q 2916 3584 3314 3078 
Q 3713 2572 3713 1747 
Q 3713 922 3314 415 
Q 2916 -91 2278 -91 
Q 1894 -91 1617 61 
Q 1341 213 1159 525 
L 1159 0 
L 581 0 
L 581 4863 
L 1159 4863 
L 1159 2969 
z
" transform="scale(0.015625)"/>
       <path id="DejaVuSans-6c" d="M 603 4863 
L 1178 4863 
L 1178 0 
L 603 0 
L 603 4863 
z
" transform="scale(0.015625)"/>
      </defs>
      <use xlink:href="#DejaVuSans-50"/>
      <use xlink:href="#DejaVuSans-72" x="58.552734"/>
      <use xlink:href="#DejaVuSans-65" x="97.416016"/>
      <use xlink:href="#DejaVuSans-64" x="158.939453"/>
      <use xlink:href="#DejaVuSans-69" x="222.416016"/>
      <use xlink:href="#DejaVuSans-63" x="250.199219"/>
      <use xlink:href="#DejaVuSans-74" x="305.179688"/>
      <use xlink:href="#DejaVuSans-65" x="344.388672"/>
      <use xlink:href="#DejaVuSans-64" x="405.912109"/>
      <use xlink:href="#DejaVuSans-20" x="469.388672"/>
      <use xlink:href="#DejaVuSans-70" x="501.175781"/>
      <use xlink:href="#DejaVuSans-72" x="564.652344"/>
      <use xlink:href="#DejaVuSans-6f" x="603.515625"/>
      <use xlink:href="#DejaVuSans-62" x="664.697266"/>
      <use xlink:href="#DejaVuSans-61" x="728.173828"/>
      <use xlink:href="#DejaVuSans-62" x="789.453125"/>
      <use xlink:href="#DejaVuSans-69" x="852.929688"/>
      <use xlink:href="#DejaVuSans-6c" x="880.712891"/>
      <use xlink:href="#DejaVuSans-69" x="908.496094"/>
      <use xlink:href="#DejaVuSans-74" x="936.279297"/>
      <use xlink:href="#DejaVuSans-79" x="975.488281"/>
     </g>
    </g>
   </g>
   <g id="matplotlib.axis_4">
    <g id="ytick_6">
     <g id="line2d_12">
      <g>
       <use xlink:href="#m8bdd722b09" x="216.858807" y="162.432" style="stroke: #000000; stroke-width: 0.8"/>
      </g>
     </g>
    </g>
    <g id="ytick_7">
     <g id="line2d_13">
      <g>
       <use xlink:href="#m8bdd722b09" x="216.858807" y="129.171858" style="stroke: #000000; stroke-width: 0.8"/>
      </g>
     </g>
    </g>
    <g id="ytick_8">
     <g id="line2d_14">
      <g>
       <use xlink:href="#m8bdd722b09" x="216.858807" y="95.911715" style="stroke: #000000; stroke-width: 0.8"/>
      </g>
     </g>
    </g>
    <g id="ytick_9">
     <g id="line2d_15">
      <g>
       <use xlink:href="#m8bdd722b09" x="216.858807" y="62.651573" style="stroke: #000000; stroke-width: 0.8"/>
      </g>
     </g>
    </g>
    <g id="ytick_10">
     <g id="line2d_16">
      <g>
       <use xlink:href="#m8bdd722b09" x="216.858807" y="29.39143" style="stroke: #000000; stroke-width: 0.8"/>
      </g>
     </g>
    </g>
   </g>
   <g id="patch_11">
    <path d="M 216.858807 162.432 
L 216.858807 7.2 
" style="fill: none; stroke: #000000; stroke-width: 0.8; stroke-linejoin: miter; stroke-linecap: square"/>
   </g>
   <g id="patch_12">
    <path d="M 369.040625 162.432 
L 369.040625 7.2 
" style="fill: none; stroke: #000000; stroke-width: 0.8; stroke-linejoin: miter; stroke-linecap: square"/>
   </g>
   <g id="patch_13">
    <path d="M 216.858807 162.432 
L 369.040625 162.432 
" style="fill: none; stroke: #000000; stroke-width: 0.8; stroke-linejoin: miter; stroke-linecap: square"/>
   </g>
   <g id="patch_14">
    <path d="M 216.858807 7.2 
L 369.040625 7.2 
" style="fill: none; stroke: #000000; stroke-width: 0.8; stroke-linejoin: miter; stroke-linecap: square"/>
   </g>
  </g>
 </g>
 <defs>
  <clipPath id="p8c5758e377">
   <rect x="34.240625" y="7.2" width="152.181818" height="155.232"/>
  </clipPath>
  <clipPath id="p9b0761e6ae">
   <rect x="216.858807" y="7.2" width="152.181818" height="155.232"/>
  </clipPath>
 </defs>
</svg>
